<?xml version="1.0" encoding="iso-8859-1"?>
<!-- Generator: Adobe Illustrator 21.0.0, SVG Export Plug-In . SVG Version: 6.00 Build 0)  -->
<svg version="1.1" id="Capa_1" xmlns="http://www.w3.org/2000/svg" xmlns:xlink="http://www.w3.org/1999/xlink" x="0px" y="0px"
	 viewBox="0 0 512 512" style="enable-background:new 0 0 512 512;" xml:space="preserve">
<g>
	<g>
		<g>
			<path d="M494.123,230.4h-0.657C481.05,118.936,393.064,30.95,281.6,18.534V17.92c0-9.88-7.997-17.896-17.877-17.92H248.32
				c-9.897,0-17.92,8.023-17.92,17.92v0.657C118.951,30.989,30.969,118.953,18.534,230.4H17.92C8.023,230.4,0,238.423,0,248.32
				v15.445c0.047,9.864,8.056,17.835,17.92,17.835h0.657C30.989,393.049,118.953,481.031,230.4,493.466v0.657
				c0.023,9.88,8.04,17.877,17.92,17.877h15.445c9.847-0.047,17.811-8.03,17.835-17.877v-0.657
				C393.064,481.05,481.05,393.064,493.466,281.6h0.657c9.864-0.023,17.854-8.014,17.877-17.877V248.32
				C512,238.44,504.003,230.424,494.123,230.4z M281.6,35.891C383.548,48.084,463.916,128.452,476.109,230.4h-17.135
				C447.498,137.607,374.393,64.502,281.6,53.026V35.891z M247.7,17.3c0.163-0.163,0.389-0.248,0.62-0.233h15.445
				c0.216,0.009,0.419,0.104,0.564,0.265c0.145,0.161,0.218,0.373,0.204,0.588v83.712c0.014,0.223-0.065,0.442-0.219,0.604
				c-0.154,0.162-0.368,0.252-0.592,0.25H248.32c-0.223,0.003-0.438-0.088-0.592-0.25c-0.154-0.162-0.233-0.381-0.219-0.604
				l-0.043-83.712C247.451,17.689,247.536,17.463,247.7,17.3z M230.4,35.891v17.135C137.607,64.502,64.502,137.607,53.026,230.4
				H35.891C48.084,128.452,128.452,48.084,230.4,35.891z M17.92,264.533c-0.223,0.014-0.442-0.065-0.604-0.219
				c-0.162-0.154-0.252-0.368-0.25-0.592V248.32c-0.015-0.231,0.07-0.457,0.233-0.62c0.163-0.164,0.389-0.248,0.62-0.233h83.712
				c0.223-0.014,0.442,0.065,0.604,0.219c0.162,0.154,0.252,0.368,0.25,0.592v15.445c0.003,0.223-0.088,0.438-0.25,0.592
				c-0.162,0.154-0.381,0.233-0.604,0.219H17.92z M230.4,476.109C128.452,463.916,48.084,383.548,35.891,281.6h17.135
				c11.476,92.793,84.58,165.898,177.374,177.374V476.109z M264.533,494.123c0.002,0.216-0.082,0.423-0.235,0.576
				c-0.153,0.153-0.36,0.237-0.576,0.235H248.32c-0.223,0.014-0.442-0.065-0.604-0.219c-0.162-0.154-0.252-0.368-0.25-0.592v-83.669
				c-0.015-0.231,0.07-0.457,0.233-0.62c0.163-0.164,0.389-0.248,0.62-0.233h15.445c0.216,0.009,0.419,0.104,0.564,0.265
				c0.145,0.161,0.218,0.373,0.204,0.589V494.123z M263.723,392.533H248.32c-9.897,0-17.92,8.023-17.92,17.92v31.369
				C147.03,430.557,81.464,364.973,70.221,281.6h31.369c9.864-0.023,17.854-8.014,17.877-17.877V248.32
				c0-9.88-7.997-17.896-17.877-17.92H70.221C81.482,147.043,147.043,81.482,230.4,70.221v31.369
				c0.023,9.88,8.04,17.877,17.92,17.877h15.445c9.847-0.047,17.811-8.03,17.835-17.877V70.221
				c83.357,11.261,148.918,76.823,160.179,160.179h-31.326c-9.897,0-17.92,8.023-17.92,17.92v15.445
				c0.047,9.864,8.056,17.835,17.92,17.835h31.317c-11.26,83.354-76.817,148.915-160.171,160.179v-31.326
				C281.6,400.573,273.603,392.557,263.723,392.533z M281.6,476.109v-17.135c92.793-11.476,165.898-84.58,177.374-177.374h17.135
				C463.916,383.548,383.548,463.916,281.6,476.109z M494.933,263.723c0.002,0.216-0.082,0.423-0.235,0.576
				c-0.153,0.153-0.36,0.237-0.576,0.235h-83.669c-0.223,0.014-0.442-0.065-0.604-0.219s-0.252-0.368-0.25-0.592V248.32
				c-0.015-0.231,0.07-0.457,0.233-0.62c0.163-0.164,0.389-0.248,0.62-0.233h83.712c0.216,0.009,0.419,0.104,0.564,0.265
				s0.218,0.373,0.204,0.588V263.723z"/>
			<path d="M312.482,317.995l28.237,9.387c4.23,1.41,6.661,5.838,5.581,10.163l-4.702,18.773c-1.145,4.571,1.632,9.206,6.204,10.351
				c0.675,0.174,1.368,0.263,2.065,0.265c3.911-0.004,7.318-2.666,8.269-6.46l4.702-18.773c3.185-12.966-4.085-26.213-16.734-30.49
				l-30.498-10.163c0-0.785,0.119-1.553,0.119-2.347V281.6h34.133c4.713,0,8.533-3.821,8.533-8.533c0-4.713-3.82-8.533-8.533-8.533
				h-34.125v-19.447l30.37-10.129c12.656-4.273,19.932-17.526,16.742-30.498l-4.702-18.773c-0.723-2.977-2.986-5.337-5.93-6.185
				c-2.943-0.848-6.116-0.053-8.312,2.082c-2.196,2.136-3.079,5.284-2.313,8.25l4.702,18.773c1.085,4.328-1.347,8.762-5.581,10.172
				l-24.977,8.311v-13.756c-0.01-17.063-7.34-33.302-20.13-44.595l17.63-17.638c3.234-3.348,3.188-8.671-0.104-11.962
				c-3.292-3.292-8.614-3.338-11.962-0.104l-20.139,20.139c-15.858-7.43-34.198-7.43-50.057,0l-20.139-20.139
				c-3.348-3.234-8.671-3.188-11.962,0.104c-3.292,3.292-3.338,8.614-0.104,11.962l17.63,17.638
				c-12.79,11.294-20.12,27.532-20.13,44.595v13.756l-24.977-8.32c-4.23-1.41-6.661-5.838-5.581-10.163l4.702-18.773
				c1.107-4.556-1.67-9.153-6.218-10.292c-4.549-1.139-9.164,1.605-10.336,6.145l-4.702,18.773
				c-3.185,12.966,4.085,26.213,16.734,30.49l30.379,10.138v19.447h-34.133c-4.713,0-8.533,3.821-8.533,8.533
				c0,4.713,3.82,8.533,8.533,8.533h34.133v17.067c0,0.794,0.085,1.562,0.12,2.347l-30.49,10.163
				c-12.656,4.273-19.932,17.526-16.742,30.498l4.702,18.773c0.941,3.807,4.356,6.482,8.277,6.485
				c0.702,0.003,1.402-0.083,2.082-0.256c4.571-1.145,7.349-5.78,6.204-10.351l-4.702-18.773c-1.085-4.328,1.347-8.762,5.581-10.172
				l28.237-9.387c8.222,24.184,30.93,40.449,56.474,40.449C281.552,358.443,304.26,342.179,312.482,317.995z M256,170.624
				c20.291,0,37.775,14.291,41.813,34.176h-83.627C218.225,184.915,235.709,170.624,256,170.624z M264.533,340.48v-75.947
				c0-4.713-3.82-8.533-8.533-8.533s-8.533,3.82-8.533,8.533v75.947c-19.852-4.083-34.108-21.546-34.133-41.813v-76.8h85.333v76.8
				C298.641,318.934,284.385,336.397,264.533,340.48z"/>
		</g>
	</g>
</g>
<g>
</g>
<g>
</g>
<g>
</g>
<g>
</g>
<g>
</g>
<g>
</g>
<g>
</g>
<g>
</g>
<g>
</g>
<g>
</g>
<g>
</g>
<g>
</g>
<g>
</g>
<g>
</g>
<g>
</g>
</svg>
