<?xml version="1.0" encoding="iso-8859-1"?>
<!-- Generator: Adobe Illustrator 21.0.0, SVG Export Plug-In . SVG Version: 6.00 Build 0)  -->
<svg version="1.1" id="Capa_1" xmlns="http://www.w3.org/2000/svg" xmlns:xlink="http://www.w3.org/1999/xlink" x="0px" y="0px"
	 viewBox="0 0 512.052 512.052" style="enable-background:new 0 0 512.052 512.052;" xml:space="preserve">
<g>
	<g>
		<g>
			<path d="M341.359,68.267h17.067c4.713,0,8.533-3.82,8.533-8.533s-3.82-8.533-8.533-8.533h-17.067
				c-4.713,0-8.533,3.82-8.533,8.533S336.646,68.267,341.359,68.267z"/>
			<path d="M290.159,68.267h17.067c4.713,0,8.533-3.82,8.533-8.533s-3.82-8.533-8.533-8.533h-17.067
				c-4.713,0-8.533,3.82-8.533,8.533S285.446,68.267,290.159,68.267z"/>
			<path d="M76.826,85.333c14.138,0,25.6-11.461,25.6-25.6s-11.462-25.6-25.6-25.6s-25.6,11.461-25.6,25.6
				S62.687,85.333,76.826,85.333z M76.826,51.2c4.713,0,8.533,3.82,8.533,8.533s-3.82,8.533-8.533,8.533s-8.533-3.82-8.533-8.533
				S72.113,51.2,76.826,51.2z"/>
			<path d="M341.359,170.667h17.067c4.713,0,8.533-3.82,8.533-8.533s-3.82-8.533-8.533-8.533h-17.067
				c-4.713,0-8.533,3.82-8.533,8.533S336.646,170.667,341.359,170.667z"/>
			<path d="M76.826,136.533c-14.138,0-25.6,11.462-25.6,25.6s11.461,25.6,25.6,25.6s25.6-11.461,25.6-25.6
				S90.964,136.533,76.826,136.533z M76.826,170.667c-4.713,0-8.533-3.82-8.533-8.533s3.82-8.533,8.533-8.533
				s8.533,3.82,8.533,8.533S81.539,170.667,76.826,170.667z"/>
			<path d="M371.089,323.157l71.552-71.543l41.66-29.798c0.842-0.598,1.565-1.348,2.133-2.21l24.158-36.181
				c2.257-3.385,1.811-7.893-1.067-10.769l-24.149-24.149c-2.876-2.877-7.384-3.324-10.769-1.067l-36.181,24.149
				c-0.858,0.571-1.604,1.294-2.202,2.133l-29.807,41.677l-5.888,5.888c-2.371-3.01-5.138-5.685-8.226-7.953
				c10.856-7.99,17.283-20.654,17.323-34.133v-34.133c-0.038-13.482-6.469-26.147-17.331-34.133
				c10.863-7.986,17.293-20.651,17.331-34.133V42.667C409.598,19.114,390.512,0.028,366.959,0H42.692
				C19.14,0.028,0.054,19.114,0.026,42.667V76.8c0.038,13.482,6.469,26.147,17.331,34.133
				c-10.863,7.986-17.293,20.651-17.331,34.133V179.2c0.038,13.482,6.469,26.147,17.331,34.133
				c-10.863,7.986-17.293,20.651-17.331,34.133V281.6c0.028,23.552,19.114,42.638,42.667,42.667h128c4.713,0,8.533-3.82,8.533-8.533
				s-3.82-8.533-8.533-8.533h-128c-14.138,0-25.6-11.462-25.6-25.6v-34.133c0-14.138,11.462-25.6,25.6-25.6h110.174
				c-2.596,25.981,8.164,51.505,28.575,67.787c20.412,16.282,47.689,21.099,72.442,12.794l14.652,14.652l-1.399,1.408
				c-4.817,4.789-7.518,11.306-7.501,18.099v12.066c0,4.713-3.82,8.533-8.533,8.533h-12.066c-6.795-0.017-13.315,2.684-18.108,7.501
				l-67.413,67.413c-9.994,9.997-9.994,26.202,0,36.198l36.198,36.207c4.801,4.802,11.313,7.5,18.103,7.5s13.302-2.698,18.103-7.5
				l67.413-67.413c4.813-4.791,7.511-11.308,7.492-18.099v-12.075c0-4.713,3.821-8.533,8.533-8.533h12.075
				c6.791,0.017,13.307-2.681,18.099-7.492l1.399-1.408l111.787,111.787c6.769,6.84,15.977,10.71,25.6,10.76
				c8.281,0.042,16.281-3,22.443-8.533c6.944-6.276,11.005-15.129,11.235-24.486c0.229-9.357-3.395-18.398-10.023-25.007
				L371.089,323.157z M17.092,76.8V42.667c0-14.138,11.462-25.6,25.6-25.6h324.267c14.138,0,25.6,11.462,25.6,25.6V76.8
				c0,14.138-11.461,25.6-25.6,25.6H42.692C28.554,102.4,17.092,90.938,17.092,76.8z M164.796,194.645
				c-2.784,0.545-5.116,2.438-6.221,5.052c-0.708,1.707-1.143,3.413-1.707,5.12H42.692c-6.793,0-13.307-2.699-18.108-7.504
				c-4.801-4.805-7.497-11.32-7.492-18.113v-34.133c0-14.138,11.462-25.6,25.6-25.6h324.267c14.138,0,25.6,11.461,25.6,25.6V179.2
				c0,14.138-11.461,25.6-25.6,25.6h-65.033c-6.837-20.2-21.787-36.636-41.251-45.351c-19.464-8.715-41.68-8.921-61.303-0.567
				c-2.613,1.104-4.506,3.435-5.052,6.218c-0.546,2.784,0.327,5.656,2.33,7.665l33.826,33.911c3.224,3.178,5.04,7.517,5.04,12.045
				c0,4.528-1.815,8.866-5.04,12.045c-6.74,6.47-17.384,6.47-24.124,0l-33.877-33.792
				C170.458,194.977,167.584,194.105,164.796,194.645z M305.758,221.867h61.201c8.622,0.048,16.64,4.432,21.333,11.665l-0.008,0.026
				l-53.41,53.385l-32.768-32.742C305.613,243.805,306.858,232.781,305.758,221.867z M262.059,286.456
				c-2.46-2.442-6.153-3.154-9.344-1.801c-19.731,8.375-42.436,5.536-59.498-7.44c-17.061-12.975-25.862-34.098-23.062-55.349h3.098
				l21.018,20.966c8.572,8.872,21.263,12.428,33.197,9.302c11.933-3.126,21.252-12.447,24.373-24.382
				c3.122-11.935-0.439-24.625-9.314-33.193l-23.74-23.799c21.608-3.865,43.597,4.421,57.281,21.585
				c13.684,17.164,16.863,40.446,8.281,60.65c-1.347,3.196-0.625,6.89,1.826,9.344l36.634,36.634l-8.192,8.192h-10.052
				c-7.015-3.848-15.425-4.195-22.733-0.939L262.059,286.456z M334.464,371.721l-7.066,7.074c-1.574,1.597-3.714,2.511-5.956,2.543
				h-12.075c-14.138,0-25.6,11.461-25.6,25.6v12.049c0,2.263-0.9,4.433-2.5,6.033l-67.413,67.413c-3.332,3.331-8.734,3.331-12.066,0
				l-36.215-36.181c-3.331-3.332-3.331-8.734,0-12.066l67.413-67.413c1.595-1.608,3.768-2.509,6.033-2.5h12.066
				c6.79,0,13.301-2.697,18.102-7.498c4.801-4.801,7.498-11.312,7.498-18.102v-12.066c-0.006-2.264,0.894-4.437,2.5-6.033
				l7.066-7.066c3.332-3.331,8.734-3.331,12.066,0l5.973,5.973v0.051l24.149,24.149h0.051l5.973,5.973
				C337.795,362.987,337.795,368.388,334.464,371.721z M334.532,335.573l-12.083-12.083l96.563-96.503
				c0.143-0.188,0.275-0.384,0.393-0.589c0.154-0.188,0.375-0.282,0.521-0.478l29.269-41.003l29.065-19.371l14.251,14.251
				l-19.405,29.065l-40.96,29.303c-0.205,0.145-0.299,0.358-0.486,0.512c-0.188,0.154-0.41,0.222-0.589,0.393l-78.072,78.071
				L334.532,335.573z M489.336,490.897c-7.353,5.926-18.026,5.205-24.516-1.655L351.787,376.218
				c4.367-9.678,2.306-21.048-5.18-28.578l12.416-12.416L489.95,466.15c3.31,3.274,5.123,7.77,5.009,12.425
				C494.864,483.282,492.829,487.741,489.336,490.897z"/>
			<path d="M51.226,264.533c0,14.138,11.461,25.6,25.6,25.6s25.6-11.462,25.6-25.6s-11.462-25.6-25.6-25.6
				S51.226,250.395,51.226,264.533z M85.359,264.533c0,4.713-3.82,8.533-8.533,8.533s-8.533-3.82-8.533-8.533S72.113,256,76.826,256
				S85.359,259.82,85.359,264.533z"/>
		</g>
	</g>
</g>
<g>
</g>
<g>
</g>
<g>
</g>
<g>
</g>
<g>
</g>
<g>
</g>
<g>
</g>
<g>
</g>
<g>
</g>
<g>
</g>
<g>
</g>
<g>
</g>
<g>
</g>
<g>
</g>
<g>
</g>
</svg>
