<?xml version="1.0" encoding="iso-8859-1"?>
<!-- Generator: Adobe Illustrator 21.0.0, SVG Export Plug-In . SVG Version: 6.00 Build 0)  -->
<svg version="1.1" id="Capa_1" xmlns="http://www.w3.org/2000/svg" xmlns:xlink="http://www.w3.org/1999/xlink" x="0px" y="0px"
	 viewBox="0 0 512.069 512.069" style="enable-background:new 0 0 512.069 512.069;" xml:space="preserve">
<g transform="translate(0 -1)">
	<g>
		<g>
			<path d="M503.471,470.411h-25.6c-4.713,0-8.533,3.82-8.533,8.533s3.82,8.533,8.533,8.533h25.6c4.713,0,8.533-3.82,8.533-8.533
				S508.184,470.411,503.471,470.411z"/>
			<path d="M119.471,231.477h68.267c4.713,0,8.533-3.82,8.533-8.533s-3.82-8.533-8.533-8.533h-68.267
				c-4.713,0-8.533,3.82-8.533,8.533S114.758,231.477,119.471,231.477z"/>
			<path d="M119.471,265.611h68.267c4.713,0,8.533-3.82,8.533-8.533c0-4.713-3.82-8.533-8.533-8.533h-68.267
				c-4.713,0-8.533,3.82-8.533,8.533C110.938,261.79,114.758,265.611,119.471,265.611z"/>
			<path d="M187.738,282.677h-68.267c-4.713,0-8.533,3.82-8.533,8.533s3.82,8.533,8.533,8.533h68.267
				c4.713,0,8.533-3.82,8.533-8.533S192.451,282.677,187.738,282.677z"/>
			<path d="M153.604,316.811c-18.851,0-34.133,15.282-34.133,34.133c0,18.851,15.282,34.133,34.133,34.133
				s34.133-15.282,34.133-34.133C187.738,332.092,172.456,316.811,153.604,316.811z M153.604,368.011
				c-9.426,0-17.067-7.641-17.067-17.067s7.641-17.067,17.067-17.067c9.426,0,17.067,7.641,17.067,17.067
				S163.03,368.011,153.604,368.011z"/>
			<path d="M392.538,214.411h-68.267c-4.713,0-8.533,3.82-8.533,8.533s3.82,8.533,8.533,8.533h68.267
				c4.713,0,8.533-3.82,8.533-8.533S397.25,214.411,392.538,214.411z"/>
			<path d="M392.538,248.544h-68.267c-4.713,0-8.533,3.82-8.533,8.533c0,4.713,3.82,8.533,8.533,8.533h68.267
				c4.713,0,8.533-3.82,8.533-8.533C401.071,252.364,397.25,248.544,392.538,248.544z"/>
			<path d="M392.538,282.677h-68.267c-4.713,0-8.533,3.82-8.533,8.533s3.82,8.533,8.533,8.533h68.267
				c4.713,0,8.533-3.82,8.533-8.533S397.25,282.677,392.538,282.677z"/>
			<path d="M358.404,316.811c-18.851,0-34.133,15.282-34.133,34.133c0,18.851,15.282,34.133,34.133,34.133
				s34.133-15.282,34.133-34.133C392.538,332.092,377.256,316.811,358.404,316.811z M358.404,368.011
				c-9.426,0-17.067-7.641-17.067-17.067s7.641-17.067,17.067-17.067s17.067,7.641,17.067,17.067S367.83,368.011,358.404,368.011z"
				/>
			<path d="M443.738,470.411h-52.412c-3.122-11.941-12.448-21.266-24.388-24.388v-26.812h34.133
				c18.851,0,34.133-15.282,34.133-34.133V325.89c55.436-21.146,86.935-79.79,73.952-137.684
				c-12.982-57.894-66.507-97.472-125.664-92.921h-0.128C359.919,32.556,296.58-5.973,230.095,2.052S111.257,62.57,103.411,129.077
				c-15.597,0.214-30.909,4.202-44.629,11.622c-36.046,17.186-58.94,53.627-58.778,93.56c1.393,45.593,32.663,84.817,76.8,96.333
				v54.485c0,18.851,15.282,34.133,34.133,34.133h34.133v26.812c-11.941,3.122-21.266,12.447-24.388,24.388H8.538
				c-4.713,0-8.533,3.82-8.533,8.533s3.82,8.533,8.533,8.533h112.145c3.832,15.055,17.387,25.592,32.922,25.592
				c15.534,0,29.09-10.538,32.922-25.592h138.957c3.832,15.055,17.387,25.592,32.922,25.592s29.09-10.538,32.922-25.592h52.412
				c4.713,0,8.533-3.82,8.533-8.533S448.451,470.411,443.738,470.411z M418.138,385.077c0,9.426-7.641,17.067-17.067,17.067h-85.333
				c-9.426,0-17.067-7.641-17.067-17.067V214.411c0-9.426,7.641-17.067,17.067-17.067h85.333c9.426,0,17.067,7.641,17.067,17.067
				V385.077z M76.804,214.411v98.423c-34.669-10.996-58.617-42.682-59.733-79.036c0-33.295,19.211-63.6,49.323-77.807
				c13.32-7.715,28.737-11.024,44.049-9.455c2.298,0.202,4.58-0.535,6.326-2.043s2.807-3.659,2.941-5.962
				c3.648-61.53,50.631-111.721,111.786-119.421s119.113,29.279,137.899,87.984c1.26,3.954,5.182,6.428,9.293,5.862
				c2.031-0.284,4.068-0.503,6.11-0.657c53.157-4.612,100.773,32.813,108.851,85.555c7.413,45.516-16.514,90.372-58.445,109.568
				v-93.013c0-18.851-15.282-34.133-34.133-34.133h-85.333c-18.851,0-34.133,15.282-34.133,34.133v102.4h-51.2v-102.4
				c0-18.851-15.282-34.133-34.133-34.133h-85.333C92.086,180.277,76.804,195.559,76.804,214.411z M110.938,402.144
				c-9.426,0-17.067-7.641-17.067-17.067V214.411c0-9.426,7.641-17.067,17.067-17.067h85.333c9.426,0,17.067,7.641,17.067,17.067
				v170.667c0,9.426-7.641,17.067-17.067,17.067H110.938z M153.604,496.011c-9.426,0-17.067-7.641-17.067-17.067
				s7.641-17.067,17.067-17.067c9.426,0,17.067,7.641,17.067,17.067S163.03,496.011,153.604,496.011z M325.483,470.411H186.526
				c-3.122-11.941-12.447-21.266-24.388-24.388v-26.812h34.133c18.851,0,34.133-15.282,34.133-34.133v-51.2h51.2v51.2
				c0,18.851,15.282,34.133,34.133,34.133h34.133v26.812C337.93,449.145,328.605,458.47,325.483,470.411z M358.404,496.011
				c-9.426,0-17.067-7.641-17.067-17.067s7.641-17.067,17.067-17.067s17.067,7.641,17.067,17.067S367.83,496.011,358.404,496.011z"
				/>
		</g>
	</g>
</g>
<g>
</g>
<g>
</g>
<g>
</g>
<g>
</g>
<g>
</g>
<g>
</g>
<g>
</g>
<g>
</g>
<g>
</g>
<g>
</g>
<g>
</g>
<g>
</g>
<g>
</g>
<g>
</g>
<g>
</g>
</svg>
