<svg xmlns="http://www.w3.org/2000/svg" viewBox="0 0 77 83" width="77" height="83">
	<style>
		tspan { white-space:pre }
		.shp0 { fill: #000000;stroke: #000000;stroke-width: 0.31 } 
		.shp1 { fill: #000000 } 
		.shp2 { fill: #000000;stroke: #ffffff;stroke-linecap:round;stroke-width: 1.009 } 
		.shp3 { fill: none;stroke: #ffffff;stroke-linejoin:bevel;stroke-width: 0.62 } 
		.shp4 { fill: none;stroke: #ffffff;stroke-linecap:round;stroke-width: 1.009 } 
		.shp5 { fill: #ffffff;stroke: #000000;stroke-width: 0.317 } 
		.shp6 { fill: none;stroke: #ffffff;stroke-width: 0.62 } 
		.shp7 { fill: #ffffff;stroke: #20201e;stroke-width: 1.211 } 
		.shp8 { fill: #ffffff;stroke: #20201e;stroke-linejoin:round;stroke-width: 1.211 } 
		.shp9 { fill: #ffffff;stroke: #20201e;stroke-linejoin:bevel;stroke-width: 1.211 } 
		.shp10 { fill: #000000;stroke: #000000;stroke-linejoin:bevel;stroke-width: 0.853 } 
		.shp11 { fill: #000000;stroke: #ffffff;stroke-linecap:round;stroke-width: 0.926 } 
		.shp12 { fill: none;stroke: #ffffff;stroke-linecap:round;stroke-width: 0.926 } 
		.shp13 { fill: #ffffff } 
		.shp14 { fill: #ffffff;stroke: #20201e;stroke-linejoin:bevel;stroke-width: 1.111 } 
		.shp15 { fill: #ffffff;stroke: #20201e;stroke-width: 1.111 } 
		.shp16 { fill: #000000;stroke: #000000;stroke-linecap:square;stroke-width: 0.853 } 
		.shp17 { fill: none;stroke: #ffffff;stroke-linecap:round;stroke-width: 0.853 } 
		.shp18 { fill: #ffffff;stroke: #20201e;stroke-linejoin:round;stroke-width: 1.111 } 
		.shp19 { fill: #ffffff;stroke: #20201e;stroke-linecap:square;stroke-width: 1.111 } 
		.shp20 { fill: #20201e } 
		.shp21 { fill: #ffffff;stroke: #20201e;stroke-width: 1.32 } 
		.shp22 { fill: #000000;stroke: #000000;stroke-width: 0.533 } 
		.shp23 { fill: #ffffff;stroke: #000000;stroke-linejoin:bevel;stroke-width: 1.014 } 
		.shp24 { fill: #000000;stroke: #000000;stroke-linejoin:bevel;stroke-width: 0.533 } 
		.shp25 { fill: none;stroke: #ffffff;stroke-linecap:round;stroke-linejoin:bevel;stroke-width: 0.533 } 
		.shp26 { fill: none;stroke: #ffffff;stroke-linecap:round;stroke-width: 0.533 } 
		.shp27 { fill: #ffffff;stroke: #000000;stroke-width: 0.533 } 
		.shp28 { fill: #ffffff;stroke: #20201e;stroke-linecap:round;stroke-linejoin:round;stroke-width: 1.32 } 
		.shp29 { fill: #ffffff;stroke: #20201e;stroke-linejoin:bevel;stroke-width: 1.32 } 
		.shp30 { fill: #ffffff;stroke: #000000;stroke-width: 1.014 } 
		.shp31 { fill: #ffffff;stroke: #000000;stroke-width: 0.77 } 
		.shp32 { fill: #20201e;stroke: #20201e;stroke-width: 0.853 } 
		.shp33 { fill: none;stroke: #ffffff;stroke-width: 0.853 } 
		.shp34 { fill: none;stroke: #20201e;stroke-width: 0.853 } 
		.shp35 { fill: #000000;stroke: #000000;stroke-linejoin:round;stroke-width: 0.79 } 
		.shp36 { fill: #ffffff;stroke: #000000;stroke-linejoin:round;stroke-width: 1.111 } 
	</style>
	<g id="Layer">
		<g id="Layer">
			<path id="Layer" class="shp0" d="M120.26 28.52C121.61 27.72 122.18 26.65 122.18 25.47C122.18 25.13 122.23 8.89 122.23 8.89L106.13 8.89C106.13 8.89 106.06 25.27 106.06 25.47C106.06 26.66 106.9 27.74 108.27 28.54C107.3 28.68 106.34 28.85 105.39 29.06C106.91 30.03 108.34 31.16 109.67 32.45C111.54 34.28 113.1 36.3 114.32 38.48C115.54 36.3 117.09 34.28 118.97 32.45C120.3 31.16 121.73 30.03 123.25 29.06C122.28 28.85 121.28 28.68 120.28 28.53L120.26 28.52Z" />
			<path id="Layer" class="shp1" d="M135.07 65.43C134.07 63.43 134.05 60.82 134.49 59.06C134.94 57.24 139.24 53.81 139.24 53.81C146.81 46.45 148.54 35.95 143.11 30.36C137.68 24.78 127.14 26.23 119.57 33.59C117.31 35.79 115.57 38.27 114.39 40.82C113.2 38.27 111.47 35.79 109.21 33.59C101.64 26.23 91.1 24.78 85.66 30.36C80.23 35.95 81.97 46.45 89.54 53.81C89.88 54.14 93.65 57.24 94.1 59.06C94.56 60.87 94.62 63.48 93.53 65.5L93.69 65.5C93.67 65.51 93.65 65.52 93.62 65.53C99.89 68.62 106.94 70.36 114.39 70.36C121.84 70.35 128.79 68.51 135.06 65.42" />
			<g id="Layer">
				<path id="Layer" class="shp2" d="M94.72 65.06C100.75 62.25 107.42 60.69 114.51 60.69C121.32 60.69 127.86 62.36 133.69 64.73" />
				<path id="Layer" class="shp2" d="M136.59 53.38C130.31 51.25 122.62 49.99 114.3 49.99C105.92 49.99 98.16 51.27 91.85 53.44" />
			</g>
			<path id="Layer" class="shp3" d="M120.92 10.06L107.41 22.17L120.92 22.17L107.41 10.06L120.92 10.06Z" />
			<path id="Layer" class="shp4" d="M132.66 60.77C126.88 58.74 120.73 57.27 114.35 57.27C107.84 57.27 101.58 58.78 95.7 60.88" />
			<path id="Layer" class="shp5" d="M111.18 53.96L114.35 55.54L117.52 53.96L114.35 52.37L111.18 53.96Z" />
			<path id="Layer" class="shp5" d="M98.23 56.02L101.61 57.07L104.48 55L101.1 53.94L98.23 56.02Z" />
			<path id="Layer" class="shp5" d="M130.48 56.02L127.09 57.07L124.22 55L127.6 53.94L130.48 56.02Z" />
			<path id="Layer" class="shp3" d="M107.41 10.06L120.93 10.06L120.93 22.17L107.41 22.17L107.41 10.06Z" />
			<path id="Layer" class="shp6" d="M114.28 31.89C111.13 31.89 108.58 30.01 108.58 27.68C108.58 25.35 111.13 23.47 114.28 23.47C117.43 23.47 119.98 25.35 119.98 27.68C119.98 30.01 117.43 31.89 114.28 31.89Z" />
			<path id="Layer" class="shp7" d="M122.26 -79.36L106.16 -79.36L106.16 -62.53C106.16 -60.05 109.78 -58.04 114.25 -58.04C118.72 -58.04 122.23 -60.05 122.23 -62.53C122.23 -62.75 122.26 -79.36 122.26 -79.36L122.26 -79.36Z" />
			<path id="Layer" class="shp7" d="M106.16 -79.36L122.26 -79.36L122.26 -64.93L106.16 -64.93L106.16 -79.36Z" />
			<path id="Layer" class="shp7" d="M106.16 -79.36L122.26 -64.93" />
			<path id="Layer" class="shp7" d="M122.26 -79.36L106.16 -64.93" />
			<path id="Layer" class="shp8" d="M135 -22.86C128.74 -25.95 121.93 -27.58 114.47 -27.58C107.01 -27.58 99.88 -25.84 93.62 -22.75C99.88 -19.66 106.89 -17.88 114.35 -17.88C121.81 -17.87 128.74 -19.76 135 -22.85L135 -22.86Z" />
			<path id="Layer" class="shp9" d="M138.13 -33.46C138.49 -33.77 138.85 -34.1 139.2 -34.44C146.77 -41.8 148.5 -52.3 143.07 -57.88C137.63 -63.47 127.1 -62.02 119.53 -54.65C117.26 -52.45 115.53 -49.97 114.34 -47.43C113.16 -49.97 111.42 -52.45 109.16 -54.65C101.59 -62.02 91.05 -63.47 85.62 -57.88C80.19 -52.3 81.92 -41.8 89.49 -34.44C89.84 -34.1 90.2 -33.77 90.56 -33.46C97.1 -35.91 105.36 -37.38 114.35 -37.38C123.33 -37.38 131.59 -35.91 138.12 -33.46L138.13 -33.46Z" />
			<path id="Layer" class="shp7" d="M114.35 -47.42C115.53 -49.96 117.27 -52.44 119.53 -54.64C121.37 -56.44 123.4 -57.88 125.48 -58.95C122.03 -59.92 118.28 -60.46 114.36 -60.46C110.43 -60.46 106.68 -59.92 103.23 -58.95C105.31 -57.88 107.33 -56.44 109.17 -54.64C111.43 -52.44 113.16 -49.96 114.35 -47.42L114.35 -47.42Z" />
			<path id="Layer" class="shp9" d="M138.04 -33.46L138.04 -33.47C131.5 -35.92 123.25 -37.38 114.27 -37.38C105.28 -37.38 97.02 -35.91 90.48 -33.46C90.48 -33.46 93.61 -31 94.07 -29.19C94.52 -27.38 94.72 -24.78 93.63 -22.76C99.89 -25.85 107.02 -27.58 114.48 -27.58C121.79 -27.58 128.84 -25.84 135.01 -22.86C134.01 -24.86 134.01 -27.43 134.45 -29.19C134.9 -30.99 138.04 -33.45 138.04 -33.45L138.04 -33.46Z" />
			<path id="Layer" class="shp9" d="M93.62 -22.75C99.88 -25.84 107.02 -27.57 114.47 -27.57C121.79 -27.57 128.83 -25.84 135 -22.86C134.58 -23.71 134.13 -25.89 134.2 -27.1C128 -29.54 121.33 -30.87 114.37 -30.87C107.34 -30.87 100.6 -29.51 94.33 -27.02C94.41 -24.77 94.09 -23.64 93.62 -22.76L93.62 -22.75Z" />
			<path id="Layer" class="shp1" d="M111.29 -34.04L114.39 -32.49L117.48 -34.04L114.39 -35.59L111.29 -34.04Z" />
			<path id="Layer" class="shp1" d="M98.62 -32.02L101.92 -30.99L104.73 -33.02L101.43 -34.05L98.62 -32.02Z" />
			<path id="Layer" class="shp1" d="M130.15 -32.02L126.85 -30.99L124.04 -33.02L127.34 -34.05L130.15 -32.02Z" />
			<path id="Layer" class="shp7" d="M114.35 -56.02C111.2 -56.02 108.65 -57.9 108.65 -60.23C108.65 -62.56 111.2 -64.44 114.35 -64.44C117.5 -64.44 120.05 -62.56 120.05 -60.23C120.05 -57.9 117.5 -56.02 114.35 -56.02Z" />
			<path id="Layer" class="shp10" d="M224.7 23.6C225.55 22.14 225.06 20.27 223.6 19.42C222.14 18.56 220.27 19.06 219.42 20.52C218.69 21.77 218.95 23.32 219.95 24.27C215.79 29.32 208.19 38.54 206.35 40.77C205.81 40.53 205.25 40.3 204.67 40.09C204.84 38.38 206.04 25.3 206.68 18.34C208.07 18.37 209.35 17.45 209.71 16.05C210.13 14.42 209.15 12.75 207.52 12.33C205.88 11.9 204.21 12.88 203.79 14.52C203.42 15.92 204.1 17.35 205.33 17.99C202.31 24.83 196.47 38.1 196.45 38.15C196.45 38.17 196.45 38.18 196.45 38.19C195.92 38.13 195.37 38.08 194.82 38.03C194.71 37.29 192.2 21.91 190.89 13.9C192.39 13.55 193.51 12.2 193.51 10.59C193.51 8.72 191.99 7.19 190.11 7.19C188.24 7.19 186.72 8.72 186.72 10.59C186.72 12.2 187.84 13.55 189.34 13.9C188.04 21.87 185.55 37.15 185.42 38.02C184.83 38.06 184.27 38.12 183.71 38.18C183.71 38.16 183.71 38.15 183.7 38.13C183.69 38.07 177.84 24.8 174.83 17.97C176.06 17.32 176.73 15.9 176.37 14.49C175.94 12.86 174.28 11.88 172.64 12.3C171.01 12.72 170.02 14.39 170.45 16.03C170.81 17.43 172.09 18.35 173.48 18.32C174.11 25.26 175.32 38.32 175.48 40.06C174.91 40.26 174.37 40.49 173.84 40.72C171.93 38.4 164.41 29.29 160.27 24.28C161.28 23.32 161.54 21.77 160.81 20.52C159.96 19.06 158.09 18.57 156.63 19.42C155.17 20.27 154.68 22.14 155.53 23.6C156.26 24.85 157.74 25.39 159.07 24.98C161.55 31.46 169.58 52.31 169.89 52.6L169.89 52.6C169.9 52.63 170.69 57.8 170.77 59.52C170.86 61.22 170.12 65.4 170.17 65.42L170.17 65.43C170.17 65.43 170.17 65.42 170.18 65.42C176.13 68.21 182.91 69.78 190.18 69.78C197.52 69.78 210.77 65.29 210.71 65.26C209.84 63.43 210.17 52.59 210.17 52.59C210.48 52.3 218.61 31.63 221.16 24.98C222.47 25.39 223.95 24.85 224.68 23.6" />
			<g id="Layer">
				<path id="Layer" class="shp11" d="M171.65 64.18C177.91 61.6 183.77 60.49 190.95 60.49C197.85 60.49 203.37 61.63 209.14 64.03" />
				<path id="Layer" class="shp11" d="M207.95 52.09C202.86 50.13 196.62 48.98 189.88 48.98C183.08 48.98 176.79 50.15 171.67 52.14" />
			</g>
			<path id="Layer" class="shp12" d="M208.56 60.61C202.92 58.75 197.19 57.4 190.72 57.4C184.14 57.4 177.8 58.79 171.85 60.72" />
			<path id="Layer" class="shp13" d="M187.3 53.65L190.14 55.07L192.99 53.65L190.14 52.23L187.3 53.65Z" />
			<path id="Layer" class="shp13" d="M204.61 55.5L201.58 56.45L199 54.59L202.03 53.64L204.61 55.5Z" />
			<path id="Layer" class="shp13" d="M175.68 55.5L178.71 56.45L181.29 54.59L178.26 53.64L175.68 55.5Z" />
			<path id="Layer" class="shp14" d="M210.22 -20.64C204.15 -23.48 197.51 -24.97 190.17 -24.97C182.82 -24.97 175.71 -23.34 169.44 -20.5C175.51 -17.67 182.39 -16.07 189.73 -16.07C197.08 -16.06 203.96 -17.8 210.22 -20.63L210.22 -20.64Z" />
			<path id="Layer" class="shp14" d="M209.77 -33.37L209.77 -33.38C204.31 -35.62 197.97 -36.99 189.73 -36.99C181.48 -36.99 175.11 -35.62 169.49 -33.37C169.49 -33.37 170.1 -28.17 170.13 -26.45C170.16 -24.51 169.62 -20.54 169.62 -20.54C175.88 -23.37 182.83 -24.97 190.17 -24.97C197.37 -24.97 204.68 -23.49 210.22 -20.64C209.31 -22.46 209.77 -33.36 209.77 -33.36L209.77 -33.37Z" />
			<path id="Layer" class="shp14" d="M169.64 -20.57C175.54 -23.37 182.83 -24.97 190.17 -24.97C197.37 -24.97 203.41 -23.95 210.22 -20.64C209.95 -21.41 209.76 -23.78 209.71 -24.65C203.68 -26.89 197.03 -28.16 190.18 -28.16C183.26 -28.16 176.3 -26.82 170.05 -24.53C169.92 -23.64 169.64 -20.58 169.64 -20.58L169.64 -20.57Z" />
			<path id="Layer" class="shp15" d="M223.3 -66.55C221.84 -67.4 219.97 -66.9 219.12 -65.44C218.39 -64.19 218.65 -62.64 219.65 -61.69C215.49 -56.64 207.88 -47.42 206.05 -45.19C205.51 -45.43 204.95 -45.66 204.37 -45.87C204.53 -47.58 205.74 -60.66 206.38 -67.62C207.77 -67.59 209.05 -68.51 209.41 -69.91C209.83 -71.54 208.85 -73.21 207.21 -73.64C205.58 -74.06 203.91 -73.08 203.49 -71.44C203.12 -70.04 203.8 -68.61 205.03 -67.97C202.01 -61.13 196.17 -47.86 196.15 -47.81C196.15 -47.79 196.15 -47.78 196.15 -47.77C195.62 -47.83 195.07 -47.89 194.51 -47.93C194.4 -48.67 191.9 -64.05 190.59 -72.06C192.09 -72.41 193.21 -73.76 193.21 -75.37C193.21 -77.24 191.69 -78.77 189.81 -78.77C187.94 -78.77 186.41 -77.24 186.41 -75.37C186.41 -73.76 187.54 -72.41 189.04 -72.06C187.74 -64.09 185.24 -48.81 185.11 -47.94C184.53 -47.9 183.96 -47.84 183.41 -47.78C183.41 -47.8 183.41 -47.81 183.4 -47.83C183.39 -47.89 177.54 -61.16 174.53 -67.99C175.76 -68.64 176.43 -70.06 176.07 -71.47C175.64 -73.1 173.97 -74.08 172.34 -73.66C170.71 -73.24 169.72 -71.57 170.15 -69.93C170.51 -68.53 171.79 -67.61 173.18 -67.64C173.81 -60.7 175.01 -47.65 175.18 -45.9C174.61 -45.7 174.06 -45.47 173.54 -45.24C171.63 -47.56 164.11 -56.67 159.97 -61.69C160.98 -62.64 161.24 -64.19 160.51 -65.44C159.66 -66.9 157.79 -67.4 156.33 -66.54C154.87 -65.69 154.38 -63.82 155.23 -62.36C155.96 -61.11 157.44 -60.57 158.77 -60.98C161.25 -54.5 169.28 -33.65 169.59 -33.37C175.12 -35.62 181.49 -36.99 189.73 -36.99C197.98 -36.99 204.34 -35.62 209.87 -33.37C210.18 -33.66 218.31 -54.33 220.86 -60.98C222.19 -60.57 223.67 -61.11 224.4 -62.36C225.22 -63.82 224.73 -65.69 223.27 -66.54L223.3 -66.55Z" />
			<path id="Layer" class="shp1" d="M187 -32.38L189.84 -30.96L192.69 -32.38L189.84 -33.8L187 -32.38Z" />
			<path id="Layer" class="shp1" d="M175.38 -30.54L178.41 -29.6L180.99 -31.46L177.96 -32.4L175.38 -30.54Z" />
			<path id="Layer" class="shp1" d="M204.31 -30.53L201.28 -29.58L198.7 -31.44L201.73 -32.39L204.31 -30.53Z" />
			<g id="Layer">
				<path id="Layer" class="shp16" d="M-92.37 64.65L-93.34 64.65L-93.34 58.83L-98 53.6L-98.05 53.6L-98.05 22.78L-98 22.78L-91.93 16.98L-91.89 16.98L-91.89 7.04C-91.89 6.18 -92.57 5.47 -93.4 5.47L-101.79 5.47L-101.79 10.87L-106.51 12.43L-110.85 10.87L-110.85 5.47L-121.2 5.47L-121.2 10.87L-125.55 12.43L-130.26 10.87L-130.26 5.47L-138.65 5.47C-139.48 5.47 -140.16 6.18 -140.16 7.04L-140.16 16.98L-140.14 16.98L-134.05 22.78L-134.05 53.6L-138.71 58.83L-138.71 64.65L-139.68 64.65C-140.55 64.65 -141.26 65.35 -141.26 66.22L-141.26 69.92C-141.26 70.78 -140.55 71.49 -139.68 71.49L-92.37 71.49C-91.5 71.49 -90.8 70.78 -90.8 69.92L-90.8 66.22C-90.8 65.36 -91.5 64.65 -92.37 64.65L-92.37 64.65Z" />
				<path id="Layer" class="shp17" d="M-137.18 64.65L-95.22 64.65" />
				<path id="Layer" class="shp17" d="M-136.99 58.83L-95.4 58.83" />
				<path id="Layer" class="shp17" d="M-99.84 53.61L-132.93 53.61" />
				<path id="Layer" class="shp17" d="M-132.74 22.79L-99.65 22.79" />
				<path id="Layer" class="shp17" d="M-138.1 16.98L-93.19 16.98" />
			</g>
			<path id="Layer" class="shp15" d="M-92.72 -14.41C-91.85 -14.41 -91.15 -15.11 -91.15 -15.98L-91.15 -19.68C-91.15 -20.55 -91.85 -21.25 -92.72 -21.25L-140.04 -21.25C-140.91 -21.25 -141.61 -20.55 -141.61 -19.68L-141.61 -15.98C-141.61 -15.11 -140.91 -14.41 -140.04 -14.41L-92.72 -14.41Z" />
			<path id="Layer" class="shp15" d="M-139.07 -27.07L-93.69 -27.07L-93.69 -21.25L-139.07 -21.25L-139.07 -27.07Z" />
			<path id="Layer" class="shp14" d="M-93.69 -27.07L-98.36 -32.3L-134.4 -32.3L-139.07 -27.07L-93.69 -27.07Z" />
			<path id="Layer" class="shp18" d="M-92.27 -68.94L-98.36 -63.12L-134.4 -63.12L-140.51 -68.94L-92.27 -68.94Z" />
			<path id="Layer" class="shp15" d="M-134.4 -63.12L-98.41 -63.12L-98.41 -32.3L-134.4 -32.3L-134.4 -63.12Z" />
			<path id="Layer" class="shp19" d="M-93.75 -80.43L-102.15 -80.43L-102.15 -75.03L-106.86 -73.47L-111.21 -75.03L-111.21 -80.43L-121.56 -80.43L-121.56 -75.03L-125.9 -73.47L-130.61 -75.03L-130.61 -80.43L-139.01 -80.43C-139.84 -80.43 -140.51 -79.73 -140.51 -78.86L-140.51 -68.92L-92.25 -68.92L-92.25 -78.86C-92.25 -79.73 -92.92 -80.43 -93.75 -80.43L-93.75 -80.43Z" />
			<path id="Layer" class="shp20" d="M75.87 69.82C75.25 69.48 69.62 63.95 64.4 63.95C61.69 63.95 59.56 64.77 57.69 65.49C55.79 66.23 53.99 66.92 51.39 66.92C48.36 66.92 45.85 65.99 43.63 65.18C41.84 64.52 40.29 63.95 38.71 63.95C37.13 63.95 35.58 64.52 33.79 65.18C31.57 65.99 29.06 66.92 26.03 66.92C23.43 66.92 21.63 66.23 19.73 65.49C17.85 64.77 15.73 63.95 13.02 63.95C7.8 63.95 2.17 69.48 1.55 69.82C1.55 69.82 3.82 68.4 5.93 68.4C8.05 68.4 9.88 69.88 13.02 69.88C14.63 69.88 15.94 70.39 17.6 71.03C19.71 71.84 22.32 72.85 26.03 72.85C30.11 72.85 33.42 71.63 35.84 70.74C36.94 70.34 38.18 69.88 38.71 69.88C39.24 69.88 40.48 70.34 41.58 70.74C44 71.63 47.31 72.85 51.39 72.85C55.09 72.85 57.71 71.84 59.82 71.03C61.48 70.39 62.79 69.88 64.4 69.88C67.54 69.88 69.92 68.4 71.49 68.4C73.05 68.4 75.9 69.82 75.9 69.82L75.87 69.82Z" />
			<path id="Layer" class="shp21" d="M58.64 35.91C58.64 26.56 50.66 11.73 44.55 9.72C44.34 9.65 44.12 9.59 43.89 9.55C44.96 9.15 45.72 8.13 45.72 6.93C45.72 5.38 44.47 4.13 42.93 4.13C41.38 4.13 40.13 5.38 40.13 6.93C40.13 8 40.74 8.93 41.62 9.4C40.37 9.48 39.02 9.81 37.62 10.37C36.73 9.96 35.85 9.67 34.98 9.51C36 9.1 36.72 8.1 36.72 6.93C36.72 5.38 35.47 4.13 33.92 4.13C32.38 4.13 31.13 5.38 31.13 6.93C31.13 8.02 31.75 8.96 32.66 9.42C32.19 9.47 31.72 9.57 31.27 9.72C25.17 11.73 17.37 26.01 17.37 35.91C17.37 43.81 20.57 50.61 24.26 55.54C24.81 57 25.65 57.04 25.83 57.22C25.83 57.22 25.83 57.22 25.83 57.22C25.83 57.24 25.1 61.98 25.03 63.05C24.92 64.7 24.75 66.64 24.75 66.64C28.78 68.42 33.2 69.45 37.99 69.45C42.79 69.45 46.99 68.32 51.02 66.54C50.87 65.23 50.71 63.91 50.38 61.93C50.21 60.9 49.62 57.22 49.62 57.22C49.8 57.04 50.88 55.67 50.88 55.67C54.8 50.72 58.63 44.12 58.63 35.91L58.64 35.91Z" />
			<path id="Layer" class="shp22" d="M25.93 57.22C29.2 55.81 32.96 54.58 37.83 54.58C42.69 54.58 46.45 55.81 49.72 57.22C49.9 57.04 50.32 56.58 51.21 55.34C48.46 52.37 44.45 50.73 37.91 50.73C30.92 50.73 27.11 52.56 24.36 55.54C24.92 56.99 25.76 57.04 25.94 57.22L25.93 57.22Z" />
			<path id="Layer" class="shp23" d="M50.91 66.54C46.88 64.77 42.76 63.89 37.96 63.89C33.16 63.89 28.67 64.87 24.64 66.64C28.67 68.41 33.09 69.44 37.89 69.44C42.69 69.44 46.89 68.31 50.92 66.54L50.91 66.54Z" />
			<path id="Layer" class="shp22" d="M50.8 55.67C53.34 51.43 56.68 43.43 52.5 29.81C49 18.39 38.69 7.24 31.19 9.72C24.53 11.91 17.29 27.65 17.29 35.9C17.29 43.8 20.49 50.61 24.18 55.53L50.81 55.66L50.8 55.67Z" />
			<path id="Layer" class="shp22" d="M33.84 9.72C32.29 9.72 31.04 8.47 31.04 6.92C31.04 5.37 32.29 4.12 33.84 4.12C35.39 4.12 36.64 5.37 36.64 6.92C36.64 8.47 35.39 9.72 33.84 9.72Z" />
			<path id="Layer" class="shp24" d="M49.53 57.21L49.53 57.21C46.26 55.8 42.5 54.62 37.64 54.62C32.77 54.62 29.01 55.8 25.75 57.21C25.75 57.21 25.01 61.97 24.94 63.04C24.83 64.69 24.67 66.64 24.67 66.64C28.69 64.87 33.19 63.89 37.98 63.89C42.69 63.89 46.96 64.83 50.93 66.54C50.79 65.22 50.62 63.9 50.29 61.93C50.11 60.89 49.52 57.2 49.52 57.2L49.53 57.21Z" />
			<path id="Layer" class="shp25" d="M49.41 63.59C45.79 62.47 41.92 61.85 37.93 61.85C33.87 61.85 29.72 62.51 26 63.68" />
			<g id="Layer">
				<path id="Layer" class="shp26" d="M26.78 56.78C29.81 55.56 33.28 54.57 37.64 54.57C42.03 54.57 45.51 55.57 48.55 56.8" />
				<path id="Layer" class="shp26" d="M50.52 54.63C46.68 51.56 43.6 50.73 37.91 50.73C33.15 50.73 28.23 52 25.87 54.15" />
			</g>
			<path id="Layer" class="shp27" d="M44.59 30.71L43.29 32.02L36.71 32.02L36.71 26.08L38.02 24.77L35.38 22.13L32.74 24.77L34.06 26.09L34.06 32.02L27.44 32.02L26.13 30.71L23.49 33.35L26.13 35.99L27.46 34.67L34.06 34.67L34.06 41.91L32.74 43.23L35.38 45.87L38.02 43.23L36.71 41.92L36.71 34.67L43.27 34.67L44.59 35.99L47.23 33.35L44.59 30.71Z" />
			<path id="Layer" class="shp28" d="M74.83 -16.04C74.21 -16.38 68.58 -21.91 63.36 -21.91C60.65 -21.91 58.52 -21.09 56.65 -20.37C54.75 -19.63 52.95 -18.94 50.35 -18.94C47.32 -18.94 44.81 -19.87 42.59 -20.68C40.8 -21.34 39.25 -21.91 37.67 -21.91C36.09 -21.91 34.54 -21.34 32.75 -20.68C30.53 -19.87 28.02 -18.94 24.99 -18.94C22.39 -18.94 20.59 -19.63 18.69 -20.37C16.81 -21.09 14.69 -21.91 11.97 -21.91C6.76 -21.91 1.13 -16.38 0.51 -16.04C0.51 -16.04 2.9 -17.46 4.89 -17.46C6.88 -17.46 8.84 -15.98 11.97 -15.98C13.58 -15.98 14.9 -15.47 16.56 -14.83C18.66 -14.02 21.28 -13.01 24.99 -13.01C29.07 -13.01 32.38 -14.23 34.8 -15.12C35.9 -15.52 37.14 -15.98 37.67 -15.98C38.2 -15.98 39.44 -15.52 40.54 -15.12C42.96 -14.23 46.27 -13.01 50.35 -13.01C54.05 -13.01 56.67 -14.02 58.78 -14.83C60.44 -15.47 61.75 -15.98 63.36 -15.98C66.5 -15.98 67.8 -17.46 70.45 -17.46C73.12 -17.46 74.86 -16.04 74.86 -16.04L74.83 -16.04Z" />
			<path id="Layer" class="shp21" d="M43.42 -76.14C43.21 -76.21 42.99 -76.26 42.77 -76.31C43.83 -76.71 44.59 -77.73 44.59 -78.93C44.59 -80.47 43.34 -81.73 41.8 -81.73C40.25 -81.73 39 -80.47 39 -78.93C39 -77.86 39.61 -76.93 40.49 -76.46C32.47 -75.94 20.29 -65.37 19.9 -47.48C19.75 -40.37 20.65 -34.55 23.13 -30.32L49.98 -30.51C53.9 -35.46 57.51 -41.73 57.51 -49.95C57.51 -60.88 49.53 -74.14 43.42 -76.14L43.42 -76.14Z" />
			<path id="Layer" class="shp21" d="M51.46 -56.04C48.51 -65.67 40.72 -75.1 33.85 -76.34C34.87 -76.76 35.59 -77.76 35.59 -78.93C35.59 -80.47 34.34 -81.73 32.79 -81.73C31.25 -81.73 30 -80.47 30 -78.93C30 -77.84 30.62 -76.9 31.54 -76.44C31.06 -76.38 30.6 -76.29 30.14 -76.14C24.05 -74.13 16.24 -60.65 16.24 -49.95C16.24 -42.05 19.44 -35.25 23.13 -30.32L49.98 -30.51C52.52 -34.75 55.63 -42.43 51.46 -56.04L51.46 -56.04Z" />
			<path id="Layer" class="shp23" d="M49.89 -19.31C46.52 -20.86 41.74 -21.96 36.94 -21.96C32.15 -21.96 27.65 -20.98 23.63 -19.21C27.65 -17.44 32.07 -16.41 36.87 -16.41C41.67 -16.41 45.87 -17.54 49.9 -19.31L49.89 -19.31Z" />
			<path id="Layer" class="shp29" d="M48.49 -28.64L48.49 -28.64C45.22 -30.05 41.46 -31.23 36.6 -31.23C31.73 -31.23 27.97 -30.05 24.7 -28.64C24.7 -28.64 23.97 -23.88 23.9 -22.81C23.79 -21.16 23.62 -19.21 23.62 -19.21C27.65 -20.98 32.14 -21.96 36.94 -21.96C41.65 -21.96 45.92 -21.02 49.89 -19.31C49.75 -20.63 49.58 -21.95 49.25 -23.92C49.07 -24.97 48.48 -28.65 48.48 -28.65L48.49 -28.64Z" />
			<path id="Layer" class="shp29" d="M23.62 -19.21C27.65 -20.98 32.14 -21.96 36.94 -21.96C41.64 -21.96 45.91 -21.02 49.88 -19.31C49.78 -20.41 49.54 -21.1 49.38 -22.51C45.39 -23.91 41.35 -24.62 36.88 -24.62C32.35 -24.62 27.87 -23.8 23.84 -22.37C23.82 -21.13 23.61 -19.21 23.61 -19.21L23.62 -19.21Z" />
			<path id="Layer" class="shp21" d="M24.7 -28.64C27.97 -30.05 31.73 -31.25 36.6 -31.28C40.74 -31.31 45.22 -30.05 48.49 -28.64C48.67 -28.82 49.43 -29.05 49.98 -30.51C47.23 -33.49 43.14 -35.04 36.6 -35.04C29.61 -35.04 25.88 -33.3 23.13 -30.32C23.67 -28.86 24.51 -28.82 24.69 -28.64L24.7 -28.64Z" />
			<path id="Layer" class="shp30" d="M36.6 -35.04L36.6 -31.28" />
			<path id="Layer" class="shp31" d="M43.55 -55.15L42.24 -53.84L35.66 -53.84L35.66 -59.77L36.97 -61.08L34.33 -63.72L31.69 -61.08L33.01 -59.76L33.01 -53.84L26.4 -53.84L25.09 -55.15L22.45 -52.51L25.09 -49.87L26.41 -51.19L33.01 -51.19L33.01 -43.94L31.69 -42.62L34.33 -39.98L36.97 -42.62L35.66 -43.93L35.66 -51.19L42.23 -51.19L43.55 -49.87L46.19 -52.51L43.55 -55.15Z" />
			<path id="Layer" class="shp32" d="M255.04 12.5C255.04 12.5 256.15 6.54 256.15 5.71C256.15 4.87 256.98 4.74 257.81 5.85C258.64 6.95 262.39 12.36 262.39 12.36L255.04 12.49L255.04 12.5Z" />
			<path id="Layer" class="shp32" d="M304.77 58.23C304.39 55.54 303.88 52.98 303.25 50.54L301.25 49.74L302.59 48.14C301.82 45.56 300.93 43.13 299.96 40.85L298.06 40.31L299.01 38.69C297.99 36.52 296.89 34.5 295.75 32.62L293.98 32.26L294.61 30.8C293.34 28.83 292.03 27.03 290.72 25.4L288.85 25.19L289.35 23.73C287.83 21.94 286.35 20.39 284.97 19.06L283.1 18.95L283.42 17.61C280.08 14.58 277.71 13.11 277.71 13.11L273.46 14.4C273.46 14.4 271.43 13.29 269.76 12.18C269.76 12.18 268.65 8.48 268.29 6.45C267.92 4.42 266.81 5.34 266.44 5.9C266.07 6.45 262.23 10.7 262.23 10.7C262.23 10.7 259.94 10.39 258.31 10.7C255.9 11.17 254.79 12.78 252.02 15.42C250 17.34 248.78 19.02 248.09 20.82C247.4 22.63 248.23 22.63 247.95 24.29C247.68 25.95 240.19 38.43 239.36 39.95C238.53 41.48 236.52 46.14 240.47 49.1C241.57 49.94 242.41 50.35 243.1 50.63C243.1 50.63 244.21 50.35 244.63 49.8C244.7 49.7 244.74 49.64 244.76 49.6C244.77 49.57 244.78 49.57 244.76 49.6C244.71 49.71 244.62 50.12 245.04 50.63C245.73 51.46 246.63 51.4 247.12 51.46C247.86 51.55 249.2 50.91 250.31 49.24C251.42 47.58 252.11 47.02 252.94 46.05C253.77 45.08 258.36 42.94 260.15 39.95C260.57 39.26 261.54 39.54 262.23 40.09C262.93 40.65 266.81 40.79 268.47 38.01C268.47 38.01 269.26 45.31 265.97 50.35C260.57 58.67 251.42 60.75 248.65 68.51L305.49 68.51C305.49 65.83 305.34 63.25 305.09 60.78L303.2 59.78L304.8 58.23L304.77 58.23Z" />
			<path id="Layer" class="shp33" d="M275.49 16.26C275.49 16.26 299.7 34.38 299.7 67.09" />
			<path id="Layer" class="shp34" d="M244.75 49.4C244.77 49.37 244.76 49.37 244.75 49.4Z" />
			<path id="Layer" class="shp33" d="M270.5 28.83C270.96 34 268.56 37.7 268.47 38.02C268.47 38.02 274.29 35.02 274.84 31.05" />
			<path id="Layer" class="shp33" d="M268.46 38.02C268.46 38.02 272.34 39.92 275.21 38.71" />
			<path id="Layer" class="shp34" d="M244.62 49.6C244.62 49.6 247.21 46.27 247.95 44.75" />
			<path id="Layer" class="shp33" d="M260.56 18.89C260.56 18.89 256.3 18.91 254.88 21.25C252.94 24.43 255.15 24.85 255.15 24.85C255.15 24.85 257.37 25.54 258.9 23.46C260.52 21.25 259.17 19.86 259.17 19.86L260.55 18.89L260.56 18.89Z" />
			<path id="Layer" class="shp33" d="M239.91 42.39C241.43 41.97 242.4 42.11 243.1 42.53C243.1 42.53 242.4 40.45 243.65 38.65C244.9 36.84 246.98 36.71 248.78 33.24" />
			<path id="Layer" class="shp33" d="M280.38 20.83L283.02 19.17" />
			<path id="Layer" class="shp33" d="M285.79 26.79L288.43 25.55" />
			<path id="Layer" class="shp33" d="M290.64 33.71L293.69 32.46" />
			<path id="Layer" class="shp33" d="M294.53 41.63L297.71 40.52" />
			<path id="Layer" class="shp33" d="M297.57 50.92L300.9 49.95" />
			<path id="Layer" class="shp33" d="M299.38 60.34L302.84 59.93" />
			<path id="Layer" class="shp15" d="M251.71 -71.66C251.71 -71.66 252.82 -77.62 252.82 -78.45C252.82 -79.28 253.65 -79.42 254.48 -78.31C255.31 -77.2 259.06 -71.79 259.06 -71.79L251.71 -71.66L251.71 -71.66Z" />
			<path id="Layer" class="shp15" d="M301.45 -25.93C301.07 -28.62 300.56 -31.18 299.93 -33.62L297.93 -34.42L299.27 -36.02C298.5 -38.6 297.61 -41.03 296.64 -43.31L294.74 -43.85L295.68 -45.45C294.66 -47.62 293.56 -49.65 292.42 -51.53L290.65 -51.89L291.28 -53.35C290.01 -55.32 288.7 -57.12 287.39 -58.75L285.52 -58.96L286.02 -60.42C284.5 -62.21 283.01 -63.76 281.64 -65.09L279.77 -65.2L280.09 -66.54C276.75 -69.57 274.38 -71.04 274.38 -71.04L270.13 -69.75C270.13 -69.75 268.1 -70.86 266.43 -71.97C266.43 -71.97 265.32 -75.66 264.96 -77.7C264.58 -79.73 263.48 -78.81 263.11 -78.25C262.74 -77.7 258.9 -73.45 258.9 -73.45C258.9 -73.45 256.61 -73.76 254.97 -73.45C252.57 -72.98 251.46 -71.37 248.69 -68.73C246.67 -66.81 245.45 -65.13 244.76 -63.32C244.07 -61.52 244.9 -61.52 244.62 -59.86C244.34 -58.2 236.86 -45.72 236.03 -44.19C235.2 -42.67 233.19 -38.01 237.14 -35.04C238.24 -34.21 239.08 -33.8 239.77 -33.52C239.77 -33.52 240.88 -33.8 241.29 -34.35C241.37 -34.45 241.41 -34.51 241.42 -34.54C241.44 -34.58 241.45 -34.58 241.42 -34.54C241.38 -34.44 241.29 -34.03 241.71 -33.52C242.4 -32.69 243.29 -32.75 243.79 -32.69C244.53 -32.59 245.87 -33.24 246.98 -34.91C248.09 -36.57 248.78 -37.12 249.61 -38.09C250.44 -39.06 255.03 -41.21 256.82 -44.19C257.24 -44.89 258.21 -44.61 258.9 -44.05C259.59 -43.5 263.48 -43.36 265.14 -46.14C265.14 -46.14 265.93 -38.84 262.64 -33.8C257.24 -25.48 248.09 -23.4 245.32 -15.64L302.15 -15.64C302.15 -18.32 302.01 -20.89 301.76 -23.37L299.87 -24.37L301.5 -25.91L301.45 -25.93Z" />
			<path id="Layer" class="shp34" d="M272.16 -67.9C272.16 -67.9 296.37 -49.78 296.37 -17.06" />
			<path id="Layer" class="shp34" d="M241.42 -34.54C241.44 -34.58 241.44 -34.58 241.42 -34.54Z" />
			<path id="Layer" class="shp34" d="M267.17 -55.33C267.63 -50.16 265.23 -46.46 265.14 -46.14C265.14 -46.14 270.96 -49.14 271.51 -53.11" />
			<path id="Layer" class="shp34" d="M265.14 -46.13C265.14 -46.13 269.02 -44.23 271.89 -45.44" />
			<path id="Layer" class="shp34" d="M241.29 -34.35C241.29 -34.35 243.88 -37.68 244.62 -39.2" />
			<path id="Layer" class="shp34" d="M257.24 -65.26C257.24 -65.26 252.98 -65.24 251.56 -62.91C249.62 -59.72 251.83 -59.3 251.83 -59.3C251.83 -59.3 254.05 -58.61 255.58 -60.69C257.2 -62.9 255.85 -64.29 255.85 -64.29L257.23 -65.26L257.24 -65.26Z" />
			<path id="Layer" class="shp34" d="M236.58 -41.56C238.11 -41.98 239.08 -41.84 239.77 -41.42C239.77 -41.42 239.08 -43.5 240.32 -45.3C241.57 -47.11 243.65 -47.24 245.45 -50.71" />
			<path id="Layer" class="shp34" d="M277.06 -63.32L279.69 -64.98" />
			<path id="Layer" class="shp34" d="M282.47 -57.36L285.1 -58.61" />
			<path id="Layer" class="shp34" d="M287.32 -50.44L290.37 -51.69" />
			<path id="Layer" class="shp34" d="M291.2 -42.53L294.39 -43.64" />
			<path id="Layer" class="shp34" d="M294.25 -33.24L297.58 -34.21" />
			<path id="Layer" class="shp34" d="M296.05 -23.81L299.52 -24.23" />
			<path id="Layer" class="shp35" d="M354.45 62.57C350.7 55.13 351.08 41.87 351.39 36.73C357.32 36.32 361.59 35.2 361.59 33.87C361.59 32.57 357.48 31.47 351.72 31.04C355.4 29.15 357.92 25.32 357.92 20.89C357.92 14.59 352.81 9.48 346.51 9.48C340.2 9.48 335.09 14.59 335.09 20.89C335.09 25.32 337.61 29.15 341.29 31.04C335.53 31.47 331.42 32.57 331.42 33.87C331.42 35.2 335.69 36.32 341.62 36.73C341.93 41.87 342.31 55.13 338.56 62.57C331.21 64.05 326.05 67.52 326.05 71.56L366.95 71.56C366.95 67.52 361.8 64.05 354.45 62.57L354.45 62.57Z" />
			<path id="Layer" class="shp36" d="M354.45 -21.03C350.7 -28.48 351.08 -41.74 351.39 -46.87C357.32 -47.28 361.59 -48.4 361.59 -49.73C361.59 -51.03 357.48 -52.13 351.72 -52.56C355.4 -54.45 357.92 -58.29 357.92 -62.71C357.92 -69.01 352.81 -74.12 346.51 -74.12C340.2 -74.12 335.09 -69.01 335.09 -62.71C335.09 -58.29 337.61 -54.45 341.29 -52.56C335.53 -52.13 331.42 -51.03 331.42 -49.73C331.42 -48.4 335.69 -47.28 341.62 -46.87C341.93 -41.74 342.31 -28.48 338.56 -21.03C331.21 -19.55 326.05 -16.08 326.05 -12.04L366.95 -12.04C366.95 -16.08 361.8 -19.55 354.45 -21.03L354.45 -21.03Z" />
			<path id="Layer" class="shp15" d="M-24.05 -71.66C-24.05 -71.66 -25.16 -77.62 -25.16 -78.45C-25.16 -79.28 -25.99 -79.42 -26.82 -78.31C-27.65 -77.2 -31.4 -71.79 -31.4 -71.79L-24.06 -71.66L-24.05 -71.66Z" />
			<path id="Layer" class="shp15" d="M-73.79 -25.93C-73.41 -28.62 -72.9 -31.18 -72.27 -33.62L-70.26 -34.42L-71.6 -36.02C-70.84 -38.6 -69.95 -41.03 -68.98 -43.31L-67.08 -43.85L-68.02 -45.45C-67 -47.62 -65.9 -49.65 -64.76 -51.53L-62.99 -51.89L-63.62 -53.35C-62.35 -55.32 -61.03 -57.12 -59.73 -58.75L-57.86 -58.96L-58.36 -60.42C-56.84 -62.21 -55.35 -63.76 -53.98 -65.09L-52.1 -65.2L-52.43 -66.54C-49.08 -69.57 -46.72 -71.04 -46.72 -71.04L-42.47 -69.75C-42.47 -69.75 -40.44 -70.86 -38.77 -71.97C-38.77 -71.97 -37.66 -75.66 -37.29 -77.7C-36.92 -79.73 -35.82 -78.81 -35.45 -78.25C-35.08 -77.7 -31.24 -73.45 -31.24 -73.45C-31.24 -73.45 -28.95 -73.76 -27.31 -73.45C-24.91 -72.98 -23.8 -71.37 -21.03 -68.73C-19.01 -66.81 -17.79 -65.13 -17.1 -63.32C-16.41 -61.52 -17.24 -61.52 -16.96 -59.86C-16.68 -58.2 -9.2 -45.72 -8.37 -44.19C-7.53 -42.67 -5.53 -38.01 -9.47 -35.04C-10.58 -34.21 -11.42 -33.8 -12.11 -33.52C-12.11 -33.52 -13.22 -33.8 -13.63 -34.35C-13.71 -34.45 -13.75 -34.51 -13.76 -34.54C-13.78 -34.58 -13.78 -34.58 -13.76 -34.54C-13.72 -34.44 -13.62 -34.03 -14.05 -33.52C-14.74 -32.69 -15.63 -32.75 -16.13 -32.69C-16.87 -32.59 -18.21 -33.24 -19.32 -34.91C-20.43 -36.57 -21.12 -37.12 -21.95 -38.09C-22.78 -39.06 -27.37 -41.21 -29.16 -44.19C-29.58 -44.89 -30.55 -44.61 -31.24 -44.05C-31.93 -43.5 -35.82 -43.36 -37.48 -46.14C-37.48 -46.14 -38.26 -38.84 -34.98 -33.8C-29.58 -25.48 -20.43 -23.4 -17.65 -15.64L-74.52 -15.64C-74.52 -18.32 -74.37 -20.89 -74.12 -23.37L-72.23 -24.37L-73.81 -25.91L-73.79 -25.93Z" />
			<path id="Layer" class="shp34" d="M-44.5 -67.9C-44.5 -67.9 -68.71 -49.78 -68.71 -17.06" />
			<path id="Layer" class="shp34" d="M-13.76 -34.54C-13.78 -34.58 -13.78 -34.58 -13.76 -34.54Z" />
			<path id="Layer" class="shp34" d="M-39.51 -55.33C-39.97 -50.16 -37.57 -46.46 -37.48 -46.14C-37.48 -46.14 -43.3 -49.14 -43.85 -53.11" />
			<path id="Layer" class="shp34" d="M-37.48 -46.13C-37.48 -46.13 -41.36 -44.23 -44.23 -45.44" />
			<path id="Layer" class="shp34" d="M-13.63 -34.35C-13.63 -34.35 -16.22 -37.68 -16.96 -39.2" />
			<path id="Layer" class="shp34" d="M-29.58 -65.26C-29.58 -65.26 -25.32 -65.24 -23.9 -62.91C-21.96 -59.72 -24.17 -59.3 -24.17 -59.3C-24.17 -59.3 -26.39 -58.61 -27.92 -60.69C-29.54 -62.9 -28.19 -64.29 -28.19 -64.29L-29.57 -65.26L-29.58 -65.26Z" />
			<path id="Layer" class="shp34" d="M-8.92 -41.56C-10.45 -41.98 -11.42 -41.84 -12.11 -41.42C-12.11 -41.42 -11.42 -43.5 -12.66 -45.3C-13.91 -47.11 -15.99 -47.24 -17.79 -50.71" />
			<path id="Layer" class="shp34" d="M-49.4 -63.32L-52.03 -64.98" />
			<path id="Layer" class="shp34" d="M-54.81 -57.36L-57.44 -58.61" />
			<path id="Layer" class="shp34" d="M-59.66 -50.44L-62.71 -51.69" />
			<path id="Layer" class="shp34" d="M-63.54 -42.53L-66.73 -43.64" />
			<path id="Layer" class="shp34" d="M-66.59 -33.24L-69.92 -34.21" />
			<path id="Layer" class="shp34" d="M-68.39 -23.81L-71.86 -24.23" />
			<path id="Layer" class="shp32" d="M-24.1 14.83C-24.1 14.83 -25.21 8.87 -25.21 8.04C-25.21 7.2 -26.04 7.07 -26.87 8.18C-27.7 9.29 -31.45 14.69 -31.45 14.69L-24.11 14.82L-24.1 14.83Z" />
			<path id="Layer" class="shp32" d="M-73.84 60.56C-73.46 57.87 -72.95 55.31 -72.32 52.87L-70.31 52.07L-71.65 50.47C-70.89 47.89 -70 45.46 -69.03 43.18L-67.13 42.64L-68.06 41.04C-67.04 38.87 -65.95 36.84 -64.81 34.96L-63.04 34.6L-63.67 33.14C-62.39 31.17 -61.08 29.37 -59.78 27.74L-57.91 27.53L-58.41 26.07C-56.88 24.28 -55.4 22.73 -54.03 21.4L-52.15 21.29L-52.48 19.95C-49.13 16.92 -46.77 15.45 -46.77 15.45L-42.52 16.74C-42.52 16.74 -40.48 15.63 -38.82 14.52C-38.82 14.52 -37.71 10.83 -37.34 8.79C-36.97 6.76 -35.86 7.69 -35.49 8.24C-35.12 8.79 -31.29 13.05 -31.29 13.05C-31.29 13.05 -28.99 12.73 -27.36 13.05C-24.96 13.51 -23.85 15.13 -21.08 17.76C-19.05 19.68 -17.84 21.36 -17.15 23.17C-16.46 24.97 -17.29 24.97 -17.01 26.63C-16.73 28.3 -9.25 40.77 -8.41 42.3C-7.58 43.82 -5.57 48.49 -9.52 51.45C-10.63 52.28 -11.47 52.69 -12.16 52.97C-12.16 52.97 -13.27 52.69 -13.68 52.14C-13.76 52.04 -13.79 51.98 -13.81 51.95C-13.83 51.91 -13.83 51.91 -13.81 51.95C-13.77 52.06 -13.67 52.46 -14.1 52.97C-14.79 53.8 -15.68 53.74 -16.18 53.8C-16.92 53.9 -18.26 53.25 -19.37 51.59C-20.48 49.92 -21.17 49.37 -22 48.4C-22.83 47.43 -27.42 45.28 -29.21 42.3C-29.63 41.6 -30.6 41.88 -31.29 42.44C-31.98 42.99 -35.86 43.13 -37.53 40.36C-37.53 40.36 -38.31 47.65 -35.03 52.69C-29.63 61.01 -20.48 63.09 -17.7 70.85L-74.57 70.85C-74.57 68.17 -74.43 65.6 -74.18 63.12L-72.29 62.12L-73.87 60.56L-73.84 60.56Z" />
			<path id="Layer" class="shp33" d="M-44.55 18.59C-44.55 18.59 -68.76 36.71 -68.76 69.42" />
			<path id="Layer" class="shp34" d="M-13.81 51.73C-13.83 51.7 -13.83 51.7 -13.81 51.73Z" />
			<path id="Layer" class="shp33" d="M-39.56 31.16C-40.02 36.33 -37.62 40.03 -37.53 40.35C-37.53 40.35 -43.35 37.35 -43.9 33.38" />
			<path id="Layer" class="shp33" d="M-37.53 40.35C-37.53 40.35 -41.41 42.25 -44.28 41.04" />
			<path id="Layer" class="shp34" d="M-13.68 51.93C-13.68 51.93 -16.27 48.6 -17.01 47.08" />
			<path id="Layer" class="shp33" d="M-29.63 21.22C-29.63 21.22 -25.37 21.24 -23.95 23.58C-22 26.77 -24.22 27.18 -24.22 27.18C-24.22 27.18 -26.44 27.87 -27.97 25.79C-29.59 23.58 -28.24 22.19 -28.24 22.19L-29.62 21.22L-29.63 21.22Z" />
			<path id="Layer" class="shp33" d="M-8.97 44.72C-10.5 44.3 -11.47 44.44 -12.16 44.86C-12.16 44.86 -11.47 42.78 -12.71 40.98C-13.96 39.17 -16.04 39.04 -17.84 35.57" />
			<path id="Layer" class="shp33" d="M-49.45 23.17L-52.08 21.5" />
			<path id="Layer" class="shp33" d="M-54.86 29.13L-57.49 27.88" />
			<path id="Layer" class="shp33" d="M-59.71 36.04L-62.76 34.79" />
			<path id="Layer" class="shp33" d="M-63.59 43.96L-66.78 42.85" />
			<path id="Layer" class="shp33" d="M-66.64 53.25L-69.97 52.28" />
			<path id="Layer" class="shp33" d="M-68.44 62.67L-71.91 62.26" />
		</g>
	</g>
</svg>