<svg xmlns="http://www.w3.org/2000/svg" viewBox="0 0 77 83" width="77" height="83">
	<style>
		tspan { white-space:pre }
		.shp0 { fill: #000000;stroke: #000000;stroke-width: 0.31 } 
		.shp1 { fill: #000000 } 
		.shp2 { fill: #000000;stroke: #ffffff;stroke-linecap:round;stroke-width: 1.009 } 
		.shp3 { fill: none;stroke: #ffffff;stroke-linejoin:bevel;stroke-width: 0.62 } 
		.shp4 { fill: none;stroke: #ffffff;stroke-linecap:round;stroke-width: 1.009 } 
		.shp5 { fill: #ffffff;stroke: #000000;stroke-width: 0.317 } 
		.shp6 { fill: none;stroke: #ffffff;stroke-width: 0.62 } 
		.shp7 { fill: #ffffff;stroke: #20201e;stroke-width: 1.211 } 
		.shp8 { fill: #ffffff;stroke: #20201e;stroke-linejoin:round;stroke-width: 1.211 } 
		.shp9 { fill: #ffffff;stroke: #20201e;stroke-linejoin:bevel;stroke-width: 1.211 } 
		.shp10 { fill: #000000;stroke: #000000;stroke-linejoin:bevel;stroke-width: 0.853 } 
		.shp11 { fill: #000000;stroke: #ffffff;stroke-linecap:round;stroke-width: 0.926 } 
		.shp12 { fill: none;stroke: #ffffff;stroke-linecap:round;stroke-width: 0.926 } 
		.shp13 { fill: #ffffff } 
		.shp14 { fill: #ffffff;stroke: #20201e;stroke-linejoin:bevel;stroke-width: 1.111 } 
		.shp15 { fill: #ffffff;stroke: #20201e;stroke-width: 1.111 } 
		.shp16 { fill: #000000;stroke: #000000;stroke-linecap:square;stroke-width: 0.853 } 
		.shp17 { fill: none;stroke: #ffffff;stroke-linecap:round;stroke-width: 0.853 } 
		.shp18 { fill: #ffffff;stroke: #20201e;stroke-linejoin:round;stroke-width: 1.111 } 
		.shp19 { fill: #ffffff;stroke: #20201e;stroke-linecap:square;stroke-width: 1.111 } 
		.shp20 { fill: #20201e } 
		.shp21 { fill: #ffffff;stroke: #20201e;stroke-width: 1.32 } 
		.shp22 { fill: #000000;stroke: #000000;stroke-width: 0.533 } 
		.shp23 { fill: #ffffff;stroke: #000000;stroke-linejoin:bevel;stroke-width: 1.014 } 
		.shp24 { fill: #000000;stroke: #000000;stroke-linejoin:bevel;stroke-width: 0.533 } 
		.shp25 { fill: none;stroke: #ffffff;stroke-linecap:round;stroke-linejoin:bevel;stroke-width: 0.533 } 
		.shp26 { fill: none;stroke: #ffffff;stroke-linecap:round;stroke-width: 0.533 } 
		.shp27 { fill: #ffffff;stroke: #000000;stroke-width: 0.533 } 
		.shp28 { fill: #ffffff;stroke: #20201e;stroke-linecap:round;stroke-linejoin:round;stroke-width: 1.32 } 
		.shp29 { fill: #ffffff;stroke: #20201e;stroke-linejoin:bevel;stroke-width: 1.32 } 
		.shp30 { fill: #ffffff;stroke: #000000;stroke-width: 1.014 } 
		.shp31 { fill: #ffffff;stroke: #000000;stroke-width: 0.77 } 
		.shp32 { fill: #20201e;stroke: #20201e;stroke-width: 0.853 } 
		.shp33 { fill: none;stroke: #ffffff;stroke-width: 0.853 } 
		.shp34 { fill: none;stroke: #20201e;stroke-width: 0.853 } 
		.shp35 { fill: #000000;stroke: #000000;stroke-linejoin:round;stroke-width: 0.79 } 
		.shp36 { fill: #ffffff;stroke: #000000;stroke-linejoin:round;stroke-width: 1.111 } 
	</style>
	<g id="Layer">
		<g id="Layer">
			<path id="Layer" class="shp0" d="M199.26 28.52C200.61 27.72 201.18 26.65 201.18 25.47C201.18 25.13 201.23 8.89 201.23 8.89L185.13 8.89C185.13 8.89 185.06 25.27 185.06 25.47C185.06 26.66 185.9 27.74 187.27 28.54C186.3 28.68 185.34 28.85 184.39 29.06C185.91 30.03 187.34 31.16 188.67 32.45C190.54 34.28 192.1 36.3 193.32 38.48C194.54 36.3 196.09 34.28 197.97 32.45C199.3 31.16 200.73 30.03 202.25 29.06C201.28 28.85 200.28 28.68 199.28 28.53L199.26 28.52Z" />
			<path id="Layer" class="shp1" d="M214.07 65.43C213.07 63.43 213.05 60.82 213.49 59.06C213.94 57.24 218.24 53.81 218.24 53.81C225.81 46.45 227.54 35.95 222.11 30.36C216.68 24.78 206.14 26.23 198.57 33.59C196.31 35.79 194.57 38.27 193.39 40.82C192.2 38.27 190.47 35.79 188.21 33.59C180.64 26.23 170.1 24.78 164.66 30.36C159.23 35.95 160.97 46.45 168.54 53.81C168.88 54.14 172.65 57.24 173.1 59.06C173.56 60.87 173.62 63.48 172.53 65.5L172.69 65.5C172.67 65.51 172.65 65.52 172.62 65.53C178.89 68.62 185.94 70.36 193.39 70.36C200.84 70.35 207.79 68.51 214.06 65.42" />
			<g id="Layer">
				<path id="Layer" class="shp2" d="M173.72 65.06C179.75 62.25 186.42 60.69 193.51 60.69C200.32 60.69 206.86 62.36 212.69 64.73" />
				<path id="Layer" class="shp2" d="M215.59 53.38C209.31 51.25 201.62 49.99 193.3 49.99C184.92 49.99 177.16 51.27 170.85 53.44" />
			</g>
			<path id="Layer" class="shp3" d="M199.92 10.06L186.41 22.17L199.92 22.17L186.41 10.06L199.92 10.06Z" />
			<path id="Layer" class="shp4" d="M211.66 60.77C205.88 58.74 199.73 57.27 193.35 57.27C186.84 57.27 180.58 58.78 174.7 60.88" />
			<path id="Layer" class="shp5" d="M190.18 53.96L193.35 55.54L196.52 53.96L193.35 52.37L190.18 53.96Z" />
			<path id="Layer" class="shp5" d="M177.23 56.02L180.61 57.07L183.48 55L180.1 53.94L177.23 56.02Z" />
			<path id="Layer" class="shp5" d="M209.48 56.02L206.09 57.07L203.22 55L206.6 53.94L209.48 56.02Z" />
			<path id="Layer" class="shp3" d="M186.41 10.06L199.93 10.06L199.93 22.17L186.41 22.17L186.41 10.06Z" />
			<path id="Layer" class="shp6" d="M193.28 31.89C190.13 31.89 187.58 30.01 187.58 27.68C187.58 25.35 190.13 23.47 193.28 23.47C196.43 23.47 198.98 25.35 198.98 27.68C198.98 30.01 196.43 31.89 193.28 31.89Z" />
			<path id="Layer" class="shp7" d="M201.26 -79.36L185.16 -79.36L185.16 -62.53C185.16 -60.05 188.78 -58.04 193.25 -58.04C197.72 -58.04 201.23 -60.05 201.23 -62.53C201.23 -62.75 201.26 -79.36 201.26 -79.36L201.26 -79.36Z" />
			<path id="Layer" class="shp7" d="M185.16 -79.36L201.26 -79.36L201.26 -64.93L185.16 -64.93L185.16 -79.36Z" />
			<path id="Layer" class="shp7" d="M185.16 -79.36L201.26 -64.93" />
			<path id="Layer" class="shp7" d="M201.26 -79.36L185.16 -64.93" />
			<path id="Layer" class="shp8" d="M214 -22.86C207.74 -25.95 200.93 -27.58 193.47 -27.58C186.01 -27.58 178.88 -25.84 172.62 -22.75C178.88 -19.66 185.89 -17.88 193.35 -17.88C200.81 -17.87 207.74 -19.76 214 -22.85L214 -22.86Z" />
			<path id="Layer" class="shp9" d="M217.13 -33.46C217.49 -33.77 217.85 -34.1 218.2 -34.44C225.77 -41.8 227.5 -52.3 222.07 -57.88C216.63 -63.47 206.1 -62.02 198.53 -54.65C196.26 -52.45 194.53 -49.97 193.34 -47.43C192.16 -49.97 190.42 -52.45 188.16 -54.65C180.59 -62.02 170.05 -63.47 164.62 -57.88C159.19 -52.3 160.92 -41.8 168.49 -34.44C168.84 -34.1 169.2 -33.77 169.56 -33.46C176.1 -35.91 184.36 -37.38 193.35 -37.38C202.33 -37.38 210.59 -35.91 217.12 -33.46L217.13 -33.46Z" />
			<path id="Layer" class="shp7" d="M193.35 -47.42C194.53 -49.96 196.27 -52.44 198.53 -54.64C200.37 -56.44 202.4 -57.88 204.48 -58.95C201.03 -59.92 197.28 -60.46 193.36 -60.46C189.43 -60.46 185.68 -59.92 182.23 -58.95C184.31 -57.88 186.33 -56.44 188.17 -54.64C190.43 -52.44 192.16 -49.96 193.35 -47.42L193.35 -47.42Z" />
			<path id="Layer" class="shp9" d="M217.04 -33.46L217.04 -33.47C210.5 -35.92 202.25 -37.38 193.27 -37.38C184.28 -37.38 176.02 -35.91 169.48 -33.46C169.48 -33.46 172.61 -31 173.07 -29.19C173.52 -27.38 173.72 -24.78 172.63 -22.76C178.89 -25.85 186.02 -27.58 193.48 -27.58C200.79 -27.58 207.84 -25.84 214.01 -22.86C213.01 -24.86 213.01 -27.43 213.45 -29.19C213.9 -30.99 217.04 -33.45 217.04 -33.45L217.04 -33.46Z" />
			<path id="Layer" class="shp9" d="M172.62 -22.75C178.88 -25.84 186.02 -27.57 193.47 -27.57C200.79 -27.57 207.83 -25.84 214 -22.86C213.58 -23.71 213.13 -25.89 213.2 -27.1C207 -29.54 200.33 -30.87 193.37 -30.87C186.34 -30.87 179.6 -29.51 173.33 -27.02C173.41 -24.77 173.09 -23.64 172.62 -22.76L172.62 -22.75Z" />
			<path id="Layer" class="shp1" d="M190.29 -34.04L193.39 -32.49L196.48 -34.04L193.39 -35.59L190.29 -34.04Z" />
			<path id="Layer" class="shp1" d="M177.62 -32.02L180.92 -30.99L183.73 -33.02L180.43 -34.05L177.62 -32.02Z" />
			<path id="Layer" class="shp1" d="M209.15 -32.02L205.85 -30.99L203.04 -33.02L206.34 -34.05L209.15 -32.02Z" />
			<path id="Layer" class="shp7" d="M193.35 -56.02C190.2 -56.02 187.65 -57.9 187.65 -60.23C187.65 -62.56 190.2 -64.44 193.35 -64.44C196.5 -64.44 199.05 -62.56 199.05 -60.23C199.05 -57.9 196.5 -56.02 193.35 -56.02Z" />
			<path id="Layer" class="shp10" d="M303.7 23.6C304.55 22.14 304.06 20.27 302.6 19.42C301.14 18.56 299.27 19.06 298.42 20.52C297.69 21.77 297.95 23.32 298.95 24.27C294.79 29.32 287.19 38.54 285.35 40.77C284.81 40.53 284.25 40.3 283.67 40.09C283.84 38.38 285.04 25.3 285.68 18.34C287.07 18.37 288.35 17.45 288.71 16.05C289.13 14.42 288.15 12.75 286.52 12.33C284.88 11.9 283.21 12.88 282.79 14.52C282.42 15.92 283.1 17.35 284.33 17.99C281.31 24.83 275.47 38.1 275.45 38.15C275.45 38.17 275.45 38.18 275.45 38.19C274.92 38.13 274.37 38.08 273.82 38.03C273.71 37.29 271.2 21.91 269.89 13.9C271.39 13.55 272.51 12.2 272.51 10.59C272.51 8.72 270.99 7.19 269.11 7.19C267.24 7.19 265.72 8.72 265.72 10.59C265.72 12.2 266.84 13.55 268.34 13.9C267.04 21.87 264.55 37.15 264.42 38.02C263.83 38.06 263.27 38.12 262.71 38.18C262.71 38.16 262.71 38.15 262.7 38.13C262.69 38.07 256.84 24.8 253.83 17.97C255.06 17.32 255.73 15.9 255.37 14.49C254.94 12.86 253.28 11.88 251.64 12.3C250.01 12.72 249.02 14.39 249.45 16.03C249.81 17.43 251.09 18.35 252.48 18.32C253.11 25.26 254.32 38.32 254.48 40.06C253.91 40.26 253.37 40.49 252.84 40.72C250.93 38.4 243.41 29.29 239.27 24.28C240.28 23.32 240.54 21.77 239.81 20.52C238.96 19.06 237.09 18.57 235.63 19.42C234.17 20.27 233.68 22.14 234.53 23.6C235.26 24.85 236.74 25.39 238.07 24.98C240.55 31.46 248.58 52.31 248.89 52.6L248.89 52.6C248.9 52.63 249.69 57.8 249.77 59.52C249.86 61.22 249.12 65.4 249.17 65.42L249.17 65.43C249.17 65.43 249.17 65.42 249.18 65.42C255.13 68.21 261.91 69.78 269.18 69.78C276.52 69.78 289.77 65.29 289.71 65.26C288.84 63.43 289.17 52.59 289.17 52.59C289.48 52.3 297.61 31.63 300.16 24.98C301.47 25.39 302.95 24.85 303.68 23.6" />
			<g id="Layer">
				<path id="Layer" class="shp11" d="M250.65 64.18C256.91 61.6 262.77 60.49 269.95 60.49C276.85 60.49 282.37 61.63 288.14 64.03" />
				<path id="Layer" class="shp11" d="M286.95 52.09C281.86 50.13 275.62 48.98 268.88 48.98C262.08 48.98 255.79 50.15 250.67 52.14" />
			</g>
			<path id="Layer" class="shp12" d="M287.56 60.61C281.92 58.75 276.19 57.4 269.72 57.4C263.14 57.4 256.8 58.79 250.85 60.72" />
			<path id="Layer" class="shp13" d="M266.3 53.65L269.14 55.07L271.99 53.65L269.14 52.23L266.3 53.65Z" />
			<path id="Layer" class="shp13" d="M283.61 55.5L280.58 56.45L278 54.59L281.03 53.64L283.61 55.5Z" />
			<path id="Layer" class="shp13" d="M254.68 55.5L257.71 56.45L260.29 54.59L257.26 53.64L254.68 55.5Z" />
			<path id="Layer" class="shp14" d="M289.22 -20.64C283.15 -23.48 276.51 -24.97 269.17 -24.97C261.82 -24.97 254.71 -23.34 248.44 -20.5C254.51 -17.67 261.39 -16.07 268.73 -16.07C276.08 -16.06 282.96 -17.8 289.22 -20.63L289.22 -20.64Z" />
			<path id="Layer" class="shp14" d="M288.77 -33.37L288.77 -33.38C283.31 -35.62 276.97 -36.99 268.73 -36.99C260.48 -36.99 254.11 -35.62 248.49 -33.37C248.49 -33.37 249.1 -28.17 249.13 -26.45C249.16 -24.51 248.62 -20.54 248.62 -20.54C254.88 -23.37 261.83 -24.97 269.17 -24.97C276.37 -24.97 283.68 -23.49 289.22 -20.64C288.31 -22.46 288.77 -33.36 288.77 -33.36L288.77 -33.37Z" />
			<path id="Layer" class="shp14" d="M248.64 -20.57C254.54 -23.37 261.83 -24.97 269.17 -24.97C276.37 -24.97 282.41 -23.95 289.22 -20.64C288.95 -21.41 288.76 -23.78 288.71 -24.65C282.68 -26.89 276.03 -28.16 269.18 -28.16C262.26 -28.16 255.3 -26.82 249.05 -24.53C248.92 -23.64 248.64 -20.58 248.64 -20.58L248.64 -20.57Z" />
			<path id="Layer" class="shp15" d="M302.3 -66.55C300.84 -67.4 298.97 -66.9 298.12 -65.44C297.39 -64.19 297.65 -62.64 298.65 -61.69C294.49 -56.64 286.88 -47.42 285.05 -45.19C284.51 -45.43 283.95 -45.66 283.37 -45.87C283.53 -47.58 284.74 -60.66 285.38 -67.62C286.77 -67.59 288.05 -68.51 288.41 -69.91C288.83 -71.54 287.85 -73.21 286.21 -73.64C284.58 -74.06 282.91 -73.08 282.49 -71.44C282.12 -70.04 282.8 -68.61 284.03 -67.97C281.01 -61.13 275.17 -47.86 275.15 -47.81C275.15 -47.79 275.15 -47.78 275.15 -47.77C274.62 -47.83 274.07 -47.89 273.51 -47.93C273.4 -48.67 270.9 -64.05 269.59 -72.06C271.09 -72.41 272.21 -73.76 272.21 -75.37C272.21 -77.24 270.69 -78.77 268.81 -78.77C266.94 -78.77 265.41 -77.24 265.41 -75.37C265.41 -73.76 266.54 -72.41 268.04 -72.06C266.74 -64.09 264.24 -48.81 264.11 -47.94C263.53 -47.9 262.96 -47.84 262.41 -47.78C262.41 -47.8 262.41 -47.81 262.4 -47.83C262.39 -47.89 256.54 -61.16 253.53 -67.99C254.76 -68.64 255.43 -70.06 255.07 -71.47C254.64 -73.1 252.97 -74.08 251.34 -73.66C249.71 -73.24 248.72 -71.57 249.15 -69.93C249.51 -68.53 250.79 -67.61 252.18 -67.64C252.81 -60.7 254.01 -47.65 254.18 -45.9C253.61 -45.7 253.06 -45.47 252.54 -45.24C250.63 -47.56 243.11 -56.67 238.97 -61.69C239.98 -62.64 240.24 -64.19 239.51 -65.44C238.66 -66.9 236.79 -67.4 235.33 -66.54C233.87 -65.69 233.38 -63.82 234.23 -62.36C234.96 -61.11 236.44 -60.57 237.77 -60.98C240.25 -54.5 248.28 -33.65 248.59 -33.37C254.12 -35.62 260.49 -36.99 268.73 -36.99C276.98 -36.99 283.34 -35.62 288.87 -33.37C289.18 -33.66 297.31 -54.33 299.86 -60.98C301.19 -60.57 302.67 -61.11 303.4 -62.36C304.22 -63.82 303.73 -65.69 302.27 -66.54L302.3 -66.55Z" />
			<path id="Layer" class="shp1" d="M266 -32.38L268.84 -30.96L271.69 -32.38L268.84 -33.8L266 -32.38Z" />
			<path id="Layer" class="shp1" d="M254.38 -30.54L257.41 -29.6L259.99 -31.46L256.96 -32.4L254.38 -30.54Z" />
			<path id="Layer" class="shp1" d="M283.31 -30.53L280.28 -29.58L277.7 -31.44L280.73 -32.39L283.31 -30.53Z" />
			<g id="Layer">
				<path id="Layer" class="shp16" d="M-13.37 64.65L-14.34 64.65L-14.34 58.83L-19 53.6L-19.05 53.6L-19.05 22.78L-19 22.78L-12.93 16.98L-12.89 16.98L-12.89 7.04C-12.89 6.18 -13.57 5.47 -14.4 5.47L-22.79 5.47L-22.79 10.87L-27.51 12.43L-31.85 10.87L-31.85 5.47L-42.2 5.47L-42.2 10.87L-46.55 12.43L-51.26 10.87L-51.26 5.47L-59.65 5.47C-60.48 5.47 -61.16 6.18 -61.16 7.04L-61.16 16.98L-61.14 16.98L-55.05 22.78L-55.05 53.6L-59.71 58.83L-59.71 64.65L-60.68 64.65C-61.55 64.65 -62.26 65.35 -62.26 66.22L-62.26 69.92C-62.26 70.78 -61.55 71.49 -60.68 71.49L-13.37 71.49C-12.5 71.49 -11.8 70.78 -11.8 69.92L-11.8 66.22C-11.8 65.36 -12.5 64.65 -13.37 64.65L-13.37 64.65Z" />
				<path id="Layer" class="shp17" d="M-58.18 64.65L-16.22 64.65" />
				<path id="Layer" class="shp17" d="M-57.99 58.83L-16.4 58.83" />
				<path id="Layer" class="shp17" d="M-20.84 53.61L-53.93 53.61" />
				<path id="Layer" class="shp17" d="M-53.74 22.79L-20.65 22.79" />
				<path id="Layer" class="shp17" d="M-59.1 16.98L-14.19 16.98" />
			</g>
			<path id="Layer" class="shp15" d="M-13.72 -14.41C-12.85 -14.41 -12.15 -15.11 -12.15 -15.98L-12.15 -19.68C-12.15 -20.55 -12.85 -21.25 -13.72 -21.25L-61.04 -21.25C-61.91 -21.25 -62.61 -20.55 -62.61 -19.68L-62.61 -15.98C-62.61 -15.11 -61.91 -14.41 -61.04 -14.41L-13.72 -14.41Z" />
			<path id="Layer" class="shp15" d="M-60.07 -27.07L-14.69 -27.07L-14.69 -21.25L-60.07 -21.25L-60.07 -27.07Z" />
			<path id="Layer" class="shp14" d="M-14.69 -27.07L-19.36 -32.3L-55.4 -32.3L-60.07 -27.07L-14.69 -27.07Z" />
			<path id="Layer" class="shp18" d="M-13.27 -68.94L-19.36 -63.12L-55.4 -63.12L-61.51 -68.94L-13.27 -68.94Z" />
			<path id="Layer" class="shp15" d="M-55.4 -63.12L-19.41 -63.12L-19.41 -32.3L-55.4 -32.3L-55.4 -63.12Z" />
			<path id="Layer" class="shp19" d="M-14.75 -80.43L-23.15 -80.43L-23.15 -75.03L-27.86 -73.47L-32.21 -75.03L-32.21 -80.43L-42.56 -80.43L-42.56 -75.03L-46.9 -73.47L-51.61 -75.03L-51.61 -80.43L-60.01 -80.43C-60.84 -80.43 -61.51 -79.73 -61.51 -78.86L-61.51 -68.92L-13.25 -68.92L-13.25 -78.86C-13.25 -79.73 -13.92 -80.43 -14.75 -80.43L-14.75 -80.43Z" />
			<path id="Layer" class="shp20" d="M154.87 69.82C154.25 69.48 148.62 63.95 143.4 63.95C140.69 63.95 138.56 64.77 136.69 65.49C134.79 66.23 132.99 66.92 130.39 66.92C127.36 66.92 124.85 65.99 122.63 65.18C120.84 64.52 119.29 63.95 117.71 63.95C116.13 63.95 114.58 64.52 112.79 65.18C110.57 65.99 108.06 66.92 105.03 66.92C102.43 66.92 100.63 66.23 98.73 65.49C96.85 64.77 94.73 63.95 92.02 63.95C86.8 63.95 81.17 69.48 80.55 69.82C80.55 69.82 82.82 68.4 84.93 68.4C87.05 68.4 88.88 69.88 92.02 69.88C93.63 69.88 94.94 70.39 96.6 71.03C98.71 71.84 101.32 72.85 105.03 72.85C109.11 72.85 112.42 71.63 114.84 70.74C115.94 70.34 117.18 69.88 117.71 69.88C118.24 69.88 119.48 70.34 120.58 70.74C123 71.63 126.31 72.85 130.39 72.85C134.09 72.85 136.71 71.84 138.82 71.03C140.48 70.39 141.79 69.88 143.4 69.88C146.54 69.88 148.92 68.4 150.49 68.4C152.05 68.4 154.9 69.82 154.9 69.82L154.87 69.82Z" />
			<path id="Layer" class="shp21" d="M137.64 35.91C137.64 26.56 129.66 11.73 123.55 9.72C123.34 9.65 123.12 9.59 122.89 9.55C123.96 9.15 124.72 8.13 124.72 6.93C124.72 5.38 123.47 4.13 121.93 4.13C120.38 4.13 119.13 5.38 119.13 6.93C119.13 8 119.74 8.93 120.62 9.4C119.37 9.48 118.02 9.81 116.62 10.37C115.73 9.96 114.85 9.67 113.98 9.51C115 9.1 115.72 8.1 115.72 6.93C115.72 5.38 114.47 4.13 112.92 4.13C111.38 4.13 110.13 5.38 110.13 6.93C110.13 8.02 110.75 8.96 111.66 9.42C111.19 9.47 110.72 9.57 110.27 9.72C104.17 11.73 96.37 26.01 96.37 35.91C96.37 43.81 99.57 50.61 103.26 55.54C103.81 57 104.65 57.04 104.83 57.22C104.83 57.22 104.83 57.22 104.83 57.22C104.83 57.24 104.1 61.98 104.03 63.05C103.92 64.7 103.75 66.64 103.75 66.64C107.78 68.42 112.2 69.45 116.99 69.45C121.79 69.45 125.99 68.32 130.02 66.54C129.87 65.23 129.71 63.91 129.38 61.93C129.21 60.9 128.62 57.22 128.62 57.22C128.8 57.04 129.88 55.67 129.88 55.67C133.8 50.72 137.63 44.12 137.63 35.91L137.64 35.91Z" />
			<path id="Layer" class="shp22" d="M104.93 57.22C108.2 55.81 111.96 54.58 116.83 54.58C121.69 54.58 125.45 55.81 128.72 57.22C128.9 57.04 129.32 56.58 130.21 55.34C127.46 52.37 123.45 50.73 116.91 50.73C109.92 50.73 106.11 52.56 103.36 55.54C103.92 56.99 104.76 57.04 104.94 57.22L104.93 57.22Z" />
			<path id="Layer" class="shp23" d="M129.91 66.54C125.88 64.77 121.76 63.89 116.96 63.89C112.16 63.89 107.67 64.87 103.64 66.64C107.67 68.41 112.09 69.44 116.89 69.44C121.69 69.44 125.89 68.31 129.92 66.54L129.91 66.54Z" />
			<path id="Layer" class="shp22" d="M129.8 55.67C132.34 51.43 135.68 43.43 131.5 29.81C128 18.39 117.69 7.24 110.19 9.72C103.53 11.91 96.29 27.65 96.29 35.9C96.29 43.8 99.49 50.61 103.18 55.53L129.81 55.66L129.8 55.67Z" />
			<path id="Layer" class="shp22" d="M112.84 9.72C111.29 9.72 110.04 8.47 110.04 6.92C110.04 5.37 111.29 4.12 112.84 4.12C114.39 4.12 115.64 5.37 115.64 6.92C115.64 8.47 114.39 9.72 112.84 9.72Z" />
			<path id="Layer" class="shp24" d="M128.53 57.21L128.53 57.21C125.26 55.8 121.5 54.62 116.64 54.62C111.77 54.62 108.01 55.8 104.75 57.21C104.75 57.21 104.01 61.97 103.94 63.04C103.83 64.69 103.67 66.64 103.67 66.64C107.69 64.87 112.19 63.89 116.98 63.89C121.69 63.89 125.96 64.83 129.93 66.54C129.79 65.22 129.62 63.9 129.29 61.93C129.11 60.89 128.52 57.2 128.52 57.2L128.53 57.21Z" />
			<path id="Layer" class="shp25" d="M128.41 63.59C124.79 62.47 120.92 61.85 116.93 61.85C112.87 61.85 108.72 62.51 105 63.68" />
			<g id="Layer">
				<path id="Layer" class="shp26" d="M105.78 56.78C108.81 55.56 112.28 54.57 116.64 54.57C121.03 54.57 124.51 55.57 127.55 56.8" />
				<path id="Layer" class="shp26" d="M129.52 54.63C125.68 51.56 122.6 50.73 116.91 50.73C112.15 50.73 107.23 52 104.87 54.15" />
			</g>
			<path id="Layer" class="shp27" d="M123.59 30.71L122.29 32.02L115.71 32.02L115.71 26.08L117.02 24.77L114.38 22.13L111.74 24.77L113.06 26.09L113.06 32.02L106.44 32.02L105.13 30.71L102.49 33.35L105.13 35.99L106.46 34.67L113.06 34.67L113.06 41.91L111.74 43.23L114.38 45.87L117.02 43.23L115.71 41.92L115.71 34.67L122.27 34.67L123.59 35.99L126.23 33.35L123.59 30.71Z" />
			<path id="Layer" class="shp28" d="M153.83 -16.04C153.21 -16.38 147.58 -21.91 142.36 -21.91C139.65 -21.91 137.52 -21.09 135.65 -20.37C133.75 -19.63 131.95 -18.94 129.35 -18.94C126.32 -18.94 123.81 -19.87 121.59 -20.68C119.8 -21.34 118.25 -21.91 116.67 -21.91C115.09 -21.91 113.54 -21.34 111.75 -20.68C109.53 -19.87 107.02 -18.94 103.99 -18.94C101.39 -18.94 99.59 -19.63 97.69 -20.37C95.81 -21.09 93.69 -21.91 90.97 -21.91C85.76 -21.91 80.13 -16.38 79.51 -16.04C79.51 -16.04 81.9 -17.46 83.89 -17.46C85.88 -17.46 87.84 -15.98 90.97 -15.98C92.58 -15.98 93.9 -15.47 95.56 -14.83C97.66 -14.02 100.28 -13.01 103.99 -13.01C108.07 -13.01 111.38 -14.23 113.8 -15.12C114.9 -15.52 116.14 -15.98 116.67 -15.98C117.2 -15.98 118.44 -15.52 119.54 -15.12C121.96 -14.23 125.27 -13.01 129.35 -13.01C133.05 -13.01 135.67 -14.02 137.78 -14.83C139.44 -15.47 140.75 -15.98 142.36 -15.98C145.5 -15.98 146.8 -17.46 149.45 -17.46C152.12 -17.46 153.86 -16.04 153.86 -16.04L153.83 -16.04Z" />
			<path id="Layer" class="shp21" d="M122.42 -76.14C122.21 -76.21 121.99 -76.26 121.77 -76.31C122.83 -76.71 123.59 -77.73 123.59 -78.93C123.59 -80.47 122.34 -81.73 120.8 -81.73C119.25 -81.73 118 -80.47 118 -78.93C118 -77.86 118.61 -76.93 119.49 -76.46C111.47 -75.94 99.29 -65.37 98.9 -47.48C98.75 -40.37 99.65 -34.55 102.13 -30.32L128.98 -30.51C132.9 -35.46 136.51 -41.73 136.51 -49.95C136.51 -60.88 128.53 -74.14 122.42 -76.14L122.42 -76.14Z" />
			<path id="Layer" class="shp21" d="M130.46 -56.04C127.51 -65.67 119.72 -75.1 112.85 -76.34C113.87 -76.76 114.59 -77.76 114.59 -78.93C114.59 -80.47 113.34 -81.73 111.79 -81.73C110.25 -81.73 109 -80.47 109 -78.93C109 -77.84 109.62 -76.9 110.54 -76.44C110.06 -76.38 109.6 -76.29 109.14 -76.14C103.05 -74.13 95.24 -60.65 95.24 -49.95C95.24 -42.05 98.44 -35.25 102.13 -30.32L128.98 -30.51C131.52 -34.75 134.63 -42.43 130.46 -56.04L130.46 -56.04Z" />
			<path id="Layer" class="shp23" d="M128.89 -19.31C125.52 -20.86 120.74 -21.96 115.94 -21.96C111.15 -21.96 106.65 -20.98 102.63 -19.21C106.65 -17.44 111.07 -16.41 115.87 -16.41C120.67 -16.41 124.87 -17.54 128.9 -19.31L128.89 -19.31Z" />
			<path id="Layer" class="shp29" d="M127.49 -28.64L127.49 -28.64C124.22 -30.05 120.46 -31.23 115.6 -31.23C110.73 -31.23 106.97 -30.05 103.7 -28.64C103.7 -28.64 102.97 -23.88 102.9 -22.81C102.79 -21.16 102.62 -19.21 102.62 -19.21C106.65 -20.98 111.14 -21.96 115.94 -21.96C120.65 -21.96 124.92 -21.02 128.89 -19.31C128.75 -20.63 128.58 -21.95 128.25 -23.92C128.07 -24.97 127.48 -28.65 127.48 -28.65L127.49 -28.64Z" />
			<path id="Layer" class="shp29" d="M102.62 -19.21C106.65 -20.98 111.14 -21.96 115.94 -21.96C120.64 -21.96 124.91 -21.02 128.88 -19.31C128.78 -20.41 128.54 -21.1 128.38 -22.51C124.39 -23.91 120.35 -24.62 115.88 -24.62C111.35 -24.62 106.87 -23.8 102.84 -22.37C102.82 -21.13 102.61 -19.21 102.61 -19.21L102.62 -19.21Z" />
			<path id="Layer" class="shp21" d="M103.7 -28.64C106.97 -30.05 110.73 -31.25 115.6 -31.28C119.74 -31.31 124.22 -30.05 127.49 -28.64C127.67 -28.82 128.43 -29.05 128.98 -30.51C126.23 -33.49 122.14 -35.04 115.6 -35.04C108.61 -35.04 104.88 -33.3 102.13 -30.32C102.67 -28.86 103.51 -28.82 103.69 -28.64L103.7 -28.64Z" />
			<path id="Layer" class="shp30" d="M115.6 -35.04L115.6 -31.28" />
			<path id="Layer" class="shp31" d="M122.55 -55.15L121.24 -53.84L114.66 -53.84L114.66 -59.77L115.97 -61.08L113.33 -63.72L110.69 -61.08L112.01 -59.76L112.01 -53.84L105.4 -53.84L104.09 -55.15L101.45 -52.51L104.09 -49.87L105.41 -51.19L112.01 -51.19L112.01 -43.94L110.69 -42.62L113.33 -39.98L115.97 -42.62L114.66 -43.93L114.66 -51.19L121.23 -51.19L122.55 -49.87L125.19 -52.51L122.55 -55.15Z" />
			<path id="Layer" class="shp32" d="M334.04 12.5C334.04 12.5 335.15 6.54 335.15 5.71C335.15 4.87 335.98 4.74 336.81 5.85C337.64 6.95 341.39 12.36 341.39 12.36L334.04 12.49L334.04 12.5Z" />
			<path id="Layer" class="shp32" d="M383.77 58.23C383.39 55.54 382.88 52.98 382.25 50.54L380.25 49.74L381.59 48.14C380.82 45.56 379.93 43.13 378.96 40.85L377.06 40.31L378.01 38.69C376.99 36.52 375.89 34.5 374.75 32.62L372.98 32.26L373.61 30.8C372.34 28.83 371.03 27.03 369.72 25.4L367.85 25.19L368.35 23.73C366.83 21.94 365.35 20.39 363.97 19.06L362.1 18.95L362.42 17.61C359.08 14.58 356.71 13.11 356.71 13.11L352.46 14.4C352.46 14.4 350.43 13.29 348.76 12.18C348.76 12.18 347.65 8.48 347.29 6.45C346.92 4.42 345.81 5.34 345.44 5.9C345.07 6.45 341.23 10.7 341.23 10.7C341.23 10.7 338.94 10.39 337.31 10.7C334.9 11.17 333.79 12.78 331.02 15.42C329 17.34 327.78 19.02 327.09 20.82C326.4 22.63 327.23 22.63 326.95 24.29C326.68 25.95 319.19 38.43 318.36 39.95C317.53 41.48 315.52 46.14 319.47 49.1C320.57 49.94 321.41 50.35 322.1 50.63C322.1 50.63 323.21 50.35 323.63 49.8C323.7 49.7 323.74 49.64 323.76 49.6C323.77 49.57 323.78 49.57 323.76 49.6C323.71 49.71 323.62 50.12 324.04 50.63C324.73 51.46 325.63 51.4 326.12 51.46C326.86 51.55 328.2 50.91 329.31 49.24C330.42 47.58 331.11 47.02 331.94 46.05C332.77 45.08 337.36 42.94 339.15 39.95C339.57 39.26 340.54 39.54 341.23 40.09C341.93 40.65 345.81 40.79 347.47 38.01C347.47 38.01 348.26 45.31 344.97 50.35C339.57 58.67 330.42 60.75 327.65 68.51L384.49 68.51C384.49 65.83 384.34 63.25 384.09 60.78L382.2 59.78L383.8 58.23L383.77 58.23Z" />
			<path id="Layer" class="shp33" d="M354.49 16.26C354.49 16.26 378.7 34.38 378.7 67.09" />
			<path id="Layer" class="shp34" d="M323.75 49.4C323.77 49.37 323.76 49.37 323.75 49.4Z" />
			<path id="Layer" class="shp33" d="M349.5 28.83C349.96 34 347.56 37.7 347.47 38.02C347.47 38.02 353.29 35.02 353.84 31.05" />
			<path id="Layer" class="shp33" d="M347.46 38.02C347.46 38.02 351.34 39.92 354.21 38.71" />
			<path id="Layer" class="shp34" d="M323.62 49.6C323.62 49.6 326.21 46.27 326.95 44.75" />
			<path id="Layer" class="shp33" d="M339.56 18.89C339.56 18.89 335.3 18.91 333.88 21.25C331.94 24.43 334.15 24.85 334.15 24.85C334.15 24.85 336.37 25.54 337.9 23.46C339.52 21.25 338.17 19.86 338.17 19.86L339.55 18.89L339.56 18.89Z" />
			<path id="Layer" class="shp33" d="M318.91 42.39C320.43 41.97 321.4 42.11 322.1 42.53C322.1 42.53 321.4 40.45 322.65 38.65C323.9 36.84 325.98 36.71 327.78 33.24" />
			<path id="Layer" class="shp33" d="M359.38 20.83L362.02 19.17" />
			<path id="Layer" class="shp33" d="M364.79 26.79L367.43 25.55" />
			<path id="Layer" class="shp33" d="M369.64 33.71L372.69 32.46" />
			<path id="Layer" class="shp33" d="M373.53 41.63L376.71 40.52" />
			<path id="Layer" class="shp33" d="M376.57 50.92L379.9 49.95" />
			<path id="Layer" class="shp33" d="M378.38 60.34L381.84 59.93" />
			<path id="Layer" class="shp15" d="M330.71 -71.66C330.71 -71.66 331.82 -77.62 331.82 -78.45C331.82 -79.28 332.65 -79.42 333.48 -78.31C334.31 -77.2 338.06 -71.79 338.06 -71.79L330.71 -71.66L330.71 -71.66Z" />
			<path id="Layer" class="shp15" d="M380.45 -25.93C380.07 -28.62 379.56 -31.18 378.93 -33.62L376.93 -34.42L378.27 -36.02C377.5 -38.6 376.61 -41.03 375.64 -43.31L373.74 -43.85L374.68 -45.45C373.66 -47.62 372.56 -49.65 371.42 -51.53L369.65 -51.89L370.28 -53.35C369.01 -55.32 367.7 -57.12 366.39 -58.75L364.52 -58.96L365.02 -60.42C363.5 -62.21 362.01 -63.76 360.64 -65.09L358.77 -65.2L359.09 -66.54C355.75 -69.57 353.38 -71.04 353.38 -71.04L349.13 -69.75C349.13 -69.75 347.1 -70.86 345.43 -71.97C345.43 -71.97 344.32 -75.66 343.96 -77.7C343.58 -79.73 342.48 -78.81 342.11 -78.25C341.74 -77.7 337.9 -73.45 337.9 -73.45C337.9 -73.45 335.61 -73.76 333.97 -73.45C331.57 -72.98 330.46 -71.37 327.69 -68.73C325.67 -66.81 324.45 -65.13 323.76 -63.32C323.07 -61.52 323.9 -61.52 323.62 -59.86C323.34 -58.2 315.86 -45.72 315.03 -44.19C314.2 -42.67 312.19 -38.01 316.14 -35.04C317.24 -34.21 318.08 -33.8 318.77 -33.52C318.77 -33.52 319.88 -33.8 320.29 -34.35C320.37 -34.45 320.41 -34.51 320.42 -34.54C320.44 -34.58 320.45 -34.58 320.42 -34.54C320.38 -34.44 320.29 -34.03 320.71 -33.52C321.4 -32.69 322.29 -32.75 322.79 -32.69C323.53 -32.59 324.87 -33.24 325.98 -34.91C327.09 -36.57 327.78 -37.12 328.61 -38.09C329.44 -39.06 334.03 -41.21 335.82 -44.19C336.24 -44.89 337.21 -44.61 337.9 -44.05C338.59 -43.5 342.48 -43.36 344.14 -46.14C344.14 -46.14 344.93 -38.84 341.64 -33.8C336.24 -25.48 327.09 -23.4 324.32 -15.64L381.15 -15.64C381.15 -18.32 381.01 -20.89 380.76 -23.37L378.87 -24.37L380.5 -25.91L380.45 -25.93Z" />
			<path id="Layer" class="shp34" d="M351.16 -67.9C351.16 -67.9 375.37 -49.78 375.37 -17.06" />
			<path id="Layer" class="shp34" d="M320.42 -34.54C320.44 -34.58 320.44 -34.58 320.42 -34.54Z" />
			<path id="Layer" class="shp34" d="M346.17 -55.33C346.63 -50.16 344.23 -46.46 344.14 -46.14C344.14 -46.14 349.96 -49.14 350.51 -53.11" />
			<path id="Layer" class="shp34" d="M344.14 -46.13C344.14 -46.13 348.02 -44.23 350.89 -45.44" />
			<path id="Layer" class="shp34" d="M320.29 -34.35C320.29 -34.35 322.88 -37.68 323.62 -39.2" />
			<path id="Layer" class="shp34" d="M336.24 -65.26C336.24 -65.26 331.98 -65.24 330.56 -62.91C328.62 -59.72 330.83 -59.3 330.83 -59.3C330.83 -59.3 333.05 -58.61 334.58 -60.69C336.2 -62.9 334.85 -64.29 334.85 -64.29L336.23 -65.26L336.24 -65.26Z" />
			<path id="Layer" class="shp34" d="M315.58 -41.56C317.11 -41.98 318.08 -41.84 318.77 -41.42C318.77 -41.42 318.08 -43.5 319.32 -45.3C320.57 -47.11 322.65 -47.24 324.45 -50.71" />
			<path id="Layer" class="shp34" d="M356.06 -63.32L358.69 -64.98" />
			<path id="Layer" class="shp34" d="M361.47 -57.36L364.1 -58.61" />
			<path id="Layer" class="shp34" d="M366.32 -50.44L369.37 -51.69" />
			<path id="Layer" class="shp34" d="M370.2 -42.53L373.39 -43.64" />
			<path id="Layer" class="shp34" d="M373.25 -33.24L376.58 -34.21" />
			<path id="Layer" class="shp34" d="M375.05 -23.81L378.52 -24.23" />
			<path id="Layer" class="shp35" d="M433.45 62.57C429.7 55.13 430.08 41.87 430.39 36.73C436.32 36.32 440.59 35.2 440.59 33.87C440.59 32.57 436.48 31.47 430.72 31.04C434.4 29.15 436.92 25.32 436.92 20.89C436.92 14.59 431.81 9.48 425.51 9.48C419.2 9.48 414.09 14.59 414.09 20.89C414.09 25.32 416.61 29.15 420.29 31.04C414.53 31.47 410.42 32.57 410.42 33.87C410.42 35.2 414.69 36.32 420.62 36.73C420.93 41.87 421.31 55.13 417.56 62.57C410.21 64.05 405.05 67.52 405.05 71.56L445.95 71.56C445.95 67.52 440.8 64.05 433.45 62.57L433.45 62.57Z" />
			<path id="Layer" class="shp36" d="M433.45 -21.03C429.7 -28.48 430.08 -41.74 430.39 -46.87C436.32 -47.28 440.59 -48.4 440.59 -49.73C440.59 -51.03 436.48 -52.13 430.72 -52.56C434.4 -54.45 436.92 -58.29 436.92 -62.71C436.92 -69.01 431.81 -74.12 425.51 -74.12C419.2 -74.12 414.09 -69.01 414.09 -62.71C414.09 -58.29 416.61 -54.45 420.29 -52.56C414.53 -52.13 410.42 -51.03 410.42 -49.73C410.42 -48.4 414.69 -47.28 420.62 -46.87C420.93 -41.74 421.31 -28.48 417.56 -21.03C410.21 -19.55 405.05 -16.08 405.05 -12.04L445.95 -12.04C445.95 -16.08 440.8 -19.55 433.45 -21.03L433.45 -21.03Z" />
			<path id="Layer" class="shp15" d="M54.95 -71.66C54.95 -71.66 53.84 -77.62 53.84 -78.45C53.84 -79.28 53.01 -79.42 52.18 -78.31C51.35 -77.2 47.6 -71.79 47.6 -71.79L54.94 -71.66L54.95 -71.66Z" />
			<path id="Layer" class="shp15" d="M5.21 -25.93C5.59 -28.62 6.1 -31.18 6.73 -33.62L8.74 -34.42L7.4 -36.02C8.16 -38.6 9.05 -41.03 10.02 -43.31L11.92 -43.85L10.98 -45.45C12 -47.62 13.1 -49.65 14.24 -51.53L16.01 -51.89L15.38 -53.35C16.65 -55.32 17.97 -57.12 19.27 -58.75L21.14 -58.96L20.64 -60.42C22.16 -62.21 23.65 -63.76 25.02 -65.09L26.9 -65.2L26.57 -66.54C29.92 -69.57 32.28 -71.04 32.28 -71.04L36.53 -69.75C36.53 -69.75 38.56 -70.86 40.23 -71.97C40.23 -71.97 41.34 -75.66 41.71 -77.7C42.08 -79.73 43.18 -78.81 43.55 -78.25C43.92 -77.7 47.76 -73.45 47.76 -73.45C47.76 -73.45 50.05 -73.76 51.69 -73.45C54.09 -72.98 55.2 -71.37 57.97 -68.73C59.99 -66.81 61.21 -65.13 61.9 -63.32C62.59 -61.52 61.76 -61.52 62.04 -59.86C62.32 -58.2 69.8 -45.72 70.63 -44.19C71.47 -42.67 73.47 -38.01 69.53 -35.04C68.42 -34.21 67.58 -33.8 66.89 -33.52C66.89 -33.52 65.78 -33.8 65.37 -34.35C65.29 -34.45 65.25 -34.51 65.24 -34.54C65.22 -34.58 65.22 -34.58 65.24 -34.54C65.28 -34.44 65.38 -34.03 64.95 -33.52C64.26 -32.69 63.37 -32.75 62.87 -32.69C62.13 -32.59 60.79 -33.24 59.68 -34.91C58.57 -36.57 57.88 -37.12 57.05 -38.09C56.22 -39.06 51.63 -41.21 49.84 -44.19C49.42 -44.89 48.45 -44.61 47.76 -44.05C47.07 -43.5 43.18 -43.36 41.52 -46.14C41.52 -46.14 40.74 -38.84 44.02 -33.8C49.42 -25.48 58.57 -23.4 61.35 -15.64L4.48 -15.64C4.48 -18.32 4.63 -20.89 4.88 -23.37L6.77 -24.37L5.19 -25.91L5.21 -25.93Z" />
			<path id="Layer" class="shp34" d="M34.5 -67.9C34.5 -67.9 10.29 -49.78 10.29 -17.06" />
			<path id="Layer" class="shp34" d="M65.24 -34.54C65.22 -34.58 65.22 -34.58 65.24 -34.54Z" />
			<path id="Layer" class="shp34" d="M39.49 -55.33C39.03 -50.16 41.43 -46.46 41.52 -46.14C41.52 -46.14 35.7 -49.14 35.15 -53.11" />
			<path id="Layer" class="shp34" d="M41.52 -46.13C41.52 -46.13 37.64 -44.23 34.77 -45.44" />
			<path id="Layer" class="shp34" d="M65.37 -34.35C65.37 -34.35 62.78 -37.68 62.04 -39.2" />
			<path id="Layer" class="shp34" d="M49.42 -65.26C49.42 -65.26 53.68 -65.24 55.1 -62.91C57.04 -59.72 54.83 -59.3 54.83 -59.3C54.83 -59.3 52.61 -58.61 51.08 -60.69C49.46 -62.9 50.81 -64.29 50.81 -64.29L49.43 -65.26L49.42 -65.26Z" />
			<path id="Layer" class="shp34" d="M70.08 -41.56C68.55 -41.98 67.58 -41.84 66.89 -41.42C66.89 -41.42 67.58 -43.5 66.34 -45.3C65.09 -47.11 63.01 -47.24 61.21 -50.71" />
			<path id="Layer" class="shp34" d="M29.6 -63.32L26.97 -64.98" />
			<path id="Layer" class="shp34" d="M24.19 -57.36L21.56 -58.61" />
			<path id="Layer" class="shp34" d="M19.34 -50.44L16.29 -51.69" />
			<path id="Layer" class="shp34" d="M15.46 -42.53L12.27 -43.64" />
			<path id="Layer" class="shp34" d="M12.41 -33.24L9.08 -34.21" />
			<path id="Layer" class="shp34" d="M10.61 -23.81L7.14 -24.23" />
			<path id="Layer" class="shp32" d="M54.9 14.83C54.9 14.83 53.79 8.87 53.79 8.04C53.79 7.2 52.96 7.07 52.13 8.18C51.3 9.29 47.55 14.69 47.55 14.69L54.89 14.82L54.9 14.83Z" />
			<path id="Layer" class="shp32" d="M5.16 60.56C5.54 57.87 6.05 55.31 6.68 52.87L8.69 52.07L7.35 50.47C8.11 47.89 9 45.46 9.97 43.18L11.87 42.64L10.94 41.04C11.96 38.87 13.05 36.84 14.19 34.96L15.96 34.6L15.33 33.14C16.61 31.17 17.92 29.37 19.22 27.74L21.09 27.53L20.59 26.07C22.12 24.28 23.6 22.73 24.97 21.4L26.85 21.29L26.52 19.95C29.87 16.92 32.23 15.45 32.23 15.45L36.48 16.74C36.48 16.74 38.52 15.63 40.18 14.52C40.18 14.52 41.29 10.83 41.66 8.79C42.03 6.76 43.14 7.69 43.51 8.24C43.88 8.79 47.71 13.05 47.71 13.05C47.71 13.05 50.01 12.73 51.64 13.05C54.04 13.51 55.15 15.13 57.92 17.76C59.95 19.68 61.16 21.36 61.85 23.17C62.54 24.97 61.71 24.97 61.99 26.63C62.27 28.3 69.75 40.77 70.59 42.3C71.42 43.82 73.43 48.49 69.48 51.45C68.37 52.28 67.53 52.69 66.84 52.97C66.84 52.97 65.73 52.69 65.32 52.14C65.24 52.04 65.21 51.98 65.19 51.95C65.17 51.91 65.17 51.91 65.19 51.95C65.23 52.06 65.33 52.46 64.9 52.97C64.21 53.8 63.32 53.74 62.82 53.8C62.08 53.9 60.74 53.25 59.63 51.59C58.52 49.92 57.83 49.37 57 48.4C56.17 47.43 51.58 45.28 49.79 42.3C49.37 41.6 48.4 41.88 47.71 42.44C47.02 42.99 43.14 43.13 41.47 40.36C41.47 40.36 40.69 47.65 43.97 52.69C49.37 61.01 58.52 63.09 61.3 70.85L4.43 70.85C4.43 68.17 4.57 65.6 4.82 63.12L6.71 62.12L5.13 60.56L5.16 60.56Z" />
			<path id="Layer" class="shp33" d="M34.45 18.59C34.45 18.59 10.24 36.71 10.24 69.42" />
			<path id="Layer" class="shp34" d="M65.19 51.73C65.17 51.7 65.17 51.7 65.19 51.73Z" />
			<path id="Layer" class="shp33" d="M39.44 31.16C38.98 36.33 41.38 40.03 41.47 40.35C41.47 40.35 35.65 37.35 35.1 33.38" />
			<path id="Layer" class="shp33" d="M41.47 40.35C41.47 40.35 37.59 42.25 34.72 41.04" />
			<path id="Layer" class="shp34" d="M65.32 51.93C65.32 51.93 62.73 48.6 61.99 47.08" />
			<path id="Layer" class="shp33" d="M49.37 21.22C49.37 21.22 53.63 21.24 55.05 23.58C57 26.77 54.78 27.18 54.78 27.18C54.78 27.18 52.56 27.87 51.03 25.79C49.41 23.58 50.76 22.19 50.76 22.19L49.38 21.22L49.37 21.22Z" />
			<path id="Layer" class="shp33" d="M70.03 44.72C68.5 44.3 67.53 44.44 66.84 44.86C66.84 44.86 67.53 42.78 66.29 40.98C65.04 39.17 62.96 39.04 61.16 35.57" />
			<path id="Layer" class="shp33" d="M29.55 23.17L26.92 21.5" />
			<path id="Layer" class="shp33" d="M24.14 29.13L21.51 27.88" />
			<path id="Layer" class="shp33" d="M19.29 36.04L16.24 34.79" />
			<path id="Layer" class="shp33" d="M15.41 43.96L12.22 42.85" />
			<path id="Layer" class="shp33" d="M12.36 53.25L9.03 52.28" />
			<path id="Layer" class="shp33" d="M10.56 62.67L7.09 62.26" />
		</g>
	</g>
</svg>