<svg xmlns="http://www.w3.org/2000/svg" viewBox="0 0 80 83" width="80" height="83">
	<style>
		tspan { white-space:pre }
		.shp0 { fill: #000000;stroke: #000000;stroke-width: 0.31 } 
		.shp1 { fill: #000000 } 
		.shp2 { fill: #000000;stroke: #ffffff;stroke-linecap:round;stroke-width: 1.009 } 
		.shp3 { fill: none;stroke: #ffffff;stroke-linejoin:bevel;stroke-width: 0.62 } 
		.shp4 { fill: none;stroke: #ffffff;stroke-linecap:round;stroke-width: 1.009 } 
		.shp5 { fill: #ffffff;stroke: #000000;stroke-width: 0.317 } 
		.shp6 { fill: none;stroke: #ffffff;stroke-width: 0.62 } 
		.shp7 { fill: #ffffff;stroke: #20201e;stroke-width: 1.211 } 
		.shp8 { fill: #ffffff;stroke: #20201e;stroke-linejoin:round;stroke-width: 1.211 } 
		.shp9 { fill: #ffffff;stroke: #20201e;stroke-linejoin:bevel;stroke-width: 1.211 } 
		.shp10 { fill: #000000;stroke: #000000;stroke-linejoin:bevel;stroke-width: 0.853 } 
		.shp11 { fill: #000000;stroke: #ffffff;stroke-linecap:round;stroke-width: 0.926 } 
		.shp12 { fill: none;stroke: #ffffff;stroke-linecap:round;stroke-width: 0.926 } 
		.shp13 { fill: #ffffff } 
		.shp14 { fill: #ffffff;stroke: #20201e;stroke-linejoin:bevel;stroke-width: 1.111 } 
		.shp15 { fill: #ffffff;stroke: #20201e;stroke-width: 1.111 } 
		.shp16 { fill: #000000;stroke: #000000;stroke-linecap:square;stroke-width: 0.853 } 
		.shp17 { fill: none;stroke: #ffffff;stroke-linecap:round;stroke-width: 0.853 } 
		.shp18 { fill: #ffffff;stroke: #20201e;stroke-linejoin:round;stroke-width: 1.111 } 
		.shp19 { fill: #ffffff;stroke: #20201e;stroke-linecap:square;stroke-width: 1.111 } 
		.shp20 { fill: #20201e } 
		.shp21 { fill: #ffffff;stroke: #20201e;stroke-width: 1.32 } 
		.shp22 { fill: #000000;stroke: #000000;stroke-width: 0.533 } 
		.shp23 { fill: #ffffff;stroke: #000000;stroke-linejoin:bevel;stroke-width: 1.014 } 
		.shp24 { fill: #000000;stroke: #000000;stroke-linejoin:bevel;stroke-width: 0.533 } 
		.shp25 { fill: none;stroke: #ffffff;stroke-linecap:round;stroke-linejoin:bevel;stroke-width: 0.533 } 
		.shp26 { fill: none;stroke: #ffffff;stroke-linecap:round;stroke-width: 0.533 } 
		.shp27 { fill: #ffffff;stroke: #000000;stroke-width: 0.533 } 
		.shp28 { fill: #ffffff;stroke: #20201e;stroke-linecap:round;stroke-linejoin:round;stroke-width: 1.32 } 
		.shp29 { fill: #ffffff;stroke: #20201e;stroke-linejoin:bevel;stroke-width: 1.32 } 
		.shp30 { fill: #ffffff;stroke: #000000;stroke-width: 1.014 } 
		.shp31 { fill: #ffffff;stroke: #000000;stroke-width: 0.77 } 
		.shp32 { fill: #20201e;stroke: #20201e;stroke-width: 0.853 } 
		.shp33 { fill: none;stroke: #ffffff;stroke-width: 0.853 } 
		.shp34 { fill: none;stroke: #20201e;stroke-width: 0.853 } 
		.shp35 { fill: #000000;stroke: #000000;stroke-linejoin:round;stroke-width: 0.79 } 
		.shp36 { fill: #ffffff;stroke: #000000;stroke-linejoin:round;stroke-width: 1.111 } 
	</style>
	<g id="Layer">
		<g id="Layer">
			<path id="Layer" class="shp0" d="M-111.74 28.52C-110.39 27.72 -109.82 26.65 -109.82 25.47C-109.82 25.13 -109.77 8.89 -109.77 8.89L-125.87 8.89C-125.87 8.89 -125.94 25.27 -125.94 25.47C-125.94 26.66 -125.1 27.74 -123.73 28.54C-124.7 28.68 -125.66 28.85 -126.61 29.06C-125.09 30.03 -123.66 31.16 -122.33 32.45C-120.46 34.28 -118.9 36.3 -117.68 38.48C-116.46 36.3 -114.91 34.28 -113.03 32.45C-111.7 31.16 -110.27 30.03 -108.75 29.06C-109.72 28.85 -110.72 28.68 -111.72 28.53L-111.74 28.52Z" />
			<path id="Layer" class="shp1" d="M-96.93 65.43C-97.93 63.43 -97.95 60.82 -97.51 59.06C-97.06 57.24 -92.76 53.81 -92.76 53.81C-85.19 46.45 -83.46 35.95 -88.89 30.36C-94.32 24.78 -104.86 26.23 -112.43 33.59C-114.69 35.79 -116.43 38.27 -117.61 40.82C-118.8 38.27 -120.53 35.79 -122.79 33.59C-130.36 26.23 -140.9 24.78 -146.34 30.36C-151.77 35.95 -150.03 46.45 -142.46 53.81C-142.12 54.14 -138.35 57.24 -137.9 59.06C-137.44 60.87 -137.38 63.48 -138.47 65.5L-138.31 65.5C-138.33 65.51 -138.35 65.52 -138.38 65.53C-132.11 68.62 -125.06 70.36 -117.61 70.36C-110.16 70.35 -103.21 68.51 -96.94 65.42" />
			<g id="Layer">
				<path id="Layer" class="shp2" d="M-137.28 65.06C-131.25 62.25 -124.58 60.69 -117.49 60.69C-110.68 60.69 -104.14 62.36 -98.31 64.73" />
				<path id="Layer" class="shp2" d="M-95.41 53.38C-101.69 51.25 -109.38 49.99 -117.7 49.99C-126.08 49.99 -133.84 51.27 -140.15 53.44" />
			</g>
			<path id="Layer" class="shp3" d="M-111.08 10.06L-124.59 22.17L-111.08 22.17L-124.59 10.06L-111.08 10.06Z" />
			<path id="Layer" class="shp4" d="M-99.34 60.77C-105.12 58.74 -111.27 57.27 -117.65 57.27C-124.16 57.27 -130.42 58.78 -136.3 60.88" />
			<path id="Layer" class="shp5" d="M-120.82 53.96L-117.65 55.54L-114.48 53.96L-117.65 52.37L-120.82 53.96Z" />
			<path id="Layer" class="shp5" d="M-133.77 56.02L-130.39 57.07L-127.52 55L-130.9 53.94L-133.77 56.02Z" />
			<path id="Layer" class="shp5" d="M-101.52 56.02L-104.91 57.07L-107.78 55L-104.4 53.94L-101.52 56.02Z" />
			<path id="Layer" class="shp3" d="M-124.59 10.06L-111.07 10.06L-111.07 22.17L-124.59 22.17L-124.59 10.06Z" />
			<path id="Layer" class="shp6" d="M-117.72 31.89C-120.87 31.89 -123.42 30.01 -123.42 27.68C-123.42 25.35 -120.87 23.47 -117.72 23.47C-114.57 23.47 -112.02 25.35 -112.02 27.68C-112.02 30.01 -114.57 31.89 -117.72 31.89Z" />
			<path id="Layer" class="shp7" d="M-109.74 -79.36L-125.84 -79.36L-125.84 -62.53C-125.84 -60.05 -122.22 -58.04 -117.75 -58.04C-113.28 -58.04 -109.77 -60.05 -109.77 -62.53C-109.77 -62.75 -109.74 -79.36 -109.74 -79.36L-109.74 -79.36Z" />
			<path id="Layer" class="shp7" d="M-125.84 -79.36L-109.74 -79.36L-109.74 -64.93L-125.84 -64.93L-125.84 -79.36Z" />
			<path id="Layer" class="shp7" d="M-125.84 -79.36L-109.74 -64.93" />
			<path id="Layer" class="shp7" d="M-109.74 -79.36L-125.84 -64.93" />
			<path id="Layer" class="shp8" d="M-97 -22.86C-103.26 -25.95 -110.07 -27.58 -117.53 -27.58C-124.99 -27.58 -132.12 -25.84 -138.38 -22.75C-132.12 -19.66 -125.11 -17.88 -117.65 -17.88C-110.19 -17.87 -103.26 -19.76 -97 -22.85L-97 -22.86Z" />
			<path id="Layer" class="shp9" d="M-93.87 -33.46C-93.51 -33.77 -93.15 -34.1 -92.8 -34.44C-85.23 -41.8 -83.5 -52.3 -88.93 -57.88C-94.37 -63.47 -104.9 -62.02 -112.47 -54.65C-114.74 -52.45 -116.47 -49.97 -117.66 -47.43C-118.84 -49.97 -120.58 -52.45 -122.84 -54.65C-130.41 -62.02 -140.95 -63.47 -146.38 -57.88C-151.81 -52.3 -150.08 -41.8 -142.51 -34.44C-142.16 -34.1 -141.8 -33.77 -141.44 -33.46C-134.9 -35.91 -126.64 -37.38 -117.65 -37.38C-108.67 -37.38 -100.41 -35.91 -93.88 -33.46L-93.87 -33.46Z" />
			<path id="Layer" class="shp7" d="M-117.65 -47.42C-116.47 -49.96 -114.73 -52.44 -112.47 -54.64C-110.63 -56.44 -108.6 -57.88 -106.52 -58.95C-109.97 -59.92 -113.72 -60.46 -117.64 -60.46C-121.57 -60.46 -125.32 -59.92 -128.77 -58.95C-126.69 -57.88 -124.67 -56.44 -122.83 -54.64C-120.57 -52.44 -118.84 -49.96 -117.65 -47.42L-117.65 -47.42Z" />
			<path id="Layer" class="shp9" d="M-93.96 -33.46L-93.96 -33.47C-100.5 -35.92 -108.75 -37.38 -117.73 -37.38C-126.72 -37.38 -134.98 -35.91 -141.52 -33.46C-141.52 -33.46 -138.39 -31 -137.93 -29.19C-137.48 -27.38 -137.28 -24.78 -138.37 -22.76C-132.11 -25.85 -124.98 -27.58 -117.52 -27.58C-110.21 -27.58 -103.16 -25.84 -96.99 -22.86C-97.99 -24.86 -97.99 -27.43 -97.55 -29.19C-97.1 -30.99 -93.96 -33.45 -93.96 -33.45L-93.96 -33.46Z" />
			<path id="Layer" class="shp9" d="M-138.38 -22.75C-132.12 -25.84 -124.98 -27.57 -117.53 -27.57C-110.21 -27.57 -103.17 -25.84 -97 -22.86C-97.42 -23.71 -97.87 -25.89 -97.8 -27.1C-104 -29.54 -110.67 -30.87 -117.63 -30.87C-124.66 -30.87 -131.4 -29.51 -137.67 -27.02C-137.59 -24.77 -137.91 -23.64 -138.38 -22.76L-138.38 -22.75Z" />
			<path id="Layer" class="shp1" d="M-120.71 -34.04L-117.61 -32.49L-114.52 -34.04L-117.61 -35.59L-120.71 -34.04Z" />
			<path id="Layer" class="shp1" d="M-133.38 -32.02L-130.08 -30.99L-127.27 -33.02L-130.57 -34.05L-133.38 -32.02Z" />
			<path id="Layer" class="shp1" d="M-101.85 -32.02L-105.15 -30.99L-107.96 -33.02L-104.66 -34.05L-101.85 -32.02Z" />
			<path id="Layer" class="shp7" d="M-117.65 -56.02C-120.8 -56.02 -123.35 -57.9 -123.35 -60.23C-123.35 -62.56 -120.8 -64.44 -117.65 -64.44C-114.5 -64.44 -111.95 -62.56 -111.95 -60.23C-111.95 -57.9 -114.5 -56.02 -117.65 -56.02Z" />
			<path id="Layer" class="shp10" d="M-7.3 23.6C-6.45 22.14 -6.94 20.27 -8.4 19.42C-9.86 18.56 -11.73 19.06 -12.58 20.52C-13.31 21.77 -13.05 23.32 -12.05 24.27C-16.21 29.32 -23.81 38.54 -25.65 40.77C-26.19 40.53 -26.75 40.3 -27.33 40.09C-27.16 38.38 -25.96 25.3 -25.32 18.34C-23.93 18.37 -22.65 17.45 -22.29 16.05C-21.87 14.42 -22.85 12.75 -24.48 12.33C-26.12 11.9 -27.79 12.88 -28.21 14.52C-28.58 15.92 -27.9 17.35 -26.67 17.99C-29.69 24.83 -35.53 38.1 -35.55 38.15C-35.55 38.17 -35.55 38.18 -35.55 38.19C-36.08 38.13 -36.63 38.08 -37.18 38.03C-37.29 37.29 -39.8 21.91 -41.11 13.9C-39.61 13.55 -38.49 12.2 -38.49 10.59C-38.49 8.72 -40.01 7.19 -41.89 7.19C-43.76 7.19 -45.28 8.72 -45.28 10.59C-45.28 12.2 -44.16 13.55 -42.66 13.9C-43.96 21.87 -46.45 37.15 -46.58 38.02C-47.17 38.06 -47.73 38.12 -48.29 38.18C-48.29 38.16 -48.29 38.15 -48.3 38.13C-48.31 38.07 -54.16 24.8 -57.17 17.97C-55.94 17.32 -55.27 15.9 -55.63 14.49C-56.06 12.86 -57.72 11.88 -59.36 12.3C-60.99 12.72 -61.98 14.39 -61.55 16.03C-61.19 17.43 -59.91 18.35 -58.52 18.32C-57.89 25.26 -56.68 38.32 -56.52 40.06C-57.09 40.26 -57.63 40.49 -58.16 40.72C-60.07 38.4 -67.59 29.29 -71.73 24.28C-70.72 23.32 -70.46 21.77 -71.19 20.52C-72.04 19.06 -73.91 18.57 -75.37 19.42C-76.83 20.27 -77.32 22.14 -76.47 23.6C-75.74 24.85 -74.26 25.39 -72.93 24.98C-70.45 31.46 -62.42 52.31 -62.11 52.6L-62.11 52.6C-62.1 52.63 -61.31 57.8 -61.23 59.52C-61.14 61.22 -61.88 65.4 -61.83 65.42L-61.83 65.43C-61.83 65.43 -61.83 65.42 -61.82 65.42C-55.87 68.21 -49.09 69.78 -41.82 69.78C-34.48 69.78 -21.23 65.29 -21.29 65.26C-22.16 63.43 -21.83 52.59 -21.83 52.59C-21.52 52.3 -13.39 31.63 -10.84 24.98C-9.53 25.39 -8.05 24.85 -7.32 23.6" />
			<g id="Layer">
				<path id="Layer" class="shp11" d="M-60.35 64.18C-54.09 61.6 -48.23 60.49 -41.05 60.49C-34.15 60.49 -28.63 61.63 -22.86 64.03" />
				<path id="Layer" class="shp11" d="M-24.05 52.09C-29.14 50.13 -35.38 48.98 -42.12 48.98C-48.92 48.98 -55.21 50.15 -60.33 52.14" />
			</g>
			<path id="Layer" class="shp12" d="M-23.44 60.61C-29.08 58.75 -34.81 57.4 -41.28 57.4C-47.86 57.4 -54.2 58.79 -60.15 60.72" />
			<path id="Layer" class="shp13" d="M-44.7 53.65L-41.86 55.07L-39.01 53.65L-41.86 52.23L-44.7 53.65Z" />
			<path id="Layer" class="shp13" d="M-27.39 55.5L-30.42 56.45L-33 54.59L-29.97 53.64L-27.39 55.5Z" />
			<path id="Layer" class="shp13" d="M-56.32 55.5L-53.29 56.45L-50.71 54.59L-53.74 53.64L-56.32 55.5Z" />
			<path id="Layer" class="shp14" d="M-21.78 -20.64C-27.85 -23.48 -34.49 -24.97 -41.83 -24.97C-49.18 -24.97 -56.29 -23.34 -62.56 -20.5C-56.49 -17.67 -49.61 -16.07 -42.27 -16.07C-34.92 -16.06 -28.04 -17.8 -21.78 -20.63L-21.78 -20.64Z" />
			<path id="Layer" class="shp14" d="M-22.23 -33.37L-22.23 -33.38C-27.69 -35.62 -34.03 -36.99 -42.27 -36.99C-50.52 -36.99 -56.89 -35.62 -62.51 -33.37C-62.51 -33.37 -61.9 -28.17 -61.87 -26.45C-61.84 -24.51 -62.38 -20.54 -62.38 -20.54C-56.12 -23.37 -49.17 -24.97 -41.83 -24.97C-34.63 -24.97 -27.32 -23.49 -21.78 -20.64C-22.69 -22.46 -22.23 -33.36 -22.23 -33.36L-22.23 -33.37Z" />
			<path id="Layer" class="shp14" d="M-62.36 -20.57C-56.46 -23.37 -49.17 -24.97 -41.83 -24.97C-34.63 -24.97 -28.59 -23.95 -21.78 -20.64C-22.05 -21.41 -22.24 -23.78 -22.29 -24.65C-28.32 -26.89 -34.97 -28.16 -41.82 -28.16C-48.74 -28.16 -55.7 -26.82 -61.95 -24.53C-62.08 -23.64 -62.36 -20.58 -62.36 -20.58L-62.36 -20.57Z" />
			<path id="Layer" class="shp15" d="M-8.7 -66.55C-10.16 -67.4 -12.03 -66.9 -12.88 -65.44C-13.61 -64.19 -13.35 -62.64 -12.35 -61.69C-16.51 -56.64 -24.12 -47.42 -25.95 -45.19C-26.49 -45.43 -27.05 -45.66 -27.63 -45.87C-27.47 -47.58 -26.26 -60.66 -25.62 -67.62C-24.23 -67.59 -22.95 -68.51 -22.59 -69.91C-22.17 -71.54 -23.15 -73.21 -24.79 -73.64C-26.42 -74.06 -28.09 -73.08 -28.51 -71.44C-28.88 -70.04 -28.2 -68.61 -26.97 -67.97C-29.99 -61.13 -35.83 -47.86 -35.85 -47.81C-35.85 -47.79 -35.85 -47.78 -35.85 -47.77C-36.38 -47.83 -36.93 -47.89 -37.49 -47.93C-37.6 -48.67 -40.1 -64.05 -41.41 -72.06C-39.91 -72.41 -38.79 -73.76 -38.79 -75.37C-38.79 -77.24 -40.31 -78.77 -42.19 -78.77C-44.06 -78.77 -45.59 -77.24 -45.59 -75.37C-45.59 -73.76 -44.46 -72.41 -42.96 -72.06C-44.26 -64.09 -46.76 -48.81 -46.89 -47.94C-47.47 -47.9 -48.04 -47.84 -48.59 -47.78C-48.59 -47.8 -48.59 -47.81 -48.6 -47.83C-48.61 -47.89 -54.46 -61.16 -57.47 -67.99C-56.24 -68.64 -55.57 -70.06 -55.93 -71.47C-56.36 -73.1 -58.03 -74.08 -59.66 -73.66C-61.29 -73.24 -62.28 -71.57 -61.85 -69.93C-61.49 -68.53 -60.21 -67.61 -58.82 -67.64C-58.19 -60.7 -56.99 -47.65 -56.82 -45.9C-57.39 -45.7 -57.94 -45.47 -58.46 -45.24C-60.37 -47.56 -67.89 -56.67 -72.03 -61.69C-71.02 -62.64 -70.76 -64.19 -71.49 -65.44C-72.34 -66.9 -74.21 -67.4 -75.67 -66.54C-77.13 -65.69 -77.62 -63.82 -76.77 -62.36C-76.04 -61.11 -74.56 -60.57 -73.23 -60.98C-70.75 -54.5 -62.72 -33.65 -62.41 -33.37C-56.88 -35.62 -50.51 -36.99 -42.27 -36.99C-34.02 -36.99 -27.66 -35.62 -22.13 -33.37C-21.82 -33.66 -13.69 -54.33 -11.14 -60.98C-9.81 -60.57 -8.33 -61.11 -7.6 -62.36C-6.78 -63.82 -7.27 -65.69 -8.73 -66.54L-8.7 -66.55Z" />
			<path id="Layer" class="shp1" d="M-45 -32.38L-42.16 -30.96L-39.31 -32.38L-42.16 -33.8L-45 -32.38Z" />
			<path id="Layer" class="shp1" d="M-56.62 -30.54L-53.59 -29.6L-51.01 -31.46L-54.04 -32.4L-56.62 -30.54Z" />
			<path id="Layer" class="shp1" d="M-27.69 -30.53L-30.72 -29.58L-33.3 -31.44L-30.27 -32.39L-27.69 -30.53Z" />
			<g id="Layer">
				<path id="Layer" class="shp16" d="M-324.37 64.65L-325.34 64.65L-325.34 58.83L-330 53.6L-330.05 53.6L-330.05 22.78L-330 22.78L-323.93 16.98L-323.89 16.98L-323.89 7.04C-323.89 6.18 -324.57 5.47 -325.4 5.47L-333.79 5.47L-333.79 10.87L-338.51 12.43L-342.85 10.87L-342.85 5.47L-353.2 5.47L-353.2 10.87L-357.55 12.43L-362.26 10.87L-362.26 5.47L-370.65 5.47C-371.48 5.47 -372.16 6.18 -372.16 7.04L-372.16 16.98L-372.14 16.98L-366.05 22.78L-366.05 53.6L-370.71 58.83L-370.71 64.65L-371.68 64.65C-372.55 64.65 -373.26 65.35 -373.26 66.22L-373.26 69.92C-373.26 70.78 -372.55 71.49 -371.68 71.49L-324.37 71.49C-323.5 71.49 -322.8 70.78 -322.8 69.92L-322.8 66.22C-322.8 65.36 -323.5 64.65 -324.37 64.65L-324.37 64.65Z" />
				<path id="Layer" class="shp17" d="M-369.18 64.65L-327.22 64.65" />
				<path id="Layer" class="shp17" d="M-368.99 58.83L-327.4 58.83" />
				<path id="Layer" class="shp17" d="M-331.84 53.61L-364.93 53.61" />
				<path id="Layer" class="shp17" d="M-364.74 22.79L-331.65 22.79" />
				<path id="Layer" class="shp17" d="M-370.1 16.98L-325.19 16.98" />
			</g>
			<path id="Layer" class="shp15" d="M-324.72 -14.41C-323.85 -14.41 -323.15 -15.11 -323.15 -15.98L-323.15 -19.68C-323.15 -20.55 -323.85 -21.25 -324.72 -21.25L-372.04 -21.25C-372.91 -21.25 -373.61 -20.55 -373.61 -19.68L-373.61 -15.98C-373.61 -15.11 -372.91 -14.41 -372.04 -14.41L-324.72 -14.41Z" />
			<path id="Layer" class="shp15" d="M-371.07 -27.07L-325.69 -27.07L-325.69 -21.25L-371.07 -21.25L-371.07 -27.07Z" />
			<path id="Layer" class="shp14" d="M-325.69 -27.07L-330.36 -32.3L-366.4 -32.3L-371.07 -27.07L-325.69 -27.07Z" />
			<path id="Layer" class="shp18" d="M-324.27 -68.94L-330.36 -63.12L-366.4 -63.12L-372.51 -68.94L-324.27 -68.94Z" />
			<path id="Layer" class="shp15" d="M-366.4 -63.12L-330.41 -63.12L-330.41 -32.3L-366.4 -32.3L-366.4 -63.12Z" />
			<path id="Layer" class="shp19" d="M-325.75 -80.43L-334.15 -80.43L-334.15 -75.03L-338.86 -73.47L-343.21 -75.03L-343.21 -80.43L-353.56 -80.43L-353.56 -75.03L-357.9 -73.47L-362.61 -75.03L-362.61 -80.43L-371.01 -80.43C-371.84 -80.43 -372.51 -79.73 -372.51 -78.86L-372.51 -68.92L-324.25 -68.92L-324.25 -78.86C-324.25 -79.73 -324.92 -80.43 -325.75 -80.43L-325.75 -80.43Z" />
			<path id="Layer" class="shp20" d="M-156.13 69.82C-156.75 69.48 -162.38 63.95 -167.6 63.95C-170.31 63.95 -172.44 64.77 -174.31 65.49C-176.21 66.23 -178.01 66.92 -180.61 66.92C-183.64 66.92 -186.15 65.99 -188.37 65.18C-190.16 64.52 -191.71 63.95 -193.29 63.95C-194.87 63.95 -196.42 64.52 -198.21 65.18C-200.43 65.99 -202.94 66.92 -205.97 66.92C-208.57 66.92 -210.37 66.23 -212.27 65.49C-214.15 64.77 -216.27 63.95 -218.98 63.95C-224.2 63.95 -229.83 69.48 -230.45 69.82C-230.45 69.82 -228.18 68.4 -226.07 68.4C-223.95 68.4 -222.12 69.88 -218.98 69.88C-217.37 69.88 -216.06 70.39 -214.4 71.03C-212.29 71.84 -209.68 72.85 -205.97 72.85C-201.89 72.85 -198.58 71.63 -196.16 70.74C-195.06 70.34 -193.82 69.88 -193.29 69.88C-192.76 69.88 -191.52 70.34 -190.42 70.74C-188 71.63 -184.69 72.85 -180.61 72.85C-176.91 72.85 -174.29 71.84 -172.18 71.03C-170.52 70.39 -169.21 69.88 -167.6 69.88C-164.46 69.88 -162.08 68.4 -160.51 68.4C-158.95 68.4 -156.1 69.82 -156.1 69.82L-156.13 69.82Z" />
			<path id="Layer" class="shp21" d="M-173.36 35.91C-173.36 26.56 -181.34 11.73 -187.45 9.72C-187.66 9.65 -187.88 9.59 -188.11 9.55C-187.04 9.15 -186.28 8.13 -186.28 6.93C-186.28 5.38 -187.53 4.13 -189.07 4.13C-190.62 4.13 -191.87 5.38 -191.87 6.93C-191.87 8 -191.26 8.93 -190.38 9.4C-191.63 9.48 -192.98 9.81 -194.38 10.37C-195.27 9.96 -196.15 9.67 -197.02 9.51C-196 9.1 -195.28 8.1 -195.28 6.93C-195.28 5.38 -196.53 4.13 -198.08 4.13C-199.62 4.13 -200.87 5.38 -200.87 6.93C-200.87 8.02 -200.25 8.96 -199.34 9.42C-199.81 9.47 -200.28 9.57 -200.73 9.72C-206.83 11.73 -214.63 26.01 -214.63 35.91C-214.63 43.81 -211.43 50.61 -207.74 55.54C-207.19 57 -206.35 57.04 -206.17 57.22C-206.17 57.22 -206.17 57.22 -206.17 57.22C-206.17 57.24 -206.9 61.98 -206.97 63.05C-207.08 64.7 -207.25 66.64 -207.25 66.64C-203.22 68.42 -198.8 69.45 -194.01 69.45C-189.21 69.45 -185.01 68.32 -180.98 66.54C-181.13 65.23 -181.29 63.91 -181.62 61.93C-181.79 60.9 -182.38 57.22 -182.38 57.22C-182.2 57.04 -181.12 55.67 -181.12 55.67C-177.2 50.72 -173.37 44.12 -173.37 35.91L-173.36 35.91Z" />
			<path id="Layer" class="shp22" d="M-206.07 57.22C-202.8 55.81 -199.04 54.58 -194.17 54.58C-189.31 54.58 -185.55 55.81 -182.28 57.22C-182.1 57.04 -181.68 56.58 -180.79 55.34C-183.54 52.37 -187.55 50.73 -194.09 50.73C-201.08 50.73 -204.89 52.56 -207.64 55.54C-207.08 56.99 -206.24 57.04 -206.06 57.22L-206.07 57.22Z" />
			<path id="Layer" class="shp23" d="M-181.09 66.54C-185.12 64.77 -189.24 63.89 -194.04 63.89C-198.84 63.89 -203.33 64.87 -207.36 66.64C-203.33 68.41 -198.91 69.44 -194.11 69.44C-189.31 69.44 -185.11 68.31 -181.08 66.54L-181.09 66.54Z" />
			<path id="Layer" class="shp22" d="M-181.2 55.67C-178.66 51.43 -175.32 43.43 -179.5 29.81C-183 18.39 -193.31 7.24 -200.81 9.72C-207.47 11.91 -214.71 27.65 -214.71 35.9C-214.71 43.8 -211.51 50.61 -207.82 55.53L-181.19 55.66L-181.2 55.67Z" />
			<path id="Layer" class="shp22" d="M-198.16 9.72C-199.71 9.72 -200.96 8.47 -200.96 6.92C-200.96 5.37 -199.71 4.12 -198.16 4.12C-196.61 4.12 -195.36 5.37 -195.36 6.92C-195.36 8.47 -196.61 9.72 -198.16 9.72Z" />
			<path id="Layer" class="shp24" d="M-182.47 57.21L-182.47 57.21C-185.74 55.8 -189.5 54.62 -194.36 54.62C-199.23 54.62 -202.99 55.8 -206.25 57.21C-206.25 57.21 -206.99 61.97 -207.06 63.04C-207.17 64.69 -207.33 66.64 -207.33 66.64C-203.31 64.87 -198.81 63.89 -194.02 63.89C-189.31 63.89 -185.04 64.83 -181.07 66.54C-181.21 65.22 -181.38 63.9 -181.71 61.93C-181.89 60.89 -182.48 57.2 -182.48 57.2L-182.47 57.21Z" />
			<path id="Layer" class="shp25" d="M-182.59 63.59C-186.21 62.47 -190.08 61.85 -194.07 61.85C-198.13 61.85 -202.28 62.51 -206 63.68" />
			<g id="Layer">
				<path id="Layer" class="shp26" d="M-205.22 56.78C-202.19 55.56 -198.72 54.57 -194.36 54.57C-189.97 54.57 -186.49 55.57 -183.45 56.8" />
				<path id="Layer" class="shp26" d="M-181.48 54.63C-185.32 51.56 -188.4 50.73 -194.09 50.73C-198.85 50.73 -203.77 52 -206.13 54.15" />
			</g>
			<path id="Layer" class="shp27" d="M-187.41 30.71L-188.71 32.02L-195.29 32.02L-195.29 26.08L-193.98 24.77L-196.62 22.13L-199.26 24.77L-197.94 26.09L-197.94 32.02L-204.56 32.02L-205.87 30.71L-208.51 33.35L-205.87 35.99L-204.54 34.67L-197.94 34.67L-197.94 41.91L-199.26 43.23L-196.62 45.87L-193.98 43.23L-195.29 41.92L-195.29 34.67L-188.73 34.67L-187.41 35.99L-184.77 33.35L-187.41 30.71Z" />
			<path id="Layer" class="shp28" d="M-157.17 -16.04C-157.79 -16.38 -163.42 -21.91 -168.64 -21.91C-171.35 -21.91 -173.48 -21.09 -175.35 -20.37C-177.25 -19.63 -179.05 -18.94 -181.65 -18.94C-184.68 -18.94 -187.19 -19.87 -189.41 -20.68C-191.2 -21.34 -192.75 -21.91 -194.33 -21.91C-195.91 -21.91 -197.46 -21.34 -199.25 -20.68C-201.47 -19.87 -203.98 -18.94 -207.01 -18.94C-209.61 -18.94 -211.41 -19.63 -213.31 -20.37C-215.19 -21.09 -217.31 -21.91 -220.03 -21.91C-225.24 -21.91 -230.87 -16.38 -231.49 -16.04C-231.49 -16.04 -229.1 -17.46 -227.11 -17.46C-225.12 -17.46 -223.16 -15.98 -220.03 -15.98C-218.42 -15.98 -217.1 -15.47 -215.44 -14.83C-213.34 -14.02 -210.72 -13.01 -207.01 -13.01C-202.93 -13.01 -199.62 -14.23 -197.2 -15.12C-196.1 -15.52 -194.86 -15.98 -194.33 -15.98C-193.8 -15.98 -192.56 -15.52 -191.46 -15.12C-189.04 -14.23 -185.73 -13.01 -181.65 -13.01C-177.95 -13.01 -175.33 -14.02 -173.22 -14.83C-171.56 -15.47 -170.25 -15.98 -168.64 -15.98C-165.5 -15.98 -164.2 -17.46 -161.55 -17.46C-158.88 -17.46 -157.14 -16.04 -157.14 -16.04L-157.17 -16.04Z" />
			<path id="Layer" class="shp21" d="M-188.58 -76.14C-188.79 -76.21 -189.01 -76.26 -189.23 -76.31C-188.17 -76.71 -187.41 -77.73 -187.41 -78.93C-187.41 -80.47 -188.66 -81.73 -190.2 -81.73C-191.75 -81.73 -193 -80.47 -193 -78.93C-193 -77.86 -192.39 -76.93 -191.51 -76.46C-199.53 -75.94 -211.71 -65.37 -212.1 -47.48C-212.25 -40.37 -211.35 -34.55 -208.87 -30.32L-182.02 -30.51C-178.1 -35.46 -174.49 -41.73 -174.49 -49.95C-174.49 -60.88 -182.47 -74.14 -188.58 -76.14L-188.58 -76.14Z" />
			<path id="Layer" class="shp21" d="M-180.54 -56.04C-183.49 -65.67 -191.28 -75.1 -198.15 -76.34C-197.13 -76.76 -196.41 -77.76 -196.41 -78.93C-196.41 -80.47 -197.66 -81.73 -199.21 -81.73C-200.75 -81.73 -202 -80.47 -202 -78.93C-202 -77.84 -201.38 -76.9 -200.46 -76.44C-200.94 -76.38 -201.4 -76.29 -201.86 -76.14C-207.95 -74.13 -215.76 -60.65 -215.76 -49.95C-215.76 -42.05 -212.56 -35.25 -208.87 -30.32L-182.02 -30.51C-179.48 -34.75 -176.37 -42.43 -180.54 -56.04L-180.54 -56.04Z" />
			<path id="Layer" class="shp23" d="M-182.11 -19.31C-185.48 -20.86 -190.26 -21.96 -195.06 -21.96C-199.85 -21.96 -204.35 -20.98 -208.38 -19.21C-204.35 -17.44 -199.93 -16.41 -195.13 -16.41C-190.33 -16.41 -186.13 -17.54 -182.1 -19.31L-182.11 -19.31Z" />
			<path id="Layer" class="shp29" d="M-183.51 -28.64L-183.51 -28.64C-186.78 -30.05 -190.54 -31.23 -195.4 -31.23C-200.27 -31.23 -204.03 -30.05 -207.3 -28.64C-207.3 -28.64 -208.03 -23.88 -208.1 -22.81C-208.21 -21.16 -208.38 -19.21 -208.38 -19.21C-204.35 -20.98 -199.86 -21.96 -195.06 -21.96C-190.35 -21.96 -186.08 -21.02 -182.11 -19.31C-182.25 -20.63 -182.42 -21.95 -182.75 -23.92C-182.93 -24.97 -183.52 -28.65 -183.52 -28.65L-183.51 -28.64Z" />
			<path id="Layer" class="shp29" d="M-208.38 -19.21C-204.35 -20.98 -199.86 -21.96 -195.06 -21.96C-190.36 -21.96 -186.09 -21.02 -182.12 -19.31C-182.22 -20.41 -182.46 -21.1 -182.62 -22.51C-186.61 -23.91 -190.65 -24.62 -195.12 -24.62C-199.65 -24.62 -204.13 -23.8 -208.16 -22.37C-208.18 -21.13 -208.39 -19.21 -208.39 -19.21L-208.38 -19.21Z" />
			<path id="Layer" class="shp21" d="M-207.3 -28.64C-204.03 -30.05 -200.27 -31.25 -195.4 -31.28C-191.26 -31.31 -186.78 -30.05 -183.51 -28.64C-183.33 -28.82 -182.57 -29.05 -182.02 -30.51C-184.77 -33.49 -188.86 -35.04 -195.4 -35.04C-202.39 -35.04 -206.12 -33.3 -208.87 -30.32C-208.33 -28.86 -207.49 -28.82 -207.31 -28.64L-207.3 -28.64Z" />
			<path id="Layer" class="shp30" d="M-195.4 -35.04L-195.4 -31.28" />
			<path id="Layer" class="shp31" d="M-188.45 -55.15L-189.76 -53.84L-196.34 -53.84L-196.34 -59.77L-195.03 -61.08L-197.67 -63.72L-200.31 -61.08L-198.99 -59.76L-198.99 -53.84L-205.6 -53.84L-206.91 -55.15L-209.55 -52.51L-206.91 -49.87L-205.59 -51.19L-198.99 -51.19L-198.99 -43.94L-200.31 -42.62L-197.67 -39.98L-195.03 -42.62L-196.34 -43.93L-196.34 -51.19L-189.77 -51.19L-188.45 -49.87L-185.81 -52.51L-188.45 -55.15Z" />
			<path id="Layer" class="shp32" d="M23.04 12.5C23.04 12.5 24.15 6.54 24.15 5.71C24.15 4.87 24.98 4.74 25.81 5.85C26.64 6.95 30.39 12.36 30.39 12.36L23.04 12.49L23.04 12.5Z" />
			<path id="Layer" class="shp32" d="M72.77 58.23C72.39 55.54 71.88 52.98 71.25 50.54L69.25 49.74L70.59 48.14C69.82 45.56 68.93 43.13 67.96 40.85L66.06 40.31L67.01 38.69C65.99 36.52 64.89 34.5 63.75 32.62L61.98 32.26L62.61 30.8C61.34 28.83 60.03 27.03 58.72 25.4L56.85 25.19L57.35 23.73C55.83 21.94 54.35 20.39 52.97 19.06L51.1 18.95L51.42 17.61C48.08 14.58 45.71 13.11 45.71 13.11L41.46 14.4C41.46 14.4 39.43 13.29 37.76 12.18C37.76 12.18 36.65 8.48 36.29 6.45C35.92 4.42 34.81 5.34 34.44 5.9C34.07 6.45 30.23 10.7 30.23 10.7C30.23 10.7 27.94 10.39 26.31 10.7C23.9 11.17 22.79 12.78 20.02 15.42C18 17.34 16.78 19.02 16.09 20.82C15.4 22.63 16.23 22.63 15.95 24.29C15.68 25.95 8.19 38.43 7.36 39.95C6.53 41.48 4.52 46.14 8.47 49.1C9.57 49.94 10.41 50.35 11.1 50.63C11.1 50.63 12.21 50.35 12.63 49.8C12.7 49.7 12.74 49.64 12.76 49.6C12.77 49.57 12.78 49.57 12.76 49.6C12.71 49.71 12.62 50.12 13.04 50.63C13.73 51.46 14.63 51.4 15.12 51.46C15.86 51.55 17.2 50.91 18.31 49.24C19.42 47.58 20.11 47.02 20.94 46.05C21.77 45.08 26.36 42.94 28.15 39.95C28.57 39.26 29.54 39.54 30.23 40.09C30.93 40.65 34.81 40.79 36.47 38.01C36.47 38.01 37.26 45.31 33.97 50.35C28.57 58.67 19.42 60.75 16.65 68.51L73.49 68.51C73.49 65.83 73.34 63.25 73.09 60.78L71.2 59.78L72.8 58.23L72.77 58.23Z" />
			<path id="Layer" class="shp33" d="M43.49 16.26C43.49 16.26 67.7 34.38 67.7 67.09" />
			<path id="Layer" class="shp34" d="M12.75 49.4C12.77 49.37 12.76 49.37 12.75 49.4Z" />
			<path id="Layer" class="shp33" d="M38.5 28.83C38.96 34 36.56 37.7 36.47 38.02C36.47 38.02 42.29 35.02 42.84 31.05" />
			<path id="Layer" class="shp33" d="M36.46 38.02C36.46 38.02 40.34 39.92 43.21 38.71" />
			<path id="Layer" class="shp34" d="M12.62 49.6C12.62 49.6 15.21 46.27 15.95 44.75" />
			<path id="Layer" class="shp33" d="M28.56 18.89C28.56 18.89 24.3 18.91 22.88 21.25C20.94 24.43 23.15 24.85 23.15 24.85C23.15 24.85 25.37 25.54 26.9 23.46C28.52 21.25 27.17 19.86 27.17 19.86L28.55 18.89L28.56 18.89Z" />
			<path id="Layer" class="shp33" d="M7.91 42.39C9.43 41.97 10.4 42.11 11.1 42.53C11.1 42.53 10.4 40.45 11.65 38.65C12.9 36.84 14.98 36.71 16.78 33.24" />
			<path id="Layer" class="shp33" d="M48.38 20.83L51.02 19.17" />
			<path id="Layer" class="shp33" d="M53.79 26.79L56.43 25.55" />
			<path id="Layer" class="shp33" d="M58.64 33.71L61.69 32.46" />
			<path id="Layer" class="shp33" d="M62.53 41.63L65.71 40.52" />
			<path id="Layer" class="shp33" d="M65.57 50.92L68.9 49.95" />
			<path id="Layer" class="shp33" d="M67.38 60.34L70.84 59.93" />
			<path id="Layer" class="shp15" d="M19.71 -71.66C19.71 -71.66 20.82 -77.62 20.82 -78.45C20.82 -79.28 21.65 -79.42 22.48 -78.31C23.31 -77.2 27.06 -71.79 27.06 -71.79L19.71 -71.66L19.71 -71.66Z" />
			<path id="Layer" class="shp15" d="M69.45 -25.93C69.07 -28.62 68.56 -31.18 67.93 -33.62L65.93 -34.42L67.27 -36.02C66.5 -38.6 65.61 -41.03 64.64 -43.31L62.74 -43.85L63.68 -45.45C62.66 -47.62 61.56 -49.65 60.42 -51.53L58.65 -51.89L59.28 -53.35C58.01 -55.32 56.7 -57.12 55.39 -58.75L53.52 -58.96L54.02 -60.42C52.5 -62.21 51.01 -63.76 49.64 -65.09L47.77 -65.2L48.09 -66.54C44.75 -69.57 42.38 -71.04 42.38 -71.04L38.13 -69.75C38.13 -69.75 36.1 -70.86 34.43 -71.97C34.43 -71.97 33.32 -75.66 32.96 -77.7C32.58 -79.73 31.48 -78.81 31.11 -78.25C30.74 -77.7 26.9 -73.45 26.9 -73.45C26.9 -73.45 24.61 -73.76 22.97 -73.45C20.57 -72.98 19.46 -71.37 16.69 -68.73C14.67 -66.81 13.45 -65.13 12.76 -63.32C12.07 -61.52 12.9 -61.52 12.62 -59.86C12.34 -58.2 4.86 -45.72 4.03 -44.19C3.2 -42.67 1.19 -38.01 5.14 -35.04C6.24 -34.21 7.08 -33.8 7.77 -33.52C7.77 -33.52 8.88 -33.8 9.29 -34.35C9.37 -34.45 9.41 -34.51 9.42 -34.54C9.44 -34.58 9.45 -34.58 9.42 -34.54C9.38 -34.44 9.29 -34.03 9.71 -33.52C10.4 -32.69 11.29 -32.75 11.79 -32.69C12.53 -32.59 13.87 -33.24 14.98 -34.91C16.09 -36.57 16.78 -37.12 17.61 -38.09C18.44 -39.06 23.03 -41.21 24.82 -44.19C25.24 -44.89 26.21 -44.61 26.9 -44.05C27.59 -43.5 31.48 -43.36 33.14 -46.14C33.14 -46.14 33.93 -38.84 30.64 -33.8C25.24 -25.48 16.09 -23.4 13.32 -15.64L70.15 -15.64C70.15 -18.32 70.01 -20.89 69.76 -23.37L67.87 -24.37L69.5 -25.91L69.45 -25.93Z" />
			<path id="Layer" class="shp34" d="M40.16 -67.9C40.16 -67.9 64.37 -49.78 64.37 -17.06" />
			<path id="Layer" class="shp34" d="M9.42 -34.54C9.44 -34.58 9.44 -34.58 9.42 -34.54Z" />
			<path id="Layer" class="shp34" d="M35.17 -55.33C35.63 -50.16 33.23 -46.46 33.14 -46.14C33.14 -46.14 38.96 -49.14 39.51 -53.11" />
			<path id="Layer" class="shp34" d="M33.14 -46.13C33.14 -46.13 37.02 -44.23 39.89 -45.44" />
			<path id="Layer" class="shp34" d="M9.29 -34.35C9.29 -34.35 11.88 -37.68 12.62 -39.2" />
			<path id="Layer" class="shp34" d="M25.24 -65.26C25.24 -65.26 20.98 -65.24 19.56 -62.91C17.62 -59.72 19.83 -59.3 19.83 -59.3C19.83 -59.3 22.05 -58.61 23.58 -60.69C25.2 -62.9 23.85 -64.29 23.85 -64.29L25.23 -65.26L25.24 -65.26Z" />
			<path id="Layer" class="shp34" d="M4.58 -41.56C6.11 -41.98 7.08 -41.84 7.77 -41.42C7.77 -41.42 7.08 -43.5 8.32 -45.3C9.57 -47.11 11.65 -47.24 13.45 -50.71" />
			<path id="Layer" class="shp34" d="M45.06 -63.32L47.69 -64.98" />
			<path id="Layer" class="shp34" d="M50.47 -57.36L53.1 -58.61" />
			<path id="Layer" class="shp34" d="M55.32 -50.44L58.37 -51.69" />
			<path id="Layer" class="shp34" d="M59.2 -42.53L62.39 -43.64" />
			<path id="Layer" class="shp34" d="M62.25 -33.24L65.58 -34.21" />
			<path id="Layer" class="shp34" d="M64.05 -23.81L67.52 -24.23" />
			<path id="Layer" class="shp35" d="M122.45 62.57C118.7 55.13 119.08 41.87 119.39 36.73C125.32 36.32 129.59 35.2 129.59 33.87C129.59 32.57 125.48 31.47 119.72 31.04C123.4 29.15 125.92 25.32 125.92 20.89C125.92 14.59 120.81 9.48 114.51 9.48C108.2 9.48 103.09 14.59 103.09 20.89C103.09 25.32 105.61 29.15 109.29 31.04C103.53 31.47 99.42 32.57 99.42 33.87C99.42 35.2 103.69 36.32 109.62 36.73C109.93 41.87 110.31 55.13 106.56 62.57C99.21 64.05 94.05 67.52 94.05 71.56L134.95 71.56C134.95 67.52 129.8 64.05 122.45 62.57L122.45 62.57Z" />
			<path id="Layer" class="shp36" d="M122.45 -21.03C118.7 -28.48 119.08 -41.74 119.39 -46.87C125.32 -47.28 129.59 -48.4 129.59 -49.73C129.59 -51.03 125.48 -52.13 119.72 -52.56C123.4 -54.45 125.92 -58.29 125.92 -62.71C125.92 -69.01 120.81 -74.12 114.51 -74.12C108.2 -74.12 103.09 -69.01 103.09 -62.71C103.09 -58.29 105.61 -54.45 109.29 -52.56C103.53 -52.13 99.42 -51.03 99.42 -49.73C99.42 -48.4 103.69 -47.28 109.62 -46.87C109.93 -41.74 110.31 -28.48 106.56 -21.03C99.21 -19.55 94.05 -16.08 94.05 -12.04L134.95 -12.04C134.95 -16.08 129.8 -19.55 122.45 -21.03L122.45 -21.03Z" />
			<path id="Layer" class="shp15" d="M-256.05 -71.66C-256.05 -71.66 -257.16 -77.62 -257.16 -78.45C-257.16 -79.28 -257.99 -79.42 -258.82 -78.31C-259.65 -77.2 -263.4 -71.79 -263.4 -71.79L-256.06 -71.66L-256.05 -71.66Z" />
			<path id="Layer" class="shp15" d="M-305.79 -25.93C-305.41 -28.62 -304.9 -31.18 -304.27 -33.62L-302.26 -34.42L-303.6 -36.02C-302.84 -38.6 -301.95 -41.03 -300.98 -43.31L-299.08 -43.85L-300.02 -45.45C-299 -47.62 -297.9 -49.65 -296.76 -51.53L-294.99 -51.89L-295.62 -53.35C-294.35 -55.32 -293.03 -57.12 -291.73 -58.75L-289.86 -58.96L-290.36 -60.42C-288.84 -62.21 -287.35 -63.76 -285.98 -65.09L-284.1 -65.2L-284.43 -66.54C-281.08 -69.57 -278.72 -71.04 -278.72 -71.04L-274.47 -69.75C-274.47 -69.75 -272.44 -70.86 -270.77 -71.97C-270.77 -71.97 -269.66 -75.66 -269.29 -77.7C-268.92 -79.73 -267.82 -78.81 -267.45 -78.25C-267.08 -77.7 -263.24 -73.45 -263.24 -73.45C-263.24 -73.45 -260.95 -73.76 -259.31 -73.45C-256.91 -72.98 -255.8 -71.37 -253.03 -68.73C-251.01 -66.81 -249.79 -65.13 -249.1 -63.32C-248.41 -61.52 -249.24 -61.52 -248.96 -59.86C-248.68 -58.2 -241.2 -45.72 -240.37 -44.19C-239.53 -42.67 -237.53 -38.01 -241.47 -35.04C-242.58 -34.21 -243.42 -33.8 -244.11 -33.52C-244.11 -33.52 -245.22 -33.8 -245.63 -34.35C-245.71 -34.45 -245.75 -34.51 -245.76 -34.54C-245.78 -34.58 -245.78 -34.58 -245.76 -34.54C-245.72 -34.44 -245.62 -34.03 -246.05 -33.52C-246.74 -32.69 -247.63 -32.75 -248.13 -32.69C-248.87 -32.59 -250.21 -33.24 -251.32 -34.91C-252.43 -36.57 -253.12 -37.12 -253.95 -38.09C-254.78 -39.06 -259.37 -41.21 -261.16 -44.19C-261.58 -44.89 -262.55 -44.61 -263.24 -44.05C-263.93 -43.5 -267.82 -43.36 -269.48 -46.14C-269.48 -46.14 -270.26 -38.84 -266.98 -33.8C-261.58 -25.48 -252.43 -23.4 -249.65 -15.64L-306.52 -15.64C-306.52 -18.32 -306.37 -20.89 -306.12 -23.37L-304.23 -24.37L-305.81 -25.91L-305.79 -25.93Z" />
			<path id="Layer" class="shp34" d="M-276.5 -67.9C-276.5 -67.9 -300.71 -49.78 -300.71 -17.06" />
			<path id="Layer" class="shp34" d="M-245.76 -34.54C-245.78 -34.58 -245.78 -34.58 -245.76 -34.54Z" />
			<path id="Layer" class="shp34" d="M-271.51 -55.33C-271.97 -50.16 -269.57 -46.46 -269.48 -46.14C-269.48 -46.14 -275.3 -49.14 -275.85 -53.11" />
			<path id="Layer" class="shp34" d="M-269.48 -46.13C-269.48 -46.13 -273.36 -44.23 -276.23 -45.44" />
			<path id="Layer" class="shp34" d="M-245.63 -34.35C-245.63 -34.35 -248.22 -37.68 -248.96 -39.2" />
			<path id="Layer" class="shp34" d="M-261.58 -65.26C-261.58 -65.26 -257.32 -65.24 -255.9 -62.91C-253.96 -59.72 -256.17 -59.3 -256.17 -59.3C-256.17 -59.3 -258.39 -58.61 -259.92 -60.69C-261.54 -62.9 -260.19 -64.29 -260.19 -64.29L-261.57 -65.26L-261.58 -65.26Z" />
			<path id="Layer" class="shp34" d="M-240.92 -41.56C-242.45 -41.98 -243.42 -41.84 -244.11 -41.42C-244.11 -41.42 -243.42 -43.5 -244.66 -45.3C-245.91 -47.11 -247.99 -47.24 -249.79 -50.71" />
			<path id="Layer" class="shp34" d="M-281.4 -63.32L-284.03 -64.98" />
			<path id="Layer" class="shp34" d="M-286.81 -57.36L-289.44 -58.61" />
			<path id="Layer" class="shp34" d="M-291.66 -50.44L-294.71 -51.69" />
			<path id="Layer" class="shp34" d="M-295.54 -42.53L-298.73 -43.64" />
			<path id="Layer" class="shp34" d="M-298.59 -33.24L-301.92 -34.21" />
			<path id="Layer" class="shp34" d="M-300.39 -23.81L-303.86 -24.23" />
			<path id="Layer" class="shp32" d="M-256.1 14.83C-256.1 14.83 -257.21 8.87 -257.21 8.04C-257.21 7.2 -258.04 7.07 -258.87 8.18C-259.7 9.29 -263.45 14.69 -263.45 14.69L-256.11 14.82L-256.1 14.83Z" />
			<path id="Layer" class="shp32" d="M-305.84 60.56C-305.46 57.87 -304.95 55.31 -304.32 52.87L-302.31 52.07L-303.65 50.47C-302.89 47.89 -302 45.46 -301.03 43.18L-299.13 42.64L-300.06 41.04C-299.04 38.87 -297.95 36.84 -296.81 34.96L-295.04 34.6L-295.67 33.14C-294.39 31.17 -293.08 29.37 -291.78 27.74L-289.91 27.53L-290.41 26.07C-288.88 24.28 -287.4 22.73 -286.03 21.4L-284.15 21.29L-284.48 19.95C-281.13 16.92 -278.77 15.45 -278.77 15.45L-274.52 16.74C-274.52 16.74 -272.48 15.63 -270.82 14.52C-270.82 14.52 -269.71 10.83 -269.34 8.79C-268.97 6.76 -267.86 7.69 -267.49 8.24C-267.12 8.79 -263.29 13.05 -263.29 13.05C-263.29 13.05 -260.99 12.73 -259.36 13.05C-256.96 13.51 -255.85 15.13 -253.08 17.76C-251.05 19.68 -249.84 21.36 -249.15 23.17C-248.46 24.97 -249.29 24.97 -249.01 26.63C-248.73 28.3 -241.25 40.77 -240.41 42.3C-239.58 43.82 -237.57 48.49 -241.52 51.45C-242.63 52.28 -243.47 52.69 -244.16 52.97C-244.16 52.97 -245.27 52.69 -245.68 52.14C-245.76 52.04 -245.79 51.98 -245.81 51.95C-245.83 51.91 -245.83 51.91 -245.81 51.95C-245.77 52.06 -245.67 52.46 -246.1 52.97C-246.79 53.8 -247.68 53.74 -248.18 53.8C-248.92 53.9 -250.26 53.25 -251.37 51.59C-252.48 49.92 -253.17 49.37 -254 48.4C-254.83 47.43 -259.42 45.28 -261.21 42.3C-261.63 41.6 -262.6 41.88 -263.29 42.44C-263.98 42.99 -267.86 43.13 -269.53 40.36C-269.53 40.36 -270.31 47.65 -267.03 52.69C-261.63 61.01 -252.48 63.09 -249.7 70.85L-306.57 70.85C-306.57 68.17 -306.43 65.6 -306.18 63.12L-304.29 62.12L-305.87 60.56L-305.84 60.56Z" />
			<path id="Layer" class="shp33" d="M-276.55 18.59C-276.55 18.59 -300.76 36.71 -300.76 69.42" />
			<path id="Layer" class="shp34" d="M-245.81 51.73C-245.83 51.7 -245.83 51.7 -245.81 51.73Z" />
			<path id="Layer" class="shp33" d="M-271.56 31.16C-272.02 36.33 -269.62 40.03 -269.53 40.35C-269.53 40.35 -275.35 37.35 -275.9 33.38" />
			<path id="Layer" class="shp33" d="M-269.53 40.35C-269.53 40.35 -273.41 42.25 -276.28 41.04" />
			<path id="Layer" class="shp34" d="M-245.68 51.93C-245.68 51.93 -248.27 48.6 -249.01 47.08" />
			<path id="Layer" class="shp33" d="M-261.63 21.22C-261.63 21.22 -257.37 21.24 -255.95 23.58C-254 26.77 -256.22 27.18 -256.22 27.18C-256.22 27.18 -258.44 27.87 -259.97 25.79C-261.59 23.58 -260.24 22.19 -260.24 22.19L-261.62 21.22L-261.63 21.22Z" />
			<path id="Layer" class="shp33" d="M-240.97 44.72C-242.5 44.3 -243.47 44.44 -244.16 44.86C-244.16 44.86 -243.47 42.78 -244.71 40.98C-245.96 39.17 -248.04 39.04 -249.84 35.57" />
			<path id="Layer" class="shp33" d="M-281.45 23.17L-284.08 21.5" />
			<path id="Layer" class="shp33" d="M-286.86 29.13L-289.49 27.88" />
			<path id="Layer" class="shp33" d="M-291.71 36.04L-294.76 34.79" />
			<path id="Layer" class="shp33" d="M-295.59 43.96L-298.78 42.85" />
			<path id="Layer" class="shp33" d="M-298.64 53.25L-301.97 52.28" />
			<path id="Layer" class="shp33" d="M-300.44 62.67L-303.91 62.26" />
		</g>
	</g>
</svg>