<svg xmlns="http://www.w3.org/2000/svg" viewBox="0 0 76 83" width="76" height="83">
	<style>
		tspan { white-space:pre }
		.shp0 { fill: #000000;stroke: #000000;stroke-width: 0.31 } 
		.shp1 { fill: #000000 } 
		.shp2 { fill: #000000;stroke: #ffffff;stroke-linecap:round;stroke-width: 1.009 } 
		.shp3 { fill: none;stroke: #ffffff;stroke-linejoin:bevel;stroke-width: 0.62 } 
		.shp4 { fill: none;stroke: #ffffff;stroke-linecap:round;stroke-width: 1.009 } 
		.shp5 { fill: #ffffff;stroke: #000000;stroke-width: 0.317 } 
		.shp6 { fill: none;stroke: #ffffff;stroke-width: 0.62 } 
		.shp7 { fill: #ffffff;stroke: #20201e;stroke-width: 1.211 } 
		.shp8 { fill: #ffffff;stroke: #20201e;stroke-linejoin:round;stroke-width: 1.211 } 
		.shp9 { fill: #ffffff;stroke: #20201e;stroke-linejoin:bevel;stroke-width: 1.211 } 
		.shp10 { fill: #000000;stroke: #000000;stroke-linejoin:bevel;stroke-width: 0.853 } 
		.shp11 { fill: #000000;stroke: #ffffff;stroke-linecap:round;stroke-width: 0.926 } 
		.shp12 { fill: none;stroke: #ffffff;stroke-linecap:round;stroke-width: 0.926 } 
		.shp13 { fill: #ffffff } 
		.shp14 { fill: #ffffff;stroke: #20201e;stroke-linejoin:bevel;stroke-width: 1.111 } 
		.shp15 { fill: #ffffff;stroke: #20201e;stroke-width: 1.111 } 
		.shp16 { fill: #000000;stroke: #000000;stroke-linecap:square;stroke-width: 0.853 } 
		.shp17 { fill: none;stroke: #ffffff;stroke-linecap:round;stroke-width: 0.853 } 
		.shp18 { fill: #ffffff;stroke: #20201e;stroke-linejoin:round;stroke-width: 1.111 } 
		.shp19 { fill: #ffffff;stroke: #20201e;stroke-linecap:square;stroke-width: 1.111 } 
		.shp20 { fill: #20201e } 
		.shp21 { fill: #ffffff;stroke: #20201e;stroke-width: 1.32 } 
		.shp22 { fill: #000000;stroke: #000000;stroke-width: 0.533 } 
		.shp23 { fill: #ffffff;stroke: #000000;stroke-linejoin:bevel;stroke-width: 1.014 } 
		.shp24 { fill: #000000;stroke: #000000;stroke-linejoin:bevel;stroke-width: 0.533 } 
		.shp25 { fill: none;stroke: #ffffff;stroke-linecap:round;stroke-linejoin:bevel;stroke-width: 0.533 } 
		.shp26 { fill: none;stroke: #ffffff;stroke-linecap:round;stroke-width: 0.533 } 
		.shp27 { fill: #ffffff;stroke: #000000;stroke-width: 0.533 } 
		.shp28 { fill: #ffffff;stroke: #20201e;stroke-linecap:round;stroke-linejoin:round;stroke-width: 1.32 } 
		.shp29 { fill: #ffffff;stroke: #20201e;stroke-linejoin:bevel;stroke-width: 1.32 } 
		.shp30 { fill: #ffffff;stroke: #000000;stroke-width: 1.014 } 
		.shp31 { fill: #ffffff;stroke: #000000;stroke-width: 0.77 } 
		.shp32 { fill: #20201e;stroke: #20201e;stroke-width: 0.853 } 
		.shp33 { fill: none;stroke: #ffffff;stroke-width: 0.853 } 
		.shp34 { fill: none;stroke: #20201e;stroke-width: 0.853 } 
		.shp35 { fill: #000000;stroke: #000000;stroke-linejoin:round;stroke-width: 0.79 } 
		.shp36 { fill: #ffffff;stroke: #000000;stroke-linejoin:round;stroke-width: 1.111 } 
	</style>
	<g id="Layer">
		<g id="Layer">
			<path id="Layer" class="shp0" d="M45.26 28.52C46.61 27.72 47.18 26.65 47.18 25.47C47.18 25.13 47.23 8.89 47.23 8.89L31.13 8.89C31.13 8.89 31.06 25.27 31.06 25.47C31.06 26.66 31.9 27.74 33.27 28.54C32.3 28.68 31.34 28.85 30.39 29.06C31.91 30.03 33.34 31.16 34.67 32.45C36.54 34.28 38.1 36.3 39.32 38.48C40.54 36.3 42.09 34.28 43.97 32.45C45.3 31.16 46.73 30.03 48.25 29.06C47.28 28.85 46.28 28.68 45.28 28.53L45.26 28.52Z" />
			<path id="Layer" class="shp1" d="M60.07 65.43C59.07 63.43 59.05 60.82 59.49 59.06C59.94 57.24 64.24 53.81 64.24 53.81C71.81 46.45 73.54 35.95 68.11 30.36C62.68 24.78 52.14 26.23 44.57 33.59C42.31 35.79 40.57 38.27 39.39 40.82C38.2 38.27 36.47 35.79 34.21 33.59C26.64 26.23 16.1 24.78 10.66 30.36C5.23 35.95 6.97 46.45 14.54 53.81C14.88 54.14 18.65 57.24 19.1 59.06C19.56 60.87 19.62 63.48 18.53 65.5L18.69 65.5C18.67 65.51 18.65 65.52 18.62 65.53C24.89 68.62 31.94 70.36 39.39 70.36C46.84 70.35 53.79 68.51 60.06 65.42" />
			<g id="Layer">
				<path id="Layer" class="shp2" d="M19.72 65.06C25.75 62.25 32.42 60.69 39.51 60.69C46.32 60.69 52.86 62.36 58.69 64.73" />
				<path id="Layer" class="shp2" d="M61.59 53.38C55.31 51.25 47.62 49.99 39.3 49.99C30.92 49.99 23.16 51.27 16.85 53.44" />
			</g>
			<path id="Layer" class="shp3" d="M45.92 10.06L32.41 22.17L45.92 22.17L32.41 10.06L45.92 10.06Z" />
			<path id="Layer" class="shp4" d="M57.66 60.77C51.88 58.74 45.73 57.27 39.35 57.27C32.84 57.27 26.58 58.78 20.7 60.88" />
			<path id="Layer" class="shp5" d="M36.18 53.96L39.35 55.54L42.52 53.96L39.35 52.37L36.18 53.96Z" />
			<path id="Layer" class="shp5" d="M23.23 56.02L26.61 57.07L29.48 55L26.1 53.94L23.23 56.02Z" />
			<path id="Layer" class="shp5" d="M55.48 56.02L52.09 57.07L49.22 55L52.6 53.94L55.48 56.02Z" />
			<path id="Layer" class="shp3" d="M32.41 10.06L45.93 10.06L45.93 22.17L32.41 22.17L32.41 10.06Z" />
			<path id="Layer" class="shp6" d="M39.28 31.89C36.13 31.89 33.58 30.01 33.58 27.68C33.58 25.35 36.13 23.47 39.28 23.47C42.43 23.47 44.98 25.35 44.98 27.68C44.98 30.01 42.43 31.89 39.28 31.89Z" />
			<path id="Layer" class="shp7" d="M47.26 -79.36L31.16 -79.36L31.16 -62.53C31.16 -60.05 34.78 -58.04 39.25 -58.04C43.72 -58.04 47.23 -60.05 47.23 -62.53C47.23 -62.75 47.26 -79.36 47.26 -79.36L47.26 -79.36Z" />
			<path id="Layer" class="shp7" d="M31.16 -79.36L47.26 -79.36L47.26 -64.93L31.16 -64.93L31.16 -79.36Z" />
			<path id="Layer" class="shp7" d="M31.16 -79.36L47.26 -64.93" />
			<path id="Layer" class="shp7" d="M47.26 -79.36L31.16 -64.93" />
			<path id="Layer" class="shp8" d="M60 -22.86C53.74 -25.95 46.93 -27.58 39.47 -27.58C32.01 -27.58 24.88 -25.84 18.62 -22.75C24.88 -19.66 31.89 -17.88 39.35 -17.88C46.81 -17.87 53.74 -19.76 60 -22.85L60 -22.86Z" />
			<path id="Layer" class="shp9" d="M63.13 -33.46C63.49 -33.77 63.85 -34.1 64.2 -34.44C71.77 -41.8 73.5 -52.3 68.07 -57.88C62.63 -63.47 52.1 -62.02 44.53 -54.65C42.26 -52.45 40.53 -49.97 39.34 -47.43C38.16 -49.97 36.42 -52.45 34.16 -54.65C26.59 -62.02 16.05 -63.47 10.62 -57.88C5.19 -52.3 6.92 -41.8 14.49 -34.44C14.84 -34.1 15.2 -33.77 15.56 -33.46C22.1 -35.91 30.36 -37.38 39.35 -37.38C48.33 -37.38 56.59 -35.91 63.12 -33.46L63.13 -33.46Z" />
			<path id="Layer" class="shp7" d="M39.35 -47.42C40.53 -49.96 42.27 -52.44 44.53 -54.64C46.37 -56.44 48.4 -57.88 50.48 -58.95C47.03 -59.92 43.28 -60.46 39.36 -60.46C35.43 -60.46 31.68 -59.92 28.23 -58.95C30.31 -57.88 32.33 -56.44 34.17 -54.64C36.43 -52.44 38.16 -49.96 39.35 -47.42L39.35 -47.42Z" />
			<path id="Layer" class="shp9" d="M63.04 -33.46L63.04 -33.47C56.5 -35.92 48.25 -37.38 39.27 -37.38C30.28 -37.38 22.02 -35.91 15.48 -33.46C15.48 -33.46 18.61 -31 19.07 -29.19C19.52 -27.38 19.72 -24.78 18.63 -22.76C24.89 -25.85 32.02 -27.58 39.48 -27.58C46.79 -27.58 53.84 -25.84 60.01 -22.86C59.01 -24.86 59.01 -27.43 59.45 -29.19C59.9 -30.99 63.04 -33.45 63.04 -33.45L63.04 -33.46Z" />
			<path id="Layer" class="shp9" d="M18.62 -22.75C24.88 -25.84 32.02 -27.57 39.47 -27.57C46.79 -27.57 53.83 -25.84 60 -22.86C59.58 -23.71 59.13 -25.89 59.2 -27.1C53 -29.54 46.33 -30.87 39.37 -30.87C32.34 -30.87 25.6 -29.51 19.33 -27.02C19.41 -24.77 19.09 -23.64 18.62 -22.76L18.62 -22.75Z" />
			<path id="Layer" class="shp1" d="M36.29 -34.04L39.39 -32.49L42.48 -34.04L39.39 -35.59L36.29 -34.04Z" />
			<path id="Layer" class="shp1" d="M23.62 -32.02L26.92 -30.99L29.73 -33.02L26.43 -34.05L23.62 -32.02Z" />
			<path id="Layer" class="shp1" d="M55.15 -32.02L51.85 -30.99L49.04 -33.02L52.34 -34.05L55.15 -32.02Z" />
			<path id="Layer" class="shp7" d="M39.35 -56.02C36.2 -56.02 33.65 -57.9 33.65 -60.23C33.65 -62.56 36.2 -64.44 39.35 -64.44C42.5 -64.44 45.05 -62.56 45.05 -60.23C45.05 -57.9 42.5 -56.02 39.35 -56.02Z" />
			<path id="Layer" class="shp10" d="M149.7 23.6C150.55 22.14 150.06 20.27 148.6 19.42C147.14 18.56 145.27 19.06 144.42 20.52C143.69 21.77 143.95 23.32 144.95 24.27C140.79 29.32 133.19 38.54 131.35 40.77C130.81 40.53 130.25 40.3 129.67 40.09C129.84 38.38 131.04 25.3 131.68 18.34C133.07 18.37 134.35 17.45 134.71 16.05C135.13 14.42 134.15 12.75 132.52 12.33C130.88 11.9 129.21 12.88 128.79 14.52C128.42 15.92 129.1 17.35 130.33 17.99C127.31 24.83 121.47 38.1 121.45 38.15C121.45 38.17 121.45 38.18 121.45 38.19C120.92 38.13 120.37 38.08 119.82 38.03C119.71 37.29 117.2 21.91 115.89 13.9C117.39 13.55 118.51 12.2 118.51 10.59C118.51 8.72 116.99 7.19 115.11 7.19C113.24 7.19 111.72 8.72 111.72 10.59C111.72 12.2 112.84 13.55 114.34 13.9C113.04 21.87 110.55 37.15 110.42 38.02C109.83 38.06 109.27 38.12 108.71 38.18C108.71 38.16 108.71 38.15 108.7 38.13C108.69 38.07 102.84 24.8 99.83 17.97C101.06 17.32 101.73 15.9 101.37 14.49C100.94 12.86 99.28 11.88 97.64 12.3C96.01 12.72 95.02 14.39 95.45 16.03C95.81 17.43 97.09 18.35 98.48 18.32C99.11 25.26 100.32 38.32 100.48 40.06C99.91 40.26 99.37 40.49 98.84 40.72C96.93 38.4 89.41 29.29 85.27 24.28C86.28 23.32 86.54 21.77 85.81 20.52C84.96 19.06 83.09 18.57 81.63 19.42C80.17 20.27 79.68 22.14 80.53 23.6C81.26 24.85 82.74 25.39 84.07 24.98C86.55 31.46 94.58 52.31 94.89 52.6L94.89 52.6C94.9 52.63 95.69 57.8 95.77 59.52C95.86 61.22 95.12 65.4 95.17 65.42L95.17 65.43C95.17 65.43 95.17 65.42 95.18 65.42C101.13 68.21 107.91 69.78 115.18 69.78C122.52 69.78 135.77 65.29 135.71 65.26C134.84 63.43 135.17 52.59 135.17 52.59C135.48 52.3 143.61 31.63 146.16 24.98C147.47 25.39 148.95 24.85 149.68 23.6" />
			<g id="Layer">
				<path id="Layer" class="shp11" d="M96.65 64.18C102.91 61.6 108.77 60.49 115.95 60.49C122.85 60.49 128.37 61.63 134.14 64.03" />
				<path id="Layer" class="shp11" d="M132.95 52.09C127.86 50.13 121.62 48.98 114.88 48.98C108.08 48.98 101.79 50.15 96.67 52.14" />
			</g>
			<path id="Layer" class="shp12" d="M133.56 60.61C127.92 58.75 122.19 57.4 115.72 57.4C109.14 57.4 102.8 58.79 96.85 60.72" />
			<path id="Layer" class="shp13" d="M112.3 53.65L115.14 55.07L117.99 53.65L115.14 52.23L112.3 53.65Z" />
			<path id="Layer" class="shp13" d="M129.61 55.5L126.58 56.45L124 54.59L127.03 53.64L129.61 55.5Z" />
			<path id="Layer" class="shp13" d="M100.68 55.5L103.71 56.45L106.29 54.59L103.26 53.64L100.68 55.5Z" />
			<path id="Layer" class="shp14" d="M135.22 -20.64C129.15 -23.48 122.51 -24.97 115.17 -24.97C107.82 -24.97 100.71 -23.34 94.44 -20.5C100.51 -17.67 107.39 -16.07 114.73 -16.07C122.08 -16.06 128.96 -17.8 135.22 -20.63L135.22 -20.64Z" />
			<path id="Layer" class="shp14" d="M134.77 -33.37L134.77 -33.38C129.31 -35.62 122.97 -36.99 114.73 -36.99C106.48 -36.99 100.11 -35.62 94.49 -33.37C94.49 -33.37 95.1 -28.17 95.13 -26.45C95.16 -24.51 94.62 -20.54 94.62 -20.54C100.88 -23.37 107.83 -24.97 115.17 -24.97C122.37 -24.97 129.68 -23.49 135.22 -20.64C134.31 -22.46 134.77 -33.36 134.77 -33.36L134.77 -33.37Z" />
			<path id="Layer" class="shp14" d="M94.64 -20.57C100.54 -23.37 107.83 -24.97 115.17 -24.97C122.37 -24.97 128.41 -23.95 135.22 -20.64C134.95 -21.41 134.76 -23.78 134.71 -24.65C128.68 -26.89 122.03 -28.16 115.18 -28.16C108.26 -28.16 101.3 -26.82 95.05 -24.53C94.92 -23.64 94.64 -20.58 94.64 -20.58L94.64 -20.57Z" />
			<path id="Layer" class="shp15" d="M148.3 -66.55C146.84 -67.4 144.97 -66.9 144.12 -65.44C143.39 -64.19 143.65 -62.64 144.65 -61.69C140.49 -56.64 132.88 -47.42 131.05 -45.19C130.51 -45.43 129.95 -45.66 129.37 -45.87C129.53 -47.58 130.74 -60.66 131.38 -67.62C132.77 -67.59 134.05 -68.51 134.41 -69.91C134.83 -71.54 133.85 -73.21 132.21 -73.64C130.58 -74.06 128.91 -73.08 128.49 -71.44C128.12 -70.04 128.8 -68.61 130.03 -67.97C127.01 -61.13 121.17 -47.86 121.15 -47.81C121.15 -47.79 121.15 -47.78 121.15 -47.77C120.62 -47.83 120.07 -47.89 119.51 -47.93C119.4 -48.67 116.9 -64.05 115.59 -72.06C117.09 -72.41 118.21 -73.76 118.21 -75.37C118.21 -77.24 116.69 -78.77 114.81 -78.77C112.94 -78.77 111.41 -77.24 111.41 -75.37C111.41 -73.76 112.54 -72.41 114.04 -72.06C112.74 -64.09 110.24 -48.81 110.11 -47.94C109.53 -47.9 108.96 -47.84 108.41 -47.78C108.41 -47.8 108.41 -47.81 108.4 -47.83C108.39 -47.89 102.54 -61.16 99.53 -67.99C100.76 -68.64 101.43 -70.06 101.07 -71.47C100.64 -73.1 98.97 -74.08 97.34 -73.66C95.71 -73.24 94.72 -71.57 95.15 -69.93C95.51 -68.53 96.79 -67.61 98.18 -67.64C98.81 -60.7 100.01 -47.65 100.18 -45.9C99.61 -45.7 99.06 -45.47 98.54 -45.24C96.63 -47.56 89.11 -56.67 84.97 -61.69C85.98 -62.64 86.24 -64.19 85.51 -65.44C84.66 -66.9 82.79 -67.4 81.33 -66.54C79.87 -65.69 79.38 -63.82 80.23 -62.36C80.96 -61.11 82.44 -60.57 83.77 -60.98C86.25 -54.5 94.28 -33.65 94.59 -33.37C100.12 -35.62 106.49 -36.99 114.73 -36.99C122.98 -36.99 129.34 -35.62 134.87 -33.37C135.18 -33.66 143.31 -54.33 145.86 -60.98C147.19 -60.57 148.67 -61.11 149.4 -62.36C150.22 -63.82 149.73 -65.69 148.27 -66.54L148.3 -66.55Z" />
			<path id="Layer" class="shp1" d="M112 -32.38L114.84 -30.96L117.69 -32.38L114.84 -33.8L112 -32.38Z" />
			<path id="Layer" class="shp1" d="M100.38 -30.54L103.41 -29.6L105.99 -31.46L102.96 -32.4L100.38 -30.54Z" />
			<path id="Layer" class="shp1" d="M129.31 -30.53L126.28 -29.58L123.7 -31.44L126.73 -32.39L129.31 -30.53Z" />
			<g id="Layer">
				<path id="Layer" class="shp16" d="M-167.37 64.65L-168.34 64.65L-168.34 58.83L-173 53.6L-173.05 53.6L-173.05 22.78L-173 22.78L-166.93 16.98L-166.89 16.98L-166.89 7.04C-166.89 6.18 -167.57 5.47 -168.4 5.47L-176.79 5.47L-176.79 10.87L-181.51 12.43L-185.85 10.87L-185.85 5.47L-196.2 5.47L-196.2 10.87L-200.55 12.43L-205.26 10.87L-205.26 5.47L-213.65 5.47C-214.48 5.47 -215.16 6.18 -215.16 7.04L-215.16 16.98L-215.14 16.98L-209.05 22.78L-209.05 53.6L-213.71 58.83L-213.71 64.65L-214.68 64.65C-215.55 64.65 -216.26 65.35 -216.26 66.22L-216.26 69.92C-216.26 70.78 -215.55 71.49 -214.68 71.49L-167.37 71.49C-166.5 71.49 -165.8 70.78 -165.8 69.92L-165.8 66.22C-165.8 65.36 -166.5 64.65 -167.37 64.65L-167.37 64.65Z" />
				<path id="Layer" class="shp17" d="M-212.18 64.65L-170.22 64.65" />
				<path id="Layer" class="shp17" d="M-211.99 58.83L-170.4 58.83" />
				<path id="Layer" class="shp17" d="M-174.84 53.61L-207.93 53.61" />
				<path id="Layer" class="shp17" d="M-207.74 22.79L-174.65 22.79" />
				<path id="Layer" class="shp17" d="M-213.1 16.98L-168.19 16.98" />
			</g>
			<path id="Layer" class="shp15" d="M-167.72 -14.41C-166.85 -14.41 -166.15 -15.11 -166.15 -15.98L-166.15 -19.68C-166.15 -20.55 -166.85 -21.25 -167.72 -21.25L-215.04 -21.25C-215.91 -21.25 -216.61 -20.55 -216.61 -19.68L-216.61 -15.98C-216.61 -15.11 -215.91 -14.41 -215.04 -14.41L-167.72 -14.41Z" />
			<path id="Layer" class="shp15" d="M-214.07 -27.07L-168.69 -27.07L-168.69 -21.25L-214.07 -21.25L-214.07 -27.07Z" />
			<path id="Layer" class="shp14" d="M-168.69 -27.07L-173.36 -32.3L-209.4 -32.3L-214.07 -27.07L-168.69 -27.07Z" />
			<path id="Layer" class="shp18" d="M-167.27 -68.94L-173.36 -63.12L-209.4 -63.12L-215.51 -68.94L-167.27 -68.94Z" />
			<path id="Layer" class="shp15" d="M-209.4 -63.12L-173.41 -63.12L-173.41 -32.3L-209.4 -32.3L-209.4 -63.12Z" />
			<path id="Layer" class="shp19" d="M-168.75 -80.43L-177.15 -80.43L-177.15 -75.03L-181.86 -73.47L-186.21 -75.03L-186.21 -80.43L-196.56 -80.43L-196.56 -75.03L-200.9 -73.47L-205.61 -75.03L-205.61 -80.43L-214.01 -80.43C-214.84 -80.43 -215.51 -79.73 -215.51 -78.86L-215.51 -68.92L-167.25 -68.92L-167.25 -78.86C-167.25 -79.73 -167.92 -80.43 -168.75 -80.43L-168.75 -80.43Z" />
			<path id="Layer" class="shp20" d="M0.87 69.82C0.25 69.48 -5.38 63.95 -10.6 63.95C-13.31 63.95 -15.44 64.77 -17.31 65.49C-19.21 66.23 -21.01 66.92 -23.61 66.92C-26.64 66.92 -29.15 65.99 -31.37 65.18C-33.16 64.52 -34.71 63.95 -36.29 63.95C-37.87 63.95 -39.42 64.52 -41.21 65.18C-43.43 65.99 -45.94 66.92 -48.97 66.92C-51.57 66.92 -53.37 66.23 -55.27 65.49C-57.15 64.77 -59.27 63.95 -61.98 63.95C-67.2 63.95 -72.83 69.48 -73.45 69.82C-73.45 69.82 -71.18 68.4 -69.07 68.4C-66.95 68.4 -65.12 69.88 -61.98 69.88C-60.37 69.88 -59.06 70.39 -57.4 71.03C-55.29 71.84 -52.68 72.85 -48.97 72.85C-44.89 72.85 -41.58 71.63 -39.16 70.74C-38.06 70.34 -36.82 69.88 -36.29 69.88C-35.76 69.88 -34.52 70.34 -33.42 70.74C-31 71.63 -27.69 72.85 -23.61 72.85C-19.91 72.85 -17.29 71.84 -15.18 71.03C-13.52 70.39 -12.21 69.88 -10.6 69.88C-7.46 69.88 -5.08 68.4 -3.51 68.4C-1.95 68.4 0.9 69.82 0.9 69.82L0.87 69.82Z" />
			<path id="Layer" class="shp21" d="M-16.36 35.91C-16.36 26.56 -24.34 11.73 -30.45 9.72C-30.66 9.65 -30.88 9.59 -31.11 9.55C-30.04 9.15 -29.28 8.13 -29.28 6.93C-29.28 5.38 -30.53 4.13 -32.07 4.13C-33.62 4.13 -34.87 5.38 -34.87 6.93C-34.87 8 -34.26 8.93 -33.38 9.4C-34.63 9.48 -35.98 9.81 -37.38 10.37C-38.27 9.96 -39.15 9.67 -40.02 9.51C-39 9.1 -38.28 8.1 -38.28 6.93C-38.28 5.38 -39.53 4.13 -41.08 4.13C-42.62 4.13 -43.87 5.38 -43.87 6.93C-43.87 8.02 -43.25 8.96 -42.34 9.42C-42.81 9.47 -43.28 9.57 -43.73 9.72C-49.83 11.73 -57.63 26.01 -57.63 35.91C-57.63 43.81 -54.43 50.61 -50.74 55.54C-50.19 57 -49.35 57.04 -49.17 57.22C-49.17 57.22 -49.17 57.22 -49.17 57.22C-49.17 57.24 -49.9 61.98 -49.97 63.05C-50.08 64.7 -50.25 66.64 -50.25 66.64C-46.22 68.42 -41.8 69.45 -37.01 69.45C-32.21 69.45 -28.01 68.32 -23.98 66.54C-24.13 65.23 -24.29 63.91 -24.62 61.93C-24.79 60.9 -25.38 57.22 -25.38 57.22C-25.2 57.04 -24.12 55.67 -24.12 55.67C-20.2 50.72 -16.37 44.12 -16.37 35.91L-16.36 35.91Z" />
			<path id="Layer" class="shp22" d="M-49.07 57.22C-45.8 55.81 -42.04 54.58 -37.17 54.58C-32.31 54.58 -28.55 55.81 -25.28 57.22C-25.1 57.04 -24.68 56.58 -23.79 55.34C-26.54 52.37 -30.55 50.73 -37.09 50.73C-44.08 50.73 -47.89 52.56 -50.64 55.54C-50.08 56.99 -49.24 57.04 -49.06 57.22L-49.07 57.22Z" />
			<path id="Layer" class="shp23" d="M-24.09 66.54C-28.12 64.77 -32.24 63.89 -37.04 63.89C-41.84 63.89 -46.33 64.87 -50.36 66.64C-46.33 68.41 -41.91 69.44 -37.11 69.44C-32.31 69.44 -28.11 68.31 -24.08 66.54L-24.09 66.54Z" />
			<path id="Layer" class="shp22" d="M-24.2 55.67C-21.66 51.43 -18.32 43.43 -22.5 29.81C-26 18.39 -36.31 7.24 -43.81 9.72C-50.47 11.91 -57.71 27.65 -57.71 35.9C-57.71 43.8 -54.51 50.61 -50.82 55.53L-24.19 55.66L-24.2 55.67Z" />
			<path id="Layer" class="shp22" d="M-41.16 9.72C-42.71 9.72 -43.96 8.47 -43.96 6.92C-43.96 5.37 -42.71 4.12 -41.16 4.12C-39.61 4.12 -38.36 5.37 -38.36 6.92C-38.36 8.47 -39.61 9.72 -41.16 9.72Z" />
			<path id="Layer" class="shp24" d="M-25.47 57.21L-25.47 57.21C-28.74 55.8 -32.5 54.62 -37.36 54.62C-42.23 54.62 -45.99 55.8 -49.25 57.21C-49.25 57.21 -49.99 61.97 -50.06 63.04C-50.17 64.69 -50.33 66.64 -50.33 66.64C-46.31 64.87 -41.81 63.89 -37.02 63.89C-32.31 63.89 -28.04 64.83 -24.07 66.54C-24.21 65.22 -24.38 63.9 -24.71 61.93C-24.89 60.89 -25.48 57.2 -25.48 57.2L-25.47 57.21Z" />
			<path id="Layer" class="shp25" d="M-25.59 63.59C-29.21 62.47 -33.08 61.85 -37.07 61.85C-41.13 61.85 -45.28 62.51 -49 63.68" />
			<g id="Layer">
				<path id="Layer" class="shp26" d="M-48.22 56.78C-45.19 55.56 -41.72 54.57 -37.36 54.57C-32.97 54.57 -29.49 55.57 -26.45 56.8" />
				<path id="Layer" class="shp26" d="M-24.48 54.63C-28.32 51.56 -31.4 50.73 -37.09 50.73C-41.85 50.73 -46.77 52 -49.13 54.15" />
			</g>
			<path id="Layer" class="shp27" d="M-30.41 30.71L-31.71 32.02L-38.29 32.02L-38.29 26.08L-36.98 24.77L-39.62 22.13L-42.26 24.77L-40.94 26.09L-40.94 32.02L-47.56 32.02L-48.87 30.71L-51.51 33.35L-48.87 35.99L-47.54 34.67L-40.94 34.67L-40.94 41.91L-42.26 43.23L-39.62 45.87L-36.98 43.23L-38.29 41.92L-38.29 34.67L-31.73 34.67L-30.41 35.99L-27.77 33.35L-30.41 30.71Z" />
			<path id="Layer" class="shp28" d="M-0.17 -16.04C-0.79 -16.38 -6.42 -21.91 -11.64 -21.91C-14.35 -21.91 -16.48 -21.09 -18.35 -20.37C-20.25 -19.63 -22.05 -18.94 -24.65 -18.94C-27.68 -18.94 -30.19 -19.87 -32.41 -20.68C-34.2 -21.34 -35.75 -21.91 -37.33 -21.91C-38.91 -21.91 -40.46 -21.34 -42.25 -20.68C-44.47 -19.87 -46.98 -18.94 -50.01 -18.94C-52.61 -18.94 -54.41 -19.63 -56.31 -20.37C-58.19 -21.09 -60.31 -21.91 -63.03 -21.91C-68.24 -21.91 -73.87 -16.38 -74.49 -16.04C-74.49 -16.04 -72.1 -17.46 -70.11 -17.46C-68.12 -17.46 -66.16 -15.98 -63.03 -15.98C-61.42 -15.98 -60.1 -15.47 -58.44 -14.83C-56.34 -14.02 -53.72 -13.01 -50.01 -13.01C-45.93 -13.01 -42.62 -14.23 -40.2 -15.12C-39.1 -15.52 -37.86 -15.98 -37.33 -15.98C-36.8 -15.98 -35.56 -15.52 -34.46 -15.12C-32.04 -14.23 -28.73 -13.01 -24.65 -13.01C-20.95 -13.01 -18.33 -14.02 -16.22 -14.83C-14.56 -15.47 -13.25 -15.98 -11.64 -15.98C-8.5 -15.98 -7.2 -17.46 -4.55 -17.46C-1.88 -17.46 -0.14 -16.04 -0.14 -16.04L-0.17 -16.04Z" />
			<path id="Layer" class="shp21" d="M-31.58 -76.14C-31.79 -76.21 -32.01 -76.26 -32.23 -76.31C-31.17 -76.71 -30.41 -77.73 -30.41 -78.93C-30.41 -80.47 -31.66 -81.73 -33.2 -81.73C-34.75 -81.73 -36 -80.47 -36 -78.93C-36 -77.86 -35.39 -76.93 -34.51 -76.46C-42.53 -75.94 -54.71 -65.37 -55.1 -47.48C-55.25 -40.37 -54.35 -34.55 -51.87 -30.32L-25.02 -30.51C-21.1 -35.46 -17.49 -41.73 -17.49 -49.95C-17.49 -60.88 -25.47 -74.14 -31.58 -76.14L-31.58 -76.14Z" />
			<path id="Layer" class="shp21" d="M-23.54 -56.04C-26.49 -65.67 -34.28 -75.1 -41.15 -76.34C-40.13 -76.76 -39.41 -77.76 -39.41 -78.93C-39.41 -80.47 -40.66 -81.73 -42.21 -81.73C-43.75 -81.73 -45 -80.47 -45 -78.93C-45 -77.84 -44.38 -76.9 -43.46 -76.44C-43.94 -76.38 -44.4 -76.29 -44.86 -76.14C-50.95 -74.13 -58.76 -60.65 -58.76 -49.95C-58.76 -42.05 -55.56 -35.25 -51.87 -30.32L-25.02 -30.51C-22.48 -34.75 -19.37 -42.43 -23.54 -56.04L-23.54 -56.04Z" />
			<path id="Layer" class="shp23" d="M-25.11 -19.31C-28.48 -20.86 -33.26 -21.96 -38.06 -21.96C-42.85 -21.96 -47.35 -20.98 -51.38 -19.21C-47.35 -17.44 -42.93 -16.41 -38.13 -16.41C-33.33 -16.41 -29.13 -17.54 -25.1 -19.31L-25.11 -19.31Z" />
			<path id="Layer" class="shp29" d="M-26.51 -28.64L-26.51 -28.64C-29.78 -30.05 -33.54 -31.23 -38.4 -31.23C-43.27 -31.23 -47.03 -30.05 -50.3 -28.64C-50.3 -28.64 -51.03 -23.88 -51.1 -22.81C-51.21 -21.16 -51.38 -19.21 -51.38 -19.21C-47.35 -20.98 -42.86 -21.96 -38.06 -21.96C-33.35 -21.96 -29.08 -21.02 -25.11 -19.31C-25.25 -20.63 -25.42 -21.95 -25.75 -23.92C-25.93 -24.97 -26.52 -28.65 -26.52 -28.65L-26.51 -28.64Z" />
			<path id="Layer" class="shp29" d="M-51.38 -19.21C-47.35 -20.98 -42.86 -21.96 -38.06 -21.96C-33.36 -21.96 -29.09 -21.02 -25.12 -19.31C-25.22 -20.41 -25.46 -21.1 -25.62 -22.51C-29.61 -23.91 -33.65 -24.62 -38.12 -24.62C-42.65 -24.62 -47.13 -23.8 -51.16 -22.37C-51.18 -21.13 -51.39 -19.21 -51.39 -19.21L-51.38 -19.21Z" />
			<path id="Layer" class="shp21" d="M-50.3 -28.64C-47.03 -30.05 -43.27 -31.25 -38.4 -31.28C-34.26 -31.31 -29.78 -30.05 -26.51 -28.64C-26.33 -28.82 -25.57 -29.05 -25.02 -30.51C-27.77 -33.49 -31.86 -35.04 -38.4 -35.04C-45.39 -35.04 -49.12 -33.3 -51.87 -30.32C-51.33 -28.86 -50.49 -28.82 -50.31 -28.64L-50.3 -28.64Z" />
			<path id="Layer" class="shp30" d="M-38.4 -35.04L-38.4 -31.28" />
			<path id="Layer" class="shp31" d="M-31.45 -55.15L-32.76 -53.84L-39.34 -53.84L-39.34 -59.77L-38.03 -61.08L-40.67 -63.72L-43.31 -61.08L-41.99 -59.76L-41.99 -53.84L-48.6 -53.84L-49.91 -55.15L-52.55 -52.51L-49.91 -49.87L-48.59 -51.19L-41.99 -51.19L-41.99 -43.94L-43.31 -42.62L-40.67 -39.98L-38.03 -42.62L-39.34 -43.93L-39.34 -51.19L-32.77 -51.19L-31.45 -49.87L-28.81 -52.51L-31.45 -55.15Z" />
			<path id="Layer" class="shp32" d="M180.04 12.5C180.04 12.5 181.15 6.54 181.15 5.71C181.15 4.87 181.98 4.74 182.81 5.85C183.64 6.95 187.39 12.36 187.39 12.36L180.04 12.49L180.04 12.5Z" />
			<path id="Layer" class="shp32" d="M229.77 58.23C229.39 55.54 228.88 52.98 228.25 50.54L226.25 49.74L227.59 48.14C226.82 45.56 225.93 43.13 224.96 40.85L223.06 40.31L224.01 38.69C222.99 36.52 221.89 34.5 220.75 32.62L218.98 32.26L219.61 30.8C218.34 28.83 217.03 27.03 215.72 25.4L213.85 25.19L214.35 23.73C212.83 21.94 211.35 20.39 209.97 19.06L208.1 18.95L208.42 17.61C205.08 14.58 202.71 13.11 202.71 13.11L198.46 14.4C198.46 14.4 196.43 13.29 194.76 12.18C194.76 12.18 193.65 8.48 193.29 6.45C192.92 4.42 191.81 5.34 191.44 5.9C191.07 6.45 187.23 10.7 187.23 10.7C187.23 10.7 184.94 10.39 183.31 10.7C180.9 11.17 179.79 12.78 177.02 15.42C175 17.34 173.78 19.02 173.09 20.82C172.4 22.63 173.23 22.63 172.95 24.29C172.68 25.95 165.19 38.43 164.36 39.95C163.53 41.48 161.52 46.14 165.47 49.1C166.57 49.94 167.41 50.35 168.1 50.63C168.1 50.63 169.21 50.35 169.63 49.8C169.7 49.7 169.74 49.64 169.76 49.6C169.77 49.57 169.78 49.57 169.76 49.6C169.71 49.71 169.62 50.12 170.04 50.63C170.73 51.46 171.63 51.4 172.12 51.46C172.86 51.55 174.2 50.91 175.31 49.24C176.42 47.58 177.11 47.02 177.94 46.05C178.77 45.08 183.36 42.94 185.15 39.95C185.57 39.26 186.54 39.54 187.23 40.09C187.93 40.65 191.81 40.79 193.47 38.01C193.47 38.01 194.26 45.31 190.97 50.35C185.57 58.67 176.42 60.75 173.65 68.51L230.49 68.51C230.49 65.83 230.34 63.25 230.09 60.78L228.2 59.78L229.8 58.23L229.77 58.23Z" />
			<path id="Layer" class="shp33" d="M200.49 16.26C200.49 16.26 224.7 34.38 224.7 67.09" />
			<path id="Layer" class="shp34" d="M169.75 49.4C169.77 49.37 169.76 49.37 169.75 49.4Z" />
			<path id="Layer" class="shp33" d="M195.5 28.83C195.96 34 193.56 37.7 193.47 38.02C193.47 38.02 199.29 35.02 199.84 31.05" />
			<path id="Layer" class="shp33" d="M193.46 38.02C193.46 38.02 197.34 39.92 200.21 38.71" />
			<path id="Layer" class="shp34" d="M169.62 49.6C169.62 49.6 172.21 46.27 172.95 44.75" />
			<path id="Layer" class="shp33" d="M185.56 18.89C185.56 18.89 181.3 18.91 179.88 21.25C177.94 24.43 180.15 24.85 180.15 24.85C180.15 24.85 182.37 25.54 183.9 23.46C185.52 21.25 184.17 19.86 184.17 19.86L185.55 18.89L185.56 18.89Z" />
			<path id="Layer" class="shp33" d="M164.91 42.39C166.43 41.97 167.4 42.11 168.1 42.53C168.1 42.53 167.4 40.45 168.65 38.65C169.9 36.84 171.98 36.71 173.78 33.24" />
			<path id="Layer" class="shp33" d="M205.38 20.83L208.02 19.17" />
			<path id="Layer" class="shp33" d="M210.79 26.79L213.43 25.55" />
			<path id="Layer" class="shp33" d="M215.64 33.71L218.69 32.46" />
			<path id="Layer" class="shp33" d="M219.53 41.63L222.71 40.52" />
			<path id="Layer" class="shp33" d="M222.57 50.92L225.9 49.95" />
			<path id="Layer" class="shp33" d="M224.38 60.34L227.84 59.93" />
			<path id="Layer" class="shp15" d="M176.71 -71.66C176.71 -71.66 177.82 -77.62 177.82 -78.45C177.82 -79.28 178.65 -79.42 179.48 -78.31C180.31 -77.2 184.06 -71.79 184.06 -71.79L176.71 -71.66L176.71 -71.66Z" />
			<path id="Layer" class="shp15" d="M226.45 -25.93C226.07 -28.62 225.56 -31.18 224.93 -33.62L222.93 -34.42L224.27 -36.02C223.5 -38.6 222.61 -41.03 221.64 -43.31L219.74 -43.85L220.68 -45.45C219.66 -47.62 218.56 -49.65 217.42 -51.53L215.65 -51.89L216.28 -53.35C215.01 -55.32 213.7 -57.12 212.39 -58.75L210.52 -58.96L211.02 -60.42C209.5 -62.21 208.01 -63.76 206.64 -65.09L204.77 -65.2L205.09 -66.54C201.75 -69.57 199.38 -71.04 199.38 -71.04L195.13 -69.75C195.13 -69.75 193.1 -70.86 191.43 -71.97C191.43 -71.97 190.32 -75.66 189.96 -77.7C189.58 -79.73 188.48 -78.81 188.11 -78.25C187.74 -77.7 183.9 -73.45 183.9 -73.45C183.9 -73.45 181.61 -73.76 179.97 -73.45C177.57 -72.98 176.46 -71.37 173.69 -68.73C171.67 -66.81 170.45 -65.13 169.76 -63.32C169.07 -61.52 169.9 -61.52 169.62 -59.86C169.34 -58.2 161.86 -45.72 161.03 -44.19C160.2 -42.67 158.19 -38.01 162.14 -35.04C163.24 -34.21 164.08 -33.8 164.77 -33.52C164.77 -33.52 165.88 -33.8 166.29 -34.35C166.37 -34.45 166.41 -34.51 166.42 -34.54C166.44 -34.58 166.45 -34.58 166.42 -34.54C166.38 -34.44 166.29 -34.03 166.71 -33.52C167.4 -32.69 168.29 -32.75 168.79 -32.69C169.53 -32.59 170.87 -33.24 171.98 -34.91C173.09 -36.57 173.78 -37.12 174.61 -38.09C175.44 -39.06 180.03 -41.21 181.82 -44.19C182.24 -44.89 183.21 -44.61 183.9 -44.05C184.59 -43.5 188.48 -43.36 190.14 -46.14C190.14 -46.14 190.93 -38.84 187.64 -33.8C182.24 -25.48 173.09 -23.4 170.32 -15.64L227.15 -15.64C227.15 -18.32 227.01 -20.89 226.76 -23.37L224.87 -24.37L226.5 -25.91L226.45 -25.93Z" />
			<path id="Layer" class="shp34" d="M197.16 -67.9C197.16 -67.9 221.37 -49.78 221.37 -17.06" />
			<path id="Layer" class="shp34" d="M166.42 -34.54C166.44 -34.58 166.44 -34.58 166.42 -34.54Z" />
			<path id="Layer" class="shp34" d="M192.17 -55.33C192.63 -50.16 190.23 -46.46 190.14 -46.14C190.14 -46.14 195.96 -49.14 196.51 -53.11" />
			<path id="Layer" class="shp34" d="M190.14 -46.13C190.14 -46.13 194.02 -44.23 196.89 -45.44" />
			<path id="Layer" class="shp34" d="M166.29 -34.35C166.29 -34.35 168.88 -37.68 169.62 -39.2" />
			<path id="Layer" class="shp34" d="M182.24 -65.26C182.24 -65.26 177.98 -65.24 176.56 -62.91C174.62 -59.72 176.83 -59.3 176.83 -59.3C176.83 -59.3 179.05 -58.61 180.58 -60.69C182.2 -62.9 180.85 -64.29 180.85 -64.29L182.23 -65.26L182.24 -65.26Z" />
			<path id="Layer" class="shp34" d="M161.58 -41.56C163.11 -41.98 164.08 -41.84 164.77 -41.42C164.77 -41.42 164.08 -43.5 165.32 -45.3C166.57 -47.11 168.65 -47.24 170.45 -50.71" />
			<path id="Layer" class="shp34" d="M202.06 -63.32L204.69 -64.98" />
			<path id="Layer" class="shp34" d="M207.47 -57.36L210.1 -58.61" />
			<path id="Layer" class="shp34" d="M212.32 -50.44L215.37 -51.69" />
			<path id="Layer" class="shp34" d="M216.2 -42.53L219.39 -43.64" />
			<path id="Layer" class="shp34" d="M219.25 -33.24L222.58 -34.21" />
			<path id="Layer" class="shp34" d="M221.05 -23.81L224.52 -24.23" />
			<path id="Layer" class="shp35" d="M279.45 62.57C275.7 55.13 276.08 41.87 276.39 36.73C282.32 36.32 286.59 35.2 286.59 33.87C286.59 32.57 282.48 31.47 276.72 31.04C280.4 29.15 282.92 25.32 282.92 20.89C282.92 14.59 277.81 9.48 271.51 9.48C265.2 9.48 260.09 14.59 260.09 20.89C260.09 25.32 262.61 29.15 266.29 31.04C260.53 31.47 256.42 32.57 256.42 33.87C256.42 35.2 260.69 36.32 266.62 36.73C266.93 41.87 267.31 55.13 263.56 62.57C256.21 64.05 251.05 67.52 251.05 71.56L291.95 71.56C291.95 67.52 286.8 64.05 279.45 62.57L279.45 62.57Z" />
			<path id="Layer" class="shp36" d="M279.45 -21.03C275.7 -28.48 276.08 -41.74 276.39 -46.87C282.32 -47.28 286.59 -48.4 286.59 -49.73C286.59 -51.03 282.48 -52.13 276.72 -52.56C280.4 -54.45 282.92 -58.29 282.92 -62.71C282.92 -69.01 277.81 -74.12 271.51 -74.12C265.2 -74.12 260.09 -69.01 260.09 -62.71C260.09 -58.29 262.61 -54.45 266.29 -52.56C260.53 -52.13 256.42 -51.03 256.42 -49.73C256.42 -48.4 260.69 -47.28 266.62 -46.87C266.93 -41.74 267.31 -28.48 263.56 -21.03C256.21 -19.55 251.05 -16.08 251.05 -12.04L291.95 -12.04C291.95 -16.08 286.8 -19.55 279.45 -21.03L279.45 -21.03Z" />
			<path id="Layer" class="shp15" d="M-99.05 -71.66C-99.05 -71.66 -100.16 -77.62 -100.16 -78.45C-100.16 -79.28 -100.99 -79.42 -101.82 -78.31C-102.65 -77.2 -106.4 -71.79 -106.4 -71.79L-99.06 -71.66L-99.05 -71.66Z" />
			<path id="Layer" class="shp15" d="M-148.79 -25.93C-148.41 -28.62 -147.9 -31.18 -147.27 -33.62L-145.26 -34.42L-146.6 -36.02C-145.84 -38.6 -144.95 -41.03 -143.98 -43.31L-142.08 -43.85L-143.02 -45.45C-142 -47.62 -140.9 -49.65 -139.76 -51.53L-137.99 -51.89L-138.62 -53.35C-137.35 -55.32 -136.03 -57.12 -134.73 -58.75L-132.86 -58.96L-133.36 -60.42C-131.84 -62.21 -130.35 -63.76 -128.98 -65.09L-127.1 -65.2L-127.43 -66.54C-124.08 -69.57 -121.72 -71.04 -121.72 -71.04L-117.47 -69.75C-117.47 -69.75 -115.44 -70.86 -113.77 -71.97C-113.77 -71.97 -112.66 -75.66 -112.29 -77.7C-111.92 -79.73 -110.82 -78.81 -110.45 -78.25C-110.08 -77.7 -106.24 -73.45 -106.24 -73.45C-106.24 -73.45 -103.95 -73.76 -102.31 -73.45C-99.91 -72.98 -98.8 -71.37 -96.03 -68.73C-94.01 -66.81 -92.79 -65.13 -92.1 -63.32C-91.41 -61.52 -92.24 -61.52 -91.96 -59.86C-91.68 -58.2 -84.2 -45.72 -83.37 -44.19C-82.53 -42.67 -80.53 -38.01 -84.47 -35.04C-85.58 -34.21 -86.42 -33.8 -87.11 -33.52C-87.11 -33.52 -88.22 -33.8 -88.63 -34.35C-88.71 -34.45 -88.75 -34.51 -88.76 -34.54C-88.78 -34.58 -88.78 -34.58 -88.76 -34.54C-88.72 -34.44 -88.62 -34.03 -89.05 -33.52C-89.74 -32.69 -90.63 -32.75 -91.13 -32.69C-91.87 -32.59 -93.21 -33.24 -94.32 -34.91C-95.43 -36.57 -96.12 -37.12 -96.95 -38.09C-97.78 -39.06 -102.37 -41.21 -104.16 -44.19C-104.58 -44.89 -105.55 -44.61 -106.24 -44.05C-106.93 -43.5 -110.82 -43.36 -112.48 -46.14C-112.48 -46.14 -113.26 -38.84 -109.98 -33.8C-104.58 -25.48 -95.43 -23.4 -92.65 -15.64L-149.52 -15.64C-149.52 -18.32 -149.37 -20.89 -149.12 -23.37L-147.23 -24.37L-148.81 -25.91L-148.79 -25.93Z" />
			<path id="Layer" class="shp34" d="M-119.5 -67.9C-119.5 -67.9 -143.71 -49.78 -143.71 -17.06" />
			<path id="Layer" class="shp34" d="M-88.76 -34.54C-88.78 -34.58 -88.78 -34.58 -88.76 -34.54Z" />
			<path id="Layer" class="shp34" d="M-114.51 -55.33C-114.97 -50.16 -112.57 -46.46 -112.48 -46.14C-112.48 -46.14 -118.3 -49.14 -118.85 -53.11" />
			<path id="Layer" class="shp34" d="M-112.48 -46.13C-112.48 -46.13 -116.36 -44.23 -119.23 -45.44" />
			<path id="Layer" class="shp34" d="M-88.63 -34.35C-88.63 -34.35 -91.22 -37.68 -91.96 -39.2" />
			<path id="Layer" class="shp34" d="M-104.58 -65.26C-104.58 -65.26 -100.32 -65.24 -98.9 -62.91C-96.96 -59.72 -99.17 -59.3 -99.17 -59.3C-99.17 -59.3 -101.39 -58.61 -102.92 -60.69C-104.54 -62.9 -103.19 -64.29 -103.19 -64.29L-104.57 -65.26L-104.58 -65.26Z" />
			<path id="Layer" class="shp34" d="M-83.92 -41.56C-85.45 -41.98 -86.42 -41.84 -87.11 -41.42C-87.11 -41.42 -86.42 -43.5 -87.66 -45.3C-88.91 -47.11 -90.99 -47.24 -92.79 -50.71" />
			<path id="Layer" class="shp34" d="M-124.4 -63.32L-127.03 -64.98" />
			<path id="Layer" class="shp34" d="M-129.81 -57.36L-132.44 -58.61" />
			<path id="Layer" class="shp34" d="M-134.66 -50.44L-137.71 -51.69" />
			<path id="Layer" class="shp34" d="M-138.54 -42.53L-141.73 -43.64" />
			<path id="Layer" class="shp34" d="M-141.59 -33.24L-144.92 -34.21" />
			<path id="Layer" class="shp34" d="M-143.39 -23.81L-146.86 -24.23" />
			<path id="Layer" class="shp32" d="M-99.1 14.83C-99.1 14.83 -100.21 8.87 -100.21 8.04C-100.21 7.2 -101.04 7.07 -101.87 8.18C-102.7 9.29 -106.45 14.69 -106.45 14.69L-99.11 14.82L-99.1 14.83Z" />
			<path id="Layer" class="shp32" d="M-148.84 60.56C-148.46 57.87 -147.95 55.31 -147.32 52.87L-145.31 52.07L-146.65 50.47C-145.89 47.89 -145 45.46 -144.03 43.18L-142.13 42.64L-143.06 41.04C-142.04 38.87 -140.95 36.84 -139.81 34.96L-138.04 34.6L-138.67 33.14C-137.39 31.17 -136.08 29.37 -134.78 27.74L-132.91 27.53L-133.41 26.07C-131.88 24.28 -130.4 22.73 -129.03 21.4L-127.15 21.29L-127.48 19.95C-124.13 16.92 -121.77 15.45 -121.77 15.45L-117.52 16.74C-117.52 16.74 -115.48 15.63 -113.82 14.52C-113.82 14.52 -112.71 10.83 -112.34 8.79C-111.97 6.76 -110.86 7.69 -110.49 8.24C-110.12 8.79 -106.29 13.05 -106.29 13.05C-106.29 13.05 -103.99 12.73 -102.36 13.05C-99.96 13.51 -98.85 15.13 -96.08 17.76C-94.05 19.68 -92.84 21.36 -92.15 23.17C-91.46 24.97 -92.29 24.97 -92.01 26.63C-91.73 28.3 -84.25 40.77 -83.41 42.3C-82.58 43.82 -80.57 48.49 -84.52 51.45C-85.63 52.28 -86.47 52.69 -87.16 52.97C-87.16 52.97 -88.27 52.69 -88.68 52.14C-88.76 52.04 -88.79 51.98 -88.81 51.95C-88.83 51.91 -88.83 51.91 -88.81 51.95C-88.77 52.06 -88.67 52.46 -89.1 52.97C-89.79 53.8 -90.68 53.74 -91.18 53.8C-91.92 53.9 -93.26 53.25 -94.37 51.59C-95.48 49.92 -96.17 49.37 -97 48.4C-97.83 47.43 -102.42 45.28 -104.21 42.3C-104.63 41.6 -105.6 41.88 -106.29 42.44C-106.98 42.99 -110.86 43.13 -112.53 40.36C-112.53 40.36 -113.31 47.65 -110.03 52.69C-104.63 61.01 -95.48 63.09 -92.7 70.85L-149.57 70.85C-149.57 68.17 -149.43 65.6 -149.18 63.12L-147.29 62.12L-148.87 60.56L-148.84 60.56Z" />
			<path id="Layer" class="shp33" d="M-119.55 18.59C-119.55 18.59 -143.76 36.71 -143.76 69.42" />
			<path id="Layer" class="shp34" d="M-88.81 51.73C-88.83 51.7 -88.83 51.7 -88.81 51.73Z" />
			<path id="Layer" class="shp33" d="M-114.56 31.16C-115.02 36.33 -112.62 40.03 -112.53 40.35C-112.53 40.35 -118.35 37.35 -118.9 33.38" />
			<path id="Layer" class="shp33" d="M-112.53 40.35C-112.53 40.35 -116.41 42.25 -119.28 41.04" />
			<path id="Layer" class="shp34" d="M-88.68 51.93C-88.68 51.93 -91.27 48.6 -92.01 47.08" />
			<path id="Layer" class="shp33" d="M-104.63 21.22C-104.63 21.22 -100.37 21.24 -98.95 23.58C-97 26.77 -99.22 27.18 -99.22 27.18C-99.22 27.18 -101.44 27.87 -102.97 25.79C-104.59 23.58 -103.24 22.19 -103.24 22.19L-104.62 21.22L-104.63 21.22Z" />
			<path id="Layer" class="shp33" d="M-83.97 44.72C-85.5 44.3 -86.47 44.44 -87.16 44.86C-87.16 44.86 -86.47 42.78 -87.71 40.98C-88.96 39.17 -91.04 39.04 -92.84 35.57" />
			<path id="Layer" class="shp33" d="M-124.45 23.17L-127.08 21.5" />
			<path id="Layer" class="shp33" d="M-129.86 29.13L-132.49 27.88" />
			<path id="Layer" class="shp33" d="M-134.71 36.04L-137.76 34.79" />
			<path id="Layer" class="shp33" d="M-138.59 43.96L-141.78 42.85" />
			<path id="Layer" class="shp33" d="M-141.64 53.25L-144.97 52.28" />
			<path id="Layer" class="shp33" d="M-143.44 62.67L-146.91 62.26" />
		</g>
	</g>
</svg>