<svg xmlns="http://www.w3.org/2000/svg" viewBox="0 0 52 83" width="52" height="83">
	<style>
		tspan { white-space:pre }
		.shp0 { fill: #000000;stroke: #000000;stroke-width: 0.31 } 
		.shp1 { fill: #000000 } 
		.shp2 { fill: #000000;stroke: #ffffff;stroke-linecap:round;stroke-width: 1.009 } 
		.shp3 { fill: none;stroke: #ffffff;stroke-linejoin:bevel;stroke-width: 0.62 } 
		.shp4 { fill: none;stroke: #ffffff;stroke-linecap:round;stroke-width: 1.009 } 
		.shp5 { fill: #ffffff;stroke: #000000;stroke-width: 0.317 } 
		.shp6 { fill: none;stroke: #ffffff;stroke-width: 0.62 } 
		.shp7 { fill: #ffffff;stroke: #20201e;stroke-width: 1.211 } 
		.shp8 { fill: #ffffff;stroke: #20201e;stroke-linejoin:round;stroke-width: 1.211 } 
		.shp9 { fill: #ffffff;stroke: #20201e;stroke-linejoin:bevel;stroke-width: 1.211 } 
		.shp10 { fill: #000000;stroke: #000000;stroke-linejoin:bevel;stroke-width: 0.853 } 
		.shp11 { fill: #000000;stroke: #ffffff;stroke-linecap:round;stroke-width: 0.926 } 
		.shp12 { fill: none;stroke: #ffffff;stroke-linecap:round;stroke-width: 0.926 } 
		.shp13 { fill: #ffffff } 
		.shp14 { fill: #ffffff;stroke: #20201e;stroke-linejoin:bevel;stroke-width: 1.111 } 
		.shp15 { fill: #ffffff;stroke: #20201e;stroke-width: 1.111 } 
		.shp16 { fill: #000000;stroke: #000000;stroke-linecap:square;stroke-width: 0.853 } 
		.shp17 { fill: none;stroke: #ffffff;stroke-linecap:round;stroke-width: 0.853 } 
		.shp18 { fill: #ffffff;stroke: #20201e;stroke-linejoin:round;stroke-width: 1.111 } 
		.shp19 { fill: #ffffff;stroke: #20201e;stroke-linecap:square;stroke-width: 1.111 } 
		.shp20 { fill: #20201e } 
		.shp21 { fill: #ffffff;stroke: #20201e;stroke-width: 1.32 } 
		.shp22 { fill: #000000;stroke: #000000;stroke-width: 0.533 } 
		.shp23 { fill: #ffffff;stroke: #000000;stroke-linejoin:bevel;stroke-width: 1.014 } 
		.shp24 { fill: #000000;stroke: #000000;stroke-linejoin:bevel;stroke-width: 0.533 } 
		.shp25 { fill: none;stroke: #ffffff;stroke-linecap:round;stroke-linejoin:bevel;stroke-width: 0.533 } 
		.shp26 { fill: none;stroke: #ffffff;stroke-linecap:round;stroke-width: 0.533 } 
		.shp27 { fill: #ffffff;stroke: #000000;stroke-width: 0.533 } 
		.shp28 { fill: #ffffff;stroke: #20201e;stroke-linecap:round;stroke-linejoin:round;stroke-width: 1.32 } 
		.shp29 { fill: #ffffff;stroke: #20201e;stroke-linejoin:bevel;stroke-width: 1.32 } 
		.shp30 { fill: #ffffff;stroke: #000000;stroke-width: 1.014 } 
		.shp31 { fill: #ffffff;stroke: #000000;stroke-width: 0.77 } 
		.shp32 { fill: #20201e;stroke: #20201e;stroke-width: 0.853 } 
		.shp33 { fill: none;stroke: #ffffff;stroke-width: 0.853 } 
		.shp34 { fill: none;stroke: #20201e;stroke-width: 0.853 } 
		.shp35 { fill: #000000;stroke: #000000;stroke-linejoin:round;stroke-width: 0.79 } 
		.shp36 { fill: #ffffff;stroke: #000000;stroke-linejoin:round;stroke-width: 1.111 } 
	</style>
	<g id="Layer">
		<g id="Layer">
			<path id="Layer" class="shp0" d="M-199.74 28.52C-198.39 27.72 -197.82 26.65 -197.82 25.47C-197.82 25.13 -197.77 8.89 -197.77 8.89L-213.87 8.89C-213.87 8.89 -213.94 25.27 -213.94 25.47C-213.94 26.66 -213.1 27.74 -211.73 28.54C-212.7 28.68 -213.66 28.85 -214.61 29.06C-213.09 30.03 -211.66 31.16 -210.33 32.45C-208.46 34.28 -206.9 36.3 -205.68 38.48C-204.46 36.3 -202.91 34.28 -201.03 32.45C-199.7 31.16 -198.27 30.03 -196.75 29.06C-197.72 28.85 -198.72 28.68 -199.72 28.53L-199.74 28.52Z" />
			<path id="Layer" class="shp1" d="M-184.93 65.43C-185.93 63.43 -185.95 60.82 -185.51 59.06C-185.06 57.24 -180.76 53.81 -180.76 53.81C-173.19 46.45 -171.46 35.95 -176.89 30.36C-182.32 24.78 -192.86 26.23 -200.43 33.59C-202.69 35.79 -204.43 38.27 -205.61 40.82C-206.8 38.27 -208.53 35.79 -210.79 33.59C-218.36 26.23 -228.9 24.78 -234.34 30.36C-239.77 35.95 -238.03 46.45 -230.46 53.81C-230.12 54.14 -226.35 57.24 -225.9 59.06C-225.44 60.87 -225.38 63.48 -226.47 65.5L-226.31 65.5C-226.33 65.51 -226.35 65.52 -226.38 65.53C-220.11 68.62 -213.06 70.36 -205.61 70.36C-198.16 70.35 -191.21 68.51 -184.94 65.42" />
			<g id="Layer">
				<path id="Layer" class="shp2" d="M-225.28 65.06C-219.25 62.25 -212.58 60.69 -205.49 60.69C-198.68 60.69 -192.14 62.36 -186.31 64.73" />
				<path id="Layer" class="shp2" d="M-183.41 53.38C-189.69 51.25 -197.38 49.99 -205.7 49.99C-214.08 49.99 -221.84 51.27 -228.15 53.44" />
			</g>
			<path id="Layer" class="shp3" d="M-199.08 10.06L-212.59 22.17L-199.08 22.17L-212.59 10.06L-199.08 10.06Z" />
			<path id="Layer" class="shp4" d="M-187.34 60.77C-193.12 58.74 -199.27 57.27 -205.65 57.27C-212.16 57.27 -218.42 58.78 -224.3 60.88" />
			<path id="Layer" class="shp5" d="M-208.82 53.96L-205.65 55.54L-202.48 53.96L-205.65 52.37L-208.82 53.96Z" />
			<path id="Layer" class="shp5" d="M-221.77 56.02L-218.39 57.07L-215.52 55L-218.9 53.94L-221.77 56.02Z" />
			<path id="Layer" class="shp5" d="M-189.52 56.02L-192.91 57.07L-195.78 55L-192.4 53.94L-189.52 56.02Z" />
			<path id="Layer" class="shp3" d="M-212.59 10.06L-199.07 10.06L-199.07 22.17L-212.59 22.17L-212.59 10.06Z" />
			<path id="Layer" class="shp6" d="M-205.72 31.89C-208.87 31.89 -211.42 30.01 -211.42 27.68C-211.42 25.35 -208.87 23.47 -205.72 23.47C-202.57 23.47 -200.02 25.35 -200.02 27.68C-200.02 30.01 -202.57 31.89 -205.72 31.89Z" />
			<path id="Layer" class="shp7" d="M-197.74 -79.36L-213.84 -79.36L-213.84 -62.53C-213.84 -60.05 -210.22 -58.04 -205.75 -58.04C-201.28 -58.04 -197.77 -60.05 -197.77 -62.53C-197.77 -62.75 -197.74 -79.36 -197.74 -79.36L-197.74 -79.36Z" />
			<path id="Layer" class="shp7" d="M-213.84 -79.36L-197.74 -79.36L-197.74 -64.93L-213.84 -64.93L-213.84 -79.36Z" />
			<path id="Layer" class="shp7" d="M-213.84 -79.36L-197.74 -64.93" />
			<path id="Layer" class="shp7" d="M-197.74 -79.36L-213.84 -64.93" />
			<path id="Layer" class="shp8" d="M-185 -22.86C-191.26 -25.95 -198.07 -27.58 -205.53 -27.58C-212.99 -27.58 -220.12 -25.84 -226.38 -22.75C-220.12 -19.66 -213.11 -17.88 -205.65 -17.88C-198.19 -17.87 -191.26 -19.76 -185 -22.85L-185 -22.86Z" />
			<path id="Layer" class="shp9" d="M-181.87 -33.46C-181.51 -33.77 -181.15 -34.1 -180.8 -34.44C-173.23 -41.8 -171.5 -52.3 -176.93 -57.88C-182.37 -63.47 -192.9 -62.02 -200.47 -54.65C-202.74 -52.45 -204.47 -49.97 -205.66 -47.43C-206.84 -49.97 -208.58 -52.45 -210.84 -54.65C-218.41 -62.02 -228.95 -63.47 -234.38 -57.88C-239.81 -52.3 -238.08 -41.8 -230.51 -34.44C-230.16 -34.1 -229.8 -33.77 -229.44 -33.46C-222.9 -35.91 -214.64 -37.38 -205.65 -37.38C-196.67 -37.38 -188.41 -35.91 -181.88 -33.46L-181.87 -33.46Z" />
			<path id="Layer" class="shp7" d="M-205.65 -47.42C-204.47 -49.96 -202.73 -52.44 -200.47 -54.64C-198.63 -56.44 -196.6 -57.88 -194.52 -58.95C-197.97 -59.92 -201.72 -60.46 -205.64 -60.46C-209.57 -60.46 -213.32 -59.92 -216.77 -58.95C-214.69 -57.88 -212.67 -56.44 -210.83 -54.64C-208.57 -52.44 -206.84 -49.96 -205.65 -47.42L-205.65 -47.42Z" />
			<path id="Layer" class="shp9" d="M-181.96 -33.46L-181.96 -33.47C-188.5 -35.92 -196.75 -37.38 -205.73 -37.38C-214.72 -37.38 -222.98 -35.91 -229.52 -33.46C-229.52 -33.46 -226.39 -31 -225.93 -29.19C-225.48 -27.38 -225.28 -24.78 -226.37 -22.76C-220.11 -25.85 -212.98 -27.58 -205.52 -27.58C-198.21 -27.58 -191.16 -25.84 -184.99 -22.86C-185.99 -24.86 -185.99 -27.43 -185.55 -29.19C-185.1 -30.99 -181.96 -33.45 -181.96 -33.45L-181.96 -33.46Z" />
			<path id="Layer" class="shp9" d="M-226.38 -22.75C-220.12 -25.84 -212.98 -27.57 -205.53 -27.57C-198.21 -27.57 -191.17 -25.84 -185 -22.86C-185.42 -23.71 -185.87 -25.89 -185.8 -27.1C-192 -29.54 -198.67 -30.87 -205.63 -30.87C-212.66 -30.87 -219.4 -29.51 -225.67 -27.02C-225.59 -24.77 -225.91 -23.64 -226.38 -22.76L-226.38 -22.75Z" />
			<path id="Layer" class="shp1" d="M-208.71 -34.04L-205.61 -32.49L-202.52 -34.04L-205.61 -35.59L-208.71 -34.04Z" />
			<path id="Layer" class="shp1" d="M-221.38 -32.02L-218.08 -30.99L-215.27 -33.02L-218.57 -34.05L-221.38 -32.02Z" />
			<path id="Layer" class="shp1" d="M-189.85 -32.02L-193.15 -30.99L-195.96 -33.02L-192.66 -34.05L-189.85 -32.02Z" />
			<path id="Layer" class="shp7" d="M-205.65 -56.02C-208.8 -56.02 -211.35 -57.9 -211.35 -60.23C-211.35 -62.56 -208.8 -64.44 -205.65 -64.44C-202.5 -64.44 -199.95 -62.56 -199.95 -60.23C-199.95 -57.9 -202.5 -56.02 -205.65 -56.02Z" />
			<path id="Layer" class="shp10" d="M-95.3 23.6C-94.45 22.14 -94.94 20.27 -96.4 19.42C-97.86 18.56 -99.73 19.06 -100.58 20.52C-101.31 21.77 -101.05 23.32 -100.05 24.27C-104.21 29.32 -111.81 38.54 -113.65 40.77C-114.19 40.53 -114.75 40.3 -115.33 40.09C-115.16 38.38 -113.96 25.3 -113.32 18.34C-111.93 18.37 -110.65 17.45 -110.29 16.05C-109.87 14.42 -110.85 12.75 -112.48 12.33C-114.12 11.9 -115.79 12.88 -116.21 14.52C-116.58 15.92 -115.9 17.35 -114.67 17.99C-117.69 24.83 -123.53 38.1 -123.55 38.15C-123.55 38.17 -123.55 38.18 -123.55 38.19C-124.08 38.13 -124.63 38.08 -125.18 38.03C-125.29 37.29 -127.8 21.91 -129.11 13.9C-127.61 13.55 -126.49 12.2 -126.49 10.59C-126.49 8.72 -128.01 7.19 -129.89 7.19C-131.76 7.19 -133.28 8.72 -133.28 10.59C-133.28 12.2 -132.16 13.55 -130.66 13.9C-131.96 21.87 -134.45 37.15 -134.58 38.02C-135.17 38.06 -135.73 38.12 -136.29 38.18C-136.29 38.16 -136.29 38.15 -136.3 38.13C-136.31 38.07 -142.16 24.8 -145.17 17.97C-143.94 17.32 -143.27 15.9 -143.63 14.49C-144.06 12.86 -145.72 11.88 -147.36 12.3C-148.99 12.72 -149.98 14.39 -149.55 16.03C-149.19 17.43 -147.91 18.35 -146.52 18.32C-145.89 25.26 -144.68 38.32 -144.52 40.06C-145.09 40.26 -145.63 40.49 -146.16 40.72C-148.07 38.4 -155.59 29.29 -159.73 24.28C-158.72 23.32 -158.46 21.77 -159.19 20.52C-160.04 19.06 -161.91 18.57 -163.37 19.42C-164.83 20.27 -165.32 22.14 -164.47 23.6C-163.74 24.85 -162.26 25.39 -160.93 24.98C-158.45 31.46 -150.42 52.31 -150.11 52.6L-150.11 52.6C-150.1 52.63 -149.31 57.8 -149.23 59.52C-149.14 61.22 -149.88 65.4 -149.83 65.42L-149.83 65.43C-149.83 65.43 -149.83 65.42 -149.82 65.42C-143.87 68.21 -137.09 69.78 -129.82 69.78C-122.48 69.78 -109.23 65.29 -109.29 65.26C-110.16 63.43 -109.83 52.59 -109.83 52.59C-109.52 52.3 -101.39 31.63 -98.84 24.98C-97.53 25.39 -96.05 24.85 -95.32 23.6" />
			<g id="Layer">
				<path id="Layer" class="shp11" d="M-148.35 64.18C-142.09 61.6 -136.23 60.49 -129.05 60.49C-122.15 60.49 -116.63 61.63 -110.86 64.03" />
				<path id="Layer" class="shp11" d="M-112.05 52.09C-117.14 50.13 -123.38 48.98 -130.12 48.98C-136.92 48.98 -143.21 50.15 -148.33 52.14" />
			</g>
			<path id="Layer" class="shp12" d="M-111.44 60.61C-117.08 58.75 -122.81 57.4 -129.28 57.4C-135.86 57.4 -142.2 58.79 -148.15 60.72" />
			<path id="Layer" class="shp13" d="M-132.7 53.65L-129.86 55.07L-127.01 53.65L-129.86 52.23L-132.7 53.65Z" />
			<path id="Layer" class="shp13" d="M-115.39 55.5L-118.42 56.45L-121 54.59L-117.97 53.64L-115.39 55.5Z" />
			<path id="Layer" class="shp13" d="M-144.32 55.5L-141.29 56.45L-138.71 54.59L-141.74 53.64L-144.32 55.5Z" />
			<path id="Layer" class="shp14" d="M-109.78 -20.64C-115.85 -23.48 -122.49 -24.97 -129.83 -24.97C-137.18 -24.97 -144.29 -23.34 -150.56 -20.5C-144.49 -17.67 -137.61 -16.07 -130.27 -16.07C-122.92 -16.06 -116.04 -17.8 -109.78 -20.63L-109.78 -20.64Z" />
			<path id="Layer" class="shp14" d="M-110.23 -33.37L-110.23 -33.38C-115.69 -35.62 -122.03 -36.99 -130.27 -36.99C-138.52 -36.99 -144.89 -35.62 -150.51 -33.37C-150.51 -33.37 -149.9 -28.17 -149.87 -26.45C-149.84 -24.51 -150.38 -20.54 -150.38 -20.54C-144.12 -23.37 -137.17 -24.97 -129.83 -24.97C-122.63 -24.97 -115.32 -23.49 -109.78 -20.64C-110.69 -22.46 -110.23 -33.36 -110.23 -33.36L-110.23 -33.37Z" />
			<path id="Layer" class="shp14" d="M-150.36 -20.57C-144.46 -23.37 -137.17 -24.97 -129.83 -24.97C-122.63 -24.97 -116.59 -23.95 -109.78 -20.64C-110.05 -21.41 -110.24 -23.78 -110.29 -24.65C-116.32 -26.89 -122.97 -28.16 -129.82 -28.16C-136.74 -28.16 -143.7 -26.82 -149.95 -24.53C-150.08 -23.64 -150.36 -20.58 -150.36 -20.58L-150.36 -20.57Z" />
			<path id="Layer" class="shp15" d="M-96.7 -66.55C-98.16 -67.4 -100.03 -66.9 -100.88 -65.44C-101.61 -64.19 -101.35 -62.64 -100.35 -61.69C-104.51 -56.64 -112.12 -47.42 -113.95 -45.19C-114.49 -45.43 -115.05 -45.66 -115.63 -45.87C-115.47 -47.58 -114.26 -60.66 -113.62 -67.62C-112.23 -67.59 -110.95 -68.51 -110.59 -69.91C-110.17 -71.54 -111.15 -73.21 -112.79 -73.64C-114.42 -74.06 -116.09 -73.08 -116.51 -71.44C-116.88 -70.04 -116.2 -68.61 -114.97 -67.97C-117.99 -61.13 -123.83 -47.86 -123.85 -47.81C-123.85 -47.79 -123.85 -47.78 -123.85 -47.77C-124.38 -47.83 -124.93 -47.89 -125.49 -47.93C-125.6 -48.67 -128.1 -64.05 -129.41 -72.06C-127.91 -72.41 -126.79 -73.76 -126.79 -75.37C-126.79 -77.24 -128.31 -78.77 -130.19 -78.77C-132.06 -78.77 -133.59 -77.24 -133.59 -75.37C-133.59 -73.76 -132.46 -72.41 -130.96 -72.06C-132.26 -64.09 -134.76 -48.81 -134.89 -47.94C-135.47 -47.9 -136.04 -47.84 -136.59 -47.78C-136.59 -47.8 -136.59 -47.81 -136.6 -47.83C-136.61 -47.89 -142.46 -61.16 -145.47 -67.99C-144.24 -68.64 -143.57 -70.06 -143.93 -71.47C-144.36 -73.1 -146.03 -74.08 -147.66 -73.66C-149.29 -73.24 -150.28 -71.57 -149.85 -69.93C-149.49 -68.53 -148.21 -67.61 -146.82 -67.64C-146.19 -60.7 -144.99 -47.65 -144.82 -45.9C-145.39 -45.7 -145.94 -45.47 -146.46 -45.24C-148.37 -47.56 -155.89 -56.67 -160.03 -61.69C-159.02 -62.64 -158.76 -64.19 -159.49 -65.44C-160.34 -66.9 -162.21 -67.4 -163.67 -66.54C-165.13 -65.69 -165.62 -63.82 -164.77 -62.36C-164.04 -61.11 -162.56 -60.57 -161.23 -60.98C-158.75 -54.5 -150.72 -33.65 -150.41 -33.37C-144.88 -35.62 -138.51 -36.99 -130.27 -36.99C-122.02 -36.99 -115.66 -35.62 -110.13 -33.37C-109.82 -33.66 -101.69 -54.33 -99.14 -60.98C-97.81 -60.57 -96.33 -61.11 -95.6 -62.36C-94.78 -63.82 -95.27 -65.69 -96.73 -66.54L-96.7 -66.55Z" />
			<path id="Layer" class="shp1" d="M-133 -32.38L-130.16 -30.96L-127.31 -32.38L-130.16 -33.8L-133 -32.38Z" />
			<path id="Layer" class="shp1" d="M-144.62 -30.54L-141.59 -29.6L-139.01 -31.46L-142.04 -32.4L-144.62 -30.54Z" />
			<path id="Layer" class="shp1" d="M-115.69 -30.53L-118.72 -29.58L-121.3 -31.44L-118.27 -32.39L-115.69 -30.53Z" />
			<g id="Layer">
				<path id="Layer" class="shp16" d="M-412.37 64.65L-413.34 64.65L-413.34 58.83L-418 53.6L-418.05 53.6L-418.05 22.78L-418 22.78L-411.93 16.98L-411.89 16.98L-411.89 7.04C-411.89 6.18 -412.57 5.47 -413.4 5.47L-421.79 5.47L-421.79 10.87L-426.51 12.43L-430.85 10.87L-430.85 5.47L-441.2 5.47L-441.2 10.87L-445.55 12.43L-450.26 10.87L-450.26 5.47L-458.65 5.47C-459.48 5.47 -460.16 6.18 -460.16 7.04L-460.16 16.98L-460.14 16.98L-454.05 22.78L-454.05 53.6L-458.71 58.83L-458.71 64.65L-459.68 64.65C-460.55 64.65 -461.26 65.35 -461.26 66.22L-461.26 69.92C-461.26 70.78 -460.55 71.49 -459.68 71.49L-412.37 71.49C-411.5 71.49 -410.8 70.78 -410.8 69.92L-410.8 66.22C-410.8 65.36 -411.5 64.65 -412.37 64.65L-412.37 64.65Z" />
				<path id="Layer" class="shp17" d="M-457.18 64.65L-415.22 64.65" />
				<path id="Layer" class="shp17" d="M-456.99 58.83L-415.4 58.83" />
				<path id="Layer" class="shp17" d="M-419.84 53.61L-452.93 53.61" />
				<path id="Layer" class="shp17" d="M-452.74 22.79L-419.65 22.79" />
				<path id="Layer" class="shp17" d="M-458.1 16.98L-413.19 16.98" />
			</g>
			<path id="Layer" class="shp15" d="M-412.72 -14.41C-411.85 -14.41 -411.15 -15.11 -411.15 -15.98L-411.15 -19.68C-411.15 -20.55 -411.85 -21.25 -412.72 -21.25L-460.04 -21.25C-460.91 -21.25 -461.61 -20.55 -461.61 -19.68L-461.61 -15.98C-461.61 -15.11 -460.91 -14.41 -460.04 -14.41L-412.72 -14.41Z" />
			<path id="Layer" class="shp15" d="M-459.07 -27.07L-413.69 -27.07L-413.69 -21.25L-459.07 -21.25L-459.07 -27.07Z" />
			<path id="Layer" class="shp14" d="M-413.69 -27.07L-418.36 -32.3L-454.4 -32.3L-459.07 -27.07L-413.69 -27.07Z" />
			<path id="Layer" class="shp18" d="M-412.27 -68.94L-418.36 -63.12L-454.4 -63.12L-460.51 -68.94L-412.27 -68.94Z" />
			<path id="Layer" class="shp15" d="M-454.4 -63.12L-418.41 -63.12L-418.41 -32.3L-454.4 -32.3L-454.4 -63.12Z" />
			<path id="Layer" class="shp19" d="M-413.75 -80.43L-422.15 -80.43L-422.15 -75.03L-426.86 -73.47L-431.21 -75.03L-431.21 -80.43L-441.56 -80.43L-441.56 -75.03L-445.9 -73.47L-450.61 -75.03L-450.61 -80.43L-459.01 -80.43C-459.84 -80.43 -460.51 -79.73 -460.51 -78.86L-460.51 -68.92L-412.25 -68.92L-412.25 -78.86C-412.25 -79.73 -412.92 -80.43 -413.75 -80.43L-413.75 -80.43Z" />
			<path id="Layer" class="shp20" d="M-244.13 69.82C-244.75 69.48 -250.38 63.95 -255.6 63.95C-258.31 63.95 -260.44 64.77 -262.31 65.49C-264.21 66.23 -266.01 66.92 -268.61 66.92C-271.64 66.92 -274.15 65.99 -276.37 65.18C-278.16 64.52 -279.71 63.95 -281.29 63.95C-282.87 63.95 -284.42 64.52 -286.21 65.18C-288.43 65.99 -290.94 66.92 -293.97 66.92C-296.57 66.92 -298.37 66.23 -300.27 65.49C-302.15 64.77 -304.27 63.95 -306.98 63.95C-312.2 63.95 -317.83 69.48 -318.45 69.82C-318.45 69.82 -316.18 68.4 -314.07 68.4C-311.95 68.4 -310.12 69.88 -306.98 69.88C-305.37 69.88 -304.06 70.39 -302.4 71.03C-300.29 71.84 -297.68 72.85 -293.97 72.85C-289.89 72.85 -286.58 71.63 -284.16 70.74C-283.06 70.34 -281.82 69.88 -281.29 69.88C-280.76 69.88 -279.52 70.34 -278.42 70.74C-276 71.63 -272.69 72.85 -268.61 72.85C-264.91 72.85 -262.29 71.84 -260.18 71.03C-258.52 70.39 -257.21 69.88 -255.6 69.88C-252.46 69.88 -250.08 68.4 -248.51 68.4C-246.95 68.4 -244.1 69.82 -244.1 69.82L-244.13 69.82Z" />
			<path id="Layer" class="shp21" d="M-261.36 35.91C-261.36 26.56 -269.34 11.73 -275.45 9.72C-275.66 9.65 -275.88 9.59 -276.11 9.55C-275.04 9.15 -274.28 8.13 -274.28 6.93C-274.28 5.38 -275.53 4.13 -277.07 4.13C-278.62 4.13 -279.87 5.38 -279.87 6.93C-279.87 8 -279.26 8.93 -278.38 9.4C-279.63 9.48 -280.98 9.81 -282.38 10.37C-283.27 9.96 -284.15 9.67 -285.02 9.51C-284 9.1 -283.28 8.1 -283.28 6.93C-283.28 5.38 -284.53 4.13 -286.08 4.13C-287.62 4.13 -288.87 5.38 -288.87 6.93C-288.87 8.02 -288.25 8.96 -287.34 9.42C-287.81 9.47 -288.28 9.57 -288.73 9.72C-294.83 11.73 -302.63 26.01 -302.63 35.91C-302.63 43.81 -299.43 50.61 -295.74 55.54C-295.19 57 -294.35 57.04 -294.17 57.22C-294.17 57.22 -294.17 57.22 -294.17 57.22C-294.17 57.24 -294.9 61.98 -294.97 63.05C-295.08 64.7 -295.25 66.64 -295.25 66.64C-291.22 68.42 -286.8 69.45 -282.01 69.45C-277.21 69.45 -273.01 68.32 -268.98 66.54C-269.13 65.23 -269.29 63.91 -269.62 61.93C-269.79 60.9 -270.38 57.22 -270.38 57.22C-270.2 57.04 -269.12 55.67 -269.12 55.67C-265.2 50.72 -261.37 44.12 -261.37 35.91L-261.36 35.91Z" />
			<path id="Layer" class="shp22" d="M-294.07 57.22C-290.8 55.81 -287.04 54.58 -282.17 54.58C-277.31 54.58 -273.55 55.81 -270.28 57.22C-270.1 57.04 -269.68 56.58 -268.79 55.34C-271.54 52.37 -275.55 50.73 -282.09 50.73C-289.08 50.73 -292.89 52.56 -295.64 55.54C-295.08 56.99 -294.24 57.04 -294.06 57.22L-294.07 57.22Z" />
			<path id="Layer" class="shp23" d="M-269.09 66.54C-273.12 64.77 -277.24 63.89 -282.04 63.89C-286.84 63.89 -291.33 64.87 -295.36 66.64C-291.33 68.41 -286.91 69.44 -282.11 69.44C-277.31 69.44 -273.11 68.31 -269.08 66.54L-269.09 66.54Z" />
			<path id="Layer" class="shp22" d="M-269.2 55.67C-266.66 51.43 -263.32 43.43 -267.5 29.81C-271 18.39 -281.31 7.24 -288.81 9.72C-295.47 11.91 -302.71 27.65 -302.71 35.9C-302.71 43.8 -299.51 50.61 -295.82 55.53L-269.19 55.66L-269.2 55.67Z" />
			<path id="Layer" class="shp22" d="M-286.16 9.72C-287.71 9.72 -288.96 8.47 -288.96 6.92C-288.96 5.37 -287.71 4.12 -286.16 4.12C-284.61 4.12 -283.36 5.37 -283.36 6.92C-283.36 8.47 -284.61 9.72 -286.16 9.72Z" />
			<path id="Layer" class="shp24" d="M-270.47 57.21L-270.47 57.21C-273.74 55.8 -277.5 54.62 -282.36 54.62C-287.23 54.62 -290.99 55.8 -294.25 57.21C-294.25 57.21 -294.99 61.97 -295.06 63.04C-295.17 64.69 -295.33 66.64 -295.33 66.64C-291.31 64.87 -286.81 63.89 -282.02 63.89C-277.31 63.89 -273.04 64.83 -269.07 66.54C-269.21 65.22 -269.38 63.9 -269.71 61.93C-269.89 60.89 -270.48 57.2 -270.48 57.2L-270.47 57.21Z" />
			<path id="Layer" class="shp25" d="M-270.59 63.59C-274.21 62.47 -278.08 61.85 -282.07 61.85C-286.13 61.85 -290.28 62.51 -294 63.68" />
			<g id="Layer">
				<path id="Layer" class="shp26" d="M-293.22 56.78C-290.19 55.56 -286.72 54.57 -282.36 54.57C-277.97 54.57 -274.49 55.57 -271.45 56.8" />
				<path id="Layer" class="shp26" d="M-269.48 54.63C-273.32 51.56 -276.4 50.73 -282.09 50.73C-286.85 50.73 -291.77 52 -294.13 54.15" />
			</g>
			<path id="Layer" class="shp27" d="M-275.41 30.71L-276.71 32.02L-283.29 32.02L-283.29 26.08L-281.98 24.77L-284.62 22.13L-287.26 24.77L-285.94 26.09L-285.94 32.02L-292.56 32.02L-293.87 30.71L-296.51 33.35L-293.87 35.99L-292.54 34.67L-285.94 34.67L-285.94 41.91L-287.26 43.23L-284.62 45.87L-281.98 43.23L-283.29 41.92L-283.29 34.67L-276.73 34.67L-275.41 35.99L-272.77 33.35L-275.41 30.71Z" />
			<path id="Layer" class="shp28" d="M-245.17 -16.04C-245.79 -16.38 -251.42 -21.91 -256.64 -21.91C-259.35 -21.91 -261.48 -21.09 -263.35 -20.37C-265.25 -19.63 -267.05 -18.94 -269.65 -18.94C-272.68 -18.94 -275.19 -19.87 -277.41 -20.68C-279.2 -21.34 -280.75 -21.91 -282.33 -21.91C-283.91 -21.91 -285.46 -21.34 -287.25 -20.68C-289.47 -19.87 -291.98 -18.94 -295.01 -18.94C-297.61 -18.94 -299.41 -19.63 -301.31 -20.37C-303.19 -21.09 -305.31 -21.91 -308.03 -21.91C-313.24 -21.91 -318.87 -16.38 -319.49 -16.04C-319.49 -16.04 -317.1 -17.46 -315.11 -17.46C-313.12 -17.46 -311.16 -15.98 -308.03 -15.98C-306.42 -15.98 -305.1 -15.47 -303.44 -14.83C-301.34 -14.02 -298.72 -13.01 -295.01 -13.01C-290.93 -13.01 -287.62 -14.23 -285.2 -15.12C-284.1 -15.52 -282.86 -15.98 -282.33 -15.98C-281.8 -15.98 -280.56 -15.52 -279.46 -15.12C-277.04 -14.23 -273.73 -13.01 -269.65 -13.01C-265.95 -13.01 -263.33 -14.02 -261.22 -14.83C-259.56 -15.47 -258.25 -15.98 -256.64 -15.98C-253.5 -15.98 -252.2 -17.46 -249.55 -17.46C-246.88 -17.46 -245.14 -16.04 -245.14 -16.04L-245.17 -16.04Z" />
			<path id="Layer" class="shp21" d="M-276.58 -76.14C-276.79 -76.21 -277.01 -76.26 -277.23 -76.31C-276.17 -76.71 -275.41 -77.73 -275.41 -78.93C-275.41 -80.47 -276.66 -81.73 -278.2 -81.73C-279.75 -81.73 -281 -80.47 -281 -78.93C-281 -77.86 -280.39 -76.93 -279.51 -76.46C-287.53 -75.94 -299.71 -65.37 -300.1 -47.48C-300.25 -40.37 -299.35 -34.55 -296.87 -30.32L-270.02 -30.51C-266.1 -35.46 -262.49 -41.73 -262.49 -49.95C-262.49 -60.88 -270.47 -74.14 -276.58 -76.14L-276.58 -76.14Z" />
			<path id="Layer" class="shp21" d="M-268.54 -56.04C-271.49 -65.67 -279.28 -75.1 -286.15 -76.34C-285.13 -76.76 -284.41 -77.76 -284.41 -78.93C-284.41 -80.47 -285.66 -81.73 -287.21 -81.73C-288.75 -81.73 -290 -80.47 -290 -78.93C-290 -77.84 -289.38 -76.9 -288.46 -76.44C-288.94 -76.38 -289.4 -76.29 -289.86 -76.14C-295.95 -74.13 -303.76 -60.65 -303.76 -49.95C-303.76 -42.05 -300.56 -35.25 -296.87 -30.32L-270.02 -30.51C-267.48 -34.75 -264.37 -42.43 -268.54 -56.04L-268.54 -56.04Z" />
			<path id="Layer" class="shp23" d="M-270.11 -19.31C-273.48 -20.86 -278.26 -21.96 -283.06 -21.96C-287.85 -21.96 -292.35 -20.98 -296.38 -19.21C-292.35 -17.44 -287.93 -16.41 -283.13 -16.41C-278.33 -16.41 -274.13 -17.54 -270.1 -19.31L-270.11 -19.31Z" />
			<path id="Layer" class="shp29" d="M-271.51 -28.64L-271.51 -28.64C-274.78 -30.05 -278.54 -31.23 -283.4 -31.23C-288.27 -31.23 -292.03 -30.05 -295.3 -28.64C-295.3 -28.64 -296.03 -23.88 -296.1 -22.81C-296.21 -21.16 -296.38 -19.21 -296.38 -19.21C-292.35 -20.98 -287.86 -21.96 -283.06 -21.96C-278.35 -21.96 -274.08 -21.02 -270.11 -19.31C-270.25 -20.63 -270.42 -21.95 -270.75 -23.92C-270.93 -24.97 -271.52 -28.65 -271.52 -28.65L-271.51 -28.64Z" />
			<path id="Layer" class="shp29" d="M-296.38 -19.21C-292.35 -20.98 -287.86 -21.96 -283.06 -21.96C-278.36 -21.96 -274.09 -21.02 -270.12 -19.31C-270.22 -20.41 -270.46 -21.1 -270.62 -22.51C-274.61 -23.91 -278.65 -24.62 -283.12 -24.62C-287.65 -24.62 -292.13 -23.8 -296.16 -22.37C-296.18 -21.13 -296.39 -19.21 -296.39 -19.21L-296.38 -19.21Z" />
			<path id="Layer" class="shp21" d="M-295.3 -28.64C-292.03 -30.05 -288.27 -31.25 -283.4 -31.28C-279.26 -31.31 -274.78 -30.05 -271.51 -28.64C-271.33 -28.82 -270.57 -29.05 -270.02 -30.51C-272.77 -33.49 -276.86 -35.04 -283.4 -35.04C-290.39 -35.04 -294.12 -33.3 -296.87 -30.32C-296.33 -28.86 -295.49 -28.82 -295.31 -28.64L-295.3 -28.64Z" />
			<path id="Layer" class="shp30" d="M-283.4 -35.04L-283.4 -31.28" />
			<path id="Layer" class="shp31" d="M-276.45 -55.15L-277.76 -53.84L-284.34 -53.84L-284.34 -59.77L-283.03 -61.08L-285.67 -63.72L-288.31 -61.08L-286.99 -59.76L-286.99 -53.84L-293.6 -53.84L-294.91 -55.15L-297.55 -52.51L-294.91 -49.87L-293.59 -51.19L-286.99 -51.19L-286.99 -43.94L-288.31 -42.62L-285.67 -39.98L-283.03 -42.62L-284.34 -43.93L-284.34 -51.19L-277.77 -51.19L-276.45 -49.87L-273.81 -52.51L-276.45 -55.15Z" />
			<path id="Layer" class="shp32" d="M-64.96 12.5C-64.96 12.5 -63.85 6.54 -63.85 5.71C-63.85 4.87 -63.02 4.74 -62.19 5.85C-61.36 6.95 -57.61 12.36 -57.61 12.36L-64.96 12.49L-64.96 12.5Z" />
			<path id="Layer" class="shp32" d="M-15.23 58.23C-15.61 55.54 -16.12 52.98 -16.75 50.54L-18.75 49.74L-17.41 48.14C-18.18 45.56 -19.07 43.13 -20.04 40.85L-21.94 40.31L-20.99 38.69C-22.01 36.52 -23.11 34.5 -24.25 32.62L-26.02 32.26L-25.39 30.8C-26.66 28.83 -27.97 27.03 -29.28 25.4L-31.15 25.19L-30.65 23.73C-32.17 21.94 -33.65 20.39 -35.03 19.06L-36.9 18.95L-36.58 17.61C-39.92 14.58 -42.29 13.11 -42.29 13.11L-46.54 14.4C-46.54 14.4 -48.57 13.29 -50.24 12.18C-50.24 12.18 -51.35 8.48 -51.71 6.45C-52.08 4.42 -53.19 5.34 -53.56 5.9C-53.93 6.45 -57.77 10.7 -57.77 10.7C-57.77 10.7 -60.06 10.39 -61.69 10.7C-64.1 11.17 -65.21 12.78 -67.98 15.42C-70 17.34 -71.22 19.02 -71.91 20.82C-72.6 22.63 -71.77 22.63 -72.05 24.29C-72.32 25.95 -79.81 38.43 -80.64 39.95C-81.47 41.48 -83.48 46.14 -79.53 49.1C-78.43 49.94 -77.59 50.35 -76.9 50.63C-76.9 50.63 -75.79 50.35 -75.37 49.8C-75.3 49.7 -75.26 49.64 -75.24 49.6C-75.23 49.57 -75.22 49.57 -75.24 49.6C-75.29 49.71 -75.38 50.12 -74.96 50.63C-74.27 51.46 -73.37 51.4 -72.88 51.46C-72.14 51.55 -70.8 50.91 -69.69 49.24C-68.58 47.58 -67.89 47.02 -67.06 46.05C-66.23 45.08 -61.64 42.94 -59.85 39.95C-59.43 39.26 -58.46 39.54 -57.77 40.09C-57.07 40.65 -53.19 40.79 -51.53 38.01C-51.53 38.01 -50.74 45.31 -54.03 50.35C-59.43 58.67 -68.58 60.75 -71.35 68.51L-14.51 68.51C-14.51 65.83 -14.66 63.25 -14.91 60.78L-16.8 59.78L-15.2 58.23L-15.23 58.23Z" />
			<path id="Layer" class="shp33" d="M-44.51 16.26C-44.51 16.26 -20.3 34.38 -20.3 67.09" />
			<path id="Layer" class="shp34" d="M-75.25 49.4C-75.23 49.37 -75.24 49.37 -75.25 49.4Z" />
			<path id="Layer" class="shp33" d="M-49.5 28.83C-49.04 34 -51.44 37.7 -51.53 38.02C-51.53 38.02 -45.71 35.02 -45.16 31.05" />
			<path id="Layer" class="shp33" d="M-51.54 38.02C-51.54 38.02 -47.66 39.92 -44.79 38.71" />
			<path id="Layer" class="shp34" d="M-75.38 49.6C-75.38 49.6 -72.79 46.27 -72.05 44.75" />
			<path id="Layer" class="shp33" d="M-59.44 18.89C-59.44 18.89 -63.7 18.91 -65.12 21.25C-67.06 24.43 -64.85 24.85 -64.85 24.85C-64.85 24.85 -62.63 25.54 -61.1 23.46C-59.48 21.25 -60.83 19.86 -60.83 19.86L-59.45 18.89L-59.44 18.89Z" />
			<path id="Layer" class="shp33" d="M-80.09 42.39C-78.57 41.97 -77.6 42.11 -76.9 42.53C-76.9 42.53 -77.6 40.45 -76.35 38.65C-75.1 36.84 -73.02 36.71 -71.22 33.24" />
			<path id="Layer" class="shp33" d="M-39.62 20.83L-36.98 19.17" />
			<path id="Layer" class="shp33" d="M-34.21 26.79L-31.57 25.55" />
			<path id="Layer" class="shp33" d="M-29.36 33.71L-26.31 32.46" />
			<path id="Layer" class="shp33" d="M-25.47 41.63L-22.29 40.52" />
			<path id="Layer" class="shp33" d="M-22.43 50.92L-19.1 49.95" />
			<path id="Layer" class="shp33" d="M-20.62 60.34L-17.16 59.93" />
			<path id="Layer" class="shp15" d="M-68.29 -71.66C-68.29 -71.66 -67.18 -77.62 -67.18 -78.45C-67.18 -79.28 -66.35 -79.42 -65.52 -78.31C-64.69 -77.2 -60.94 -71.79 -60.94 -71.79L-68.29 -71.66L-68.29 -71.66Z" />
			<path id="Layer" class="shp15" d="M-18.55 -25.93C-18.93 -28.62 -19.44 -31.18 -20.07 -33.62L-22.07 -34.42L-20.73 -36.02C-21.5 -38.6 -22.39 -41.03 -23.36 -43.31L-25.26 -43.85L-24.32 -45.45C-25.34 -47.62 -26.44 -49.65 -27.58 -51.53L-29.35 -51.89L-28.72 -53.35C-29.99 -55.32 -31.3 -57.12 -32.61 -58.75L-34.48 -58.96L-33.98 -60.42C-35.5 -62.21 -36.99 -63.76 -38.36 -65.09L-40.23 -65.2L-39.91 -66.54C-43.25 -69.57 -45.62 -71.04 -45.62 -71.04L-49.87 -69.75C-49.87 -69.75 -51.9 -70.86 -53.57 -71.97C-53.57 -71.97 -54.68 -75.66 -55.04 -77.7C-55.42 -79.73 -56.52 -78.81 -56.89 -78.25C-57.26 -77.7 -61.1 -73.45 -61.1 -73.45C-61.1 -73.45 -63.39 -73.76 -65.03 -73.45C-67.43 -72.98 -68.54 -71.37 -71.31 -68.73C-73.33 -66.81 -74.55 -65.13 -75.24 -63.32C-75.93 -61.52 -75.1 -61.52 -75.38 -59.86C-75.66 -58.2 -83.14 -45.72 -83.97 -44.19C-84.8 -42.67 -86.81 -38.01 -82.86 -35.04C-81.76 -34.21 -80.92 -33.8 -80.23 -33.52C-80.23 -33.52 -79.12 -33.8 -78.71 -34.35C-78.63 -34.45 -78.59 -34.51 -78.58 -34.54C-78.56 -34.58 -78.55 -34.58 -78.58 -34.54C-78.62 -34.44 -78.71 -34.03 -78.29 -33.52C-77.6 -32.69 -76.71 -32.75 -76.21 -32.69C-75.47 -32.59 -74.13 -33.24 -73.02 -34.91C-71.91 -36.57 -71.22 -37.12 -70.39 -38.09C-69.56 -39.06 -64.97 -41.21 -63.18 -44.19C-62.76 -44.89 -61.79 -44.61 -61.1 -44.05C-60.41 -43.5 -56.52 -43.36 -54.86 -46.14C-54.86 -46.14 -54.07 -38.84 -57.36 -33.8C-62.76 -25.48 -71.91 -23.4 -74.68 -15.64L-17.85 -15.64C-17.85 -18.32 -17.99 -20.89 -18.24 -23.37L-20.13 -24.37L-18.5 -25.91L-18.55 -25.93Z" />
			<path id="Layer" class="shp34" d="M-47.84 -67.9C-47.84 -67.9 -23.63 -49.78 -23.63 -17.06" />
			<path id="Layer" class="shp34" d="M-78.58 -34.54C-78.56 -34.58 -78.56 -34.58 -78.58 -34.54Z" />
			<path id="Layer" class="shp34" d="M-52.83 -55.33C-52.37 -50.16 -54.77 -46.46 -54.86 -46.14C-54.86 -46.14 -49.04 -49.14 -48.49 -53.11" />
			<path id="Layer" class="shp34" d="M-54.86 -46.13C-54.86 -46.13 -50.98 -44.23 -48.11 -45.44" />
			<path id="Layer" class="shp34" d="M-78.71 -34.35C-78.71 -34.35 -76.12 -37.68 -75.38 -39.2" />
			<path id="Layer" class="shp34" d="M-62.76 -65.26C-62.76 -65.26 -67.02 -65.24 -68.44 -62.91C-70.38 -59.72 -68.17 -59.3 -68.17 -59.3C-68.17 -59.3 -65.95 -58.61 -64.42 -60.69C-62.8 -62.9 -64.15 -64.29 -64.15 -64.29L-62.77 -65.26L-62.76 -65.26Z" />
			<path id="Layer" class="shp34" d="M-83.42 -41.56C-81.89 -41.98 -80.92 -41.84 -80.23 -41.42C-80.23 -41.42 -80.92 -43.5 -79.68 -45.3C-78.43 -47.11 -76.35 -47.24 -74.55 -50.71" />
			<path id="Layer" class="shp34" d="M-42.94 -63.32L-40.31 -64.98" />
			<path id="Layer" class="shp34" d="M-37.53 -57.36L-34.9 -58.61" />
			<path id="Layer" class="shp34" d="M-32.68 -50.44L-29.63 -51.69" />
			<path id="Layer" class="shp34" d="M-28.8 -42.53L-25.61 -43.64" />
			<path id="Layer" class="shp34" d="M-25.75 -33.24L-22.42 -34.21" />
			<path id="Layer" class="shp34" d="M-23.95 -23.81L-20.48 -24.23" />
			<path id="Layer" class="shp35" d="M34.45 62.57C30.7 55.13 31.08 41.87 31.39 36.73C37.32 36.32 41.59 35.2 41.59 33.87C41.59 32.57 37.48 31.47 31.72 31.04C35.4 29.15 37.92 25.32 37.92 20.89C37.92 14.59 32.81 9.48 26.51 9.48C20.2 9.48 15.09 14.59 15.09 20.89C15.09 25.32 17.61 29.15 21.29 31.04C15.53 31.47 11.42 32.57 11.42 33.87C11.42 35.2 15.69 36.32 21.62 36.73C21.93 41.87 22.31 55.13 18.56 62.57C11.21 64.05 6.05 67.52 6.05 71.56L46.95 71.56C46.95 67.52 41.8 64.05 34.45 62.57L34.45 62.57Z" />
			<path id="Layer" class="shp36" d="M34.45 -21.03C30.7 -28.48 31.08 -41.74 31.39 -46.87C37.32 -47.28 41.59 -48.4 41.59 -49.73C41.59 -51.03 37.48 -52.13 31.72 -52.56C35.4 -54.45 37.92 -58.29 37.92 -62.71C37.92 -69.01 32.81 -74.12 26.51 -74.12C20.2 -74.12 15.09 -69.01 15.09 -62.71C15.09 -58.29 17.61 -54.45 21.29 -52.56C15.53 -52.13 11.42 -51.03 11.42 -49.73C11.42 -48.4 15.69 -47.28 21.62 -46.87C21.93 -41.74 22.31 -28.48 18.56 -21.03C11.21 -19.55 6.05 -16.08 6.05 -12.04L46.95 -12.04C46.95 -16.08 41.8 -19.55 34.45 -21.03L34.45 -21.03Z" />
			<path id="Layer" class="shp15" d="M-344.05 -71.66C-344.05 -71.66 -345.16 -77.62 -345.16 -78.45C-345.16 -79.28 -345.99 -79.42 -346.82 -78.31C-347.65 -77.2 -351.4 -71.79 -351.4 -71.79L-344.06 -71.66L-344.05 -71.66Z" />
			<path id="Layer" class="shp15" d="M-393.79 -25.93C-393.41 -28.62 -392.9 -31.18 -392.27 -33.62L-390.26 -34.42L-391.6 -36.02C-390.84 -38.6 -389.95 -41.03 -388.98 -43.31L-387.08 -43.85L-388.02 -45.45C-387 -47.62 -385.9 -49.65 -384.76 -51.53L-382.99 -51.89L-383.62 -53.35C-382.35 -55.32 -381.03 -57.12 -379.73 -58.75L-377.86 -58.96L-378.36 -60.42C-376.84 -62.21 -375.35 -63.76 -373.98 -65.09L-372.1 -65.2L-372.43 -66.54C-369.08 -69.57 -366.72 -71.04 -366.72 -71.04L-362.47 -69.75C-362.47 -69.75 -360.44 -70.86 -358.77 -71.97C-358.77 -71.97 -357.66 -75.66 -357.29 -77.7C-356.92 -79.73 -355.82 -78.81 -355.45 -78.25C-355.08 -77.7 -351.24 -73.45 -351.24 -73.45C-351.24 -73.45 -348.95 -73.76 -347.31 -73.45C-344.91 -72.98 -343.8 -71.37 -341.03 -68.73C-339.01 -66.81 -337.79 -65.13 -337.1 -63.32C-336.41 -61.52 -337.24 -61.52 -336.96 -59.86C-336.68 -58.2 -329.2 -45.72 -328.37 -44.19C-327.53 -42.67 -325.53 -38.01 -329.47 -35.04C-330.58 -34.21 -331.42 -33.8 -332.11 -33.52C-332.11 -33.52 -333.22 -33.8 -333.63 -34.35C-333.71 -34.45 -333.75 -34.51 -333.76 -34.54C-333.78 -34.58 -333.78 -34.58 -333.76 -34.54C-333.72 -34.44 -333.62 -34.03 -334.05 -33.52C-334.74 -32.69 -335.63 -32.75 -336.13 -32.69C-336.87 -32.59 -338.21 -33.24 -339.32 -34.91C-340.43 -36.57 -341.12 -37.12 -341.95 -38.09C-342.78 -39.06 -347.37 -41.21 -349.16 -44.19C-349.58 -44.89 -350.55 -44.61 -351.24 -44.05C-351.93 -43.5 -355.82 -43.36 -357.48 -46.14C-357.48 -46.14 -358.26 -38.84 -354.98 -33.8C-349.58 -25.48 -340.43 -23.4 -337.65 -15.64L-394.52 -15.64C-394.52 -18.32 -394.37 -20.89 -394.12 -23.37L-392.23 -24.37L-393.81 -25.91L-393.79 -25.93Z" />
			<path id="Layer" class="shp34" d="M-364.5 -67.9C-364.5 -67.9 -388.71 -49.78 -388.71 -17.06" />
			<path id="Layer" class="shp34" d="M-333.76 -34.54C-333.78 -34.58 -333.78 -34.58 -333.76 -34.54Z" />
			<path id="Layer" class="shp34" d="M-359.51 -55.33C-359.97 -50.16 -357.57 -46.46 -357.48 -46.14C-357.48 -46.14 -363.3 -49.14 -363.85 -53.11" />
			<path id="Layer" class="shp34" d="M-357.48 -46.13C-357.48 -46.13 -361.36 -44.23 -364.23 -45.44" />
			<path id="Layer" class="shp34" d="M-333.63 -34.35C-333.63 -34.35 -336.22 -37.68 -336.96 -39.2" />
			<path id="Layer" class="shp34" d="M-349.58 -65.26C-349.58 -65.26 -345.32 -65.24 -343.9 -62.91C-341.96 -59.72 -344.17 -59.3 -344.17 -59.3C-344.17 -59.3 -346.39 -58.61 -347.92 -60.69C-349.54 -62.9 -348.19 -64.29 -348.19 -64.29L-349.57 -65.26L-349.58 -65.26Z" />
			<path id="Layer" class="shp34" d="M-328.92 -41.56C-330.45 -41.98 -331.42 -41.84 -332.11 -41.42C-332.11 -41.42 -331.42 -43.5 -332.66 -45.3C-333.91 -47.11 -335.99 -47.24 -337.79 -50.71" />
			<path id="Layer" class="shp34" d="M-369.4 -63.32L-372.03 -64.98" />
			<path id="Layer" class="shp34" d="M-374.81 -57.36L-377.44 -58.61" />
			<path id="Layer" class="shp34" d="M-379.66 -50.44L-382.71 -51.69" />
			<path id="Layer" class="shp34" d="M-383.54 -42.53L-386.73 -43.64" />
			<path id="Layer" class="shp34" d="M-386.59 -33.24L-389.92 -34.21" />
			<path id="Layer" class="shp34" d="M-388.39 -23.81L-391.86 -24.23" />
			<path id="Layer" class="shp32" d="M-344.1 14.83C-344.1 14.83 -345.21 8.87 -345.21 8.04C-345.21 7.2 -346.04 7.07 -346.87 8.18C-347.7 9.29 -351.45 14.69 -351.45 14.69L-344.11 14.82L-344.1 14.83Z" />
			<path id="Layer" class="shp32" d="M-393.84 60.56C-393.46 57.87 -392.95 55.31 -392.32 52.87L-390.31 52.07L-391.65 50.47C-390.89 47.89 -390 45.46 -389.03 43.18L-387.13 42.64L-388.06 41.04C-387.04 38.87 -385.95 36.84 -384.81 34.96L-383.04 34.6L-383.67 33.14C-382.39 31.17 -381.08 29.37 -379.78 27.74L-377.91 27.53L-378.41 26.07C-376.88 24.28 -375.4 22.73 -374.03 21.4L-372.15 21.29L-372.48 19.95C-369.13 16.92 -366.77 15.45 -366.77 15.45L-362.52 16.74C-362.52 16.74 -360.48 15.63 -358.82 14.52C-358.82 14.52 -357.71 10.83 -357.34 8.79C-356.97 6.76 -355.86 7.69 -355.49 8.24C-355.12 8.79 -351.29 13.05 -351.29 13.05C-351.29 13.05 -348.99 12.73 -347.36 13.05C-344.96 13.51 -343.85 15.13 -341.08 17.76C-339.05 19.68 -337.84 21.36 -337.15 23.17C-336.46 24.97 -337.29 24.97 -337.01 26.63C-336.73 28.3 -329.25 40.77 -328.41 42.3C-327.58 43.82 -325.57 48.49 -329.52 51.45C-330.63 52.28 -331.47 52.69 -332.16 52.97C-332.16 52.97 -333.27 52.69 -333.68 52.14C-333.76 52.04 -333.79 51.98 -333.81 51.95C-333.83 51.91 -333.83 51.91 -333.81 51.95C-333.77 52.06 -333.67 52.46 -334.1 52.97C-334.79 53.8 -335.68 53.74 -336.18 53.8C-336.92 53.9 -338.26 53.25 -339.37 51.59C-340.48 49.92 -341.17 49.37 -342 48.4C-342.83 47.43 -347.42 45.28 -349.21 42.3C-349.63 41.6 -350.6 41.88 -351.29 42.44C-351.98 42.99 -355.86 43.13 -357.53 40.36C-357.53 40.36 -358.31 47.65 -355.03 52.69C-349.63 61.01 -340.48 63.09 -337.7 70.85L-394.57 70.85C-394.57 68.17 -394.43 65.6 -394.18 63.12L-392.29 62.12L-393.87 60.56L-393.84 60.56Z" />
			<path id="Layer" class="shp33" d="M-364.55 18.59C-364.55 18.59 -388.76 36.71 -388.76 69.42" />
			<path id="Layer" class="shp34" d="M-333.81 51.73C-333.83 51.7 -333.83 51.7 -333.81 51.73Z" />
			<path id="Layer" class="shp33" d="M-359.56 31.16C-360.02 36.33 -357.62 40.03 -357.53 40.35C-357.53 40.35 -363.35 37.35 -363.9 33.38" />
			<path id="Layer" class="shp33" d="M-357.53 40.35C-357.53 40.35 -361.41 42.25 -364.28 41.04" />
			<path id="Layer" class="shp34" d="M-333.68 51.93C-333.68 51.93 -336.27 48.6 -337.01 47.08" />
			<path id="Layer" class="shp33" d="M-349.63 21.22C-349.63 21.22 -345.37 21.24 -343.95 23.58C-342 26.77 -344.22 27.18 -344.22 27.18C-344.22 27.18 -346.44 27.87 -347.97 25.79C-349.59 23.58 -348.24 22.19 -348.24 22.19L-349.62 21.22L-349.63 21.22Z" />
			<path id="Layer" class="shp33" d="M-328.97 44.72C-330.5 44.3 -331.47 44.44 -332.16 44.86C-332.16 44.86 -331.47 42.78 -332.71 40.98C-333.96 39.17 -336.04 39.04 -337.84 35.57" />
			<path id="Layer" class="shp33" d="M-369.45 23.17L-372.08 21.5" />
			<path id="Layer" class="shp33" d="M-374.86 29.13L-377.49 27.88" />
			<path id="Layer" class="shp33" d="M-379.71 36.04L-382.76 34.79" />
			<path id="Layer" class="shp33" d="M-383.59 43.96L-386.78 42.85" />
			<path id="Layer" class="shp33" d="M-386.64 53.25L-389.97 52.28" />
			<path id="Layer" class="shp33" d="M-388.44 62.67L-391.91 62.26" />
		</g>
	</g>
</svg>