<svg xmlns="http://www.w3.org/2000/svg" viewBox="0 0 80 83" width="80" height="83">
	<style>
		tspan { white-space:pre }
		.shp0 { fill: #000000;stroke: #000000;stroke-width: 0.31 } 
		.shp1 { fill: #000000 } 
		.shp2 { fill: #000000;stroke: #ffffff;stroke-linecap:round;stroke-width: 1.009 } 
		.shp3 { fill: none;stroke: #ffffff;stroke-linejoin:bevel;stroke-width: 0.62 } 
		.shp4 { fill: none;stroke: #ffffff;stroke-linecap:round;stroke-width: 1.009 } 
		.shp5 { fill: #ffffff;stroke: #000000;stroke-width: 0.317 } 
		.shp6 { fill: none;stroke: #ffffff;stroke-width: 0.62 } 
		.shp7 { fill: #ffffff;stroke: #20201e;stroke-width: 1.211 } 
		.shp8 { fill: #ffffff;stroke: #20201e;stroke-linejoin:round;stroke-width: 1.211 } 
		.shp9 { fill: #ffffff;stroke: #20201e;stroke-linejoin:bevel;stroke-width: 1.211 } 
		.shp10 { fill: #000000;stroke: #000000;stroke-linejoin:bevel;stroke-width: 0.853 } 
		.shp11 { fill: #000000;stroke: #ffffff;stroke-linecap:round;stroke-width: 0.926 } 
		.shp12 { fill: none;stroke: #ffffff;stroke-linecap:round;stroke-width: 0.926 } 
		.shp13 { fill: #ffffff } 
		.shp14 { fill: #ffffff;stroke: #20201e;stroke-linejoin:bevel;stroke-width: 1.111 } 
		.shp15 { fill: #ffffff;stroke: #20201e;stroke-width: 1.111 } 
		.shp16 { fill: #000000;stroke: #000000;stroke-linecap:square;stroke-width: 0.853 } 
		.shp17 { fill: none;stroke: #ffffff;stroke-linecap:round;stroke-width: 0.853 } 
		.shp18 { fill: #ffffff;stroke: #20201e;stroke-linejoin:round;stroke-width: 1.111 } 
		.shp19 { fill: #ffffff;stroke: #20201e;stroke-linecap:square;stroke-width: 1.111 } 
		.shp20 { fill: #20201e } 
		.shp21 { fill: #ffffff;stroke: #20201e;stroke-width: 1.32 } 
		.shp22 { fill: #000000;stroke: #000000;stroke-width: 0.533 } 
		.shp23 { fill: #ffffff;stroke: #000000;stroke-linejoin:bevel;stroke-width: 1.014 } 
		.shp24 { fill: #000000;stroke: #000000;stroke-linejoin:bevel;stroke-width: 0.533 } 
		.shp25 { fill: none;stroke: #ffffff;stroke-linecap:round;stroke-linejoin:bevel;stroke-width: 0.533 } 
		.shp26 { fill: none;stroke: #ffffff;stroke-linecap:round;stroke-width: 0.533 } 
		.shp27 { fill: #ffffff;stroke: #000000;stroke-width: 0.533 } 
		.shp28 { fill: #ffffff;stroke: #20201e;stroke-linecap:round;stroke-linejoin:round;stroke-width: 1.32 } 
		.shp29 { fill: #ffffff;stroke: #20201e;stroke-linejoin:bevel;stroke-width: 1.32 } 
		.shp30 { fill: #ffffff;stroke: #000000;stroke-width: 1.014 } 
		.shp31 { fill: #ffffff;stroke: #000000;stroke-width: 0.77 } 
		.shp32 { fill: #20201e;stroke: #20201e;stroke-width: 0.853 } 
		.shp33 { fill: none;stroke: #ffffff;stroke-width: 0.853 } 
		.shp34 { fill: none;stroke: #20201e;stroke-width: 0.853 } 
		.shp35 { fill: #000000;stroke: #000000;stroke-linejoin:round;stroke-width: 0.79 } 
		.shp36 { fill: #ffffff;stroke: #000000;stroke-linejoin:round;stroke-width: 1.111 } 
	</style>
	<g id="Layer">
		<g id="Layer">
			<path id="Layer" class="shp0" d="M-28.74 28.52C-27.39 27.72 -26.82 26.65 -26.82 25.47C-26.82 25.13 -26.77 8.89 -26.77 8.89L-42.87 8.89C-42.87 8.89 -42.94 25.27 -42.94 25.47C-42.94 26.66 -42.1 27.74 -40.73 28.54C-41.7 28.68 -42.66 28.85 -43.61 29.06C-42.09 30.03 -40.66 31.16 -39.33 32.45C-37.46 34.28 -35.9 36.3 -34.68 38.48C-33.46 36.3 -31.91 34.28 -30.03 32.45C-28.7 31.16 -27.27 30.03 -25.75 29.06C-26.72 28.85 -27.72 28.68 -28.72 28.53L-28.74 28.52Z" />
			<path id="Layer" class="shp1" d="M-13.93 65.43C-14.93 63.43 -14.95 60.82 -14.51 59.06C-14.06 57.24 -9.76 53.81 -9.76 53.81C-2.19 46.45 -0.46 35.95 -5.89 30.36C-11.32 24.78 -21.86 26.23 -29.43 33.59C-31.69 35.79 -33.43 38.27 -34.61 40.82C-35.8 38.27 -37.53 35.79 -39.79 33.59C-47.36 26.23 -57.9 24.78 -63.34 30.36C-68.77 35.95 -67.03 46.45 -59.46 53.81C-59.12 54.14 -55.35 57.24 -54.9 59.06C-54.44 60.87 -54.38 63.48 -55.47 65.5L-55.31 65.5C-55.33 65.51 -55.35 65.52 -55.38 65.53C-49.11 68.62 -42.06 70.36 -34.61 70.36C-27.16 70.35 -20.21 68.51 -13.94 65.42" />
			<g id="Layer">
				<path id="Layer" class="shp2" d="M-54.28 65.06C-48.25 62.25 -41.58 60.69 -34.49 60.69C-27.68 60.69 -21.14 62.36 -15.31 64.73" />
				<path id="Layer" class="shp2" d="M-12.41 53.38C-18.69 51.25 -26.38 49.99 -34.7 49.99C-43.08 49.99 -50.84 51.27 -57.15 53.44" />
			</g>
			<path id="Layer" class="shp3" d="M-28.08 10.06L-41.59 22.17L-28.08 22.17L-41.59 10.06L-28.08 10.06Z" />
			<path id="Layer" class="shp4" d="M-16.34 60.77C-22.12 58.74 -28.27 57.27 -34.65 57.27C-41.16 57.27 -47.42 58.78 -53.3 60.88" />
			<path id="Layer" class="shp5" d="M-37.82 53.96L-34.65 55.54L-31.48 53.96L-34.65 52.37L-37.82 53.96Z" />
			<path id="Layer" class="shp5" d="M-50.77 56.02L-47.39 57.07L-44.52 55L-47.9 53.94L-50.77 56.02Z" />
			<path id="Layer" class="shp5" d="M-18.52 56.02L-21.91 57.07L-24.78 55L-21.4 53.94L-18.52 56.02Z" />
			<path id="Layer" class="shp3" d="M-41.59 10.06L-28.07 10.06L-28.07 22.17L-41.59 22.17L-41.59 10.06Z" />
			<path id="Layer" class="shp6" d="M-34.72 31.89C-37.87 31.89 -40.42 30.01 -40.42 27.68C-40.42 25.35 -37.87 23.47 -34.72 23.47C-31.57 23.47 -29.02 25.35 -29.02 27.68C-29.02 30.01 -31.57 31.89 -34.72 31.89Z" />
			<path id="Layer" class="shp7" d="M-26.74 -79.36L-42.84 -79.36L-42.84 -62.53C-42.84 -60.05 -39.22 -58.04 -34.75 -58.04C-30.28 -58.04 -26.77 -60.05 -26.77 -62.53C-26.77 -62.75 -26.74 -79.36 -26.74 -79.36L-26.74 -79.36Z" />
			<path id="Layer" class="shp7" d="M-42.84 -79.36L-26.74 -79.36L-26.74 -64.93L-42.84 -64.93L-42.84 -79.36Z" />
			<path id="Layer" class="shp7" d="M-42.84 -79.36L-26.74 -64.93" />
			<path id="Layer" class="shp7" d="M-26.74 -79.36L-42.84 -64.93" />
			<path id="Layer" class="shp8" d="M-14 -22.86C-20.26 -25.95 -27.07 -27.58 -34.53 -27.58C-41.99 -27.58 -49.12 -25.84 -55.38 -22.75C-49.12 -19.66 -42.11 -17.88 -34.65 -17.88C-27.19 -17.87 -20.26 -19.76 -14 -22.85L-14 -22.86Z" />
			<path id="Layer" class="shp9" d="M-10.87 -33.46C-10.51 -33.77 -10.15 -34.1 -9.8 -34.44C-2.23 -41.8 -0.5 -52.3 -5.93 -57.88C-11.37 -63.47 -21.9 -62.02 -29.47 -54.65C-31.74 -52.45 -33.47 -49.97 -34.66 -47.43C-35.84 -49.97 -37.58 -52.45 -39.84 -54.65C-47.41 -62.02 -57.95 -63.47 -63.38 -57.88C-68.81 -52.3 -67.08 -41.8 -59.51 -34.44C-59.16 -34.1 -58.8 -33.77 -58.44 -33.46C-51.9 -35.91 -43.64 -37.38 -34.65 -37.38C-25.67 -37.38 -17.41 -35.91 -10.88 -33.46L-10.87 -33.46Z" />
			<path id="Layer" class="shp7" d="M-34.65 -47.42C-33.47 -49.96 -31.73 -52.44 -29.47 -54.64C-27.63 -56.44 -25.6 -57.88 -23.52 -58.95C-26.97 -59.92 -30.72 -60.46 -34.64 -60.46C-38.57 -60.46 -42.32 -59.92 -45.77 -58.95C-43.69 -57.88 -41.67 -56.44 -39.83 -54.64C-37.57 -52.44 -35.84 -49.96 -34.65 -47.42L-34.65 -47.42Z" />
			<path id="Layer" class="shp9" d="M-10.96 -33.46L-10.96 -33.47C-17.5 -35.92 -25.75 -37.38 -34.73 -37.38C-43.72 -37.38 -51.98 -35.91 -58.52 -33.46C-58.52 -33.46 -55.39 -31 -54.93 -29.19C-54.48 -27.38 -54.28 -24.78 -55.37 -22.76C-49.11 -25.85 -41.98 -27.58 -34.52 -27.58C-27.21 -27.58 -20.16 -25.84 -13.99 -22.86C-14.99 -24.86 -14.99 -27.43 -14.55 -29.19C-14.1 -30.99 -10.96 -33.45 -10.96 -33.45L-10.96 -33.46Z" />
			<path id="Layer" class="shp9" d="M-55.38 -22.75C-49.12 -25.84 -41.98 -27.57 -34.53 -27.57C-27.21 -27.57 -20.17 -25.84 -14 -22.86C-14.42 -23.71 -14.87 -25.89 -14.8 -27.1C-21 -29.54 -27.67 -30.87 -34.63 -30.87C-41.66 -30.87 -48.4 -29.51 -54.67 -27.02C-54.59 -24.77 -54.91 -23.64 -55.38 -22.76L-55.38 -22.75Z" />
			<path id="Layer" class="shp1" d="M-37.71 -34.04L-34.61 -32.49L-31.52 -34.04L-34.61 -35.59L-37.71 -34.04Z" />
			<path id="Layer" class="shp1" d="M-50.38 -32.02L-47.08 -30.99L-44.27 -33.02L-47.57 -34.05L-50.38 -32.02Z" />
			<path id="Layer" class="shp1" d="M-18.85 -32.02L-22.15 -30.99L-24.96 -33.02L-21.66 -34.05L-18.85 -32.02Z" />
			<path id="Layer" class="shp7" d="M-34.65 -56.02C-37.8 -56.02 -40.35 -57.9 -40.35 -60.23C-40.35 -62.56 -37.8 -64.44 -34.65 -64.44C-31.5 -64.44 -28.95 -62.56 -28.95 -60.23C-28.95 -57.9 -31.5 -56.02 -34.65 -56.02Z" />
			<path id="Layer" class="shp10" d="M75.7 23.6C76.55 22.14 76.06 20.27 74.6 19.42C73.14 18.56 71.27 19.06 70.42 20.52C69.69 21.77 69.95 23.32 70.95 24.27C66.79 29.32 59.19 38.54 57.35 40.77C56.81 40.53 56.25 40.3 55.67 40.09C55.84 38.38 57.04 25.3 57.68 18.34C59.07 18.37 60.35 17.45 60.71 16.05C61.13 14.42 60.15 12.75 58.52 12.33C56.88 11.9 55.21 12.88 54.79 14.52C54.42 15.92 55.1 17.35 56.33 17.99C53.31 24.83 47.47 38.1 47.45 38.15C47.45 38.17 47.45 38.18 47.45 38.19C46.92 38.13 46.37 38.08 45.82 38.03C45.71 37.29 43.2 21.91 41.89 13.9C43.39 13.55 44.51 12.2 44.51 10.59C44.51 8.72 42.99 7.19 41.11 7.19C39.24 7.19 37.72 8.72 37.72 10.59C37.72 12.2 38.84 13.55 40.34 13.9C39.04 21.87 36.55 37.15 36.42 38.02C35.83 38.06 35.27 38.12 34.71 38.18C34.71 38.16 34.71 38.15 34.7 38.13C34.69 38.07 28.84 24.8 25.83 17.97C27.06 17.32 27.73 15.9 27.37 14.49C26.94 12.86 25.28 11.88 23.64 12.3C22.01 12.72 21.02 14.39 21.45 16.03C21.81 17.43 23.09 18.35 24.48 18.32C25.11 25.26 26.32 38.32 26.48 40.06C25.91 40.26 25.37 40.49 24.84 40.72C22.93 38.4 15.41 29.29 11.27 24.28C12.28 23.32 12.54 21.77 11.81 20.52C10.96 19.06 9.09 18.57 7.63 19.42C6.17 20.27 5.68 22.14 6.53 23.6C7.26 24.85 8.74 25.39 10.07 24.98C12.55 31.46 20.58 52.31 20.89 52.6L20.89 52.6C20.9 52.63 21.69 57.8 21.77 59.52C21.86 61.22 21.12 65.4 21.17 65.42L21.17 65.43C21.17 65.43 21.17 65.42 21.18 65.42C27.13 68.21 33.91 69.78 41.18 69.78C48.52 69.78 61.77 65.29 61.71 65.26C60.84 63.43 61.17 52.59 61.17 52.59C61.48 52.3 69.61 31.63 72.16 24.98C73.47 25.39 74.95 24.85 75.68 23.6" />
			<g id="Layer">
				<path id="Layer" class="shp11" d="M22.65 64.18C28.91 61.6 34.77 60.49 41.95 60.49C48.85 60.49 54.37 61.63 60.14 64.03" />
				<path id="Layer" class="shp11" d="M58.95 52.09C53.86 50.13 47.62 48.98 40.88 48.98C34.08 48.98 27.79 50.15 22.67 52.14" />
			</g>
			<path id="Layer" class="shp12" d="M59.56 60.61C53.92 58.75 48.19 57.4 41.72 57.4C35.14 57.4 28.8 58.79 22.85 60.72" />
			<path id="Layer" class="shp13" d="M38.3 53.65L41.14 55.07L43.99 53.65L41.14 52.23L38.3 53.65Z" />
			<path id="Layer" class="shp13" d="M55.61 55.5L52.58 56.45L50 54.59L53.03 53.64L55.61 55.5Z" />
			<path id="Layer" class="shp13" d="M26.68 55.5L29.71 56.45L32.29 54.59L29.26 53.64L26.68 55.5Z" />
			<path id="Layer" class="shp14" d="M61.22 -20.64C55.15 -23.48 48.51 -24.97 41.17 -24.97C33.82 -24.97 26.71 -23.34 20.44 -20.5C26.51 -17.67 33.39 -16.07 40.73 -16.07C48.08 -16.06 54.96 -17.8 61.22 -20.63L61.22 -20.64Z" />
			<path id="Layer" class="shp14" d="M60.77 -33.37L60.77 -33.38C55.31 -35.62 48.97 -36.99 40.73 -36.99C32.48 -36.99 26.11 -35.62 20.49 -33.37C20.49 -33.37 21.1 -28.17 21.13 -26.45C21.16 -24.51 20.62 -20.54 20.62 -20.54C26.88 -23.37 33.83 -24.97 41.17 -24.97C48.37 -24.97 55.68 -23.49 61.22 -20.64C60.31 -22.46 60.77 -33.36 60.77 -33.36L60.77 -33.37Z" />
			<path id="Layer" class="shp14" d="M20.64 -20.57C26.54 -23.37 33.83 -24.97 41.17 -24.97C48.37 -24.97 54.41 -23.95 61.22 -20.64C60.95 -21.41 60.76 -23.78 60.71 -24.65C54.68 -26.89 48.03 -28.16 41.18 -28.16C34.26 -28.16 27.3 -26.82 21.05 -24.53C20.92 -23.64 20.64 -20.58 20.64 -20.58L20.64 -20.57Z" />
			<path id="Layer" class="shp15" d="M74.3 -66.55C72.84 -67.4 70.97 -66.9 70.12 -65.44C69.39 -64.19 69.65 -62.64 70.65 -61.69C66.49 -56.64 58.88 -47.42 57.05 -45.19C56.51 -45.43 55.95 -45.66 55.37 -45.87C55.53 -47.58 56.74 -60.66 57.38 -67.62C58.77 -67.59 60.05 -68.51 60.41 -69.91C60.83 -71.54 59.85 -73.21 58.21 -73.64C56.58 -74.06 54.91 -73.08 54.49 -71.44C54.12 -70.04 54.8 -68.61 56.03 -67.97C53.01 -61.13 47.17 -47.86 47.15 -47.81C47.15 -47.79 47.15 -47.78 47.15 -47.77C46.62 -47.83 46.07 -47.89 45.51 -47.93C45.4 -48.67 42.9 -64.05 41.59 -72.06C43.09 -72.41 44.21 -73.76 44.21 -75.37C44.21 -77.24 42.69 -78.77 40.81 -78.77C38.94 -78.77 37.41 -77.24 37.41 -75.37C37.41 -73.76 38.54 -72.41 40.04 -72.06C38.74 -64.09 36.24 -48.81 36.11 -47.94C35.53 -47.9 34.96 -47.84 34.41 -47.78C34.41 -47.8 34.41 -47.81 34.4 -47.83C34.39 -47.89 28.54 -61.16 25.53 -67.99C26.76 -68.64 27.43 -70.06 27.07 -71.47C26.64 -73.1 24.97 -74.08 23.34 -73.66C21.71 -73.24 20.72 -71.57 21.15 -69.93C21.51 -68.53 22.79 -67.61 24.18 -67.64C24.81 -60.7 26.01 -47.65 26.18 -45.9C25.61 -45.7 25.06 -45.47 24.54 -45.24C22.63 -47.56 15.11 -56.67 10.97 -61.69C11.98 -62.64 12.24 -64.19 11.51 -65.44C10.66 -66.9 8.79 -67.4 7.33 -66.54C5.87 -65.69 5.38 -63.82 6.23 -62.36C6.96 -61.11 8.44 -60.57 9.77 -60.98C12.25 -54.5 20.28 -33.65 20.59 -33.37C26.12 -35.62 32.49 -36.99 40.73 -36.99C48.98 -36.99 55.34 -35.62 60.87 -33.37C61.18 -33.66 69.31 -54.33 71.86 -60.98C73.19 -60.57 74.67 -61.11 75.4 -62.36C76.22 -63.82 75.73 -65.69 74.27 -66.54L74.3 -66.55Z" />
			<path id="Layer" class="shp1" d="M38 -32.38L40.84 -30.96L43.69 -32.38L40.84 -33.8L38 -32.38Z" />
			<path id="Layer" class="shp1" d="M26.38 -30.54L29.41 -29.6L31.99 -31.46L28.96 -32.4L26.38 -30.54Z" />
			<path id="Layer" class="shp1" d="M55.31 -30.53L52.28 -29.58L49.7 -31.44L52.73 -32.39L55.31 -30.53Z" />
			<g id="Layer">
				<path id="Layer" class="shp16" d="M-241.37 64.65L-242.34 64.65L-242.34 58.83L-247 53.6L-247.05 53.6L-247.05 22.78L-247 22.78L-240.93 16.98L-240.89 16.98L-240.89 7.04C-240.89 6.18 -241.57 5.47 -242.4 5.47L-250.79 5.47L-250.79 10.87L-255.51 12.43L-259.85 10.87L-259.85 5.47L-270.2 5.47L-270.2 10.87L-274.55 12.43L-279.26 10.87L-279.26 5.47L-287.65 5.47C-288.48 5.47 -289.16 6.18 -289.16 7.04L-289.16 16.98L-289.14 16.98L-283.05 22.78L-283.05 53.6L-287.71 58.83L-287.71 64.65L-288.68 64.65C-289.55 64.65 -290.26 65.35 -290.26 66.22L-290.26 69.92C-290.26 70.78 -289.55 71.49 -288.68 71.49L-241.37 71.49C-240.5 71.49 -239.8 70.78 -239.8 69.92L-239.8 66.22C-239.8 65.36 -240.5 64.65 -241.37 64.65L-241.37 64.65Z" />
				<path id="Layer" class="shp17" d="M-286.18 64.65L-244.22 64.65" />
				<path id="Layer" class="shp17" d="M-285.99 58.83L-244.4 58.83" />
				<path id="Layer" class="shp17" d="M-248.84 53.61L-281.93 53.61" />
				<path id="Layer" class="shp17" d="M-281.74 22.79L-248.65 22.79" />
				<path id="Layer" class="shp17" d="M-287.1 16.98L-242.19 16.98" />
			</g>
			<path id="Layer" class="shp15" d="M-241.72 -14.41C-240.85 -14.41 -240.15 -15.11 -240.15 -15.98L-240.15 -19.68C-240.15 -20.55 -240.85 -21.25 -241.72 -21.25L-289.04 -21.25C-289.91 -21.25 -290.61 -20.55 -290.61 -19.68L-290.61 -15.98C-290.61 -15.11 -289.91 -14.41 -289.04 -14.41L-241.72 -14.41Z" />
			<path id="Layer" class="shp15" d="M-288.07 -27.07L-242.69 -27.07L-242.69 -21.25L-288.07 -21.25L-288.07 -27.07Z" />
			<path id="Layer" class="shp14" d="M-242.69 -27.07L-247.36 -32.3L-283.4 -32.3L-288.07 -27.07L-242.69 -27.07Z" />
			<path id="Layer" class="shp18" d="M-241.27 -68.94L-247.36 -63.12L-283.4 -63.12L-289.51 -68.94L-241.27 -68.94Z" />
			<path id="Layer" class="shp15" d="M-283.4 -63.12L-247.41 -63.12L-247.41 -32.3L-283.4 -32.3L-283.4 -63.12Z" />
			<path id="Layer" class="shp19" d="M-242.75 -80.43L-251.15 -80.43L-251.15 -75.03L-255.86 -73.47L-260.21 -75.03L-260.21 -80.43L-270.56 -80.43L-270.56 -75.03L-274.9 -73.47L-279.61 -75.03L-279.61 -80.43L-288.01 -80.43C-288.84 -80.43 -289.51 -79.73 -289.51 -78.86L-289.51 -68.92L-241.25 -68.92L-241.25 -78.86C-241.25 -79.73 -241.92 -80.43 -242.75 -80.43L-242.75 -80.43Z" />
			<path id="Layer" class="shp20" d="M-73.13 69.82C-73.75 69.48 -79.38 63.95 -84.6 63.95C-87.31 63.95 -89.44 64.77 -91.31 65.49C-93.21 66.23 -95.01 66.92 -97.61 66.92C-100.64 66.92 -103.15 65.99 -105.37 65.18C-107.16 64.52 -108.71 63.95 -110.29 63.95C-111.87 63.95 -113.42 64.52 -115.21 65.18C-117.43 65.99 -119.94 66.92 -122.97 66.92C-125.57 66.92 -127.37 66.23 -129.27 65.49C-131.15 64.77 -133.27 63.95 -135.98 63.95C-141.2 63.95 -146.83 69.48 -147.45 69.82C-147.45 69.82 -145.18 68.4 -143.07 68.4C-140.95 68.4 -139.12 69.88 -135.98 69.88C-134.37 69.88 -133.06 70.39 -131.4 71.03C-129.29 71.84 -126.68 72.85 -122.97 72.85C-118.89 72.85 -115.58 71.63 -113.16 70.74C-112.06 70.34 -110.82 69.88 -110.29 69.88C-109.76 69.88 -108.52 70.34 -107.42 70.74C-105 71.63 -101.69 72.85 -97.61 72.85C-93.91 72.85 -91.29 71.84 -89.18 71.03C-87.52 70.39 -86.21 69.88 -84.6 69.88C-81.46 69.88 -79.08 68.4 -77.51 68.4C-75.95 68.4 -73.1 69.82 -73.1 69.82L-73.13 69.82Z" />
			<path id="Layer" class="shp21" d="M-90.36 35.91C-90.36 26.56 -98.34 11.73 -104.45 9.72C-104.66 9.65 -104.88 9.59 -105.11 9.55C-104.04 9.15 -103.28 8.13 -103.28 6.93C-103.28 5.38 -104.53 4.13 -106.07 4.13C-107.62 4.13 -108.87 5.38 -108.87 6.93C-108.87 8 -108.26 8.93 -107.38 9.4C-108.63 9.48 -109.98 9.81 -111.38 10.37C-112.27 9.96 -113.15 9.67 -114.02 9.51C-113 9.1 -112.28 8.1 -112.28 6.93C-112.28 5.38 -113.53 4.13 -115.08 4.13C-116.62 4.13 -117.87 5.38 -117.87 6.93C-117.87 8.02 -117.25 8.96 -116.34 9.42C-116.81 9.47 -117.28 9.57 -117.73 9.72C-123.83 11.73 -131.63 26.01 -131.63 35.91C-131.63 43.81 -128.43 50.61 -124.74 55.54C-124.19 57 -123.35 57.04 -123.17 57.22C-123.17 57.22 -123.17 57.22 -123.17 57.22C-123.17 57.24 -123.9 61.98 -123.97 63.05C-124.08 64.7 -124.25 66.64 -124.25 66.64C-120.22 68.42 -115.8 69.45 -111.01 69.45C-106.21 69.45 -102.01 68.32 -97.98 66.54C-98.13 65.23 -98.29 63.91 -98.62 61.93C-98.79 60.9 -99.38 57.22 -99.38 57.22C-99.2 57.04 -98.12 55.67 -98.12 55.67C-94.2 50.72 -90.37 44.12 -90.37 35.91L-90.36 35.91Z" />
			<path id="Layer" class="shp22" d="M-123.07 57.22C-119.8 55.81 -116.04 54.58 -111.17 54.58C-106.31 54.58 -102.55 55.81 -99.28 57.22C-99.1 57.04 -98.68 56.58 -97.79 55.34C-100.54 52.37 -104.55 50.73 -111.09 50.73C-118.08 50.73 -121.89 52.56 -124.64 55.54C-124.08 56.99 -123.24 57.04 -123.06 57.22L-123.07 57.22Z" />
			<path id="Layer" class="shp23" d="M-98.09 66.54C-102.12 64.77 -106.24 63.89 -111.04 63.89C-115.84 63.89 -120.33 64.87 -124.36 66.64C-120.33 68.41 -115.91 69.44 -111.11 69.44C-106.31 69.44 -102.11 68.31 -98.08 66.54L-98.09 66.54Z" />
			<path id="Layer" class="shp22" d="M-98.2 55.67C-95.66 51.43 -92.32 43.43 -96.5 29.81C-100 18.39 -110.31 7.24 -117.81 9.72C-124.47 11.91 -131.71 27.65 -131.71 35.9C-131.71 43.8 -128.51 50.61 -124.82 55.53L-98.19 55.66L-98.2 55.67Z" />
			<path id="Layer" class="shp22" d="M-115.16 9.72C-116.71 9.72 -117.96 8.47 -117.96 6.92C-117.96 5.37 -116.71 4.12 -115.16 4.12C-113.61 4.12 -112.36 5.37 -112.36 6.92C-112.36 8.47 -113.61 9.72 -115.16 9.72Z" />
			<path id="Layer" class="shp24" d="M-99.47 57.21L-99.47 57.21C-102.74 55.8 -106.5 54.62 -111.36 54.62C-116.23 54.62 -119.99 55.8 -123.25 57.21C-123.25 57.21 -123.99 61.97 -124.06 63.04C-124.17 64.69 -124.33 66.64 -124.33 66.64C-120.31 64.87 -115.81 63.89 -111.02 63.89C-106.31 63.89 -102.04 64.83 -98.07 66.54C-98.21 65.22 -98.38 63.9 -98.71 61.93C-98.89 60.89 -99.48 57.2 -99.48 57.2L-99.47 57.21Z" />
			<path id="Layer" class="shp25" d="M-99.59 63.59C-103.21 62.47 -107.08 61.85 -111.07 61.85C-115.13 61.85 -119.28 62.51 -123 63.68" />
			<g id="Layer">
				<path id="Layer" class="shp26" d="M-122.22 56.78C-119.19 55.56 -115.72 54.57 -111.36 54.57C-106.97 54.57 -103.49 55.57 -100.45 56.8" />
				<path id="Layer" class="shp26" d="M-98.48 54.63C-102.32 51.56 -105.4 50.73 -111.09 50.73C-115.85 50.73 -120.77 52 -123.13 54.15" />
			</g>
			<path id="Layer" class="shp27" d="M-104.41 30.71L-105.71 32.02L-112.29 32.02L-112.29 26.08L-110.98 24.77L-113.62 22.13L-116.26 24.77L-114.94 26.09L-114.94 32.02L-121.56 32.02L-122.87 30.71L-125.51 33.35L-122.87 35.99L-121.54 34.67L-114.94 34.67L-114.94 41.91L-116.26 43.23L-113.62 45.87L-110.98 43.23L-112.29 41.92L-112.29 34.67L-105.73 34.67L-104.41 35.99L-101.77 33.35L-104.41 30.71Z" />
			<path id="Layer" class="shp28" d="M-74.17 -16.04C-74.79 -16.38 -80.42 -21.91 -85.64 -21.91C-88.35 -21.91 -90.48 -21.09 -92.35 -20.37C-94.25 -19.63 -96.05 -18.94 -98.65 -18.94C-101.68 -18.94 -104.19 -19.87 -106.41 -20.68C-108.2 -21.34 -109.75 -21.91 -111.33 -21.91C-112.91 -21.91 -114.46 -21.34 -116.25 -20.68C-118.47 -19.87 -120.98 -18.94 -124.01 -18.94C-126.61 -18.94 -128.41 -19.63 -130.31 -20.37C-132.19 -21.09 -134.31 -21.91 -137.03 -21.91C-142.24 -21.91 -147.87 -16.38 -148.49 -16.04C-148.49 -16.04 -146.1 -17.46 -144.11 -17.46C-142.12 -17.46 -140.16 -15.98 -137.03 -15.98C-135.42 -15.98 -134.1 -15.47 -132.44 -14.83C-130.34 -14.02 -127.72 -13.01 -124.01 -13.01C-119.93 -13.01 -116.62 -14.23 -114.2 -15.12C-113.1 -15.52 -111.86 -15.98 -111.33 -15.98C-110.8 -15.98 -109.56 -15.52 -108.46 -15.12C-106.04 -14.23 -102.73 -13.01 -98.65 -13.01C-94.95 -13.01 -92.33 -14.02 -90.22 -14.83C-88.56 -15.47 -87.25 -15.98 -85.64 -15.98C-82.5 -15.98 -81.2 -17.46 -78.55 -17.46C-75.88 -17.46 -74.14 -16.04 -74.14 -16.04L-74.17 -16.04Z" />
			<path id="Layer" class="shp21" d="M-105.58 -76.14C-105.79 -76.21 -106.01 -76.26 -106.23 -76.31C-105.17 -76.71 -104.41 -77.73 -104.41 -78.93C-104.41 -80.47 -105.66 -81.73 -107.2 -81.73C-108.75 -81.73 -110 -80.47 -110 -78.93C-110 -77.86 -109.39 -76.93 -108.51 -76.46C-116.53 -75.94 -128.71 -65.37 -129.1 -47.48C-129.25 -40.37 -128.35 -34.55 -125.87 -30.32L-99.02 -30.51C-95.1 -35.46 -91.49 -41.73 -91.49 -49.95C-91.49 -60.88 -99.47 -74.14 -105.58 -76.14L-105.58 -76.14Z" />
			<path id="Layer" class="shp21" d="M-97.54 -56.04C-100.49 -65.67 -108.28 -75.1 -115.15 -76.34C-114.13 -76.76 -113.41 -77.76 -113.41 -78.93C-113.41 -80.47 -114.66 -81.73 -116.21 -81.73C-117.75 -81.73 -119 -80.47 -119 -78.93C-119 -77.84 -118.38 -76.9 -117.46 -76.44C-117.94 -76.38 -118.4 -76.29 -118.86 -76.14C-124.95 -74.13 -132.76 -60.65 -132.76 -49.95C-132.76 -42.05 -129.56 -35.25 -125.87 -30.32L-99.02 -30.51C-96.48 -34.75 -93.37 -42.43 -97.54 -56.04L-97.54 -56.04Z" />
			<path id="Layer" class="shp23" d="M-99.11 -19.31C-102.48 -20.86 -107.26 -21.96 -112.06 -21.96C-116.85 -21.96 -121.35 -20.98 -125.38 -19.21C-121.35 -17.44 -116.93 -16.41 -112.13 -16.41C-107.33 -16.41 -103.13 -17.54 -99.1 -19.31L-99.11 -19.31Z" />
			<path id="Layer" class="shp29" d="M-100.51 -28.64L-100.51 -28.64C-103.78 -30.05 -107.54 -31.23 -112.4 -31.23C-117.27 -31.23 -121.03 -30.05 -124.3 -28.64C-124.3 -28.64 -125.03 -23.88 -125.1 -22.81C-125.21 -21.16 -125.38 -19.21 -125.38 -19.21C-121.35 -20.98 -116.86 -21.96 -112.06 -21.96C-107.35 -21.96 -103.08 -21.02 -99.11 -19.31C-99.25 -20.63 -99.42 -21.95 -99.75 -23.92C-99.93 -24.97 -100.52 -28.65 -100.52 -28.65L-100.51 -28.64Z" />
			<path id="Layer" class="shp29" d="M-125.38 -19.21C-121.35 -20.98 -116.86 -21.96 -112.06 -21.96C-107.36 -21.96 -103.09 -21.02 -99.12 -19.31C-99.22 -20.41 -99.46 -21.1 -99.62 -22.51C-103.61 -23.91 -107.65 -24.62 -112.12 -24.62C-116.65 -24.62 -121.13 -23.8 -125.16 -22.37C-125.18 -21.13 -125.39 -19.21 -125.39 -19.21L-125.38 -19.21Z" />
			<path id="Layer" class="shp21" d="M-124.3 -28.64C-121.03 -30.05 -117.27 -31.25 -112.4 -31.28C-108.26 -31.31 -103.78 -30.05 -100.51 -28.64C-100.33 -28.82 -99.57 -29.05 -99.02 -30.51C-101.77 -33.49 -105.86 -35.04 -112.4 -35.04C-119.39 -35.04 -123.12 -33.3 -125.87 -30.32C-125.33 -28.86 -124.49 -28.82 -124.31 -28.64L-124.3 -28.64Z" />
			<path id="Layer" class="shp30" d="M-112.4 -35.04L-112.4 -31.28" />
			<path id="Layer" class="shp31" d="M-105.45 -55.15L-106.76 -53.84L-113.34 -53.84L-113.34 -59.77L-112.03 -61.08L-114.67 -63.72L-117.31 -61.08L-115.99 -59.76L-115.99 -53.84L-122.6 -53.84L-123.91 -55.15L-126.55 -52.51L-123.91 -49.87L-122.59 -51.19L-115.99 -51.19L-115.99 -43.94L-117.31 -42.62L-114.67 -39.98L-112.03 -42.62L-113.34 -43.93L-113.34 -51.19L-106.77 -51.19L-105.45 -49.87L-102.81 -52.51L-105.45 -55.15Z" />
			<path id="Layer" class="shp32" d="M106.04 12.5C106.04 12.5 107.15 6.54 107.15 5.71C107.15 4.87 107.98 4.74 108.81 5.85C109.64 6.95 113.39 12.36 113.39 12.36L106.04 12.49L106.04 12.5Z" />
			<path id="Layer" class="shp32" d="M155.77 58.23C155.39 55.54 154.88 52.98 154.25 50.54L152.25 49.74L153.59 48.14C152.82 45.56 151.93 43.13 150.96 40.85L149.06 40.31L150.01 38.69C148.99 36.52 147.89 34.5 146.75 32.62L144.98 32.26L145.61 30.8C144.34 28.83 143.03 27.03 141.72 25.4L139.85 25.19L140.35 23.73C138.83 21.94 137.35 20.39 135.97 19.06L134.1 18.95L134.42 17.61C131.08 14.58 128.71 13.11 128.71 13.11L124.46 14.4C124.46 14.4 122.43 13.29 120.76 12.18C120.76 12.18 119.65 8.48 119.29 6.45C118.92 4.42 117.81 5.34 117.44 5.9C117.07 6.45 113.23 10.7 113.23 10.7C113.23 10.7 110.94 10.39 109.31 10.7C106.9 11.17 105.79 12.78 103.02 15.42C101 17.34 99.78 19.02 99.09 20.82C98.4 22.63 99.23 22.63 98.95 24.29C98.68 25.95 91.19 38.43 90.36 39.95C89.53 41.48 87.52 46.14 91.47 49.1C92.57 49.94 93.41 50.35 94.1 50.63C94.1 50.63 95.21 50.35 95.63 49.8C95.7 49.7 95.74 49.64 95.76 49.6C95.77 49.57 95.78 49.57 95.76 49.6C95.71 49.71 95.62 50.12 96.04 50.63C96.73 51.46 97.63 51.4 98.12 51.46C98.86 51.55 100.2 50.91 101.31 49.24C102.42 47.58 103.11 47.02 103.94 46.05C104.77 45.08 109.36 42.94 111.15 39.95C111.57 39.26 112.54 39.54 113.23 40.09C113.93 40.65 117.81 40.79 119.47 38.01C119.47 38.01 120.26 45.31 116.97 50.35C111.57 58.67 102.42 60.75 99.65 68.51L156.49 68.51C156.49 65.83 156.34 63.25 156.09 60.78L154.2 59.78L155.8 58.23L155.77 58.23Z" />
			<path id="Layer" class="shp33" d="M126.49 16.26C126.49 16.26 150.7 34.38 150.7 67.09" />
			<path id="Layer" class="shp34" d="M95.75 49.4C95.77 49.37 95.76 49.37 95.75 49.4Z" />
			<path id="Layer" class="shp33" d="M121.5 28.83C121.96 34 119.56 37.7 119.47 38.02C119.47 38.02 125.29 35.02 125.84 31.05" />
			<path id="Layer" class="shp33" d="M119.46 38.02C119.46 38.02 123.34 39.92 126.21 38.71" />
			<path id="Layer" class="shp34" d="M95.62 49.6C95.62 49.6 98.21 46.27 98.95 44.75" />
			<path id="Layer" class="shp33" d="M111.56 18.89C111.56 18.89 107.3 18.91 105.88 21.25C103.94 24.43 106.15 24.85 106.15 24.85C106.15 24.85 108.37 25.54 109.9 23.46C111.52 21.25 110.17 19.86 110.17 19.86L111.55 18.89L111.56 18.89Z" />
			<path id="Layer" class="shp33" d="M90.91 42.39C92.43 41.97 93.4 42.11 94.1 42.53C94.1 42.53 93.4 40.45 94.65 38.65C95.9 36.84 97.98 36.71 99.78 33.24" />
			<path id="Layer" class="shp33" d="M131.38 20.83L134.02 19.17" />
			<path id="Layer" class="shp33" d="M136.79 26.79L139.43 25.55" />
			<path id="Layer" class="shp33" d="M141.64 33.71L144.69 32.46" />
			<path id="Layer" class="shp33" d="M145.53 41.63L148.71 40.52" />
			<path id="Layer" class="shp33" d="M148.57 50.92L151.9 49.95" />
			<path id="Layer" class="shp33" d="M150.38 60.34L153.84 59.93" />
			<path id="Layer" class="shp15" d="M102.71 -71.66C102.71 -71.66 103.82 -77.62 103.82 -78.45C103.82 -79.28 104.65 -79.42 105.48 -78.31C106.31 -77.2 110.06 -71.79 110.06 -71.79L102.71 -71.66L102.71 -71.66Z" />
			<path id="Layer" class="shp15" d="M152.45 -25.93C152.07 -28.62 151.56 -31.18 150.93 -33.62L148.93 -34.42L150.27 -36.02C149.5 -38.6 148.61 -41.03 147.64 -43.31L145.74 -43.85L146.68 -45.45C145.66 -47.62 144.56 -49.65 143.42 -51.53L141.65 -51.89L142.28 -53.35C141.01 -55.32 139.7 -57.12 138.39 -58.75L136.52 -58.96L137.02 -60.42C135.5 -62.21 134.01 -63.76 132.64 -65.09L130.77 -65.2L131.09 -66.54C127.75 -69.57 125.38 -71.04 125.38 -71.04L121.13 -69.75C121.13 -69.75 119.1 -70.86 117.43 -71.97C117.43 -71.97 116.32 -75.66 115.96 -77.7C115.58 -79.73 114.48 -78.81 114.11 -78.25C113.74 -77.7 109.9 -73.45 109.9 -73.45C109.9 -73.45 107.61 -73.76 105.97 -73.45C103.57 -72.98 102.46 -71.37 99.69 -68.73C97.67 -66.81 96.45 -65.13 95.76 -63.32C95.07 -61.52 95.9 -61.52 95.62 -59.86C95.34 -58.2 87.86 -45.72 87.03 -44.19C86.2 -42.67 84.19 -38.01 88.14 -35.04C89.24 -34.21 90.08 -33.8 90.77 -33.52C90.77 -33.52 91.88 -33.8 92.29 -34.35C92.37 -34.45 92.41 -34.51 92.42 -34.54C92.44 -34.58 92.45 -34.58 92.42 -34.54C92.38 -34.44 92.29 -34.03 92.71 -33.52C93.4 -32.69 94.29 -32.75 94.79 -32.69C95.53 -32.59 96.87 -33.24 97.98 -34.91C99.09 -36.57 99.78 -37.12 100.61 -38.09C101.44 -39.06 106.03 -41.21 107.82 -44.19C108.24 -44.89 109.21 -44.61 109.9 -44.05C110.59 -43.5 114.48 -43.36 116.14 -46.14C116.14 -46.14 116.93 -38.84 113.64 -33.8C108.24 -25.48 99.09 -23.4 96.32 -15.64L153.15 -15.64C153.15 -18.32 153.01 -20.89 152.76 -23.37L150.87 -24.37L152.5 -25.91L152.45 -25.93Z" />
			<path id="Layer" class="shp34" d="M123.16 -67.9C123.16 -67.9 147.37 -49.78 147.37 -17.06" />
			<path id="Layer" class="shp34" d="M92.42 -34.54C92.44 -34.58 92.44 -34.58 92.42 -34.54Z" />
			<path id="Layer" class="shp34" d="M118.17 -55.33C118.63 -50.16 116.23 -46.46 116.14 -46.14C116.14 -46.14 121.96 -49.14 122.51 -53.11" />
			<path id="Layer" class="shp34" d="M116.14 -46.13C116.14 -46.13 120.02 -44.23 122.89 -45.44" />
			<path id="Layer" class="shp34" d="M92.29 -34.35C92.29 -34.35 94.88 -37.68 95.62 -39.2" />
			<path id="Layer" class="shp34" d="M108.24 -65.26C108.24 -65.26 103.98 -65.24 102.56 -62.91C100.62 -59.72 102.83 -59.3 102.83 -59.3C102.83 -59.3 105.05 -58.61 106.58 -60.69C108.2 -62.9 106.85 -64.29 106.85 -64.29L108.23 -65.26L108.24 -65.26Z" />
			<path id="Layer" class="shp34" d="M87.58 -41.56C89.11 -41.98 90.08 -41.84 90.77 -41.42C90.77 -41.42 90.08 -43.5 91.32 -45.3C92.57 -47.11 94.65 -47.24 96.45 -50.71" />
			<path id="Layer" class="shp34" d="M128.06 -63.32L130.69 -64.98" />
			<path id="Layer" class="shp34" d="M133.47 -57.36L136.1 -58.61" />
			<path id="Layer" class="shp34" d="M138.32 -50.44L141.37 -51.69" />
			<path id="Layer" class="shp34" d="M142.2 -42.53L145.39 -43.64" />
			<path id="Layer" class="shp34" d="M145.25 -33.24L148.58 -34.21" />
			<path id="Layer" class="shp34" d="M147.05 -23.81L150.52 -24.23" />
			<path id="Layer" class="shp35" d="M205.45 62.57C201.7 55.13 202.08 41.87 202.39 36.73C208.32 36.32 212.59 35.2 212.59 33.87C212.59 32.57 208.48 31.47 202.72 31.04C206.4 29.15 208.92 25.32 208.92 20.89C208.92 14.59 203.81 9.48 197.51 9.48C191.2 9.48 186.09 14.59 186.09 20.89C186.09 25.32 188.61 29.15 192.29 31.04C186.53 31.47 182.42 32.57 182.42 33.87C182.42 35.2 186.69 36.32 192.62 36.73C192.93 41.87 193.31 55.13 189.56 62.57C182.21 64.05 177.05 67.52 177.05 71.56L217.95 71.56C217.95 67.52 212.8 64.05 205.45 62.57L205.45 62.57Z" />
			<path id="Layer" class="shp36" d="M205.45 -21.03C201.7 -28.48 202.08 -41.74 202.39 -46.87C208.32 -47.28 212.59 -48.4 212.59 -49.73C212.59 -51.03 208.48 -52.13 202.72 -52.56C206.4 -54.45 208.92 -58.29 208.92 -62.71C208.92 -69.01 203.81 -74.12 197.51 -74.12C191.2 -74.12 186.09 -69.01 186.09 -62.71C186.09 -58.29 188.61 -54.45 192.29 -52.56C186.53 -52.13 182.42 -51.03 182.42 -49.73C182.42 -48.4 186.69 -47.28 192.62 -46.87C192.93 -41.74 193.31 -28.48 189.56 -21.03C182.21 -19.55 177.05 -16.08 177.05 -12.04L217.95 -12.04C217.95 -16.08 212.8 -19.55 205.45 -21.03L205.45 -21.03Z" />
			<path id="Layer" class="shp15" d="M-173.05 -71.66C-173.05 -71.66 -174.16 -77.62 -174.16 -78.45C-174.16 -79.28 -174.99 -79.42 -175.82 -78.31C-176.65 -77.2 -180.4 -71.79 -180.4 -71.79L-173.06 -71.66L-173.05 -71.66Z" />
			<path id="Layer" class="shp15" d="M-222.79 -25.93C-222.41 -28.62 -221.9 -31.18 -221.27 -33.62L-219.26 -34.42L-220.6 -36.02C-219.84 -38.6 -218.95 -41.03 -217.98 -43.31L-216.08 -43.85L-217.02 -45.45C-216 -47.62 -214.9 -49.65 -213.76 -51.53L-211.99 -51.89L-212.62 -53.35C-211.35 -55.32 -210.03 -57.12 -208.73 -58.75L-206.86 -58.96L-207.36 -60.42C-205.84 -62.21 -204.35 -63.76 -202.98 -65.09L-201.1 -65.2L-201.43 -66.54C-198.08 -69.57 -195.72 -71.04 -195.72 -71.04L-191.47 -69.75C-191.47 -69.75 -189.44 -70.86 -187.77 -71.97C-187.77 -71.97 -186.66 -75.66 -186.29 -77.7C-185.92 -79.73 -184.82 -78.81 -184.45 -78.25C-184.08 -77.7 -180.24 -73.45 -180.24 -73.45C-180.24 -73.45 -177.95 -73.76 -176.31 -73.45C-173.91 -72.98 -172.8 -71.37 -170.03 -68.73C-168.01 -66.81 -166.79 -65.13 -166.1 -63.32C-165.41 -61.52 -166.24 -61.52 -165.96 -59.86C-165.68 -58.2 -158.2 -45.72 -157.37 -44.19C-156.53 -42.67 -154.53 -38.01 -158.47 -35.04C-159.58 -34.21 -160.42 -33.8 -161.11 -33.52C-161.11 -33.52 -162.22 -33.8 -162.63 -34.35C-162.71 -34.45 -162.75 -34.51 -162.76 -34.54C-162.78 -34.58 -162.78 -34.58 -162.76 -34.54C-162.72 -34.44 -162.62 -34.03 -163.05 -33.52C-163.74 -32.69 -164.63 -32.75 -165.13 -32.69C-165.87 -32.59 -167.21 -33.24 -168.32 -34.91C-169.43 -36.57 -170.12 -37.12 -170.95 -38.09C-171.78 -39.06 -176.37 -41.21 -178.16 -44.19C-178.58 -44.89 -179.55 -44.61 -180.24 -44.05C-180.93 -43.5 -184.82 -43.36 -186.48 -46.14C-186.48 -46.14 -187.26 -38.84 -183.98 -33.8C-178.58 -25.48 -169.43 -23.4 -166.65 -15.64L-223.52 -15.64C-223.52 -18.32 -223.37 -20.89 -223.12 -23.37L-221.23 -24.37L-222.81 -25.91L-222.79 -25.93Z" />
			<path id="Layer" class="shp34" d="M-193.5 -67.9C-193.5 -67.9 -217.71 -49.78 -217.71 -17.06" />
			<path id="Layer" class="shp34" d="M-162.76 -34.54C-162.78 -34.58 -162.78 -34.58 -162.76 -34.54Z" />
			<path id="Layer" class="shp34" d="M-188.51 -55.33C-188.97 -50.16 -186.57 -46.46 -186.48 -46.14C-186.48 -46.14 -192.3 -49.14 -192.85 -53.11" />
			<path id="Layer" class="shp34" d="M-186.48 -46.13C-186.48 -46.13 -190.36 -44.23 -193.23 -45.44" />
			<path id="Layer" class="shp34" d="M-162.63 -34.35C-162.63 -34.35 -165.22 -37.68 -165.96 -39.2" />
			<path id="Layer" class="shp34" d="M-178.58 -65.26C-178.58 -65.26 -174.32 -65.24 -172.9 -62.91C-170.96 -59.72 -173.17 -59.3 -173.17 -59.3C-173.17 -59.3 -175.39 -58.61 -176.92 -60.69C-178.54 -62.9 -177.19 -64.29 -177.19 -64.29L-178.57 -65.26L-178.58 -65.26Z" />
			<path id="Layer" class="shp34" d="M-157.92 -41.56C-159.45 -41.98 -160.42 -41.84 -161.11 -41.42C-161.11 -41.42 -160.42 -43.5 -161.66 -45.3C-162.91 -47.11 -164.99 -47.24 -166.79 -50.71" />
			<path id="Layer" class="shp34" d="M-198.4 -63.32L-201.03 -64.98" />
			<path id="Layer" class="shp34" d="M-203.81 -57.36L-206.44 -58.61" />
			<path id="Layer" class="shp34" d="M-208.66 -50.44L-211.71 -51.69" />
			<path id="Layer" class="shp34" d="M-212.54 -42.53L-215.73 -43.64" />
			<path id="Layer" class="shp34" d="M-215.59 -33.24L-218.92 -34.21" />
			<path id="Layer" class="shp34" d="M-217.39 -23.81L-220.86 -24.23" />
			<path id="Layer" class="shp32" d="M-173.1 14.83C-173.1 14.83 -174.21 8.87 -174.21 8.04C-174.21 7.2 -175.04 7.07 -175.87 8.18C-176.7 9.29 -180.45 14.69 -180.45 14.69L-173.11 14.82L-173.1 14.83Z" />
			<path id="Layer" class="shp32" d="M-222.84 60.56C-222.46 57.87 -221.95 55.31 -221.32 52.87L-219.31 52.07L-220.65 50.47C-219.89 47.89 -219 45.46 -218.03 43.18L-216.13 42.64L-217.06 41.04C-216.04 38.87 -214.95 36.84 -213.81 34.96L-212.04 34.6L-212.67 33.14C-211.39 31.17 -210.08 29.37 -208.78 27.74L-206.91 27.53L-207.41 26.07C-205.88 24.28 -204.4 22.73 -203.03 21.4L-201.15 21.29L-201.48 19.95C-198.13 16.92 -195.77 15.45 -195.77 15.45L-191.52 16.74C-191.52 16.74 -189.48 15.63 -187.82 14.52C-187.82 14.52 -186.71 10.83 -186.34 8.79C-185.97 6.76 -184.86 7.69 -184.49 8.24C-184.12 8.79 -180.29 13.05 -180.29 13.05C-180.29 13.05 -177.99 12.73 -176.36 13.05C-173.96 13.51 -172.85 15.13 -170.08 17.76C-168.05 19.68 -166.84 21.36 -166.15 23.17C-165.46 24.97 -166.29 24.97 -166.01 26.63C-165.73 28.3 -158.25 40.77 -157.41 42.3C-156.58 43.82 -154.57 48.49 -158.52 51.45C-159.63 52.28 -160.47 52.69 -161.16 52.97C-161.16 52.97 -162.27 52.69 -162.68 52.14C-162.76 52.04 -162.79 51.98 -162.81 51.95C-162.83 51.91 -162.83 51.91 -162.81 51.95C-162.77 52.06 -162.67 52.46 -163.1 52.97C-163.79 53.8 -164.68 53.74 -165.18 53.8C-165.92 53.9 -167.26 53.25 -168.37 51.59C-169.48 49.92 -170.17 49.37 -171 48.4C-171.83 47.43 -176.42 45.28 -178.21 42.3C-178.63 41.6 -179.6 41.88 -180.29 42.44C-180.98 42.99 -184.86 43.13 -186.53 40.36C-186.53 40.36 -187.31 47.65 -184.03 52.69C-178.63 61.01 -169.48 63.09 -166.7 70.85L-223.57 70.85C-223.57 68.17 -223.43 65.6 -223.18 63.12L-221.29 62.12L-222.87 60.56L-222.84 60.56Z" />
			<path id="Layer" class="shp33" d="M-193.55 18.59C-193.55 18.59 -217.76 36.71 -217.76 69.42" />
			<path id="Layer" class="shp34" d="M-162.81 51.73C-162.83 51.7 -162.83 51.7 -162.81 51.73Z" />
			<path id="Layer" class="shp33" d="M-188.56 31.16C-189.02 36.33 -186.62 40.03 -186.53 40.35C-186.53 40.35 -192.35 37.35 -192.9 33.38" />
			<path id="Layer" class="shp33" d="M-186.53 40.35C-186.53 40.35 -190.41 42.25 -193.28 41.04" />
			<path id="Layer" class="shp34" d="M-162.68 51.93C-162.68 51.93 -165.27 48.6 -166.01 47.08" />
			<path id="Layer" class="shp33" d="M-178.63 21.22C-178.63 21.22 -174.37 21.24 -172.95 23.58C-171 26.77 -173.22 27.18 -173.22 27.18C-173.22 27.18 -175.44 27.87 -176.97 25.79C-178.59 23.58 -177.24 22.19 -177.24 22.19L-178.62 21.22L-178.63 21.22Z" />
			<path id="Layer" class="shp33" d="M-157.97 44.72C-159.5 44.3 -160.47 44.44 -161.16 44.86C-161.16 44.86 -160.47 42.78 -161.71 40.98C-162.96 39.17 -165.04 39.04 -166.84 35.57" />
			<path id="Layer" class="shp33" d="M-198.45 23.17L-201.08 21.5" />
			<path id="Layer" class="shp33" d="M-203.86 29.13L-206.49 27.88" />
			<path id="Layer" class="shp33" d="M-208.71 36.04L-211.76 34.79" />
			<path id="Layer" class="shp33" d="M-212.59 43.96L-215.78 42.85" />
			<path id="Layer" class="shp33" d="M-215.64 53.25L-218.97 52.28" />
			<path id="Layer" class="shp33" d="M-217.44 62.67L-220.91 62.26" />
		</g>
	</g>
</svg>