<svg xmlns="http://www.w3.org/2000/svg" viewBox="0 0 75 83" width="75" height="83">
	<style>
		tspan { white-space:pre }
		.shp0 { fill: #000000;stroke: #000000;stroke-width: 0.31 } 
		.shp1 { fill: #000000 } 
		.shp2 { fill: #000000;stroke: #ffffff;stroke-linecap:round;stroke-width: 1.009 } 
		.shp3 { fill: none;stroke: #ffffff;stroke-linejoin:bevel;stroke-width: 0.62 } 
		.shp4 { fill: none;stroke: #ffffff;stroke-linecap:round;stroke-width: 1.009 } 
		.shp5 { fill: #ffffff;stroke: #000000;stroke-width: 0.317 } 
		.shp6 { fill: none;stroke: #ffffff;stroke-width: 0.62 } 
		.shp7 { fill: #ffffff;stroke: #20201e;stroke-width: 1.211 } 
		.shp8 { fill: #ffffff;stroke: #20201e;stroke-linejoin:round;stroke-width: 1.211 } 
		.shp9 { fill: #ffffff;stroke: #20201e;stroke-linejoin:bevel;stroke-width: 1.211 } 
		.shp10 { fill: #000000;stroke: #000000;stroke-linejoin:bevel;stroke-width: 0.853 } 
		.shp11 { fill: #000000;stroke: #ffffff;stroke-linecap:round;stroke-width: 0.926 } 
		.shp12 { fill: none;stroke: #ffffff;stroke-linecap:round;stroke-width: 0.926 } 
		.shp13 { fill: #ffffff } 
		.shp14 { fill: #ffffff;stroke: #20201e;stroke-linejoin:bevel;stroke-width: 1.111 } 
		.shp15 { fill: #ffffff;stroke: #20201e;stroke-width: 1.111 } 
		.shp16 { fill: #000000;stroke: #000000;stroke-linecap:square;stroke-width: 0.853 } 
		.shp17 { fill: none;stroke: #ffffff;stroke-linecap:round;stroke-width: 0.853 } 
		.shp18 { fill: #ffffff;stroke: #20201e;stroke-linejoin:round;stroke-width: 1.111 } 
		.shp19 { fill: #ffffff;stroke: #20201e;stroke-linecap:square;stroke-width: 1.111 } 
		.shp20 { fill: #20201e } 
		.shp21 { fill: #ffffff;stroke: #20201e;stroke-width: 1.32 } 
		.shp22 { fill: #000000;stroke: #000000;stroke-width: 0.533 } 
		.shp23 { fill: #ffffff;stroke: #000000;stroke-linejoin:bevel;stroke-width: 1.014 } 
		.shp24 { fill: #000000;stroke: #000000;stroke-linejoin:bevel;stroke-width: 0.533 } 
		.shp25 { fill: none;stroke: #ffffff;stroke-linecap:round;stroke-linejoin:bevel;stroke-width: 0.533 } 
		.shp26 { fill: none;stroke: #ffffff;stroke-linecap:round;stroke-width: 0.533 } 
		.shp27 { fill: #ffffff;stroke: #000000;stroke-width: 0.533 } 
		.shp28 { fill: #ffffff;stroke: #20201e;stroke-linecap:round;stroke-linejoin:round;stroke-width: 1.32 } 
		.shp29 { fill: #ffffff;stroke: #20201e;stroke-linejoin:bevel;stroke-width: 1.32 } 
		.shp30 { fill: #ffffff;stroke: #000000;stroke-width: 1.014 } 
		.shp31 { fill: #ffffff;stroke: #000000;stroke-width: 0.77 } 
		.shp32 { fill: #20201e;stroke: #20201e;stroke-width: 0.853 } 
		.shp33 { fill: none;stroke: #ffffff;stroke-width: 0.853 } 
		.shp34 { fill: none;stroke: #20201e;stroke-width: 0.853 } 
		.shp35 { fill: #000000;stroke: #000000;stroke-linejoin:round;stroke-width: 0.79 } 
		.shp36 { fill: #ffffff;stroke: #000000;stroke-linejoin:round;stroke-width: 1.111 } 
	</style>
	<g id="Layer">
		<g id="Layer">
			<path id="Layer" class="shp0" d="M273.26 28.52C274.61 27.72 275.18 26.65 275.18 25.47C275.18 25.13 275.23 8.89 275.23 8.89L259.13 8.89C259.13 8.89 259.06 25.27 259.06 25.47C259.06 26.66 259.9 27.74 261.27 28.54C260.3 28.68 259.34 28.85 258.39 29.06C259.91 30.03 261.34 31.16 262.67 32.45C264.54 34.28 266.1 36.3 267.32 38.48C268.54 36.3 270.09 34.28 271.97 32.45C273.3 31.16 274.73 30.03 276.25 29.06C275.28 28.85 274.28 28.68 273.28 28.53L273.26 28.52Z" />
			<path id="Layer" class="shp1" d="M288.07 65.43C287.07 63.43 287.05 60.82 287.49 59.06C287.94 57.24 292.24 53.81 292.24 53.81C299.81 46.45 301.54 35.95 296.11 30.36C290.68 24.78 280.14 26.23 272.57 33.59C270.31 35.79 268.57 38.27 267.39 40.82C266.2 38.27 264.47 35.79 262.21 33.59C254.64 26.23 244.1 24.78 238.66 30.36C233.23 35.95 234.97 46.45 242.54 53.81C242.88 54.14 246.65 57.24 247.1 59.06C247.56 60.87 247.62 63.48 246.53 65.5L246.69 65.5C246.67 65.51 246.65 65.52 246.62 65.53C252.89 68.62 259.94 70.36 267.39 70.36C274.84 70.35 281.79 68.51 288.06 65.42" />
			<g id="Layer">
				<path id="Layer" class="shp2" d="M247.72 65.06C253.75 62.25 260.42 60.69 267.51 60.69C274.32 60.69 280.86 62.36 286.69 64.73" />
				<path id="Layer" class="shp2" d="M289.59 53.38C283.31 51.25 275.62 49.99 267.3 49.99C258.92 49.99 251.16 51.27 244.85 53.44" />
			</g>
			<path id="Layer" class="shp3" d="M273.92 10.06L260.41 22.17L273.92 22.17L260.41 10.06L273.92 10.06Z" />
			<path id="Layer" class="shp4" d="M285.66 60.77C279.88 58.74 273.73 57.27 267.35 57.27C260.84 57.27 254.58 58.78 248.7 60.88" />
			<path id="Layer" class="shp5" d="M264.18 53.96L267.35 55.54L270.52 53.96L267.35 52.37L264.18 53.96Z" />
			<path id="Layer" class="shp5" d="M251.23 56.02L254.61 57.07L257.48 55L254.1 53.94L251.23 56.02Z" />
			<path id="Layer" class="shp5" d="M283.48 56.02L280.09 57.07L277.22 55L280.6 53.94L283.48 56.02Z" />
			<path id="Layer" class="shp3" d="M260.41 10.06L273.93 10.06L273.93 22.17L260.41 22.17L260.41 10.06Z" />
			<path id="Layer" class="shp6" d="M267.28 31.89C264.13 31.89 261.58 30.01 261.58 27.68C261.58 25.35 264.13 23.47 267.28 23.47C270.43 23.47 272.98 25.35 272.98 27.68C272.98 30.01 270.43 31.89 267.28 31.89Z" />
			<path id="Layer" class="shp7" d="M275.26 -79.36L259.16 -79.36L259.16 -62.53C259.16 -60.05 262.78 -58.04 267.25 -58.04C271.72 -58.04 275.23 -60.05 275.23 -62.53C275.23 -62.75 275.26 -79.36 275.26 -79.36L275.26 -79.36Z" />
			<path id="Layer" class="shp7" d="M259.16 -79.36L275.26 -79.36L275.26 -64.93L259.16 -64.93L259.16 -79.36Z" />
			<path id="Layer" class="shp7" d="M259.16 -79.36L275.26 -64.93" />
			<path id="Layer" class="shp7" d="M275.26 -79.36L259.16 -64.93" />
			<path id="Layer" class="shp8" d="M288 -22.86C281.74 -25.95 274.93 -27.58 267.47 -27.58C260.01 -27.58 252.88 -25.84 246.62 -22.75C252.88 -19.66 259.89 -17.88 267.35 -17.88C274.81 -17.87 281.74 -19.76 288 -22.85L288 -22.86Z" />
			<path id="Layer" class="shp9" d="M291.13 -33.46C291.49 -33.77 291.85 -34.1 292.2 -34.44C299.77 -41.8 301.5 -52.3 296.07 -57.88C290.63 -63.47 280.1 -62.02 272.53 -54.65C270.26 -52.45 268.53 -49.97 267.34 -47.43C266.16 -49.97 264.42 -52.45 262.16 -54.65C254.59 -62.02 244.05 -63.47 238.62 -57.88C233.19 -52.3 234.92 -41.8 242.49 -34.44C242.84 -34.1 243.2 -33.77 243.56 -33.46C250.1 -35.91 258.36 -37.38 267.35 -37.38C276.33 -37.38 284.59 -35.91 291.12 -33.46L291.13 -33.46Z" />
			<path id="Layer" class="shp7" d="M267.35 -47.42C268.53 -49.96 270.27 -52.44 272.53 -54.64C274.37 -56.44 276.4 -57.88 278.48 -58.95C275.03 -59.92 271.28 -60.46 267.36 -60.46C263.43 -60.46 259.68 -59.92 256.23 -58.95C258.31 -57.88 260.33 -56.44 262.17 -54.64C264.43 -52.44 266.16 -49.96 267.35 -47.42L267.35 -47.42Z" />
			<path id="Layer" class="shp9" d="M291.04 -33.46L291.04 -33.47C284.5 -35.92 276.25 -37.38 267.27 -37.38C258.28 -37.38 250.02 -35.91 243.48 -33.46C243.48 -33.46 246.61 -31 247.07 -29.19C247.52 -27.38 247.72 -24.78 246.63 -22.76C252.89 -25.85 260.02 -27.58 267.48 -27.58C274.79 -27.58 281.84 -25.84 288.01 -22.86C287.01 -24.86 287.01 -27.43 287.45 -29.19C287.9 -30.99 291.04 -33.45 291.04 -33.45L291.04 -33.46Z" />
			<path id="Layer" class="shp9" d="M246.62 -22.75C252.88 -25.84 260.02 -27.57 267.47 -27.57C274.79 -27.57 281.83 -25.84 288 -22.86C287.58 -23.71 287.13 -25.89 287.2 -27.1C281 -29.54 274.33 -30.87 267.37 -30.87C260.34 -30.87 253.6 -29.51 247.33 -27.02C247.41 -24.77 247.09 -23.64 246.62 -22.76L246.62 -22.75Z" />
			<path id="Layer" class="shp1" d="M264.29 -34.04L267.39 -32.49L270.48 -34.04L267.39 -35.59L264.29 -34.04Z" />
			<path id="Layer" class="shp1" d="M251.62 -32.02L254.92 -30.99L257.73 -33.02L254.43 -34.05L251.62 -32.02Z" />
			<path id="Layer" class="shp1" d="M283.15 -32.02L279.85 -30.99L277.04 -33.02L280.34 -34.05L283.15 -32.02Z" />
			<path id="Layer" class="shp7" d="M267.35 -56.02C264.2 -56.02 261.65 -57.9 261.65 -60.23C261.65 -62.56 264.2 -64.44 267.35 -64.44C270.5 -64.44 273.05 -62.56 273.05 -60.23C273.05 -57.9 270.5 -56.02 267.35 -56.02Z" />
			<path id="Layer" class="shp10" d="M377.7 23.6C378.55 22.14 378.06 20.27 376.6 19.42C375.14 18.56 373.27 19.06 372.42 20.52C371.69 21.77 371.95 23.32 372.95 24.27C368.79 29.32 361.19 38.54 359.35 40.77C358.81 40.53 358.25 40.3 357.67 40.09C357.84 38.38 359.04 25.3 359.68 18.34C361.07 18.37 362.35 17.45 362.71 16.05C363.13 14.42 362.15 12.75 360.52 12.33C358.88 11.9 357.21 12.88 356.79 14.52C356.42 15.92 357.1 17.35 358.33 17.99C355.31 24.83 349.47 38.1 349.45 38.15C349.45 38.17 349.45 38.18 349.45 38.19C348.92 38.13 348.37 38.08 347.82 38.03C347.71 37.29 345.2 21.91 343.89 13.9C345.39 13.55 346.51 12.2 346.51 10.59C346.51 8.72 344.99 7.19 343.11 7.19C341.24 7.19 339.72 8.72 339.72 10.59C339.72 12.2 340.84 13.55 342.34 13.9C341.04 21.87 338.55 37.15 338.42 38.02C337.83 38.06 337.27 38.12 336.71 38.18C336.71 38.16 336.71 38.15 336.7 38.13C336.69 38.07 330.84 24.8 327.83 17.97C329.06 17.32 329.73 15.9 329.37 14.49C328.94 12.86 327.28 11.88 325.64 12.3C324.01 12.72 323.02 14.39 323.45 16.03C323.81 17.43 325.09 18.35 326.48 18.32C327.11 25.26 328.32 38.32 328.48 40.06C327.91 40.26 327.37 40.49 326.84 40.72C324.93 38.4 317.41 29.29 313.27 24.28C314.28 23.32 314.54 21.77 313.81 20.52C312.96 19.06 311.09 18.57 309.63 19.42C308.17 20.27 307.68 22.14 308.53 23.6C309.26 24.85 310.74 25.39 312.07 24.98C314.55 31.46 322.58 52.31 322.89 52.6L322.89 52.6C322.9 52.63 323.69 57.8 323.77 59.52C323.86 61.22 323.12 65.4 323.17 65.42L323.17 65.43C323.17 65.43 323.17 65.42 323.18 65.42C329.13 68.21 335.91 69.78 343.18 69.78C350.52 69.78 363.77 65.29 363.71 65.26C362.84 63.43 363.17 52.59 363.17 52.59C363.48 52.3 371.61 31.63 374.16 24.98C375.47 25.39 376.95 24.85 377.68 23.6" />
			<g id="Layer">
				<path id="Layer" class="shp11" d="M324.65 64.18C330.91 61.6 336.77 60.49 343.95 60.49C350.85 60.49 356.37 61.63 362.14 64.03" />
				<path id="Layer" class="shp11" d="M360.95 52.09C355.86 50.13 349.62 48.98 342.88 48.98C336.08 48.98 329.79 50.15 324.67 52.14" />
			</g>
			<path id="Layer" class="shp12" d="M361.56 60.61C355.92 58.75 350.19 57.4 343.72 57.4C337.14 57.4 330.8 58.79 324.85 60.72" />
			<path id="Layer" class="shp13" d="M340.3 53.65L343.14 55.07L345.99 53.65L343.14 52.23L340.3 53.65Z" />
			<path id="Layer" class="shp13" d="M357.61 55.5L354.58 56.45L352 54.59L355.03 53.64L357.61 55.5Z" />
			<path id="Layer" class="shp13" d="M328.68 55.5L331.71 56.45L334.29 54.59L331.26 53.64L328.68 55.5Z" />
			<path id="Layer" class="shp14" d="M363.22 -20.64C357.15 -23.48 350.51 -24.97 343.17 -24.97C335.82 -24.97 328.71 -23.34 322.44 -20.5C328.51 -17.67 335.39 -16.07 342.73 -16.07C350.08 -16.06 356.96 -17.8 363.22 -20.63L363.22 -20.64Z" />
			<path id="Layer" class="shp14" d="M362.77 -33.37L362.77 -33.38C357.31 -35.62 350.97 -36.99 342.73 -36.99C334.48 -36.99 328.11 -35.62 322.49 -33.37C322.49 -33.37 323.1 -28.17 323.13 -26.45C323.16 -24.51 322.62 -20.54 322.62 -20.54C328.88 -23.37 335.83 -24.97 343.17 -24.97C350.37 -24.97 357.68 -23.49 363.22 -20.64C362.31 -22.46 362.77 -33.36 362.77 -33.36L362.77 -33.37Z" />
			<path id="Layer" class="shp14" d="M322.64 -20.57C328.54 -23.37 335.83 -24.97 343.17 -24.97C350.37 -24.97 356.41 -23.95 363.22 -20.64C362.95 -21.41 362.76 -23.78 362.71 -24.65C356.68 -26.89 350.03 -28.16 343.18 -28.16C336.26 -28.16 329.3 -26.82 323.05 -24.53C322.92 -23.64 322.64 -20.58 322.64 -20.58L322.64 -20.57Z" />
			<path id="Layer" class="shp15" d="M376.3 -66.55C374.84 -67.4 372.97 -66.9 372.12 -65.44C371.39 -64.19 371.65 -62.64 372.65 -61.69C368.49 -56.64 360.88 -47.42 359.05 -45.19C358.51 -45.43 357.95 -45.66 357.37 -45.87C357.53 -47.58 358.74 -60.66 359.38 -67.62C360.77 -67.59 362.05 -68.51 362.41 -69.91C362.83 -71.54 361.85 -73.21 360.21 -73.64C358.58 -74.06 356.91 -73.08 356.49 -71.44C356.12 -70.04 356.8 -68.61 358.03 -67.97C355.01 -61.13 349.17 -47.86 349.15 -47.81C349.15 -47.79 349.15 -47.78 349.15 -47.77C348.62 -47.83 348.07 -47.89 347.51 -47.93C347.4 -48.67 344.9 -64.05 343.59 -72.06C345.09 -72.41 346.21 -73.76 346.21 -75.37C346.21 -77.24 344.69 -78.77 342.81 -78.77C340.94 -78.77 339.41 -77.24 339.41 -75.37C339.41 -73.76 340.54 -72.41 342.04 -72.06C340.74 -64.09 338.24 -48.81 338.11 -47.94C337.53 -47.9 336.96 -47.84 336.41 -47.78C336.41 -47.8 336.41 -47.81 336.4 -47.83C336.39 -47.89 330.54 -61.16 327.53 -67.99C328.76 -68.64 329.43 -70.06 329.07 -71.47C328.64 -73.1 326.97 -74.08 325.34 -73.66C323.71 -73.24 322.72 -71.57 323.15 -69.93C323.51 -68.53 324.79 -67.61 326.18 -67.64C326.81 -60.7 328.01 -47.65 328.18 -45.9C327.61 -45.7 327.06 -45.47 326.54 -45.24C324.63 -47.56 317.11 -56.67 312.97 -61.69C313.98 -62.64 314.24 -64.19 313.51 -65.44C312.66 -66.9 310.79 -67.4 309.33 -66.54C307.87 -65.69 307.38 -63.82 308.23 -62.36C308.96 -61.11 310.44 -60.57 311.77 -60.98C314.25 -54.5 322.28 -33.65 322.59 -33.37C328.12 -35.62 334.49 -36.99 342.73 -36.99C350.98 -36.99 357.34 -35.62 362.87 -33.37C363.18 -33.66 371.31 -54.33 373.86 -60.98C375.19 -60.57 376.67 -61.11 377.4 -62.36C378.22 -63.82 377.73 -65.69 376.27 -66.54L376.3 -66.55Z" />
			<path id="Layer" class="shp1" d="M340 -32.38L342.84 -30.96L345.69 -32.38L342.84 -33.8L340 -32.38Z" />
			<path id="Layer" class="shp1" d="M328.38 -30.54L331.41 -29.6L333.99 -31.46L330.96 -32.4L328.38 -30.54Z" />
			<path id="Layer" class="shp1" d="M357.31 -30.53L354.28 -29.58L351.7 -31.44L354.73 -32.39L357.31 -30.53Z" />
			<g id="Layer">
				<path id="Layer" class="shp16" d="M60.63 64.65L59.66 64.65L59.66 58.83L55 53.6L54.95 53.6L54.95 22.78L55 22.78L61.07 16.98L61.11 16.98L61.11 7.04C61.11 6.18 60.43 5.47 59.6 5.47L51.21 5.47L51.21 10.87L46.49 12.43L42.15 10.87L42.15 5.47L31.8 5.47L31.8 10.87L27.45 12.43L22.74 10.87L22.74 5.47L14.35 5.47C13.52 5.47 12.84 6.18 12.84 7.04L12.84 16.98L12.86 16.98L18.95 22.78L18.95 53.6L14.29 58.83L14.29 64.65L13.32 64.65C12.45 64.65 11.74 65.35 11.74 66.22L11.74 69.92C11.74 70.78 12.45 71.49 13.32 71.49L60.63 71.49C61.5 71.49 62.2 70.78 62.2 69.92L62.2 66.22C62.2 65.36 61.5 64.65 60.63 64.65L60.63 64.65Z" />
				<path id="Layer" class="shp17" d="M15.82 64.65L57.78 64.65" />
				<path id="Layer" class="shp17" d="M16.01 58.83L57.6 58.83" />
				<path id="Layer" class="shp17" d="M53.16 53.61L20.07 53.61" />
				<path id="Layer" class="shp17" d="M20.26 22.79L53.35 22.79" />
				<path id="Layer" class="shp17" d="M14.9 16.98L59.81 16.98" />
			</g>
			<path id="Layer" class="shp15" d="M60.28 -14.41C61.15 -14.41 61.85 -15.11 61.85 -15.98L61.85 -19.68C61.85 -20.55 61.15 -21.25 60.28 -21.25L12.96 -21.25C12.09 -21.25 11.39 -20.55 11.39 -19.68L11.39 -15.98C11.39 -15.11 12.09 -14.41 12.96 -14.41L60.28 -14.41Z" />
			<path id="Layer" class="shp15" d="M13.93 -27.07L59.31 -27.07L59.31 -21.25L13.93 -21.25L13.93 -27.07Z" />
			<path id="Layer" class="shp14" d="M59.31 -27.07L54.64 -32.3L18.6 -32.3L13.93 -27.07L59.31 -27.07Z" />
			<path id="Layer" class="shp18" d="M60.73 -68.94L54.64 -63.12L18.6 -63.12L12.49 -68.94L60.73 -68.94Z" />
			<path id="Layer" class="shp15" d="M18.6 -63.12L54.59 -63.12L54.59 -32.3L18.6 -32.3L18.6 -63.12Z" />
			<path id="Layer" class="shp19" d="M59.25 -80.43L50.85 -80.43L50.85 -75.03L46.14 -73.47L41.79 -75.03L41.79 -80.43L31.44 -80.43L31.44 -75.03L27.1 -73.47L22.39 -75.03L22.39 -80.43L13.99 -80.43C13.16 -80.43 12.49 -79.73 12.49 -78.86L12.49 -68.92L60.75 -68.92L60.75 -78.86C60.75 -79.73 60.08 -80.43 59.25 -80.43L59.25 -80.43Z" />
			<path id="Layer" class="shp20" d="M228.87 69.82C228.25 69.48 222.62 63.95 217.4 63.95C214.69 63.95 212.56 64.77 210.69 65.49C208.79 66.23 206.99 66.92 204.39 66.92C201.36 66.92 198.85 65.99 196.63 65.18C194.84 64.52 193.29 63.95 191.71 63.95C190.13 63.95 188.58 64.52 186.79 65.18C184.57 65.99 182.06 66.92 179.03 66.92C176.43 66.92 174.63 66.23 172.73 65.49C170.85 64.77 168.73 63.95 166.02 63.95C160.8 63.95 155.17 69.48 154.55 69.82C154.55 69.82 156.82 68.4 158.93 68.4C161.05 68.4 162.88 69.88 166.02 69.88C167.63 69.88 168.94 70.39 170.6 71.03C172.71 71.84 175.32 72.85 179.03 72.85C183.11 72.85 186.42 71.63 188.84 70.74C189.94 70.34 191.18 69.88 191.71 69.88C192.24 69.88 193.48 70.34 194.58 70.74C197 71.63 200.31 72.85 204.39 72.85C208.09 72.85 210.71 71.84 212.82 71.03C214.48 70.39 215.79 69.88 217.4 69.88C220.54 69.88 222.92 68.4 224.49 68.4C226.05 68.4 228.9 69.82 228.9 69.82L228.87 69.82Z" />
			<path id="Layer" class="shp21" d="M211.64 35.91C211.64 26.56 203.66 11.73 197.55 9.72C197.34 9.65 197.12 9.59 196.89 9.55C197.96 9.15 198.72 8.13 198.72 6.93C198.72 5.38 197.47 4.13 195.93 4.13C194.38 4.13 193.13 5.38 193.13 6.93C193.13 8 193.74 8.93 194.62 9.4C193.37 9.48 192.02 9.81 190.62 10.37C189.73 9.96 188.85 9.67 187.98 9.51C189 9.1 189.72 8.1 189.72 6.93C189.72 5.38 188.47 4.13 186.92 4.13C185.38 4.13 184.13 5.38 184.13 6.93C184.13 8.02 184.75 8.96 185.66 9.42C185.19 9.47 184.72 9.57 184.27 9.72C178.17 11.73 170.37 26.01 170.37 35.91C170.37 43.81 173.57 50.61 177.26 55.54C177.81 57 178.65 57.04 178.83 57.22C178.83 57.22 178.83 57.22 178.83 57.22C178.83 57.24 178.1 61.98 178.03 63.05C177.92 64.7 177.75 66.64 177.75 66.64C181.78 68.42 186.2 69.45 190.99 69.45C195.79 69.45 199.99 68.32 204.02 66.54C203.87 65.23 203.71 63.91 203.38 61.93C203.21 60.9 202.62 57.22 202.62 57.22C202.8 57.04 203.88 55.67 203.88 55.67C207.8 50.72 211.63 44.12 211.63 35.91L211.64 35.91Z" />
			<path id="Layer" class="shp22" d="M178.93 57.22C182.2 55.81 185.96 54.58 190.83 54.58C195.69 54.58 199.45 55.81 202.72 57.22C202.9 57.04 203.32 56.58 204.21 55.34C201.46 52.37 197.45 50.73 190.91 50.73C183.92 50.73 180.11 52.56 177.36 55.54C177.92 56.99 178.76 57.04 178.94 57.22L178.93 57.22Z" />
			<path id="Layer" class="shp23" d="M203.91 66.54C199.88 64.77 195.76 63.89 190.96 63.89C186.16 63.89 181.67 64.87 177.64 66.64C181.67 68.41 186.09 69.44 190.89 69.44C195.69 69.44 199.89 68.31 203.92 66.54L203.91 66.54Z" />
			<path id="Layer" class="shp22" d="M203.8 55.67C206.34 51.43 209.68 43.43 205.5 29.81C202 18.39 191.69 7.24 184.19 9.72C177.53 11.91 170.29 27.65 170.29 35.9C170.29 43.8 173.49 50.61 177.18 55.53L203.81 55.66L203.8 55.67Z" />
			<path id="Layer" class="shp22" d="M186.84 9.72C185.29 9.72 184.04 8.47 184.04 6.92C184.04 5.37 185.29 4.12 186.84 4.12C188.39 4.12 189.64 5.37 189.64 6.92C189.64 8.47 188.39 9.72 186.84 9.72Z" />
			<path id="Layer" class="shp24" d="M202.53 57.21L202.53 57.21C199.26 55.8 195.5 54.62 190.64 54.62C185.77 54.62 182.01 55.8 178.75 57.21C178.75 57.21 178.01 61.97 177.94 63.04C177.83 64.69 177.67 66.64 177.67 66.64C181.69 64.87 186.19 63.89 190.98 63.89C195.69 63.89 199.96 64.83 203.93 66.54C203.79 65.22 203.62 63.9 203.29 61.93C203.11 60.89 202.52 57.2 202.52 57.2L202.53 57.21Z" />
			<path id="Layer" class="shp25" d="M202.41 63.59C198.79 62.47 194.92 61.85 190.93 61.85C186.87 61.85 182.72 62.51 179 63.68" />
			<g id="Layer">
				<path id="Layer" class="shp26" d="M179.78 56.78C182.81 55.56 186.28 54.57 190.64 54.57C195.03 54.57 198.51 55.57 201.55 56.8" />
				<path id="Layer" class="shp26" d="M203.52 54.63C199.68 51.56 196.6 50.73 190.91 50.73C186.15 50.73 181.23 52 178.87 54.15" />
			</g>
			<path id="Layer" class="shp27" d="M197.59 30.71L196.29 32.02L189.71 32.02L189.71 26.08L191.02 24.77L188.38 22.13L185.74 24.77L187.06 26.09L187.06 32.02L180.44 32.02L179.13 30.71L176.49 33.35L179.13 35.99L180.46 34.67L187.06 34.67L187.06 41.91L185.74 43.23L188.38 45.87L191.02 43.23L189.71 41.92L189.71 34.67L196.27 34.67L197.59 35.99L200.23 33.35L197.59 30.71Z" />
			<path id="Layer" class="shp28" d="M227.83 -16.04C227.21 -16.38 221.58 -21.91 216.36 -21.91C213.65 -21.91 211.52 -21.09 209.65 -20.37C207.75 -19.63 205.95 -18.94 203.35 -18.94C200.32 -18.94 197.81 -19.87 195.59 -20.68C193.8 -21.34 192.25 -21.91 190.67 -21.91C189.09 -21.91 187.54 -21.34 185.75 -20.68C183.53 -19.87 181.02 -18.94 177.99 -18.94C175.39 -18.94 173.59 -19.63 171.69 -20.37C169.81 -21.09 167.69 -21.91 164.97 -21.91C159.76 -21.91 154.13 -16.38 153.51 -16.04C153.51 -16.04 155.9 -17.46 157.89 -17.46C159.88 -17.46 161.84 -15.98 164.97 -15.98C166.58 -15.98 167.9 -15.47 169.56 -14.83C171.66 -14.02 174.28 -13.01 177.99 -13.01C182.07 -13.01 185.38 -14.23 187.8 -15.12C188.9 -15.52 190.14 -15.98 190.67 -15.98C191.2 -15.98 192.44 -15.52 193.54 -15.12C195.96 -14.23 199.27 -13.01 203.35 -13.01C207.05 -13.01 209.67 -14.02 211.78 -14.83C213.44 -15.47 214.75 -15.98 216.36 -15.98C219.5 -15.98 220.8 -17.46 223.45 -17.46C226.12 -17.46 227.86 -16.04 227.86 -16.04L227.83 -16.04Z" />
			<path id="Layer" class="shp21" d="M196.42 -76.14C196.21 -76.21 195.99 -76.26 195.77 -76.31C196.83 -76.71 197.59 -77.73 197.59 -78.93C197.59 -80.47 196.34 -81.73 194.8 -81.73C193.25 -81.73 192 -80.47 192 -78.93C192 -77.86 192.61 -76.93 193.49 -76.46C185.47 -75.94 173.29 -65.37 172.9 -47.48C172.75 -40.37 173.65 -34.55 176.13 -30.32L202.98 -30.51C206.9 -35.46 210.51 -41.73 210.51 -49.95C210.51 -60.88 202.53 -74.14 196.42 -76.14L196.42 -76.14Z" />
			<path id="Layer" class="shp21" d="M204.46 -56.04C201.51 -65.67 193.72 -75.1 186.85 -76.34C187.87 -76.76 188.59 -77.76 188.59 -78.93C188.59 -80.47 187.34 -81.73 185.79 -81.73C184.25 -81.73 183 -80.47 183 -78.93C183 -77.84 183.62 -76.9 184.54 -76.44C184.06 -76.38 183.6 -76.29 183.14 -76.14C177.05 -74.13 169.24 -60.65 169.24 -49.95C169.24 -42.05 172.44 -35.25 176.13 -30.32L202.98 -30.51C205.52 -34.75 208.63 -42.43 204.46 -56.04L204.46 -56.04Z" />
			<path id="Layer" class="shp23" d="M202.89 -19.31C199.52 -20.86 194.74 -21.96 189.94 -21.96C185.15 -21.96 180.65 -20.98 176.63 -19.21C180.65 -17.44 185.07 -16.41 189.87 -16.41C194.67 -16.41 198.87 -17.54 202.9 -19.31L202.89 -19.31Z" />
			<path id="Layer" class="shp29" d="M201.49 -28.64L201.49 -28.64C198.22 -30.05 194.46 -31.23 189.6 -31.23C184.73 -31.23 180.97 -30.05 177.7 -28.64C177.7 -28.64 176.97 -23.88 176.9 -22.81C176.79 -21.16 176.62 -19.21 176.62 -19.21C180.65 -20.98 185.14 -21.96 189.94 -21.96C194.65 -21.96 198.92 -21.02 202.89 -19.31C202.75 -20.63 202.58 -21.95 202.25 -23.92C202.07 -24.97 201.48 -28.65 201.48 -28.65L201.49 -28.64Z" />
			<path id="Layer" class="shp29" d="M176.62 -19.21C180.65 -20.98 185.14 -21.96 189.94 -21.96C194.64 -21.96 198.91 -21.02 202.88 -19.31C202.78 -20.41 202.54 -21.1 202.38 -22.51C198.39 -23.91 194.35 -24.62 189.88 -24.62C185.35 -24.62 180.87 -23.8 176.84 -22.37C176.82 -21.13 176.61 -19.21 176.61 -19.21L176.62 -19.21Z" />
			<path id="Layer" class="shp21" d="M177.7 -28.64C180.97 -30.05 184.73 -31.25 189.6 -31.28C193.74 -31.31 198.22 -30.05 201.49 -28.64C201.67 -28.82 202.43 -29.05 202.98 -30.51C200.23 -33.49 196.14 -35.04 189.6 -35.04C182.61 -35.04 178.88 -33.3 176.13 -30.32C176.67 -28.86 177.51 -28.82 177.69 -28.64L177.7 -28.64Z" />
			<path id="Layer" class="shp30" d="M189.6 -35.04L189.6 -31.28" />
			<path id="Layer" class="shp31" d="M196.55 -55.15L195.24 -53.84L188.66 -53.84L188.66 -59.77L189.97 -61.08L187.33 -63.72L184.69 -61.08L186.01 -59.76L186.01 -53.84L179.4 -53.84L178.09 -55.15L175.45 -52.51L178.09 -49.87L179.41 -51.19L186.01 -51.19L186.01 -43.94L184.69 -42.62L187.33 -39.98L189.97 -42.62L188.66 -43.93L188.66 -51.19L195.23 -51.19L196.55 -49.87L199.19 -52.51L196.55 -55.15Z" />
			<path id="Layer" class="shp32" d="M408.04 12.5C408.04 12.5 409.15 6.54 409.15 5.71C409.15 4.87 409.98 4.74 410.81 5.85C411.64 6.95 415.39 12.36 415.39 12.36L408.04 12.49L408.04 12.5Z" />
			<path id="Layer" class="shp32" d="M457.77 58.23C457.39 55.54 456.88 52.98 456.25 50.54L454.25 49.74L455.59 48.14C454.82 45.56 453.93 43.13 452.96 40.85L451.06 40.31L452.01 38.69C450.99 36.52 449.89 34.5 448.75 32.62L446.98 32.26L447.61 30.8C446.34 28.83 445.03 27.03 443.72 25.4L441.85 25.19L442.35 23.73C440.83 21.94 439.35 20.39 437.97 19.06L436.1 18.95L436.42 17.61C433.08 14.58 430.71 13.11 430.71 13.11L426.46 14.4C426.46 14.4 424.43 13.29 422.76 12.18C422.76 12.18 421.65 8.48 421.29 6.45C420.92 4.42 419.81 5.34 419.44 5.9C419.07 6.45 415.23 10.7 415.23 10.7C415.23 10.7 412.94 10.39 411.31 10.7C408.9 11.17 407.79 12.78 405.02 15.42C403 17.34 401.78 19.02 401.09 20.82C400.4 22.63 401.23 22.63 400.95 24.29C400.68 25.95 393.19 38.43 392.36 39.95C391.53 41.48 389.52 46.14 393.47 49.1C394.57 49.94 395.41 50.35 396.1 50.63C396.1 50.63 397.21 50.35 397.63 49.8C397.7 49.7 397.74 49.64 397.76 49.6C397.77 49.57 397.78 49.57 397.76 49.6C397.71 49.71 397.62 50.12 398.04 50.63C398.73 51.46 399.63 51.4 400.12 51.46C400.86 51.55 402.2 50.91 403.31 49.24C404.42 47.58 405.11 47.02 405.94 46.05C406.77 45.08 411.36 42.94 413.15 39.95C413.57 39.26 414.54 39.54 415.23 40.09C415.93 40.65 419.81 40.79 421.47 38.01C421.47 38.01 422.26 45.31 418.97 50.35C413.57 58.67 404.42 60.75 401.65 68.51L458.49 68.51C458.49 65.83 458.34 63.25 458.09 60.78L456.2 59.78L457.8 58.23L457.77 58.23Z" />
			<path id="Layer" class="shp33" d="M428.49 16.26C428.49 16.26 452.7 34.38 452.7 67.09" />
			<path id="Layer" class="shp34" d="M397.75 49.4C397.77 49.37 397.76 49.37 397.75 49.4Z" />
			<path id="Layer" class="shp33" d="M423.5 28.83C423.96 34 421.56 37.7 421.47 38.02C421.47 38.02 427.29 35.02 427.84 31.05" />
			<path id="Layer" class="shp33" d="M421.46 38.02C421.46 38.02 425.34 39.92 428.21 38.71" />
			<path id="Layer" class="shp34" d="M397.62 49.6C397.62 49.6 400.21 46.27 400.95 44.75" />
			<path id="Layer" class="shp33" d="M413.56 18.89C413.56 18.89 409.3 18.91 407.88 21.25C405.94 24.43 408.15 24.85 408.15 24.85C408.15 24.85 410.37 25.54 411.9 23.46C413.52 21.25 412.17 19.86 412.17 19.86L413.55 18.89L413.56 18.89Z" />
			<path id="Layer" class="shp33" d="M392.91 42.39C394.43 41.97 395.4 42.11 396.1 42.53C396.1 42.53 395.4 40.45 396.65 38.65C397.9 36.84 399.98 36.71 401.78 33.24" />
			<path id="Layer" class="shp33" d="M433.38 20.83L436.02 19.17" />
			<path id="Layer" class="shp33" d="M438.79 26.79L441.43 25.55" />
			<path id="Layer" class="shp33" d="M443.64 33.71L446.69 32.46" />
			<path id="Layer" class="shp33" d="M447.53 41.63L450.71 40.52" />
			<path id="Layer" class="shp33" d="M450.57 50.92L453.9 49.95" />
			<path id="Layer" class="shp33" d="M452.38 60.34L455.84 59.93" />
			<path id="Layer" class="shp15" d="M404.71 -71.66C404.71 -71.66 405.82 -77.62 405.82 -78.45C405.82 -79.28 406.65 -79.42 407.48 -78.31C408.31 -77.2 412.06 -71.79 412.06 -71.79L404.71 -71.66L404.71 -71.66Z" />
			<path id="Layer" class="shp15" d="M454.45 -25.93C454.07 -28.62 453.56 -31.18 452.93 -33.62L450.93 -34.42L452.27 -36.02C451.5 -38.6 450.61 -41.03 449.64 -43.31L447.74 -43.85L448.68 -45.45C447.66 -47.62 446.56 -49.65 445.42 -51.53L443.65 -51.89L444.28 -53.35C443.01 -55.32 441.7 -57.12 440.39 -58.75L438.52 -58.96L439.02 -60.42C437.5 -62.21 436.01 -63.76 434.64 -65.09L432.77 -65.2L433.09 -66.54C429.75 -69.57 427.38 -71.04 427.38 -71.04L423.13 -69.75C423.13 -69.75 421.1 -70.86 419.43 -71.97C419.43 -71.97 418.32 -75.66 417.96 -77.7C417.58 -79.73 416.48 -78.81 416.11 -78.25C415.74 -77.7 411.9 -73.45 411.9 -73.45C411.9 -73.45 409.61 -73.76 407.97 -73.45C405.57 -72.98 404.46 -71.37 401.69 -68.73C399.67 -66.81 398.45 -65.13 397.76 -63.32C397.07 -61.52 397.9 -61.52 397.62 -59.86C397.34 -58.2 389.86 -45.72 389.03 -44.19C388.2 -42.67 386.19 -38.01 390.14 -35.04C391.24 -34.21 392.08 -33.8 392.77 -33.52C392.77 -33.52 393.88 -33.8 394.29 -34.35C394.37 -34.45 394.41 -34.51 394.42 -34.54C394.44 -34.58 394.45 -34.58 394.42 -34.54C394.38 -34.44 394.29 -34.03 394.71 -33.52C395.4 -32.69 396.29 -32.75 396.79 -32.69C397.53 -32.59 398.87 -33.24 399.98 -34.91C401.09 -36.57 401.78 -37.12 402.61 -38.09C403.44 -39.06 408.03 -41.21 409.82 -44.19C410.24 -44.89 411.21 -44.61 411.9 -44.05C412.59 -43.5 416.48 -43.36 418.14 -46.14C418.14 -46.14 418.93 -38.84 415.64 -33.8C410.24 -25.48 401.09 -23.4 398.32 -15.64L455.15 -15.64C455.15 -18.32 455.01 -20.89 454.76 -23.37L452.87 -24.37L454.5 -25.91L454.45 -25.93Z" />
			<path id="Layer" class="shp34" d="M425.16 -67.9C425.16 -67.9 449.37 -49.78 449.37 -17.06" />
			<path id="Layer" class="shp34" d="M394.42 -34.54C394.44 -34.58 394.44 -34.58 394.42 -34.54Z" />
			<path id="Layer" class="shp34" d="M420.17 -55.33C420.63 -50.16 418.23 -46.46 418.14 -46.14C418.14 -46.14 423.96 -49.14 424.51 -53.11" />
			<path id="Layer" class="shp34" d="M418.14 -46.13C418.14 -46.13 422.02 -44.23 424.89 -45.44" />
			<path id="Layer" class="shp34" d="M394.29 -34.35C394.29 -34.35 396.88 -37.68 397.62 -39.2" />
			<path id="Layer" class="shp34" d="M410.24 -65.26C410.24 -65.26 405.98 -65.24 404.56 -62.91C402.62 -59.72 404.83 -59.3 404.83 -59.3C404.83 -59.3 407.05 -58.61 408.58 -60.69C410.2 -62.9 408.85 -64.29 408.85 -64.29L410.23 -65.26L410.24 -65.26Z" />
			<path id="Layer" class="shp34" d="M389.58 -41.56C391.11 -41.98 392.08 -41.84 392.77 -41.42C392.77 -41.42 392.08 -43.5 393.32 -45.3C394.57 -47.11 396.65 -47.24 398.45 -50.71" />
			<path id="Layer" class="shp34" d="M430.06 -63.32L432.69 -64.98" />
			<path id="Layer" class="shp34" d="M435.47 -57.36L438.1 -58.61" />
			<path id="Layer" class="shp34" d="M440.32 -50.44L443.37 -51.69" />
			<path id="Layer" class="shp34" d="M444.2 -42.53L447.39 -43.64" />
			<path id="Layer" class="shp34" d="M447.25 -33.24L450.58 -34.21" />
			<path id="Layer" class="shp34" d="M449.05 -23.81L452.52 -24.23" />
			<path id="Layer" class="shp35" d="M507.45 62.57C503.7 55.13 504.08 41.87 504.39 36.73C510.32 36.32 514.59 35.2 514.59 33.87C514.59 32.57 510.48 31.47 504.72 31.04C508.4 29.15 510.92 25.32 510.92 20.89C510.92 14.59 505.81 9.48 499.51 9.48C493.2 9.48 488.09 14.59 488.09 20.89C488.09 25.32 490.61 29.15 494.29 31.04C488.53 31.47 484.42 32.57 484.42 33.87C484.42 35.2 488.69 36.32 494.62 36.73C494.93 41.87 495.31 55.13 491.56 62.57C484.21 64.05 479.05 67.52 479.05 71.56L519.95 71.56C519.95 67.52 514.8 64.05 507.45 62.57L507.45 62.57Z" />
			<path id="Layer" class="shp36" d="M507.45 -21.03C503.7 -28.48 504.08 -41.74 504.39 -46.87C510.32 -47.28 514.59 -48.4 514.59 -49.73C514.59 -51.03 510.48 -52.13 504.72 -52.56C508.4 -54.45 510.92 -58.29 510.92 -62.71C510.92 -69.01 505.81 -74.12 499.51 -74.12C493.2 -74.12 488.09 -69.01 488.09 -62.71C488.09 -58.29 490.61 -54.45 494.29 -52.56C488.53 -52.13 484.42 -51.03 484.42 -49.73C484.42 -48.4 488.69 -47.28 494.62 -46.87C494.93 -41.74 495.31 -28.48 491.56 -21.03C484.21 -19.55 479.05 -16.08 479.05 -12.04L519.95 -12.04C519.95 -16.08 514.8 -19.55 507.45 -21.03L507.45 -21.03Z" />
			<path id="Layer" class="shp15" d="M128.95 -71.66C128.95 -71.66 127.84 -77.62 127.84 -78.45C127.84 -79.28 127.01 -79.42 126.18 -78.31C125.35 -77.2 121.6 -71.79 121.6 -71.79L128.94 -71.66L128.95 -71.66Z" />
			<path id="Layer" class="shp15" d="M79.21 -25.93C79.59 -28.62 80.1 -31.18 80.73 -33.62L82.74 -34.42L81.4 -36.02C82.16 -38.6 83.05 -41.03 84.02 -43.31L85.92 -43.85L84.98 -45.45C86 -47.62 87.1 -49.65 88.24 -51.53L90.01 -51.89L89.38 -53.35C90.65 -55.32 91.97 -57.12 93.27 -58.75L95.14 -58.96L94.64 -60.42C96.16 -62.21 97.65 -63.76 99.02 -65.09L100.9 -65.2L100.57 -66.54C103.92 -69.57 106.28 -71.04 106.28 -71.04L110.53 -69.75C110.53 -69.75 112.56 -70.86 114.23 -71.97C114.23 -71.97 115.34 -75.66 115.71 -77.7C116.08 -79.73 117.18 -78.81 117.55 -78.25C117.92 -77.7 121.76 -73.45 121.76 -73.45C121.76 -73.45 124.05 -73.76 125.69 -73.45C128.09 -72.98 129.2 -71.37 131.97 -68.73C133.99 -66.81 135.21 -65.13 135.9 -63.32C136.59 -61.52 135.76 -61.52 136.04 -59.86C136.32 -58.2 143.8 -45.72 144.63 -44.19C145.47 -42.67 147.47 -38.01 143.53 -35.04C142.42 -34.21 141.58 -33.8 140.89 -33.52C140.89 -33.52 139.78 -33.8 139.37 -34.35C139.29 -34.45 139.25 -34.51 139.24 -34.54C139.22 -34.58 139.22 -34.58 139.24 -34.54C139.28 -34.44 139.38 -34.03 138.95 -33.52C138.26 -32.69 137.37 -32.75 136.87 -32.69C136.13 -32.59 134.79 -33.24 133.68 -34.91C132.57 -36.57 131.88 -37.12 131.05 -38.09C130.22 -39.06 125.63 -41.21 123.84 -44.19C123.42 -44.89 122.45 -44.61 121.76 -44.05C121.07 -43.5 117.18 -43.36 115.52 -46.14C115.52 -46.14 114.74 -38.84 118.02 -33.8C123.42 -25.48 132.57 -23.4 135.35 -15.64L78.48 -15.64C78.48 -18.32 78.63 -20.89 78.88 -23.37L80.77 -24.37L79.19 -25.91L79.21 -25.93Z" />
			<path id="Layer" class="shp34" d="M108.5 -67.9C108.5 -67.9 84.29 -49.78 84.29 -17.06" />
			<path id="Layer" class="shp34" d="M139.24 -34.54C139.22 -34.58 139.22 -34.58 139.24 -34.54Z" />
			<path id="Layer" class="shp34" d="M113.49 -55.33C113.03 -50.16 115.43 -46.46 115.52 -46.14C115.52 -46.14 109.7 -49.14 109.15 -53.11" />
			<path id="Layer" class="shp34" d="M115.52 -46.13C115.52 -46.13 111.64 -44.23 108.77 -45.44" />
			<path id="Layer" class="shp34" d="M139.37 -34.35C139.37 -34.35 136.78 -37.68 136.04 -39.2" />
			<path id="Layer" class="shp34" d="M123.42 -65.26C123.42 -65.26 127.68 -65.24 129.1 -62.91C131.04 -59.72 128.83 -59.3 128.83 -59.3C128.83 -59.3 126.61 -58.61 125.08 -60.69C123.46 -62.9 124.81 -64.29 124.81 -64.29L123.43 -65.26L123.42 -65.26Z" />
			<path id="Layer" class="shp34" d="M144.08 -41.56C142.55 -41.98 141.58 -41.84 140.89 -41.42C140.89 -41.42 141.58 -43.5 140.34 -45.3C139.09 -47.11 137.01 -47.24 135.21 -50.71" />
			<path id="Layer" class="shp34" d="M103.6 -63.32L100.97 -64.98" />
			<path id="Layer" class="shp34" d="M98.19 -57.36L95.56 -58.61" />
			<path id="Layer" class="shp34" d="M93.34 -50.44L90.29 -51.69" />
			<path id="Layer" class="shp34" d="M89.46 -42.53L86.27 -43.64" />
			<path id="Layer" class="shp34" d="M86.41 -33.24L83.08 -34.21" />
			<path id="Layer" class="shp34" d="M84.61 -23.81L81.14 -24.23" />
			<path id="Layer" class="shp32" d="M128.9 14.83C128.9 14.83 127.79 8.87 127.79 8.04C127.79 7.2 126.96 7.07 126.13 8.18C125.3 9.29 121.55 14.69 121.55 14.69L128.89 14.82L128.9 14.83Z" />
			<path id="Layer" class="shp32" d="M79.16 60.56C79.54 57.87 80.05 55.31 80.68 52.87L82.69 52.07L81.35 50.47C82.11 47.89 83 45.46 83.97 43.18L85.87 42.64L84.94 41.04C85.96 38.87 87.05 36.84 88.19 34.96L89.96 34.6L89.33 33.14C90.61 31.17 91.92 29.37 93.22 27.74L95.09 27.53L94.59 26.07C96.12 24.28 97.6 22.73 98.97 21.4L100.85 21.29L100.52 19.95C103.87 16.92 106.23 15.45 106.23 15.45L110.48 16.74C110.48 16.74 112.52 15.63 114.18 14.52C114.18 14.52 115.29 10.83 115.66 8.79C116.03 6.76 117.14 7.69 117.51 8.24C117.88 8.79 121.71 13.05 121.71 13.05C121.71 13.05 124.01 12.73 125.64 13.05C128.04 13.51 129.15 15.13 131.92 17.76C133.95 19.68 135.16 21.36 135.85 23.17C136.54 24.97 135.71 24.97 135.99 26.63C136.27 28.3 143.75 40.77 144.59 42.3C145.42 43.82 147.43 48.49 143.48 51.45C142.37 52.28 141.53 52.69 140.84 52.97C140.84 52.97 139.73 52.69 139.32 52.14C139.24 52.04 139.21 51.98 139.19 51.95C139.17 51.91 139.17 51.91 139.19 51.95C139.23 52.06 139.33 52.46 138.9 52.97C138.21 53.8 137.32 53.74 136.82 53.8C136.08 53.9 134.74 53.25 133.63 51.59C132.52 49.92 131.83 49.37 131 48.4C130.17 47.43 125.58 45.28 123.79 42.3C123.37 41.6 122.4 41.88 121.71 42.44C121.02 42.99 117.14 43.13 115.47 40.36C115.47 40.36 114.69 47.65 117.97 52.69C123.37 61.01 132.52 63.09 135.3 70.85L78.43 70.85C78.43 68.17 78.57 65.6 78.82 63.12L80.71 62.12L79.13 60.56L79.16 60.56Z" />
			<path id="Layer" class="shp33" d="M108.45 18.59C108.45 18.59 84.24 36.71 84.24 69.42" />
			<path id="Layer" class="shp34" d="M139.19 51.73C139.17 51.7 139.17 51.7 139.19 51.73Z" />
			<path id="Layer" class="shp33" d="M113.44 31.16C112.98 36.33 115.38 40.03 115.47 40.35C115.47 40.35 109.65 37.35 109.1 33.38" />
			<path id="Layer" class="shp33" d="M115.47 40.35C115.47 40.35 111.59 42.25 108.72 41.04" />
			<path id="Layer" class="shp34" d="M139.32 51.93C139.32 51.93 136.73 48.6 135.99 47.08" />
			<path id="Layer" class="shp33" d="M123.37 21.22C123.37 21.22 127.63 21.24 129.05 23.58C131 26.77 128.78 27.18 128.78 27.18C128.78 27.18 126.56 27.87 125.03 25.79C123.41 23.58 124.76 22.19 124.76 22.19L123.38 21.22L123.37 21.22Z" />
			<path id="Layer" class="shp33" d="M144.03 44.72C142.5 44.3 141.53 44.44 140.84 44.86C140.84 44.86 141.53 42.78 140.29 40.98C139.04 39.17 136.96 39.04 135.16 35.57" />
			<path id="Layer" class="shp33" d="M103.55 23.17L100.92 21.5" />
			<path id="Layer" class="shp33" d="M98.14 29.13L95.51 27.88" />
			<path id="Layer" class="shp33" d="M93.29 36.04L90.24 34.79" />
			<path id="Layer" class="shp33" d="M89.41 43.96L86.22 42.85" />
			<path id="Layer" class="shp33" d="M86.36 53.25L83.03 52.28" />
			<path id="Layer" class="shp33" d="M84.56 62.67L81.09 62.26" />
		</g>
	</g>
</svg>