<svg xmlns="http://www.w3.org/2000/svg" viewBox="0 0 83 90" width="92" height="100">
	<style>
		tspan { white-space:pre }
		.shp0 { fill: #000000;stroke: #000000;stroke-width: 0.31 } 
		.shp1 { fill: #000000 } 
		.shp2 { fill: #000000;stroke: #ffffff;stroke-linecap:round;stroke-width: 1.009 } 
		.shp3 { fill: none;stroke: #ffffff;stroke-linejoin:bevel;stroke-width: 0.62 } 
		.shp4 { fill: none;stroke: #ffffff;stroke-linecap:round;stroke-width: 1.009 } 
		.shp5 { fill: #ffffff;stroke: #000000;stroke-width: 0.317 } 
		.shp6 { fill: none;stroke: #ffffff;stroke-width: 0.62 } 
		.shp7 { fill: #ffffff;stroke: #20201e;stroke-width: 1.211 } 
		.shp8 { fill: #ffffff;stroke: #20201e;stroke-linejoin:round;stroke-width: 1.211 } 
		.shp9 { fill: #ffffff;stroke: #20201e;stroke-linejoin:bevel;stroke-width: 1.211 } 
		.shp10 { fill: #000000;stroke: #000000;stroke-linejoin:bevel;stroke-width: 0.853 } 
		.shp11 { fill: #000000;stroke: #ffffff;stroke-linecap:round;stroke-width: 0.926 } 
		.shp12 { fill: none;stroke: #ffffff;stroke-linecap:round;stroke-width: 0.926 } 
		.shp13 { fill: #ffffff } 
		.shp14 { fill: #ffffff;stroke: #20201e;stroke-linejoin:bevel;stroke-width: 1.111 } 
		.shp15 { fill: #ffffff;stroke: #20201e;stroke-width: 1.111 } 
		.shp16 { fill: #000000;stroke: #000000;stroke-linecap:square;stroke-width: 0.853 } 
		.shp17 { fill: none;stroke: #ffffff;stroke-linecap:round;stroke-width: 0.853 } 
		.shp18 { fill: #ffffff;stroke: #20201e;stroke-linejoin:round;stroke-width: 1.111 } 
		.shp19 { fill: #ffffff;stroke: #20201e;stroke-linecap:square;stroke-width: 1.111 } 
		.shp20 { fill: #20201e } 
		.shp21 { fill: #ffffff;stroke: #20201e;stroke-width: 1.32 } 
		.shp22 { fill: #000000;stroke: #000000;stroke-width: 0.533 } 
		.shp23 { fill: #ffffff;stroke: #000000;stroke-linejoin:bevel;stroke-width: 1.014 } 
		.shp24 { fill: #000000;stroke: #000000;stroke-linejoin:bevel;stroke-width: 0.533 } 
		.shp25 { fill: none;stroke: #ffffff;stroke-linecap:round;stroke-linejoin:bevel;stroke-width: 0.533 } 
		.shp26 { fill: none;stroke: #ffffff;stroke-linecap:round;stroke-width: 0.533 } 
		.shp27 { fill: #ffffff;stroke: #000000;stroke-width: 0.533 } 
		.shp28 { fill: #ffffff;stroke: #20201e;stroke-linecap:round;stroke-linejoin:round;stroke-width: 1.32 } 
		.shp29 { fill: #ffffff;stroke: #20201e;stroke-linejoin:bevel;stroke-width: 1.32 } 
		.shp30 { fill: #ffffff;stroke: #000000;stroke-width: 1.014 } 
		.shp31 { fill: #ffffff;stroke: #000000;stroke-width: 0.77 } 
		.shp32 { fill: #20201e;stroke: #20201e;stroke-width: 0.853 } 
		.shp33 { fill: none;stroke: #ffffff;stroke-width: 0.853 } 
		.shp34 { fill: none;stroke: #20201e;stroke-width: 0.853 } 
		.shp35 { fill: #000000;stroke: #000000;stroke-linejoin:round;stroke-width: 0.79 } 
		.shp36 { fill: #ffffff;stroke: #000000;stroke-linejoin:round;stroke-width: 1.111 } 
	</style>
	<g id="Layer">
		<g id="Layer">
			<path id="Layer" class="shp0" d="M125.26 118.52C126.61 117.72 127.18 116.65 127.18 115.47C127.18 115.13 127.23 98.89 127.23 98.89L111.13 98.89C111.13 98.89 111.06 115.27 111.06 115.47C111.06 116.66 111.9 117.74 113.27 118.54C112.3 118.68 111.34 118.85 110.39 119.06C111.91 120.03 113.34 121.16 114.67 122.45C116.54 124.28 118.1 126.3 119.32 128.48C120.54 126.3 122.09 124.28 123.97 122.45C125.3 121.16 126.73 120.03 128.25 119.06C127.28 118.85 126.28 118.68 125.28 118.53L125.26 118.52Z" />
			<path id="Layer" class="shp1" d="M140.07 155.43C139.07 153.43 139.05 150.82 139.49 149.06C139.94 147.24 144.24 143.81 144.24 143.81C151.81 136.45 153.54 125.95 148.11 120.36C142.68 114.78 132.14 116.23 124.57 123.59C122.31 125.79 120.57 128.27 119.39 130.82C118.2 128.27 116.47 125.79 114.21 123.59C106.64 116.23 96.1 114.78 90.66 120.36C85.23 125.95 86.97 136.45 94.54 143.81C94.88 144.14 98.65 147.24 99.1 149.06C99.56 150.87 99.62 153.48 98.53 155.5L98.69 155.5C98.67 155.51 98.65 155.52 98.62 155.53C104.89 158.62 111.94 160.36 119.39 160.36C126.84 160.35 133.79 158.51 140.06 155.42" />
			<g id="Layer">
				<path id="Layer" class="shp2" d="M99.72 155.06C105.75 152.25 112.42 150.69 119.51 150.69C126.32 150.69 132.86 152.36 138.69 154.73" />
				<path id="Layer" class="shp2" d="M141.59 143.38C135.31 141.25 127.62 139.99 119.3 139.99C110.92 139.99 103.16 141.27 96.85 143.44" />
			</g>
			<path id="Layer" class="shp3" d="M125.92 100.06L112.41 112.17L125.92 112.17L112.41 100.06L125.92 100.06Z" />
			<path id="Layer" class="shp4" d="M137.66 150.77C131.88 148.74 125.73 147.27 119.35 147.27C112.84 147.27 106.58 148.78 100.7 150.88" />
			<path id="Layer" class="shp5" d="M116.18 143.96L119.35 145.54L122.52 143.96L119.35 142.37L116.18 143.96Z" />
			<path id="Layer" class="shp5" d="M103.23 146.02L106.61 147.07L109.48 145L106.1 143.94L103.23 146.02Z" />
			<path id="Layer" class="shp5" d="M135.48 146.02L132.09 147.07L129.22 145L132.6 143.94L135.48 146.02Z" />
			<path id="Layer" class="shp3" d="M112.41 100.06L125.93 100.06L125.93 112.17L112.41 112.17L112.41 100.06Z" />
			<path id="Layer" class="shp6" d="M119.28 121.89C116.13 121.89 113.58 120.01 113.58 117.68C113.58 115.35 116.13 113.47 119.28 113.47C122.43 113.47 124.98 115.35 124.98 117.68C124.98 120.01 122.43 121.89 119.28 121.89Z" />
			<path id="Layer" class="shp7" d="M127.26 10.64L111.16 10.64L111.16 27.47C111.16 29.95 114.78 31.96 119.25 31.96C123.72 31.96 127.23 29.95 127.23 27.47C127.23 27.25 127.26 10.64 127.26 10.64L127.26 10.64Z" />
			<path id="Layer" class="shp7" d="M111.16 10.64L127.26 10.64L127.26 25.07L111.16 25.07L111.16 10.64Z" />
			<path id="Layer" class="shp7" d="M111.16 10.64L127.26 25.07" />
			<path id="Layer" class="shp7" d="M127.26 10.64L111.16 25.07" />
			<path id="Layer" class="shp8" d="M140 67.14C133.74 64.05 126.93 62.42 119.47 62.42C112.01 62.42 104.88 64.16 98.62 67.25C104.88 70.34 111.89 72.12 119.35 72.12C126.81 72.13 133.74 70.24 140 67.15L140 67.14Z" />
			<path id="Layer" class="shp9" d="M143.13 56.54C143.49 56.23 143.85 55.9 144.2 55.56C151.77 48.2 153.5 37.7 148.07 32.12C142.63 26.53 132.1 27.98 124.53 35.35C122.26 37.55 120.53 40.03 119.34 42.57C118.16 40.03 116.42 37.55 114.16 35.35C106.59 27.98 96.05 26.53 90.62 32.12C85.19 37.7 86.92 48.2 94.49 55.56C94.84 55.9 95.2 56.23 95.56 56.54C102.1 54.09 110.36 52.62 119.35 52.62C128.33 52.62 136.59 54.09 143.12 56.54L143.13 56.54Z" />
			<path id="Layer" class="shp7" d="M119.35 42.58C120.53 40.04 122.27 37.56 124.53 35.36C126.37 33.56 128.4 32.12 130.48 31.05C127.03 30.08 123.28 29.54 119.36 29.54C115.43 29.54 111.68 30.08 108.23 31.05C110.31 32.12 112.33 33.56 114.17 35.36C116.43 37.56 118.16 40.04 119.35 42.58L119.35 42.58Z" />
			<path id="Layer" class="shp9" d="M143.04 56.54L143.04 56.53C136.5 54.08 128.25 52.62 119.27 52.62C110.28 52.62 102.02 54.09 95.48 56.54C95.48 56.54 98.61 59 99.07 60.81C99.52 62.62 99.72 65.22 98.63 67.24C104.89 64.15 112.02 62.42 119.48 62.42C126.79 62.42 133.84 64.16 140.01 67.14C139.01 65.14 139.01 62.57 139.45 60.81C139.9 59.01 143.04 56.55 143.04 56.55L143.04 56.54Z" />
			<path id="Layer" class="shp9" d="M98.62 67.25C104.88 64.16 112.02 62.43 119.47 62.43C126.79 62.43 133.83 64.16 140 67.14C139.58 66.29 139.13 64.11 139.2 62.9C133 60.46 126.33 59.13 119.37 59.13C112.34 59.13 105.6 60.49 99.33 62.98C99.41 65.23 99.09 66.36 98.62 67.24L98.62 67.25Z" />
			<path id="Layer" class="shp1" d="M116.29 55.96L119.39 57.51L122.48 55.96L119.39 54.41L116.29 55.96Z" />
			<path id="Layer" class="shp1" d="M103.62 57.98L106.92 59.01L109.73 56.98L106.43 55.95L103.62 57.98Z" />
			<path id="Layer" class="shp1" d="M135.15 57.98L131.85 59.01L129.04 56.98L132.34 55.95L135.15 57.98Z" />
			<path id="Layer" class="shp7" d="M119.35 33.98C116.2 33.98 113.65 32.1 113.65 29.77C113.65 27.44 116.2 25.56 119.35 25.56C122.5 25.56 125.05 27.44 125.05 29.77C125.05 32.1 122.5 33.98 119.35 33.98Z" />
			<path id="Layer" class="shp10" d="M229.7 113.6C230.55 112.14 230.06 110.27 228.6 109.42C227.14 108.56 225.27 109.06 224.42 110.52C223.69 111.77 223.95 113.32 224.95 114.27C220.79 119.32 213.19 128.54 211.35 130.77C210.81 130.53 210.25 130.3 209.67 130.09C209.84 128.38 211.04 115.3 211.68 108.34C213.07 108.37 214.35 107.45 214.71 106.05C215.13 104.42 214.15 102.75 212.52 102.33C210.88 101.9 209.21 102.88 208.79 104.52C208.42 105.92 209.1 107.35 210.33 107.99C207.31 114.83 201.47 128.1 201.45 128.15C201.45 128.17 201.45 128.18 201.45 128.19C200.92 128.13 200.37 128.08 199.82 128.03C199.71 127.29 197.2 111.91 195.89 103.9C197.39 103.55 198.51 102.2 198.51 100.59C198.51 98.72 196.99 97.19 195.11 97.19C193.24 97.19 191.72 98.72 191.72 100.59C191.72 102.2 192.84 103.55 194.34 103.9C193.04 111.87 190.55 127.15 190.42 128.02C189.83 128.06 189.27 128.12 188.71 128.18C188.71 128.16 188.71 128.15 188.7 128.13C188.69 128.07 182.84 114.8 179.83 107.97C181.06 107.32 181.73 105.9 181.37 104.49C180.94 102.86 179.28 101.88 177.64 102.3C176.01 102.72 175.02 104.39 175.45 106.03C175.81 107.43 177.09 108.35 178.48 108.32C179.11 115.26 180.32 128.32 180.48 130.06C179.91 130.26 179.37 130.49 178.84 130.72C176.93 128.4 169.41 119.29 165.27 114.28C166.28 113.32 166.54 111.77 165.81 110.52C164.96 109.06 163.09 108.57 161.63 109.42C160.17 110.27 159.68 112.14 160.53 113.6C161.26 114.85 162.74 115.39 164.07 114.98C166.55 121.46 174.58 142.31 174.89 142.6L174.89 142.6C174.9 142.63 175.69 147.8 175.77 149.52C175.86 151.22 175.12 155.4 175.17 155.42L175.17 155.43C175.17 155.43 175.17 155.42 175.18 155.42C181.13 158.21 187.91 159.78 195.18 159.78C202.52 159.78 215.77 155.29 215.71 155.26C214.84 153.43 215.17 142.59 215.17 142.59C215.48 142.3 223.61 121.63 226.16 114.98C227.47 115.39 228.95 114.85 229.68 113.6" />
			<g id="Layer">
				<path id="Layer" class="shp11" d="M176.65 154.18C182.91 151.6 188.77 150.49 195.95 150.49C202.85 150.49 208.37 151.63 214.14 154.03" />
				<path id="Layer" class="shp11" d="M212.95 142.09C207.86 140.13 201.62 138.98 194.88 138.98C188.08 138.98 181.79 140.15 176.67 142.14" />
			</g>
			<path id="Layer" class="shp12" d="M213.56 150.61C207.92 148.75 202.19 147.4 195.72 147.4C189.14 147.4 182.8 148.79 176.85 150.72" />
			<path id="Layer" class="shp13" d="M192.3 143.65L195.14 145.07L197.99 143.65L195.14 142.23L192.3 143.65Z" />
			<path id="Layer" class="shp13" d="M209.61 145.5L206.58 146.45L204 144.59L207.03 143.64L209.61 145.5Z" />
			<path id="Layer" class="shp13" d="M180.68 145.5L183.71 146.45L186.29 144.59L183.26 143.64L180.68 145.5Z" />
			<path id="Layer" class="shp14" d="M215.22 69.36C209.15 66.52 202.51 65.03 195.17 65.03C187.82 65.03 180.71 66.66 174.44 69.5C180.51 72.33 187.39 73.93 194.73 73.93C202.08 73.94 208.96 72.2 215.22 69.37L215.22 69.36Z" />
			<path id="Layer" class="shp14" d="M214.77 56.63L214.77 56.62C209.31 54.38 202.97 53.01 194.73 53.01C186.48 53.01 180.11 54.38 174.49 56.63C174.49 56.63 175.1 61.83 175.13 63.55C175.16 65.49 174.62 69.46 174.62 69.46C180.88 66.63 187.83 65.03 195.17 65.03C202.37 65.03 209.68 66.51 215.22 69.36C214.31 67.54 214.77 56.64 214.77 56.64L214.77 56.63Z" />
			<path id="Layer" class="shp14" d="M174.64 69.43C180.54 66.63 187.83 65.03 195.17 65.03C202.37 65.03 208.41 66.05 215.22 69.36C214.95 68.59 214.76 66.22 214.71 65.35C208.68 63.11 202.03 61.84 195.18 61.84C188.26 61.84 181.3 63.18 175.05 65.47C174.92 66.36 174.64 69.42 174.64 69.42L174.64 69.43Z" />
			<path id="Layer" class="shp15" d="M228.3 23.45C226.84 22.6 224.97 23.1 224.12 24.56C223.39 25.81 223.65 27.36 224.65 28.31C220.49 33.36 212.88 42.58 211.05 44.81C210.51 44.57 209.95 44.34 209.37 44.13C209.53 42.42 210.74 29.34 211.38 22.38C212.77 22.41 214.05 21.49 214.41 20.09C214.83 18.46 213.85 16.79 212.21 16.36C210.58 15.94 208.91 16.92 208.49 18.56C208.12 19.96 208.8 21.39 210.03 22.03C207.01 28.87 201.17 42.14 201.15 42.19C201.15 42.21 201.15 42.22 201.15 42.23C200.62 42.17 200.07 42.11 199.51 42.07C199.4 41.33 196.9 25.95 195.59 17.94C197.09 17.59 198.21 16.24 198.21 14.63C198.21 12.76 196.69 11.23 194.81 11.23C192.94 11.23 191.41 12.76 191.41 14.63C191.41 16.24 192.54 17.59 194.04 17.94C192.74 25.91 190.24 41.19 190.11 42.06C189.53 42.1 188.96 42.16 188.41 42.22C188.41 42.2 188.41 42.19 188.4 42.17C188.39 42.11 182.54 28.84 179.53 22.01C180.76 21.36 181.43 19.94 181.07 18.53C180.64 16.9 178.97 15.92 177.34 16.34C175.71 16.76 174.72 18.43 175.15 20.07C175.51 21.47 176.79 22.39 178.18 22.36C178.81 29.3 180.01 42.35 180.18 44.1C179.61 44.3 179.06 44.53 178.54 44.76C176.63 42.44 169.11 33.33 164.97 28.31C165.98 27.36 166.24 25.81 165.51 24.56C164.66 23.1 162.79 22.6 161.33 23.46C159.87 24.31 159.38 26.18 160.23 27.64C160.96 28.89 162.44 29.43 163.77 29.02C166.25 35.5 174.28 56.35 174.59 56.63C180.12 54.38 186.49 53.01 194.73 53.01C202.98 53.01 209.34 54.38 214.87 56.63C215.18 56.34 223.31 35.67 225.86 29.02C227.19 29.43 228.67 28.89 229.4 27.64C230.22 26.18 229.73 24.31 228.27 23.46L228.3 23.45Z" />
			<path id="Layer" class="shp1" d="M192 57.62L194.84 59.04L197.69 57.62L194.84 56.2L192 57.62Z" />
			<path id="Layer" class="shp1" d="M180.38 59.46L183.41 60.4L185.99 58.54L182.96 57.6L180.38 59.46Z" />
			<path id="Layer" class="shp1" d="M209.31 59.47L206.28 60.42L203.7 58.56L206.73 57.61L209.31 59.47Z" />
			<g id="Layer">
				<path id="Layer" class="shp16" d="M-87.37 154.65L-88.34 154.65L-88.34 148.83L-93 143.6L-93.05 143.6L-93.05 112.78L-93 112.78L-86.93 106.98L-86.89 106.98L-86.89 97.04C-86.89 96.18 -87.57 95.47 -88.4 95.47L-96.79 95.47L-96.79 100.87L-101.51 102.43L-105.85 100.87L-105.85 95.47L-116.2 95.47L-116.2 100.87L-120.55 102.43L-125.26 100.87L-125.26 95.47L-133.65 95.47C-134.48 95.47 -135.16 96.18 -135.16 97.04L-135.16 106.98L-135.14 106.98L-129.05 112.78L-129.05 143.6L-133.71 148.83L-133.71 154.65L-134.68 154.65C-135.55 154.65 -136.26 155.35 -136.26 156.22L-136.26 159.92C-136.26 160.78 -135.55 161.49 -134.68 161.49L-87.37 161.49C-86.5 161.49 -85.8 160.78 -85.8 159.92L-85.8 156.22C-85.8 155.36 -86.5 154.65 -87.37 154.65L-87.37 154.65Z" />
				<path id="Layer" class="shp17" d="M-132.18 154.65L-90.22 154.65" />
				<path id="Layer" class="shp17" d="M-131.99 148.83L-90.4 148.83" />
				<path id="Layer" class="shp17" d="M-94.84 143.61L-127.92 143.61" />
				<path id="Layer" class="shp17" d="M-127.74 112.79L-94.65 112.79" />
				<path id="Layer" class="shp17" d="M-133.1 106.98L-88.19 106.98" />
			</g>
			<path id="Layer" class="shp15" d="M-87.72 75.59C-86.85 75.59 -86.15 74.89 -86.15 74.02L-86.15 70.32C-86.15 69.45 -86.85 68.75 -87.72 68.75L-135.04 68.75C-135.91 68.75 -136.61 69.45 -136.61 70.32L-136.61 74.02C-136.61 74.89 -135.91 75.59 -135.04 75.59L-87.72 75.59Z" />
			<path id="Layer" class="shp15" d="M-134.07 62.93L-88.69 62.93L-88.69 68.75L-134.07 68.75L-134.07 62.93Z" />
			<path id="Layer" class="shp14" d="M-88.69 62.93L-93.36 57.7L-129.41 57.7L-134.07 62.93L-88.69 62.93Z" />
			<path id="Layer" class="shp18" d="M-87.27 21.06L-93.36 26.88L-129.41 26.88L-135.51 21.06L-87.27 21.06Z" />
			<path id="Layer" class="shp15" d="M-129.41 26.88L-93.41 26.88L-93.41 57.7L-129.41 57.7L-129.41 26.88Z" />
			<path id="Layer" class="shp19" d="M-88.75 9.57L-97.15 9.57L-97.15 14.97L-101.86 16.53L-106.21 14.97L-106.21 9.57L-116.56 9.57L-116.56 14.97L-120.9 16.53L-125.61 14.97L-125.61 9.57L-134.01 9.57C-134.84 9.57 -135.51 10.27 -135.51 11.14L-135.51 21.08L-87.25 21.08L-87.25 11.14C-87.25 10.27 -87.92 9.57 -88.75 9.57L-88.75 9.57Z" />
			<path id="Layer" class="shp20" d="M80.87 159.82C80.25 159.48 74.62 153.95 69.4 153.95C66.69 153.95 64.56 154.77 62.69 155.49C60.79 156.23 58.99 156.92 56.39 156.92C53.36 156.92 50.85 155.99 48.63 155.18C46.84 154.52 45.29 153.95 43.71 153.95C42.13 153.95 40.58 154.52 38.79 155.18C36.57 155.99 34.06 156.92 31.03 156.92C28.43 156.92 26.63 156.23 24.73 155.49C22.85 154.77 20.73 153.95 18.02 153.95C12.8 153.95 7.17 159.48 6.55 159.82C6.55 159.82 8.82 158.4 10.93 158.4C13.05 158.4 14.88 159.88 18.02 159.88C19.63 159.88 20.94 160.39 22.6 161.03C24.71 161.84 27.32 162.85 31.03 162.85C35.11 162.85 38.42 161.63 40.84 160.74C41.94 160.34 43.18 159.88 43.71 159.88C44.24 159.88 45.48 160.34 46.58 160.74C49 161.63 52.31 162.85 56.39 162.85C60.09 162.85 62.71 161.84 64.82 161.03C66.48 160.39 67.79 159.88 69.4 159.88C72.54 159.88 74.92 158.4 76.49 158.4C78.05 158.4 80.9 159.82 80.9 159.82L80.87 159.82Z" />
			<path id="Layer" class="shp21" d="M63.64 125.91C63.64 116.56 55.66 101.73 49.55 99.72C49.34 99.65 49.12 99.59 48.89 99.55C49.96 99.15 50.72 98.13 50.72 96.93C50.72 95.38 49.47 94.13 47.93 94.13C46.38 94.13 45.13 95.38 45.13 96.93C45.13 98 45.74 98.93 46.62 99.4C45.37 99.48 44.02 99.81 42.62 100.37C41.73 99.96 40.85 99.67 39.98 99.51C41 99.1 41.72 98.1 41.72 96.93C41.72 95.38 40.47 94.13 38.92 94.13C37.38 94.13 36.13 95.38 36.13 96.93C36.13 98.02 36.75 98.96 37.66 99.42C37.19 99.47 36.72 99.57 36.27 99.72C30.17 101.73 22.37 116.01 22.37 125.91C22.37 133.81 25.57 140.61 29.26 145.54C29.81 147 30.65 147.04 30.83 147.22C30.83 147.22 30.83 147.22 30.83 147.22C30.83 147.24 30.1 151.98 30.03 153.05C29.92 154.7 29.75 156.64 29.75 156.64C33.78 158.42 38.2 159.45 42.99 159.45C47.79 159.45 51.99 158.32 56.02 156.54C55.87 155.23 55.71 153.91 55.38 151.93C55.21 150.9 54.62 147.22 54.62 147.22C54.8 147.04 55.88 145.67 55.88 145.67C59.8 140.72 63.63 134.12 63.63 125.91L63.64 125.91Z" />
			<path id="Layer" class="shp22" d="M30.93 147.22C34.2 145.81 37.96 144.58 42.83 144.58C47.69 144.58 51.45 145.81 54.72 147.22C54.9 147.04 55.32 146.58 56.21 145.34C53.46 142.37 49.45 140.73 42.91 140.73C35.92 140.73 32.11 142.56 29.36 145.54C29.92 146.99 30.76 147.04 30.94 147.22L30.93 147.22Z" />
			<path id="Layer" class="shp23" d="M55.91 156.54C51.88 154.77 47.76 153.89 42.96 153.89C38.16 153.89 33.67 154.87 29.64 156.64C33.67 158.41 38.09 159.44 42.89 159.44C47.69 159.44 51.89 158.31 55.92 156.54L55.91 156.54Z" />
			<path id="Layer" class="shp22" d="M55.8 145.67C58.34 141.43 61.68 133.43 57.5 119.81C54 108.39 43.69 97.24 36.19 99.72C29.53 101.91 22.29 117.65 22.29 125.9C22.29 133.8 25.49 140.61 29.18 145.53L55.81 145.66L55.8 145.67Z" />
			<path id="Layer" class="shp22" d="M38.84 99.72C37.29 99.72 36.04 98.47 36.04 96.92C36.04 95.37 37.29 94.12 38.84 94.12C40.39 94.12 41.64 95.37 41.64 96.92C41.64 98.47 40.39 99.72 38.84 99.72Z" />
			<path id="Layer" class="shp24" d="M54.53 147.21L54.53 147.21C51.26 145.8 47.5 144.62 42.64 144.62C37.77 144.62 34.01 145.8 30.75 147.21C30.75 147.21 30.01 151.97 29.94 153.04C29.83 154.69 29.67 156.64 29.67 156.64C33.69 154.87 38.19 153.89 42.98 153.89C47.69 153.89 51.96 154.83 55.93 156.54C55.79 155.22 55.62 153.9 55.29 151.93C55.11 150.89 54.52 147.2 54.52 147.2L54.53 147.21Z" />
			<path id="Layer" class="shp25" d="M54.41 153.59C50.79 152.47 46.92 151.85 42.93 151.85C38.87 151.85 34.72 152.51 31 153.68" />
			<g id="Layer">
				<path id="Layer" class="shp26" d="M31.78 146.78C34.81 145.56 38.28 144.57 42.64 144.57C47.03 144.57 50.51 145.57 53.55 146.8" />
				<path id="Layer" class="shp26" d="M55.52 144.63C51.68 141.56 48.6 140.73 42.91 140.73C38.15 140.73 33.23 142 30.87 144.15" />
			</g>
			<path id="Layer" class="shp27" d="M49.59 120.71L48.29 122.02L41.71 122.02L41.71 116.08L43.02 114.77L40.38 112.13L37.74 114.77L39.06 116.09L39.06 122.02L32.44 122.02L31.13 120.71L28.49 123.35L31.13 125.99L32.46 124.67L39.06 124.67L39.06 131.91L37.74 133.23L40.38 135.87L43.02 133.23L41.71 131.92L41.71 124.67L48.27 124.67L49.59 125.99L52.23 123.35L49.59 120.71Z" />
			<path id="Layer" class="shp28" d="M79.83 73.96C79.21 73.62 73.58 68.09 68.36 68.09C65.65 68.09 63.52 68.91 61.65 69.63C59.75 70.37 57.95 71.06 55.35 71.06C52.32 71.06 49.81 70.13 47.59 69.32C45.8 68.66 44.25 68.09 42.67 68.09C41.09 68.09 39.54 68.66 37.75 69.32C35.53 70.13 33.02 71.06 29.99 71.06C27.39 71.06 25.59 70.37 23.69 69.63C21.81 68.91 19.69 68.09 16.97 68.09C11.76 68.09 6.13 73.62 5.51 73.96C5.51 73.96 7.9 72.54 9.89 72.54C11.88 72.54 13.84 74.02 16.97 74.02C18.58 74.02 19.9 74.53 21.56 75.17C23.66 75.98 26.28 76.99 29.99 76.99C34.07 76.99 37.38 75.77 39.8 74.88C40.9 74.48 42.14 74.02 42.67 74.02C43.2 74.02 44.44 74.48 45.54 74.88C47.96 75.77 51.27 76.99 55.35 76.99C59.05 76.99 61.67 75.98 63.78 75.17C65.44 74.53 66.75 74.02 68.36 74.02C71.5 74.02 72.8 72.54 75.45 72.54C78.12 72.54 79.86 73.96 79.86 73.96L79.83 73.96Z" />
			<path id="Layer" class="shp21" d="M48.42 13.86C48.21 13.79 47.99 13.74 47.77 13.69C48.83 13.29 49.59 12.27 49.59 11.07C49.59 9.53 48.34 8.27 46.8 8.27C45.25 8.27 44 9.53 44 11.07C44 12.14 44.61 13.07 45.49 13.54C37.47 14.06 25.29 24.63 24.9 42.52C24.75 49.63 25.65 55.45 28.13 59.68L54.98 59.49C58.9 54.54 62.51 48.27 62.51 40.05C62.51 29.12 54.53 15.86 48.42 13.86L48.42 13.86Z" />
			<path id="Layer" class="shp21" d="M56.46 33.96C53.51 24.33 45.72 14.9 38.85 13.66C39.87 13.24 40.59 12.24 40.59 11.07C40.59 9.53 39.34 8.27 37.79 8.27C36.25 8.27 35 9.53 35 11.07C35 12.16 35.62 13.1 36.54 13.56C36.06 13.62 35.6 13.71 35.14 13.86C29.05 15.87 21.24 29.35 21.24 40.05C21.24 47.95 24.44 54.75 28.13 59.68L54.98 59.49C57.52 55.25 60.63 47.57 56.46 33.96L56.46 33.96Z" />
			<path id="Layer" class="shp23" d="M54.89 70.69C51.52 69.14 46.74 68.04 41.94 68.04C37.15 68.04 32.65 69.02 28.62 70.79C32.65 72.56 37.07 73.59 41.87 73.59C46.67 73.59 50.87 72.46 54.9 70.69L54.89 70.69Z" />
			<path id="Layer" class="shp29" d="M53.49 61.36L53.49 61.36C50.22 59.95 46.46 58.77 41.6 58.77C36.73 58.77 32.97 59.95 29.7 61.36C29.7 61.36 28.97 66.12 28.9 67.19C28.79 68.84 28.62 70.79 28.62 70.79C32.65 69.02 37.14 68.04 41.94 68.04C46.65 68.04 50.92 68.98 54.89 70.69C54.75 69.37 54.58 68.05 54.25 66.08C54.07 65.03 53.48 61.35 53.48 61.35L53.49 61.36Z" />
			<path id="Layer" class="shp29" d="M28.62 70.79C32.65 69.02 37.14 68.04 41.94 68.04C46.64 68.04 50.91 68.98 54.89 70.69C54.78 69.59 54.54 68.9 54.39 67.49C50.39 66.09 46.35 65.38 41.88 65.38C37.35 65.38 32.87 66.2 28.84 67.63C28.82 68.87 28.61 70.79 28.61 70.79L28.62 70.79Z" />
			<path id="Layer" class="shp21" d="M29.7 61.36C32.97 59.95 36.73 58.75 41.6 58.72C45.74 58.69 50.22 59.95 53.49 61.36C53.67 61.18 54.43 60.95 54.98 59.49C52.23 56.51 48.14 54.96 41.6 54.96C34.61 54.96 30.88 56.7 28.13 59.68C28.67 61.14 29.51 61.18 29.69 61.36L29.7 61.36Z" />
			<path id="Layer" class="shp30" d="M41.6 54.96L41.6 58.72" />
			<path id="Layer" class="shp31" d="M48.55 34.85L47.24 36.16L40.66 36.16L40.66 30.23L41.97 28.92L39.33 26.28L36.69 28.92L38.01 30.24L38.01 36.16L31.4 36.16L30.09 34.85L27.45 37.49L30.09 40.13L31.41 38.81L38.01 38.81L38.01 46.06L36.69 47.38L39.33 50.02L41.97 47.38L40.66 46.07L40.66 38.81L47.23 38.81L48.55 40.13L51.19 37.49L48.55 34.85Z" />
			<path id="Layer" class="shp32" d="M260.04 102.5C260.04 102.5 261.15 96.54 261.15 95.71C261.15 94.87 261.98 94.74 262.81 95.85C263.64 96.95 267.39 102.36 267.39 102.36L260.04 102.49L260.04 102.5Z" />
			<path id="Layer" class="shp32" d="M309.77 148.23C309.39 145.54 308.88 142.98 308.25 140.54L306.25 139.74L307.59 138.14C306.82 135.56 305.93 133.13 304.96 130.85L303.06 130.31L304.01 128.69C302.99 126.52 301.89 124.5 300.75 122.62L298.98 122.26L299.61 120.8C298.34 118.83 297.03 117.03 295.72 115.4L293.85 115.19L294.35 113.73C292.83 111.94 291.35 110.39 289.97 109.06L288.1 108.95L288.42 107.61C285.08 104.58 282.71 103.11 282.71 103.11L278.46 104.4C278.46 104.4 276.43 103.29 274.76 102.18C274.76 102.18 273.65 98.48 273.29 96.45C272.92 94.42 271.81 95.34 271.44 95.9C271.07 96.45 267.23 100.7 267.23 100.7C267.23 100.7 264.94 100.39 263.31 100.7C260.9 101.17 259.79 102.78 257.02 105.42C255 107.34 253.78 109.02 253.09 110.82C252.4 112.63 253.23 112.63 252.95 114.29C252.68 115.95 245.19 128.43 244.36 129.95C243.53 131.48 241.52 136.14 245.47 139.1C246.57 139.94 247.41 140.35 248.1 140.63C248.1 140.63 249.21 140.35 249.63 139.8C249.7 139.7 249.74 139.64 249.76 139.6C249.77 139.57 249.78 139.57 249.76 139.6C249.71 139.71 249.62 140.12 250.04 140.63C250.73 141.46 251.63 141.4 252.12 141.46C252.86 141.55 254.2 140.91 255.31 139.24C256.42 137.58 257.11 137.02 257.94 136.05C258.77 135.08 263.36 132.94 265.15 129.95C265.57 129.26 266.54 129.54 267.23 130.09C267.93 130.65 271.81 130.79 273.47 128.01C273.47 128.01 274.26 135.31 270.97 140.35C265.57 148.67 256.42 150.75 253.65 158.51L310.49 158.51C310.49 155.83 310.34 153.25 310.09 150.78L308.2 149.78L309.8 148.23L309.77 148.23Z" />
			<path id="Layer" class="shp33" d="M280.49 106.26C280.49 106.26 304.7 124.38 304.7 157.09" />
			<path id="Layer" class="shp34" d="M249.75 139.4C249.77 139.37 249.76 139.37 249.75 139.4Z" />
			<path id="Layer" class="shp33" d="M275.5 118.83C275.96 124 273.56 127.7 273.47 128.02C273.47 128.02 279.29 125.02 279.84 121.05" />
			<path id="Layer" class="shp33" d="M273.46 128.02C273.46 128.02 277.34 129.92 280.21 128.71" />
			<path id="Layer" class="shp34" d="M249.62 139.6C249.62 139.6 252.21 136.27 252.95 134.75" />
			<path id="Layer" class="shp33" d="M265.56 108.89C265.56 108.89 261.3 108.91 259.88 111.25C257.94 114.43 260.15 114.85 260.15 114.85C260.15 114.85 262.37 115.54 263.9 113.46C265.52 111.25 264.17 109.86 264.17 109.86L265.55 108.89L265.56 108.89Z" />
			<path id="Layer" class="shp33" d="M244.91 132.39C246.43 131.97 247.4 132.11 248.1 132.53C248.1 132.53 247.4 130.45 248.65 128.65C249.9 126.84 251.98 126.71 253.78 123.24" />
			<path id="Layer" class="shp33" d="M285.38 110.83L288.02 109.17" />
			<path id="Layer" class="shp33" d="M290.79 116.79L293.43 115.55" />
			<path id="Layer" class="shp33" d="M295.64 123.71L298.69 122.46" />
			<path id="Layer" class="shp33" d="M299.53 131.63L302.71 130.52" />
			<path id="Layer" class="shp33" d="M302.57 140.92L305.9 139.95" />
			<path id="Layer" class="shp33" d="M304.38 150.34L307.84 149.93" />
			<path id="Layer" class="shp15" d="M256.71 18.34C256.71 18.34 257.82 12.38 257.82 11.55C257.82 10.72 258.65 10.58 259.48 11.69C260.31 12.8 264.06 18.21 264.06 18.21L256.71 18.34L256.71 18.34Z" />
			<path id="Layer" class="shp15" d="M306.45 64.07C306.07 61.38 305.56 58.82 304.93 56.38L302.93 55.58L304.27 53.98C303.5 51.4 302.61 48.97 301.64 46.69L299.74 46.15L300.68 44.55C299.66 42.38 298.56 40.35 297.42 38.47L295.65 38.11L296.28 36.65C295.01 34.68 293.7 32.88 292.39 31.25L290.52 31.04L291.02 29.58C289.5 27.79 288.01 26.24 286.64 24.91L284.77 24.8L285.09 23.46C281.75 20.43 279.38 18.96 279.38 18.96L275.13 20.25C275.13 20.25 273.1 19.14 271.43 18.03C271.43 18.03 270.32 14.34 269.96 12.3C269.58 10.27 268.48 11.19 268.11 11.75C267.74 12.3 263.9 16.55 263.9 16.55C263.9 16.55 261.61 16.24 259.97 16.55C257.57 17.02 256.46 18.63 253.69 21.27C251.67 23.19 250.45 24.87 249.76 26.68C249.07 28.48 249.9 28.48 249.62 30.14C249.34 31.8 241.86 44.28 241.03 45.81C240.2 47.33 238.19 51.99 242.14 54.96C243.24 55.79 244.08 56.2 244.77 56.48C244.77 56.48 245.88 56.2 246.29 55.65C246.37 55.55 246.41 55.49 246.42 55.46C246.44 55.42 246.45 55.42 246.42 55.46C246.38 55.56 246.29 55.97 246.71 56.48C247.4 57.31 248.29 57.25 248.79 57.31C249.53 57.41 250.87 56.76 251.98 55.09C253.09 53.43 253.78 52.88 254.61 51.91C255.44 50.94 260.03 48.79 261.82 45.81C262.24 45.11 263.21 45.39 263.9 45.95C264.59 46.5 268.48 46.64 270.14 43.86C270.14 43.86 270.93 51.16 267.64 56.2C262.24 64.52 253.09 66.6 250.32 74.36L307.15 74.36C307.15 71.68 307.01 69.11 306.76 66.63L304.87 65.63L306.5 64.09L306.45 64.07Z" />
			<path id="Layer" class="shp34" d="M277.16 22.1C277.16 22.1 301.37 40.22 301.37 72.94" />
			<path id="Layer" class="shp34" d="M246.42 55.46C246.44 55.42 246.44 55.42 246.42 55.46Z" />
			<path id="Layer" class="shp34" d="M272.17 34.67C272.63 39.84 270.23 43.54 270.14 43.86C270.14 43.86 275.96 40.86 276.51 36.89" />
			<path id="Layer" class="shp34" d="M270.14 43.87C270.14 43.87 274.02 45.77 276.89 44.56" />
			<path id="Layer" class="shp34" d="M246.29 55.65C246.29 55.65 248.88 52.32 249.62 50.8" />
			<path id="Layer" class="shp34" d="M262.24 24.74C262.24 24.74 257.98 24.76 256.56 27.09C254.62 30.28 256.83 30.7 256.83 30.7C256.83 30.7 259.05 31.39 260.58 29.31C262.2 27.1 260.85 25.71 260.85 25.71L262.23 24.74L262.24 24.74Z" />
			<path id="Layer" class="shp34" d="M241.58 48.44C243.11 48.02 244.08 48.16 244.77 48.58C244.77 48.58 244.08 46.5 245.32 44.7C246.57 42.89 248.65 42.76 250.45 39.29" />
			<path id="Layer" class="shp34" d="M282.06 26.68L284.69 25.02" />
			<path id="Layer" class="shp34" d="M287.47 32.64L290.1 31.39" />
			<path id="Layer" class="shp34" d="M292.32 39.56L295.37 38.31" />
			<path id="Layer" class="shp34" d="M296.2 47.47L299.39 46.36" />
			<path id="Layer" class="shp34" d="M299.25 56.76L302.58 55.79" />
			<path id="Layer" class="shp34" d="M301.05 66.19L304.52 65.77" />
			<path id="Layer" class="shp35" d="M359.45 152.57C355.7 145.13 356.08 131.87 356.39 126.73C362.32 126.32 366.59 125.2 366.59 123.87C366.59 122.57 362.48 121.47 356.72 121.04C360.4 119.15 362.92 115.32 362.92 110.89C362.92 104.59 357.81 99.48 351.51 99.48C345.2 99.48 340.09 104.59 340.09 110.89C340.09 115.32 342.61 119.15 346.29 121.04C340.53 121.47 336.42 122.57 336.42 123.87C336.42 125.2 340.69 126.32 346.62 126.73C346.93 131.87 347.31 145.13 343.56 152.57C336.21 154.05 331.05 157.52 331.05 161.56L371.95 161.56C371.95 157.52 366.8 154.05 359.45 152.57L359.45 152.57Z" />
			<path id="Layer" class="shp36" d="M359.45 68.97C355.7 61.52 356.08 48.26 356.39 43.13C362.32 42.72 366.59 41.6 366.59 40.27C366.59 38.97 362.48 37.87 356.72 37.44C360.4 35.55 362.92 31.71 362.92 27.29C362.92 20.99 357.81 15.88 351.51 15.88C345.2 15.88 340.09 20.99 340.09 27.29C340.09 31.71 342.61 35.55 346.29 37.44C340.53 37.87 336.42 38.97 336.42 40.27C336.42 41.6 340.69 42.72 346.62 43.13C346.93 48.26 347.31 61.52 343.56 68.97C336.21 70.45 331.05 73.92 331.05 77.96L371.95 77.96C371.95 73.92 366.8 70.45 359.45 68.97L359.45 68.97Z" />
			<path id="Layer" class="shp15" d="M-19.05 18.34C-19.05 18.34 -20.16 12.38 -20.16 11.55C-20.16 10.72 -20.99 10.58 -21.82 11.69C-22.65 12.8 -26.4 18.21 -26.4 18.21L-19.06 18.34L-19.05 18.34Z" />
			<path id="Layer" class="shp15" d="M-68.79 64.07C-68.41 61.38 -67.9 58.82 -67.27 56.38L-65.26 55.58L-66.6 53.98C-65.84 51.4 -64.95 48.97 -63.98 46.69L-62.08 46.15L-63.02 44.55C-62 42.38 -60.9 40.35 -59.76 38.47L-57.99 38.11L-58.62 36.65C-57.35 34.68 -56.03 32.88 -54.73 31.25L-52.86 31.04L-53.36 29.58C-51.84 27.79 -50.35 26.24 -48.98 24.91L-47.1 24.8L-47.43 23.46C-44.08 20.43 -41.72 18.96 -41.72 18.96L-37.47 20.25C-37.47 20.25 -35.44 19.14 -33.77 18.03C-33.77 18.03 -32.66 14.34 -32.29 12.3C-31.92 10.27 -30.82 11.19 -30.45 11.75C-30.08 12.3 -26.24 16.55 -26.24 16.55C-26.24 16.55 -23.95 16.24 -22.31 16.55C-19.91 17.02 -18.8 18.63 -16.03 21.27C-14.01 23.19 -12.79 24.87 -12.1 26.68C-11.41 28.48 -12.24 28.48 -11.96 30.14C-11.68 31.8 -4.2 44.28 -3.37 45.81C-2.53 47.33 -0.53 51.99 -4.47 54.96C-5.58 55.79 -6.42 56.2 -7.11 56.48C-7.11 56.48 -8.22 56.2 -8.63 55.65C-8.71 55.55 -8.75 55.49 -8.76 55.46C-8.78 55.42 -8.78 55.42 -8.76 55.46C-8.72 55.56 -8.62 55.97 -9.05 56.48C-9.74 57.31 -10.63 57.25 -11.13 57.31C-11.87 57.41 -13.21 56.76 -14.32 55.09C-15.43 53.43 -16.12 52.88 -16.95 51.91C-17.78 50.94 -22.37 48.79 -24.16 45.81C-24.58 45.11 -25.55 45.39 -26.24 45.95C-26.93 46.5 -30.82 46.64 -32.48 43.86C-32.48 43.86 -33.26 51.16 -29.98 56.2C-24.58 64.52 -15.43 66.6 -12.65 74.36L-69.52 74.36C-69.52 71.68 -69.37 69.11 -69.12 66.63L-67.23 65.63L-68.81 64.09L-68.79 64.07Z" />
			<path id="Layer" class="shp34" d="M-39.5 22.1C-39.5 22.1 -63.71 40.22 -63.71 72.94" />
			<path id="Layer" class="shp34" d="M-8.76 55.46C-8.78 55.42 -8.78 55.42 -8.76 55.46Z" />
			<path id="Layer" class="shp34" d="M-34.51 34.67C-34.97 39.84 -32.57 43.54 -32.48 43.86C-32.48 43.86 -38.3 40.86 -38.85 36.89" />
			<path id="Layer" class="shp34" d="M-32.48 43.87C-32.48 43.87 -36.36 45.77 -39.23 44.56" />
			<path id="Layer" class="shp34" d="M-8.63 55.65C-8.63 55.65 -11.22 52.32 -11.96 50.8" />
			<path id="Layer" class="shp34" d="M-24.58 24.74C-24.58 24.74 -20.32 24.76 -18.9 27.09C-16.96 30.28 -19.17 30.7 -19.17 30.7C-19.17 30.7 -21.39 31.39 -22.92 29.31C-24.54 27.1 -23.19 25.71 -23.19 25.71L-24.57 24.74L-24.58 24.74Z" />
			<path id="Layer" class="shp34" d="M-3.92 48.44C-5.45 48.02 -6.42 48.16 -7.11 48.58C-7.11 48.58 -6.42 46.5 -7.66 44.7C-8.91 42.89 -10.99 42.76 -12.79 39.29" />
			<path id="Layer" class="shp34" d="M-44.4 26.68L-47.03 25.02" />
			<path id="Layer" class="shp34" d="M-49.81 32.64L-52.44 31.39" />
			<path id="Layer" class="shp34" d="M-54.66 39.56L-57.71 38.31" />
			<path id="Layer" class="shp34" d="M-58.54 47.47L-61.73 46.36" />
			<path id="Layer" class="shp34" d="M-61.59 56.76L-64.92 55.79" />
			<path id="Layer" class="shp34" d="M-63.39 66.19L-66.86 65.77" />
			<path id="Layer" class="shp32" d="M-19.1 104.83C-19.1 104.83 -20.21 98.87 -20.21 98.04C-20.21 97.2 -21.04 97.07 -21.87 98.18C-22.7 99.29 -26.45 104.69 -26.45 104.69L-19.11 104.82L-19.1 104.83Z" />
			<path id="Layer" class="shp32" d="M-68.84 150.56C-68.46 147.87 -67.95 145.31 -67.32 142.87L-65.31 142.07L-66.65 140.47C-65.89 137.89 -65 135.46 -64.03 133.18L-62.13 132.64L-63.06 131.04C-62.04 128.87 -60.95 126.84 -59.81 124.96L-58.04 124.6L-58.67 123.14C-57.39 121.17 -56.08 119.37 -54.78 117.74L-52.91 117.53L-53.41 116.07C-51.88 114.28 -50.4 112.73 -49.03 111.4L-47.15 111.29L-47.48 109.95C-44.13 106.92 -41.77 105.45 -41.77 105.45L-37.52 106.74C-37.52 106.74 -35.48 105.63 -33.82 104.52C-33.82 104.52 -32.71 100.83 -32.34 98.79C-31.97 96.76 -30.86 97.69 -30.49 98.24C-30.12 98.79 -26.29 103.05 -26.29 103.05C-26.29 103.05 -23.99 102.73 -22.36 103.05C-19.96 103.51 -18.85 105.13 -16.08 107.76C-14.05 109.68 -12.84 111.36 -12.15 113.17C-11.46 114.97 -12.29 114.97 -12.01 116.63C-11.73 118.3 -4.25 130.77 -3.41 132.3C-2.58 133.82 -0.57 138.49 -4.52 141.45C-5.63 142.28 -6.47 142.69 -7.16 142.97C-7.16 142.97 -8.27 142.69 -8.68 142.14C-8.76 142.04 -8.79 141.98 -8.81 141.95C-8.83 141.91 -8.83 141.91 -8.81 141.95C-8.77 142.06 -8.67 142.46 -9.1 142.97C-9.79 143.8 -10.68 143.74 -11.18 143.8C-11.92 143.9 -13.26 143.25 -14.37 141.59C-15.48 139.92 -16.17 139.37 -17 138.4C-17.83 137.43 -22.42 135.28 -24.21 132.3C-24.63 131.6 -25.6 131.88 -26.29 132.44C-26.98 132.99 -30.86 133.13 -32.53 130.36C-32.53 130.36 -33.31 137.65 -30.03 142.69C-24.63 151.01 -15.48 153.09 -12.7 160.85L-69.57 160.85C-69.57 158.17 -69.43 155.6 -69.18 153.12L-67.29 152.12L-68.87 150.56L-68.84 150.56Z" />
			<path id="Layer" class="shp33" d="M-39.55 108.59C-39.55 108.59 -63.76 126.71 -63.76 159.42" />
			<path id="Layer" class="shp34" d="M-8.81 141.73C-8.83 141.7 -8.83 141.7 -8.81 141.73Z" />
			<path id="Layer" class="shp33" d="M-34.56 121.16C-35.02 126.33 -32.62 130.03 -32.53 130.35C-32.53 130.35 -38.35 127.35 -38.9 123.38" />
			<path id="Layer" class="shp33" d="M-32.53 130.35C-32.53 130.35 -36.41 132.25 -39.28 131.04" />
			<path id="Layer" class="shp34" d="M-8.68 141.93C-8.68 141.93 -11.27 138.6 -12.01 137.08" />
			<path id="Layer" class="shp33" d="M-24.63 111.22C-24.63 111.22 -20.37 111.24 -18.95 113.58C-17 116.77 -19.22 117.18 -19.22 117.18C-19.22 117.18 -21.44 117.87 -22.97 115.79C-24.59 113.58 -23.24 112.19 -23.24 112.19L-24.62 111.22L-24.63 111.22Z" />
			<path id="Layer" class="shp33" d="M-3.97 134.72C-5.5 134.3 -6.47 134.44 -7.16 134.86C-7.16 134.86 -6.47 132.78 -7.71 130.98C-8.96 129.17 -11.04 129.04 -12.84 125.57" />
			<path id="Layer" class="shp33" d="M-44.45 113.17L-47.08 111.5" />
			<path id="Layer" class="shp33" d="M-49.86 119.13L-52.49 117.88" />
			<path id="Layer" class="shp33" d="M-54.71 126.04L-57.76 124.79" />
			<path id="Layer" class="shp33" d="M-58.59 133.96L-61.78 132.85" />
			<path id="Layer" class="shp33" d="M-61.64 143.25L-64.97 142.28" />
			<path id="Layer" class="shp33" d="M-63.44 152.67L-66.91 152.26" />
		</g>
	</g>
</svg>