<svg xmlns="http://www.w3.org/2000/svg" viewBox="0 0 77 90" width="86" height="100">
	<style>
		tspan { white-space:pre }
		.shp0 { fill: #000000;stroke: #000000;stroke-width: 0.31 } 
		.shp1 { fill: #000000 } 
		.shp2 { fill: #000000;stroke: #ffffff;stroke-linecap:round;stroke-width: 1.009 } 
		.shp3 { fill: none;stroke: #ffffff;stroke-linejoin:bevel;stroke-width: 0.62 } 
		.shp4 { fill: none;stroke: #ffffff;stroke-linecap:round;stroke-width: 1.009 } 
		.shp5 { fill: #ffffff;stroke: #000000;stroke-width: 0.317 } 
		.shp6 { fill: none;stroke: #ffffff;stroke-width: 0.62 } 
		.shp7 { fill: #ffffff;stroke: #20201e;stroke-width: 1.211 } 
		.shp8 { fill: #ffffff;stroke: #20201e;stroke-linejoin:round;stroke-width: 1.211 } 
		.shp9 { fill: #ffffff;stroke: #20201e;stroke-linejoin:bevel;stroke-width: 1.211 } 
		.shp10 { fill: #000000;stroke: #000000;stroke-linejoin:bevel;stroke-width: 0.853 } 
		.shp11 { fill: #000000;stroke: #ffffff;stroke-linecap:round;stroke-width: 0.926 } 
		.shp12 { fill: none;stroke: #ffffff;stroke-linecap:round;stroke-width: 0.926 } 
		.shp13 { fill: #ffffff } 
		.shp14 { fill: #ffffff;stroke: #20201e;stroke-linejoin:bevel;stroke-width: 1.111 } 
		.shp15 { fill: #ffffff;stroke: #20201e;stroke-width: 1.111 } 
		.shp16 { fill: #000000;stroke: #000000;stroke-linecap:square;stroke-width: 0.853 } 
		.shp17 { fill: none;stroke: #ffffff;stroke-linecap:round;stroke-width: 0.853 } 
		.shp18 { fill: #ffffff;stroke: #20201e;stroke-linejoin:round;stroke-width: 1.111 } 
		.shp19 { fill: #ffffff;stroke: #20201e;stroke-linecap:square;stroke-width: 1.111 } 
		.shp20 { fill: #20201e } 
		.shp21 { fill: #ffffff;stroke: #20201e;stroke-width: 1.32 } 
		.shp22 { fill: #000000;stroke: #000000;stroke-width: 0.533 } 
		.shp23 { fill: #ffffff;stroke: #000000;stroke-linejoin:bevel;stroke-width: 1.014 } 
		.shp24 { fill: #000000;stroke: #000000;stroke-linejoin:bevel;stroke-width: 0.533 } 
		.shp25 { fill: none;stroke: #ffffff;stroke-linecap:round;stroke-linejoin:bevel;stroke-width: 0.533 } 
		.shp26 { fill: none;stroke: #ffffff;stroke-linecap:round;stroke-width: 0.533 } 
		.shp27 { fill: #ffffff;stroke: #000000;stroke-width: 0.533 } 
		.shp28 { fill: #ffffff;stroke: #20201e;stroke-linecap:round;stroke-linejoin:round;stroke-width: 1.32 } 
		.shp29 { fill: #ffffff;stroke: #20201e;stroke-linejoin:bevel;stroke-width: 1.32 } 
		.shp30 { fill: #ffffff;stroke: #000000;stroke-width: 1.014 } 
		.shp31 { fill: #ffffff;stroke: #000000;stroke-width: 0.77 } 
		.shp32 { fill: #20201e;stroke: #20201e;stroke-width: 0.853 } 
		.shp33 { fill: none;stroke: #ffffff;stroke-width: 0.853 } 
		.shp34 { fill: none;stroke: #20201e;stroke-width: 0.853 } 
		.shp35 { fill: #000000;stroke: #000000;stroke-linejoin:round;stroke-width: 0.79 } 
		.shp36 { fill: #ffffff;stroke: #000000;stroke-linejoin:round;stroke-width: 1.111 } 
	</style>
	<g id="Layer">
		<g id="Layer">
			<path id="Layer" class="shp0" d="M201.26 118.52C202.61 117.72 203.18 116.65 203.18 115.47C203.18 115.13 203.23 98.89 203.23 98.89L187.13 98.89C187.13 98.89 187.06 115.27 187.06 115.47C187.06 116.66 187.9 117.74 189.27 118.54C188.3 118.68 187.34 118.85 186.39 119.06C187.91 120.03 189.34 121.16 190.67 122.45C192.54 124.28 194.1 126.3 195.32 128.48C196.54 126.3 198.09 124.28 199.97 122.45C201.3 121.16 202.73 120.03 204.25 119.06C203.28 118.85 202.28 118.68 201.28 118.53L201.26 118.52Z" />
			<path id="Layer" class="shp1" d="M216.07 155.43C215.07 153.43 215.05 150.82 215.49 149.06C215.94 147.24 220.24 143.81 220.24 143.81C227.81 136.45 229.54 125.95 224.11 120.36C218.68 114.78 208.14 116.23 200.57 123.59C198.31 125.79 196.57 128.27 195.39 130.82C194.2 128.27 192.47 125.79 190.21 123.59C182.64 116.23 172.1 114.78 166.66 120.36C161.23 125.95 162.97 136.45 170.54 143.81C170.88 144.14 174.65 147.24 175.1 149.06C175.56 150.87 175.62 153.48 174.53 155.5L174.69 155.5C174.67 155.51 174.65 155.52 174.62 155.53C180.89 158.62 187.94 160.36 195.39 160.36C202.84 160.35 209.79 158.51 216.06 155.42" />
			<g id="Layer">
				<path id="Layer" class="shp2" d="M175.72 155.06C181.75 152.25 188.42 150.69 195.51 150.69C202.32 150.69 208.86 152.36 214.69 154.73" />
				<path id="Layer" class="shp2" d="M217.59 143.38C211.31 141.25 203.62 139.99 195.3 139.99C186.92 139.99 179.16 141.27 172.85 143.44" />
			</g>
			<path id="Layer" class="shp3" d="M201.92 100.06L188.41 112.17L201.92 112.17L188.41 100.06L201.92 100.06Z" />
			<path id="Layer" class="shp4" d="M213.66 150.77C207.88 148.74 201.73 147.27 195.35 147.27C188.84 147.27 182.58 148.78 176.7 150.88" />
			<path id="Layer" class="shp5" d="M192.18 143.96L195.35 145.54L198.52 143.96L195.35 142.37L192.18 143.96Z" />
			<path id="Layer" class="shp5" d="M179.23 146.02L182.61 147.07L185.48 145L182.1 143.94L179.23 146.02Z" />
			<path id="Layer" class="shp5" d="M211.48 146.02L208.09 147.07L205.22 145L208.6 143.94L211.48 146.02Z" />
			<path id="Layer" class="shp3" d="M188.41 100.06L201.93 100.06L201.93 112.17L188.41 112.17L188.41 100.06Z" />
			<path id="Layer" class="shp6" d="M195.28 121.89C192.13 121.89 189.58 120.01 189.58 117.68C189.58 115.35 192.13 113.47 195.28 113.47C198.43 113.47 200.98 115.35 200.98 117.68C200.98 120.01 198.43 121.89 195.28 121.89Z" />
			<path id="Layer" class="shp7" d="M203.26 10.64L187.16 10.64L187.16 27.47C187.16 29.95 190.78 31.96 195.25 31.96C199.72 31.96 203.23 29.95 203.23 27.47C203.23 27.25 203.26 10.64 203.26 10.64L203.26 10.64Z" />
			<path id="Layer" class="shp7" d="M187.16 10.64L203.26 10.64L203.26 25.07L187.16 25.07L187.16 10.64Z" />
			<path id="Layer" class="shp7" d="M187.16 10.64L203.26 25.07" />
			<path id="Layer" class="shp7" d="M203.26 10.64L187.16 25.07" />
			<path id="Layer" class="shp8" d="M216 67.14C209.74 64.05 202.93 62.42 195.47 62.42C188.01 62.42 180.88 64.16 174.62 67.25C180.88 70.34 187.89 72.12 195.35 72.12C202.81 72.13 209.74 70.24 216 67.15L216 67.14Z" />
			<path id="Layer" class="shp9" d="M219.13 56.54C219.49 56.23 219.85 55.9 220.2 55.56C227.77 48.2 229.5 37.7 224.07 32.12C218.63 26.53 208.1 27.98 200.53 35.35C198.26 37.55 196.53 40.03 195.34 42.57C194.16 40.03 192.42 37.55 190.16 35.35C182.59 27.98 172.05 26.53 166.62 32.12C161.19 37.7 162.92 48.2 170.49 55.56C170.84 55.9 171.2 56.23 171.56 56.54C178.1 54.09 186.36 52.62 195.35 52.62C204.33 52.62 212.59 54.09 219.12 56.54L219.13 56.54Z" />
			<path id="Layer" class="shp7" d="M195.35 42.58C196.53 40.04 198.27 37.56 200.53 35.36C202.37 33.56 204.4 32.12 206.48 31.05C203.03 30.08 199.28 29.54 195.36 29.54C191.43 29.54 187.68 30.08 184.23 31.05C186.31 32.12 188.33 33.56 190.17 35.36C192.43 37.56 194.16 40.04 195.35 42.58L195.35 42.58Z" />
			<path id="Layer" class="shp9" d="M219.04 56.54L219.04 56.53C212.5 54.08 204.25 52.62 195.27 52.62C186.28 52.62 178.02 54.09 171.48 56.54C171.48 56.54 174.61 59 175.07 60.81C175.52 62.62 175.72 65.22 174.63 67.24C180.89 64.15 188.02 62.42 195.48 62.42C202.79 62.42 209.84 64.16 216.01 67.14C215.01 65.14 215.01 62.57 215.45 60.81C215.9 59.01 219.04 56.55 219.04 56.55L219.04 56.54Z" />
			<path id="Layer" class="shp9" d="M174.62 67.25C180.88 64.16 188.02 62.43 195.47 62.43C202.79 62.43 209.83 64.16 216 67.14C215.58 66.29 215.13 64.11 215.2 62.9C209 60.46 202.33 59.13 195.37 59.13C188.34 59.13 181.6 60.49 175.33 62.98C175.41 65.23 175.09 66.36 174.62 67.24L174.62 67.25Z" />
			<path id="Layer" class="shp1" d="M192.29 55.96L195.39 57.51L198.48 55.96L195.39 54.41L192.29 55.96Z" />
			<path id="Layer" class="shp1" d="M179.62 57.98L182.92 59.01L185.73 56.98L182.43 55.95L179.62 57.98Z" />
			<path id="Layer" class="shp1" d="M211.15 57.98L207.85 59.01L205.04 56.98L208.34 55.95L211.15 57.98Z" />
			<path id="Layer" class="shp7" d="M195.35 33.98C192.2 33.98 189.65 32.1 189.65 29.77C189.65 27.44 192.2 25.56 195.35 25.56C198.5 25.56 201.05 27.44 201.05 29.77C201.05 32.1 198.5 33.98 195.35 33.98Z" />
			<path id="Layer" class="shp10" d="M305.7 113.6C306.55 112.14 306.06 110.27 304.6 109.42C303.14 108.56 301.27 109.06 300.42 110.52C299.69 111.77 299.95 113.32 300.95 114.27C296.79 119.32 289.19 128.54 287.35 130.77C286.81 130.53 286.25 130.3 285.67 130.09C285.84 128.38 287.04 115.3 287.68 108.34C289.07 108.37 290.35 107.45 290.71 106.05C291.13 104.42 290.15 102.75 288.52 102.33C286.88 101.9 285.21 102.88 284.79 104.52C284.42 105.92 285.1 107.35 286.33 107.99C283.31 114.83 277.47 128.1 277.45 128.15C277.45 128.17 277.45 128.18 277.45 128.19C276.92 128.13 276.37 128.08 275.82 128.03C275.71 127.29 273.2 111.91 271.89 103.9C273.39 103.55 274.51 102.2 274.51 100.59C274.51 98.72 272.99 97.19 271.11 97.19C269.24 97.19 267.72 98.72 267.72 100.59C267.72 102.2 268.84 103.55 270.34 103.9C269.04 111.87 266.55 127.15 266.42 128.02C265.83 128.06 265.27 128.12 264.71 128.18C264.71 128.16 264.71 128.15 264.7 128.13C264.69 128.07 258.84 114.8 255.83 107.97C257.06 107.32 257.73 105.9 257.37 104.49C256.94 102.86 255.28 101.88 253.64 102.3C252.01 102.72 251.02 104.39 251.45 106.03C251.81 107.43 253.09 108.35 254.48 108.32C255.11 115.26 256.32 128.32 256.48 130.06C255.91 130.26 255.37 130.49 254.84 130.72C252.93 128.4 245.41 119.29 241.27 114.28C242.28 113.32 242.54 111.77 241.81 110.52C240.96 109.06 239.09 108.57 237.63 109.42C236.17 110.27 235.68 112.14 236.53 113.6C237.26 114.85 238.74 115.39 240.07 114.98C242.55 121.46 250.58 142.31 250.89 142.6L250.89 142.6C250.9 142.63 251.69 147.8 251.77 149.52C251.86 151.22 251.12 155.4 251.17 155.42L251.17 155.43C251.17 155.43 251.17 155.42 251.18 155.42C257.13 158.21 263.91 159.78 271.18 159.78C278.52 159.78 291.77 155.29 291.71 155.26C290.84 153.43 291.17 142.59 291.17 142.59C291.48 142.3 299.61 121.63 302.16 114.98C303.47 115.39 304.95 114.85 305.68 113.6" />
			<g id="Layer">
				<path id="Layer" class="shp11" d="M252.65 154.18C258.91 151.6 264.77 150.49 271.95 150.49C278.85 150.49 284.37 151.63 290.14 154.03" />
				<path id="Layer" class="shp11" d="M288.95 142.09C283.86 140.13 277.62 138.98 270.88 138.98C264.08 138.98 257.79 140.15 252.67 142.14" />
			</g>
			<path id="Layer" class="shp12" d="M289.56 150.61C283.92 148.75 278.19 147.4 271.72 147.4C265.14 147.4 258.8 148.79 252.85 150.72" />
			<path id="Layer" class="shp13" d="M268.3 143.65L271.14 145.07L273.99 143.65L271.14 142.23L268.3 143.65Z" />
			<path id="Layer" class="shp13" d="M285.61 145.5L282.58 146.45L280 144.59L283.03 143.64L285.61 145.5Z" />
			<path id="Layer" class="shp13" d="M256.68 145.5L259.71 146.45L262.29 144.59L259.26 143.64L256.68 145.5Z" />
			<path id="Layer" class="shp14" d="M291.22 69.36C285.15 66.52 278.51 65.03 271.17 65.03C263.82 65.03 256.71 66.66 250.44 69.5C256.51 72.33 263.39 73.93 270.73 73.93C278.08 73.94 284.96 72.2 291.22 69.37L291.22 69.36Z" />
			<path id="Layer" class="shp14" d="M290.77 56.63L290.77 56.62C285.31 54.38 278.97 53.01 270.73 53.01C262.48 53.01 256.11 54.38 250.49 56.63C250.49 56.63 251.1 61.83 251.13 63.55C251.16 65.49 250.62 69.46 250.62 69.46C256.88 66.63 263.83 65.03 271.17 65.03C278.37 65.03 285.68 66.51 291.22 69.36C290.31 67.54 290.77 56.64 290.77 56.64L290.77 56.63Z" />
			<path id="Layer" class="shp14" d="M250.64 69.43C256.54 66.63 263.83 65.03 271.17 65.03C278.37 65.03 284.41 66.05 291.22 69.36C290.95 68.59 290.76 66.22 290.71 65.35C284.68 63.11 278.03 61.84 271.18 61.84C264.26 61.84 257.3 63.18 251.05 65.47C250.92 66.36 250.64 69.42 250.64 69.42L250.64 69.43Z" />
			<path id="Layer" class="shp15" d="M304.3 23.45C302.84 22.6 300.97 23.1 300.12 24.56C299.39 25.81 299.65 27.36 300.65 28.31C296.49 33.36 288.88 42.58 287.05 44.81C286.51 44.57 285.95 44.34 285.37 44.13C285.53 42.42 286.74 29.34 287.38 22.38C288.77 22.41 290.05 21.49 290.41 20.09C290.83 18.46 289.85 16.79 288.21 16.36C286.58 15.94 284.91 16.92 284.49 18.56C284.12 19.96 284.8 21.39 286.03 22.03C283.01 28.87 277.17 42.14 277.15 42.19C277.15 42.21 277.15 42.22 277.15 42.23C276.62 42.17 276.07 42.11 275.51 42.07C275.4 41.33 272.9 25.95 271.59 17.94C273.09 17.59 274.21 16.24 274.21 14.63C274.21 12.76 272.69 11.23 270.81 11.23C268.94 11.23 267.41 12.76 267.41 14.63C267.41 16.24 268.54 17.59 270.04 17.94C268.74 25.91 266.24 41.19 266.11 42.06C265.53 42.1 264.96 42.16 264.41 42.22C264.41 42.2 264.41 42.19 264.4 42.17C264.39 42.11 258.54 28.84 255.53 22.01C256.76 21.36 257.43 19.94 257.07 18.53C256.64 16.9 254.97 15.92 253.34 16.34C251.71 16.76 250.72 18.43 251.15 20.07C251.51 21.47 252.79 22.39 254.18 22.36C254.81 29.3 256.01 42.35 256.18 44.1C255.61 44.3 255.06 44.53 254.54 44.76C252.63 42.44 245.11 33.33 240.97 28.31C241.98 27.36 242.24 25.81 241.51 24.56C240.66 23.1 238.79 22.6 237.33 23.46C235.87 24.31 235.38 26.18 236.23 27.64C236.96 28.89 238.44 29.43 239.77 29.02C242.25 35.5 250.28 56.35 250.59 56.63C256.12 54.38 262.49 53.01 270.73 53.01C278.98 53.01 285.34 54.38 290.87 56.63C291.18 56.34 299.31 35.67 301.86 29.02C303.19 29.43 304.67 28.89 305.4 27.64C306.22 26.18 305.73 24.31 304.27 23.46L304.3 23.45Z" />
			<path id="Layer" class="shp1" d="M268 57.62L270.84 59.04L273.69 57.62L270.84 56.2L268 57.62Z" />
			<path id="Layer" class="shp1" d="M256.38 59.46L259.41 60.4L261.99 58.54L258.96 57.6L256.38 59.46Z" />
			<path id="Layer" class="shp1" d="M285.31 59.47L282.28 60.42L279.7 58.56L282.73 57.61L285.31 59.47Z" />
			<g id="Layer">
				<path id="Layer" class="shp16" d="M-11.37 154.65L-12.34 154.65L-12.34 148.83L-17 143.6L-17.05 143.6L-17.05 112.78L-17 112.78L-10.93 106.98L-10.89 106.98L-10.89 97.04C-10.89 96.18 -11.57 95.47 -12.4 95.47L-20.79 95.47L-20.79 100.87L-25.51 102.43L-29.85 100.87L-29.85 95.47L-40.2 95.47L-40.2 100.87L-44.55 102.43L-49.26 100.87L-49.26 95.47L-57.65 95.47C-58.48 95.47 -59.16 96.18 -59.16 97.04L-59.16 106.98L-59.14 106.98L-53.05 112.78L-53.05 143.6L-57.71 148.83L-57.71 154.65L-58.68 154.65C-59.55 154.65 -60.26 155.35 -60.26 156.22L-60.26 159.92C-60.26 160.78 -59.55 161.49 -58.68 161.49L-11.37 161.49C-10.5 161.49 -9.8 160.78 -9.8 159.92L-9.8 156.22C-9.8 155.36 -10.5 154.65 -11.37 154.65L-11.37 154.65Z" />
				<path id="Layer" class="shp17" d="M-56.18 154.65L-14.22 154.65" />
				<path id="Layer" class="shp17" d="M-55.99 148.83L-14.4 148.83" />
				<path id="Layer" class="shp17" d="M-18.84 143.61L-51.92 143.61" />
				<path id="Layer" class="shp17" d="M-51.74 112.79L-18.65 112.79" />
				<path id="Layer" class="shp17" d="M-57.1 106.98L-12.19 106.98" />
			</g>
			<path id="Layer" class="shp15" d="M-11.72 75.59C-10.85 75.59 -10.15 74.89 -10.15 74.02L-10.15 70.32C-10.15 69.45 -10.85 68.75 -11.72 68.75L-59.04 68.75C-59.91 68.75 -60.61 69.45 -60.61 70.32L-60.61 74.02C-60.61 74.89 -59.91 75.59 -59.04 75.59L-11.72 75.59Z" />
			<path id="Layer" class="shp15" d="M-58.07 62.93L-12.69 62.93L-12.69 68.75L-58.07 68.75L-58.07 62.93Z" />
			<path id="Layer" class="shp14" d="M-12.69 62.93L-17.36 57.7L-53.41 57.7L-58.07 62.93L-12.69 62.93Z" />
			<path id="Layer" class="shp18" d="M-11.27 21.06L-17.36 26.88L-53.41 26.88L-59.51 21.06L-11.27 21.06Z" />
			<path id="Layer" class="shp15" d="M-53.41 26.88L-17.41 26.88L-17.41 57.7L-53.41 57.7L-53.41 26.88Z" />
			<path id="Layer" class="shp19" d="M-12.75 9.57L-21.15 9.57L-21.15 14.97L-25.86 16.53L-30.21 14.97L-30.21 9.57L-40.56 9.57L-40.56 14.97L-44.9 16.53L-49.61 14.97L-49.61 9.57L-58.01 9.57C-58.84 9.57 -59.51 10.27 -59.51 11.14L-59.51 21.08L-11.25 21.08L-11.25 11.14C-11.25 10.27 -11.92 9.57 -12.75 9.57L-12.75 9.57Z" />
			<path id="Layer" class="shp20" d="M156.87 159.82C156.25 159.48 150.62 153.95 145.4 153.95C142.69 153.95 140.56 154.77 138.69 155.49C136.79 156.23 134.99 156.92 132.39 156.92C129.36 156.92 126.85 155.99 124.63 155.18C122.84 154.52 121.29 153.95 119.71 153.95C118.13 153.95 116.58 154.52 114.79 155.18C112.57 155.99 110.06 156.92 107.03 156.92C104.43 156.92 102.63 156.23 100.73 155.49C98.85 154.77 96.73 153.95 94.02 153.95C88.8 153.95 83.17 159.48 82.55 159.82C82.55 159.82 84.82 158.4 86.93 158.4C89.05 158.4 90.88 159.88 94.02 159.88C95.63 159.88 96.94 160.39 98.6 161.03C100.71 161.84 103.32 162.85 107.03 162.85C111.11 162.85 114.42 161.63 116.84 160.74C117.94 160.34 119.18 159.88 119.71 159.88C120.24 159.88 121.48 160.34 122.58 160.74C125 161.63 128.31 162.85 132.39 162.85C136.09 162.85 138.71 161.84 140.82 161.03C142.48 160.39 143.79 159.88 145.4 159.88C148.54 159.88 150.92 158.4 152.49 158.4C154.05 158.4 156.9 159.82 156.9 159.82L156.87 159.82Z" />
			<path id="Layer" class="shp21" d="M139.64 125.91C139.64 116.56 131.66 101.73 125.55 99.72C125.34 99.65 125.12 99.59 124.89 99.55C125.96 99.15 126.72 98.13 126.72 96.93C126.72 95.38 125.47 94.13 123.93 94.13C122.38 94.13 121.13 95.38 121.13 96.93C121.13 98 121.74 98.93 122.62 99.4C121.37 99.48 120.02 99.81 118.62 100.37C117.73 99.96 116.85 99.67 115.98 99.51C117 99.1 117.72 98.1 117.72 96.93C117.72 95.38 116.47 94.13 114.92 94.13C113.38 94.13 112.13 95.38 112.13 96.93C112.13 98.02 112.75 98.96 113.66 99.42C113.19 99.47 112.72 99.57 112.27 99.72C106.17 101.73 98.37 116.01 98.37 125.91C98.37 133.81 101.57 140.61 105.26 145.54C105.81 147 106.65 147.04 106.83 147.22C106.83 147.22 106.83 147.22 106.83 147.22C106.83 147.24 106.1 151.98 106.03 153.05C105.92 154.7 105.75 156.64 105.75 156.64C109.78 158.42 114.2 159.45 118.99 159.45C123.79 159.45 127.99 158.32 132.02 156.54C131.87 155.23 131.71 153.91 131.38 151.93C131.21 150.9 130.62 147.22 130.62 147.22C130.8 147.04 131.88 145.67 131.88 145.67C135.8 140.72 139.63 134.12 139.63 125.91L139.64 125.91Z" />
			<path id="Layer" class="shp22" d="M106.93 147.22C110.2 145.81 113.96 144.58 118.83 144.58C123.69 144.58 127.45 145.81 130.72 147.22C130.9 147.04 131.32 146.58 132.21 145.34C129.46 142.37 125.45 140.73 118.91 140.73C111.92 140.73 108.11 142.56 105.36 145.54C105.92 146.99 106.76 147.04 106.94 147.22L106.93 147.22Z" />
			<path id="Layer" class="shp23" d="M131.91 156.54C127.88 154.77 123.76 153.89 118.96 153.89C114.16 153.89 109.67 154.87 105.64 156.64C109.67 158.41 114.09 159.44 118.89 159.44C123.69 159.44 127.89 158.31 131.92 156.54L131.91 156.54Z" />
			<path id="Layer" class="shp22" d="M131.8 145.67C134.34 141.43 137.68 133.43 133.5 119.81C130 108.39 119.69 97.24 112.19 99.72C105.53 101.91 98.29 117.65 98.29 125.9C98.29 133.8 101.49 140.61 105.18 145.53L131.81 145.66L131.8 145.67Z" />
			<path id="Layer" class="shp22" d="M114.84 99.72C113.29 99.72 112.04 98.47 112.04 96.92C112.04 95.37 113.29 94.12 114.84 94.12C116.39 94.12 117.64 95.37 117.64 96.92C117.64 98.47 116.39 99.72 114.84 99.72Z" />
			<path id="Layer" class="shp24" d="M130.53 147.21L130.53 147.21C127.26 145.8 123.5 144.62 118.64 144.62C113.77 144.62 110.01 145.8 106.75 147.21C106.75 147.21 106.01 151.97 105.94 153.04C105.83 154.69 105.67 156.64 105.67 156.64C109.69 154.87 114.19 153.89 118.98 153.89C123.69 153.89 127.96 154.83 131.93 156.54C131.79 155.22 131.62 153.9 131.29 151.93C131.11 150.89 130.52 147.2 130.52 147.2L130.53 147.21Z" />
			<path id="Layer" class="shp25" d="M130.41 153.59C126.79 152.47 122.92 151.85 118.93 151.85C114.87 151.85 110.72 152.51 107 153.68" />
			<g id="Layer">
				<path id="Layer" class="shp26" d="M107.78 146.78C110.81 145.56 114.28 144.57 118.64 144.57C123.03 144.57 126.51 145.57 129.55 146.8" />
				<path id="Layer" class="shp26" d="M131.52 144.63C127.68 141.56 124.6 140.73 118.91 140.73C114.15 140.73 109.23 142 106.87 144.15" />
			</g>
			<path id="Layer" class="shp27" d="M125.59 120.71L124.29 122.02L117.71 122.02L117.71 116.08L119.02 114.77L116.38 112.13L113.74 114.77L115.06 116.09L115.06 122.02L108.44 122.02L107.13 120.71L104.49 123.35L107.13 125.99L108.46 124.67L115.06 124.67L115.06 131.91L113.74 133.23L116.38 135.87L119.02 133.23L117.71 131.92L117.71 124.67L124.27 124.67L125.59 125.99L128.23 123.35L125.59 120.71Z" />
			<path id="Layer" class="shp28" d="M155.83 73.96C155.21 73.62 149.58 68.09 144.36 68.09C141.65 68.09 139.52 68.91 137.65 69.63C135.75 70.37 133.95 71.06 131.35 71.06C128.32 71.06 125.81 70.13 123.59 69.32C121.8 68.66 120.25 68.09 118.67 68.09C117.09 68.09 115.54 68.66 113.75 69.32C111.53 70.13 109.02 71.06 105.99 71.06C103.39 71.06 101.59 70.37 99.69 69.63C97.81 68.91 95.69 68.09 92.97 68.09C87.76 68.09 82.13 73.62 81.51 73.96C81.51 73.96 83.9 72.54 85.89 72.54C87.88 72.54 89.84 74.02 92.97 74.02C94.58 74.02 95.9 74.53 97.56 75.17C99.66 75.98 102.28 76.99 105.99 76.99C110.07 76.99 113.38 75.77 115.8 74.88C116.9 74.48 118.14 74.02 118.67 74.02C119.2 74.02 120.44 74.48 121.54 74.88C123.96 75.77 127.27 76.99 131.35 76.99C135.05 76.99 137.67 75.98 139.78 75.17C141.44 74.53 142.75 74.02 144.36 74.02C147.5 74.02 148.8 72.54 151.45 72.54C154.12 72.54 155.86 73.96 155.86 73.96L155.83 73.96Z" />
			<path id="Layer" class="shp21" d="M124.42 13.86C124.21 13.79 123.99 13.74 123.77 13.69C124.83 13.29 125.59 12.27 125.59 11.07C125.59 9.53 124.34 8.27 122.8 8.27C121.25 8.27 120 9.53 120 11.07C120 12.14 120.61 13.07 121.49 13.54C113.47 14.06 101.29 24.63 100.9 42.52C100.75 49.63 101.65 55.45 104.13 59.68L130.98 59.49C134.9 54.54 138.51 48.27 138.51 40.05C138.51 29.12 130.53 15.86 124.42 13.86L124.42 13.86Z" />
			<path id="Layer" class="shp21" d="M132.46 33.96C129.51 24.33 121.72 14.9 114.85 13.66C115.87 13.24 116.59 12.24 116.59 11.07C116.59 9.53 115.34 8.27 113.79 8.27C112.25 8.27 111 9.53 111 11.07C111 12.16 111.62 13.1 112.54 13.56C112.06 13.62 111.6 13.71 111.14 13.86C105.05 15.87 97.24 29.35 97.24 40.05C97.24 47.95 100.44 54.75 104.13 59.68L130.98 59.49C133.52 55.25 136.63 47.57 132.46 33.96L132.46 33.96Z" />
			<path id="Layer" class="shp23" d="M130.89 70.69C127.52 69.14 122.74 68.04 117.94 68.04C113.15 68.04 108.65 69.02 104.62 70.79C108.65 72.56 113.07 73.59 117.87 73.59C122.67 73.59 126.87 72.46 130.9 70.69L130.89 70.69Z" />
			<path id="Layer" class="shp29" d="M129.49 61.36L129.49 61.36C126.22 59.95 122.46 58.77 117.6 58.77C112.73 58.77 108.97 59.95 105.7 61.36C105.7 61.36 104.97 66.12 104.9 67.19C104.79 68.84 104.62 70.79 104.62 70.79C108.65 69.02 113.14 68.04 117.94 68.04C122.65 68.04 126.92 68.98 130.89 70.69C130.75 69.37 130.58 68.05 130.25 66.08C130.07 65.03 129.48 61.35 129.48 61.35L129.49 61.36Z" />
			<path id="Layer" class="shp29" d="M104.62 70.79C108.65 69.02 113.14 68.04 117.94 68.04C122.64 68.04 126.91 68.98 130.89 70.69C130.78 69.59 130.54 68.9 130.39 67.49C126.39 66.09 122.35 65.38 117.88 65.38C113.35 65.38 108.87 66.2 104.84 67.63C104.82 68.87 104.61 70.79 104.61 70.79L104.62 70.79Z" />
			<path id="Layer" class="shp21" d="M105.7 61.36C108.97 59.95 112.73 58.75 117.6 58.72C121.74 58.69 126.22 59.95 129.49 61.36C129.67 61.18 130.43 60.95 130.98 59.49C128.23 56.51 124.14 54.96 117.6 54.96C110.61 54.96 106.88 56.7 104.13 59.68C104.67 61.14 105.51 61.18 105.69 61.36L105.7 61.36Z" />
			<path id="Layer" class="shp30" d="M117.6 54.96L117.6 58.72" />
			<path id="Layer" class="shp31" d="M124.55 34.85L123.24 36.16L116.66 36.16L116.66 30.23L117.97 28.92L115.33 26.28L112.69 28.92L114.01 30.24L114.01 36.16L107.4 36.16L106.09 34.85L103.45 37.49L106.09 40.13L107.41 38.81L114.01 38.81L114.01 46.06L112.69 47.38L115.33 50.02L117.97 47.38L116.66 46.07L116.66 38.81L123.23 38.81L124.55 40.13L127.19 37.49L124.55 34.85Z" />
			<path id="Layer" class="shp32" d="M336.04 102.5C336.04 102.5 337.15 96.54 337.15 95.71C337.15 94.87 337.98 94.74 338.81 95.85C339.64 96.95 343.39 102.36 343.39 102.36L336.04 102.49L336.04 102.5Z" />
			<path id="Layer" class="shp32" d="M385.77 148.23C385.39 145.54 384.88 142.98 384.25 140.54L382.25 139.74L383.59 138.14C382.82 135.56 381.93 133.13 380.96 130.85L379.06 130.31L380.01 128.69C378.99 126.52 377.89 124.5 376.75 122.62L374.98 122.26L375.61 120.8C374.34 118.83 373.03 117.03 371.72 115.4L369.85 115.19L370.35 113.73C368.83 111.94 367.35 110.39 365.97 109.06L364.1 108.95L364.42 107.61C361.08 104.58 358.71 103.11 358.71 103.11L354.46 104.4C354.46 104.4 352.43 103.29 350.76 102.18C350.76 102.18 349.65 98.48 349.29 96.45C348.92 94.42 347.81 95.34 347.44 95.9C347.07 96.45 343.23 100.7 343.23 100.7C343.23 100.7 340.94 100.39 339.31 100.7C336.9 101.17 335.79 102.78 333.02 105.42C331 107.34 329.78 109.02 329.09 110.82C328.4 112.63 329.23 112.63 328.95 114.29C328.68 115.95 321.19 128.43 320.36 129.95C319.53 131.48 317.52 136.14 321.47 139.1C322.57 139.94 323.41 140.35 324.1 140.63C324.1 140.63 325.21 140.35 325.63 139.8C325.7 139.7 325.74 139.64 325.76 139.6C325.77 139.57 325.78 139.57 325.76 139.6C325.71 139.71 325.62 140.12 326.04 140.63C326.73 141.46 327.63 141.4 328.12 141.46C328.86 141.55 330.2 140.91 331.31 139.24C332.42 137.58 333.11 137.02 333.94 136.05C334.77 135.08 339.36 132.94 341.15 129.95C341.57 129.26 342.54 129.54 343.23 130.09C343.93 130.65 347.81 130.79 349.47 128.01C349.47 128.01 350.26 135.31 346.97 140.35C341.57 148.67 332.42 150.75 329.65 158.51L386.49 158.51C386.49 155.83 386.34 153.25 386.09 150.78L384.2 149.78L385.8 148.23L385.77 148.23Z" />
			<path id="Layer" class="shp33" d="M356.49 106.26C356.49 106.26 380.7 124.38 380.7 157.09" />
			<path id="Layer" class="shp34" d="M325.75 139.4C325.77 139.37 325.76 139.37 325.75 139.4Z" />
			<path id="Layer" class="shp33" d="M351.5 118.83C351.96 124 349.56 127.7 349.47 128.02C349.47 128.02 355.29 125.02 355.84 121.05" />
			<path id="Layer" class="shp33" d="M349.46 128.02C349.46 128.02 353.34 129.92 356.21 128.71" />
			<path id="Layer" class="shp34" d="M325.62 139.6C325.62 139.6 328.21 136.27 328.95 134.75" />
			<path id="Layer" class="shp33" d="M341.56 108.89C341.56 108.89 337.3 108.91 335.88 111.25C333.94 114.43 336.15 114.85 336.15 114.85C336.15 114.85 338.37 115.54 339.9 113.46C341.52 111.25 340.17 109.86 340.17 109.86L341.55 108.89L341.56 108.89Z" />
			<path id="Layer" class="shp33" d="M320.91 132.39C322.43 131.97 323.4 132.11 324.1 132.53C324.1 132.53 323.4 130.45 324.65 128.65C325.9 126.84 327.98 126.71 329.78 123.24" />
			<path id="Layer" class="shp33" d="M361.38 110.83L364.02 109.17" />
			<path id="Layer" class="shp33" d="M366.79 116.79L369.43 115.55" />
			<path id="Layer" class="shp33" d="M371.64 123.71L374.69 122.46" />
			<path id="Layer" class="shp33" d="M375.53 131.63L378.71 130.52" />
			<path id="Layer" class="shp33" d="M378.57 140.92L381.9 139.95" />
			<path id="Layer" class="shp33" d="M380.38 150.34L383.84 149.93" />
			<path id="Layer" class="shp15" d="M332.71 18.34C332.71 18.34 333.82 12.38 333.82 11.55C333.82 10.72 334.65 10.58 335.48 11.69C336.31 12.8 340.06 18.21 340.06 18.21L332.71 18.34L332.71 18.34Z" />
			<path id="Layer" class="shp15" d="M382.45 64.07C382.07 61.38 381.56 58.82 380.93 56.38L378.93 55.58L380.27 53.98C379.5 51.4 378.61 48.97 377.64 46.69L375.74 46.15L376.68 44.55C375.66 42.38 374.56 40.35 373.42 38.47L371.65 38.11L372.28 36.65C371.01 34.68 369.7 32.88 368.39 31.25L366.52 31.04L367.02 29.58C365.5 27.79 364.01 26.24 362.64 24.91L360.77 24.8L361.09 23.46C357.75 20.43 355.38 18.96 355.38 18.96L351.13 20.25C351.13 20.25 349.1 19.14 347.43 18.03C347.43 18.03 346.32 14.34 345.96 12.3C345.58 10.27 344.48 11.19 344.11 11.75C343.74 12.3 339.9 16.55 339.9 16.55C339.9 16.55 337.61 16.24 335.97 16.55C333.57 17.02 332.46 18.63 329.69 21.27C327.67 23.19 326.45 24.87 325.76 26.68C325.07 28.48 325.9 28.48 325.62 30.14C325.34 31.8 317.86 44.28 317.03 45.81C316.2 47.33 314.19 51.99 318.14 54.96C319.24 55.79 320.08 56.2 320.77 56.48C320.77 56.48 321.88 56.2 322.29 55.65C322.37 55.55 322.41 55.49 322.42 55.46C322.44 55.42 322.45 55.42 322.42 55.46C322.38 55.56 322.29 55.97 322.71 56.48C323.4 57.31 324.29 57.25 324.79 57.31C325.53 57.41 326.87 56.76 327.98 55.09C329.09 53.43 329.78 52.88 330.61 51.91C331.44 50.94 336.03 48.79 337.82 45.81C338.24 45.11 339.21 45.39 339.9 45.95C340.59 46.5 344.48 46.64 346.14 43.86C346.14 43.86 346.93 51.16 343.64 56.2C338.24 64.52 329.09 66.6 326.32 74.36L383.15 74.36C383.15 71.68 383.01 69.11 382.76 66.63L380.87 65.63L382.5 64.09L382.45 64.07Z" />
			<path id="Layer" class="shp34" d="M353.16 22.1C353.16 22.1 377.37 40.22 377.37 72.94" />
			<path id="Layer" class="shp34" d="M322.42 55.46C322.44 55.42 322.44 55.42 322.42 55.46Z" />
			<path id="Layer" class="shp34" d="M348.17 34.67C348.63 39.84 346.23 43.54 346.14 43.86C346.14 43.86 351.96 40.86 352.51 36.89" />
			<path id="Layer" class="shp34" d="M346.14 43.87C346.14 43.87 350.02 45.77 352.89 44.56" />
			<path id="Layer" class="shp34" d="M322.29 55.65C322.29 55.65 324.88 52.32 325.62 50.8" />
			<path id="Layer" class="shp34" d="M338.24 24.74C338.24 24.74 333.98 24.76 332.56 27.09C330.62 30.28 332.83 30.7 332.83 30.7C332.83 30.7 335.05 31.39 336.58 29.31C338.2 27.1 336.85 25.71 336.85 25.71L338.23 24.74L338.24 24.74Z" />
			<path id="Layer" class="shp34" d="M317.58 48.44C319.11 48.02 320.08 48.16 320.77 48.58C320.77 48.58 320.08 46.5 321.32 44.7C322.57 42.89 324.65 42.76 326.45 39.29" />
			<path id="Layer" class="shp34" d="M358.06 26.68L360.69 25.02" />
			<path id="Layer" class="shp34" d="M363.47 32.64L366.1 31.39" />
			<path id="Layer" class="shp34" d="M368.32 39.56L371.37 38.31" />
			<path id="Layer" class="shp34" d="M372.2 47.47L375.39 46.36" />
			<path id="Layer" class="shp34" d="M375.25 56.76L378.58 55.79" />
			<path id="Layer" class="shp34" d="M377.05 66.19L380.52 65.77" />
			<path id="Layer" class="shp35" d="M435.45 152.57C431.7 145.13 432.08 131.87 432.39 126.73C438.32 126.32 442.59 125.2 442.59 123.87C442.59 122.57 438.48 121.47 432.72 121.04C436.4 119.15 438.92 115.32 438.92 110.89C438.92 104.59 433.81 99.48 427.51 99.48C421.2 99.48 416.09 104.59 416.09 110.89C416.09 115.32 418.61 119.15 422.29 121.04C416.53 121.47 412.42 122.57 412.42 123.87C412.42 125.2 416.69 126.32 422.62 126.73C422.93 131.87 423.31 145.13 419.56 152.57C412.21 154.05 407.05 157.52 407.05 161.56L447.95 161.56C447.95 157.52 442.8 154.05 435.45 152.57L435.45 152.57Z" />
			<path id="Layer" class="shp36" d="M435.45 68.97C431.7 61.52 432.08 48.26 432.39 43.13C438.32 42.72 442.59 41.6 442.59 40.27C442.59 38.97 438.48 37.87 432.72 37.44C436.4 35.55 438.92 31.71 438.92 27.29C438.92 20.99 433.81 15.88 427.51 15.88C421.2 15.88 416.09 20.99 416.09 27.29C416.09 31.71 418.61 35.55 422.29 37.44C416.53 37.87 412.42 38.97 412.42 40.27C412.42 41.6 416.69 42.72 422.62 43.13C422.93 48.26 423.31 61.52 419.56 68.97C412.21 70.45 407.05 73.92 407.05 77.96L447.95 77.96C447.95 73.92 442.8 70.45 435.45 68.97L435.45 68.97Z" />
			<path id="Layer" class="shp15" d="M56.95 18.34C56.95 18.34 55.84 12.38 55.84 11.55C55.84 10.72 55.01 10.58 54.18 11.69C53.35 12.8 49.6 18.21 49.6 18.21L56.94 18.34L56.95 18.34Z" />
			<path id="Layer" class="shp15" d="M7.21 64.07C7.59 61.38 8.1 58.82 8.73 56.38L10.74 55.58L9.4 53.98C10.16 51.4 11.05 48.97 12.02 46.69L13.92 46.15L12.98 44.55C14 42.38 15.1 40.35 16.24 38.47L18.01 38.11L17.38 36.65C18.65 34.68 19.97 32.88 21.27 31.25L23.14 31.04L22.64 29.58C24.16 27.79 25.65 26.24 27.02 24.91L28.9 24.8L28.57 23.46C31.92 20.43 34.28 18.96 34.28 18.96L38.53 20.25C38.53 20.25 40.56 19.14 42.23 18.03C42.23 18.03 43.34 14.34 43.71 12.3C44.08 10.27 45.18 11.19 45.55 11.75C45.92 12.3 49.76 16.55 49.76 16.55C49.76 16.55 52.05 16.24 53.69 16.55C56.09 17.02 57.2 18.63 59.97 21.27C61.99 23.19 63.21 24.87 63.9 26.68C64.59 28.48 63.76 28.48 64.04 30.14C64.32 31.8 71.8 44.28 72.63 45.81C73.47 47.33 75.47 51.99 71.53 54.96C70.42 55.79 69.58 56.2 68.89 56.48C68.89 56.48 67.78 56.2 67.37 55.65C67.29 55.55 67.25 55.49 67.24 55.46C67.22 55.42 67.22 55.42 67.24 55.46C67.28 55.56 67.38 55.97 66.95 56.48C66.26 57.31 65.37 57.25 64.87 57.31C64.13 57.41 62.79 56.76 61.68 55.09C60.57 53.43 59.88 52.88 59.05 51.91C58.22 50.94 53.63 48.79 51.84 45.81C51.42 45.11 50.45 45.39 49.76 45.95C49.07 46.5 45.18 46.64 43.52 43.86C43.52 43.86 42.74 51.16 46.02 56.2C51.42 64.52 60.57 66.6 63.35 74.36L6.48 74.36C6.48 71.68 6.63 69.11 6.88 66.63L8.77 65.63L7.19 64.09L7.21 64.07Z" />
			<path id="Layer" class="shp34" d="M36.5 22.1C36.5 22.1 12.29 40.22 12.29 72.94" />
			<path id="Layer" class="shp34" d="M67.24 55.46C67.22 55.42 67.22 55.42 67.24 55.46Z" />
			<path id="Layer" class="shp34" d="M41.49 34.67C41.03 39.84 43.43 43.54 43.52 43.86C43.52 43.86 37.7 40.86 37.15 36.89" />
			<path id="Layer" class="shp34" d="M43.52 43.87C43.52 43.87 39.64 45.77 36.77 44.56" />
			<path id="Layer" class="shp34" d="M67.37 55.65C67.37 55.65 64.78 52.32 64.04 50.8" />
			<path id="Layer" class="shp34" d="M51.42 24.74C51.42 24.74 55.68 24.76 57.1 27.09C59.04 30.28 56.83 30.7 56.83 30.7C56.83 30.7 54.61 31.39 53.08 29.31C51.46 27.1 52.81 25.71 52.81 25.71L51.43 24.74L51.42 24.74Z" />
			<path id="Layer" class="shp34" d="M72.08 48.44C70.55 48.02 69.58 48.16 68.89 48.58C68.89 48.58 69.58 46.5 68.34 44.7C67.09 42.89 65.01 42.76 63.21 39.29" />
			<path id="Layer" class="shp34" d="M31.6 26.68L28.97 25.02" />
			<path id="Layer" class="shp34" d="M26.19 32.64L23.56 31.39" />
			<path id="Layer" class="shp34" d="M21.34 39.56L18.29 38.31" />
			<path id="Layer" class="shp34" d="M17.46 47.47L14.27 46.36" />
			<path id="Layer" class="shp34" d="M14.41 56.76L11.08 55.79" />
			<path id="Layer" class="shp34" d="M12.61 66.19L9.14 65.77" />
			<path id="Layer" class="shp32" d="M56.9 104.83C56.9 104.83 55.79 98.87 55.79 98.04C55.79 97.2 54.96 97.07 54.13 98.18C53.3 99.29 49.55 104.69 49.55 104.69L56.89 104.82L56.9 104.83Z" />
			<path id="Layer" class="shp32" d="M7.16 150.56C7.54 147.87 8.05 145.31 8.68 142.87L10.69 142.07L9.35 140.47C10.11 137.89 11 135.46 11.97 133.18L13.87 132.64L12.94 131.04C13.96 128.87 15.05 126.84 16.19 124.96L17.96 124.6L17.33 123.14C18.61 121.17 19.92 119.37 21.22 117.74L23.09 117.53L22.59 116.07C24.12 114.28 25.6 112.73 26.97 111.4L28.85 111.29L28.52 109.95C31.87 106.92 34.23 105.45 34.23 105.45L38.48 106.74C38.48 106.74 40.52 105.63 42.18 104.52C42.18 104.52 43.29 100.83 43.66 98.79C44.03 96.76 45.14 97.69 45.51 98.24C45.88 98.79 49.71 103.05 49.71 103.05C49.71 103.05 52.01 102.73 53.64 103.05C56.04 103.51 57.15 105.13 59.92 107.76C61.95 109.68 63.16 111.36 63.85 113.17C64.54 114.97 63.71 114.97 63.99 116.63C64.27 118.3 71.75 130.77 72.59 132.3C73.42 133.82 75.43 138.49 71.48 141.45C70.37 142.28 69.53 142.69 68.84 142.97C68.84 142.97 67.73 142.69 67.32 142.14C67.24 142.04 67.21 141.98 67.19 141.95C67.17 141.91 67.17 141.91 67.19 141.95C67.23 142.06 67.33 142.46 66.9 142.97C66.21 143.8 65.32 143.74 64.82 143.8C64.08 143.9 62.74 143.25 61.63 141.59C60.52 139.92 59.83 139.37 59 138.4C58.17 137.43 53.58 135.28 51.79 132.3C51.37 131.6 50.4 131.88 49.71 132.44C49.02 132.99 45.14 133.13 43.47 130.36C43.47 130.36 42.69 137.65 45.97 142.69C51.37 151.01 60.52 153.09 63.3 160.85L6.43 160.85C6.43 158.17 6.57 155.6 6.82 153.12L8.71 152.12L7.13 150.56L7.16 150.56Z" />
			<path id="Layer" class="shp33" d="M36.45 108.59C36.45 108.59 12.24 126.71 12.24 159.42" />
			<path id="Layer" class="shp34" d="M67.19 141.73C67.17 141.7 67.17 141.7 67.19 141.73Z" />
			<path id="Layer" class="shp33" d="M41.44 121.16C40.98 126.33 43.38 130.03 43.47 130.35C43.47 130.35 37.65 127.35 37.1 123.38" />
			<path id="Layer" class="shp33" d="M43.47 130.35C43.47 130.35 39.59 132.25 36.72 131.04" />
			<path id="Layer" class="shp34" d="M67.32 141.93C67.32 141.93 64.73 138.6 63.99 137.08" />
			<path id="Layer" class="shp33" d="M51.37 111.22C51.37 111.22 55.63 111.24 57.05 113.58C59 116.77 56.78 117.18 56.78 117.18C56.78 117.18 54.56 117.87 53.03 115.79C51.41 113.58 52.76 112.19 52.76 112.19L51.38 111.22L51.37 111.22Z" />
			<path id="Layer" class="shp33" d="M72.03 134.72C70.5 134.3 69.53 134.44 68.84 134.86C68.84 134.86 69.53 132.78 68.29 130.98C67.04 129.17 64.96 129.04 63.16 125.57" />
			<path id="Layer" class="shp33" d="M31.55 113.17L28.92 111.5" />
			<path id="Layer" class="shp33" d="M26.14 119.13L23.51 117.88" />
			<path id="Layer" class="shp33" d="M21.29 126.04L18.24 124.79" />
			<path id="Layer" class="shp33" d="M17.41 133.96L14.22 132.85" />
			<path id="Layer" class="shp33" d="M14.36 143.25L11.03 142.28" />
			<path id="Layer" class="shp33" d="M12.56 152.67L9.09 152.26" />
		</g>
	</g>
</svg>