<svg xmlns="http://www.w3.org/2000/svg" viewBox="0 0 78 90" width="78" height="90">
	<style>
		tspan { white-space:pre }
		.shp0 { fill: #000000;stroke: #000000;stroke-width: 0.31 } 
		.shp1 { fill: #000000 } 
		.shp2 { fill: #000000;stroke: #ffffff;stroke-linecap:round;stroke-width: 1.009 } 
		.shp3 { fill: none;stroke: #ffffff;stroke-linejoin:bevel;stroke-width: 0.62 } 
		.shp4 { fill: none;stroke: #ffffff;stroke-linecap:round;stroke-width: 1.009 } 
		.shp5 { fill: #ffffff;stroke: #000000;stroke-width: 0.317 } 
		.shp6 { fill: none;stroke: #ffffff;stroke-width: 0.62 } 
		.shp7 { fill: #ffffff;stroke: #20201e;stroke-width: 1.211 } 
		.shp8 { fill: #ffffff;stroke: #20201e;stroke-linejoin:round;stroke-width: 1.211 } 
		.shp9 { fill: #ffffff;stroke: #20201e;stroke-linejoin:bevel;stroke-width: 1.211 } 
		.shp10 { fill: #000000;stroke: #000000;stroke-linejoin:bevel;stroke-width: 0.853 } 
		.shp11 { fill: #000000;stroke: #ffffff;stroke-linecap:round;stroke-width: 0.926 } 
		.shp12 { fill: none;stroke: #ffffff;stroke-linecap:round;stroke-width: 0.926 } 
		.shp13 { fill: #ffffff } 
		.shp14 { fill: #ffffff;stroke: #20201e;stroke-linejoin:bevel;stroke-width: 1.111 } 
		.shp15 { fill: #ffffff;stroke: #20201e;stroke-width: 1.111 } 
		.shp16 { fill: #000000;stroke: #000000;stroke-linecap:square;stroke-width: 0.853 } 
		.shp17 { fill: none;stroke: #ffffff;stroke-linecap:round;stroke-width: 0.853 } 
		.shp18 { fill: #ffffff;stroke: #20201e;stroke-linejoin:round;stroke-width: 1.111 } 
		.shp19 { fill: #ffffff;stroke: #20201e;stroke-linecap:square;stroke-width: 1.111 } 
		.shp20 { fill: #20201e } 
		.shp21 { fill: #ffffff;stroke: #20201e;stroke-width: 1.32 } 
		.shp22 { fill: #000000;stroke: #000000;stroke-width: 0.533 } 
		.shp23 { fill: #ffffff;stroke: #000000;stroke-linejoin:bevel;stroke-width: 1.014 } 
		.shp24 { fill: #000000;stroke: #000000;stroke-linejoin:bevel;stroke-width: 0.533 } 
		.shp25 { fill: none;stroke: #ffffff;stroke-linecap:round;stroke-linejoin:bevel;stroke-width: 0.533 } 
		.shp26 { fill: none;stroke: #ffffff;stroke-linecap:round;stroke-width: 0.533 } 
		.shp27 { fill: #ffffff;stroke: #000000;stroke-width: 0.533 } 
		.shp28 { fill: #ffffff;stroke: #20201e;stroke-linecap:round;stroke-linejoin:round;stroke-width: 1.32 } 
		.shp29 { fill: #ffffff;stroke: #20201e;stroke-linejoin:bevel;stroke-width: 1.32 } 
		.shp30 { fill: #ffffff;stroke: #000000;stroke-width: 1.014 } 
		.shp31 { fill: #ffffff;stroke: #000000;stroke-width: 0.77 } 
		.shp32 { fill: #20201e;stroke: #20201e;stroke-width: 0.853 } 
		.shp33 { fill: none;stroke: #ffffff;stroke-width: 0.853 } 
		.shp34 { fill: none;stroke: #20201e;stroke-width: 0.853 } 
		.shp35 { fill: #000000;stroke: #000000;stroke-linejoin:round;stroke-width: 0.79 } 
		.shp36 { fill: #ffffff;stroke: #000000;stroke-linejoin:round;stroke-width: 1.111 } 
	</style>
	<g id="Layer">
		<g id="Layer">
			<path id="Layer" class="shp0" d="M-108.74 118.52C-107.39 117.72 -106.82 116.65 -106.82 115.47C-106.82 115.13 -106.77 98.89 -106.77 98.89L-122.87 98.89C-122.87 98.89 -122.94 115.27 -122.94 115.47C-122.94 116.66 -122.1 117.74 -120.73 118.54C-121.7 118.68 -122.66 118.85 -123.61 119.06C-122.09 120.03 -120.66 121.16 -119.33 122.45C-117.46 124.28 -115.9 126.3 -114.68 128.48C-113.46 126.3 -111.91 124.28 -110.03 122.45C-108.7 121.16 -107.27 120.03 -105.75 119.06C-106.72 118.85 -107.72 118.68 -108.72 118.53L-108.74 118.52Z" />
			<path id="Layer" class="shp1" d="M-93.93 155.43C-94.93 153.43 -94.95 150.82 -94.51 149.06C-94.06 147.24 -89.76 143.81 -89.76 143.81C-82.19 136.45 -80.46 125.95 -85.89 120.36C-91.32 114.78 -101.86 116.23 -109.43 123.59C-111.69 125.79 -113.43 128.27 -114.61 130.82C-115.8 128.27 -117.53 125.79 -119.79 123.59C-127.36 116.23 -137.9 114.78 -143.34 120.36C-148.77 125.95 -147.03 136.45 -139.46 143.81C-139.12 144.14 -135.35 147.24 -134.9 149.06C-134.44 150.87 -134.38 153.48 -135.47 155.5L-135.31 155.5C-135.33 155.51 -135.35 155.52 -135.38 155.53C-129.11 158.62 -122.06 160.36 -114.61 160.36C-107.16 160.35 -100.21 158.51 -93.94 155.42" />
			<g id="Layer">
				<path id="Layer" class="shp2" d="M-134.28 155.06C-128.25 152.25 -121.58 150.69 -114.49 150.69C-107.68 150.69 -101.14 152.36 -95.31 154.73" />
				<path id="Layer" class="shp2" d="M-92.41 143.38C-98.69 141.25 -106.38 139.99 -114.7 139.99C-123.08 139.99 -130.84 141.27 -137.15 143.44" />
			</g>
			<path id="Layer" class="shp3" d="M-108.08 100.06L-121.59 112.17L-108.08 112.17L-121.59 100.06L-108.08 100.06Z" />
			<path id="Layer" class="shp4" d="M-96.34 150.77C-102.12 148.74 -108.27 147.27 -114.65 147.27C-121.16 147.27 -127.42 148.78 -133.3 150.88" />
			<path id="Layer" class="shp5" d="M-117.82 143.96L-114.65 145.54L-111.48 143.96L-114.65 142.37L-117.82 143.96Z" />
			<path id="Layer" class="shp5" d="M-130.77 146.02L-127.39 147.07L-124.52 145L-127.9 143.94L-130.77 146.02Z" />
			<path id="Layer" class="shp5" d="M-98.52 146.02L-101.91 147.07L-104.78 145L-101.4 143.94L-98.52 146.02Z" />
			<path id="Layer" class="shp3" d="M-121.59 100.06L-108.07 100.06L-108.07 112.17L-121.59 112.17L-121.59 100.06Z" />
			<path id="Layer" class="shp6" d="M-114.72 121.89C-117.87 121.89 -120.42 120.01 -120.42 117.68C-120.42 115.35 -117.87 113.47 -114.72 113.47C-111.57 113.47 -109.02 115.35 -109.02 117.68C-109.02 120.01 -111.57 121.89 -114.72 121.89Z" />
			<path id="Layer" class="shp7" d="M-106.74 10.64L-122.84 10.64L-122.84 27.47C-122.84 29.95 -119.22 31.96 -114.75 31.96C-110.28 31.96 -106.77 29.95 -106.77 27.47C-106.77 27.25 -106.74 10.64 -106.74 10.64L-106.74 10.64Z" />
			<path id="Layer" class="shp7" d="M-122.84 10.64L-106.74 10.64L-106.74 25.07L-122.84 25.07L-122.84 10.64Z" />
			<path id="Layer" class="shp7" d="M-122.84 10.64L-106.74 25.07" />
			<path id="Layer" class="shp7" d="M-106.74 10.64L-122.84 25.07" />
			<path id="Layer" class="shp8" d="M-94 67.14C-100.26 64.05 -107.07 62.42 -114.53 62.42C-121.99 62.42 -129.12 64.16 -135.38 67.25C-129.12 70.34 -122.11 72.12 -114.65 72.12C-107.19 72.13 -100.26 70.24 -94 67.15L-94 67.14Z" />
			<path id="Layer" class="shp9" d="M-90.87 56.54C-90.51 56.23 -90.15 55.9 -89.8 55.56C-82.23 48.2 -80.5 37.7 -85.93 32.12C-91.37 26.53 -101.9 27.98 -109.47 35.35C-111.74 37.55 -113.47 40.03 -114.66 42.57C-115.84 40.03 -117.58 37.55 -119.84 35.35C-127.41 27.98 -137.95 26.53 -143.38 32.12C-148.81 37.7 -147.08 48.2 -139.51 55.56C-139.16 55.9 -138.8 56.23 -138.44 56.54C-131.9 54.09 -123.64 52.62 -114.65 52.62C-105.67 52.62 -97.41 54.09 -90.88 56.54L-90.87 56.54Z" />
			<path id="Layer" class="shp7" d="M-114.65 42.58C-113.47 40.04 -111.73 37.56 -109.47 35.36C-107.63 33.56 -105.6 32.12 -103.52 31.05C-106.97 30.08 -110.72 29.54 -114.64 29.54C-118.57 29.54 -122.32 30.08 -125.77 31.05C-123.69 32.12 -121.67 33.56 -119.83 35.36C-117.57 37.56 -115.84 40.04 -114.65 42.58L-114.65 42.58Z" />
			<path id="Layer" class="shp9" d="M-90.96 56.54L-90.96 56.53C-97.5 54.08 -105.75 52.62 -114.73 52.62C-123.72 52.62 -131.98 54.09 -138.52 56.54C-138.52 56.54 -135.39 59 -134.93 60.81C-134.48 62.62 -134.28 65.22 -135.37 67.24C-129.11 64.15 -121.98 62.42 -114.52 62.42C-107.21 62.42 -100.16 64.16 -93.99 67.14C-94.99 65.14 -94.99 62.57 -94.55 60.81C-94.1 59.01 -90.96 56.55 -90.96 56.55L-90.96 56.54Z" />
			<path id="Layer" class="shp9" d="M-135.38 67.25C-129.12 64.16 -121.98 62.43 -114.53 62.43C-107.21 62.43 -100.17 64.16 -94 67.14C-94.42 66.29 -94.87 64.11 -94.8 62.9C-101 60.46 -107.67 59.13 -114.63 59.13C-121.66 59.13 -128.4 60.49 -134.67 62.98C-134.59 65.23 -134.91 66.36 -135.38 67.24L-135.38 67.25Z" />
			<path id="Layer" class="shp1" d="M-117.71 55.96L-114.61 57.51L-111.52 55.96L-114.61 54.41L-117.71 55.96Z" />
			<path id="Layer" class="shp1" d="M-130.38 57.98L-127.08 59.01L-124.27 56.98L-127.57 55.95L-130.38 57.98Z" />
			<path id="Layer" class="shp1" d="M-98.85 57.98L-102.15 59.01L-104.96 56.98L-101.66 55.95L-98.85 57.98Z" />
			<path id="Layer" class="shp7" d="M-114.65 33.98C-117.8 33.98 -120.35 32.1 -120.35 29.77C-120.35 27.44 -117.8 25.56 -114.65 25.56C-111.5 25.56 -108.95 27.44 -108.95 29.77C-108.95 32.1 -111.5 33.98 -114.65 33.98Z" />
			<path id="Layer" class="shp10" d="M-4.3 113.6C-3.45 112.14 -3.94 110.27 -5.4 109.42C-6.86 108.56 -8.73 109.06 -9.58 110.52C-10.31 111.77 -10.05 113.32 -9.05 114.27C-13.21 119.32 -20.81 128.54 -22.65 130.77C-23.19 130.53 -23.75 130.3 -24.33 130.09C-24.16 128.38 -22.96 115.3 -22.32 108.34C-20.93 108.37 -19.65 107.45 -19.29 106.05C-18.87 104.42 -19.85 102.75 -21.48 102.33C-23.12 101.9 -24.79 102.88 -25.21 104.52C-25.58 105.92 -24.9 107.35 -23.67 107.99C-26.69 114.83 -32.53 128.1 -32.55 128.15C-32.55 128.17 -32.55 128.18 -32.55 128.19C-33.08 128.13 -33.63 128.08 -34.18 128.03C-34.29 127.29 -36.8 111.91 -38.11 103.9C-36.61 103.55 -35.49 102.2 -35.49 100.59C-35.49 98.72 -37.01 97.19 -38.89 97.19C-40.76 97.19 -42.28 98.72 -42.28 100.59C-42.28 102.2 -41.16 103.55 -39.66 103.9C-40.96 111.87 -43.45 127.15 -43.58 128.02C-44.17 128.06 -44.73 128.12 -45.29 128.18C-45.29 128.16 -45.29 128.15 -45.3 128.13C-45.31 128.07 -51.16 114.8 -54.17 107.97C-52.94 107.32 -52.27 105.9 -52.63 104.49C-53.06 102.86 -54.72 101.88 -56.36 102.3C-57.99 102.72 -58.98 104.39 -58.55 106.03C-58.19 107.43 -56.91 108.35 -55.52 108.32C-54.89 115.26 -53.68 128.32 -53.52 130.06C-54.09 130.26 -54.63 130.49 -55.16 130.72C-57.07 128.4 -64.59 119.29 -68.73 114.28C-67.72 113.32 -67.46 111.77 -68.19 110.52C-69.04 109.06 -70.91 108.57 -72.37 109.42C-73.83 110.27 -74.32 112.14 -73.47 113.6C-72.74 114.85 -71.26 115.39 -69.93 114.98C-67.45 121.46 -59.42 142.31 -59.11 142.6L-59.11 142.6C-59.1 142.63 -58.31 147.8 -58.23 149.52C-58.14 151.22 -58.88 155.4 -58.83 155.42L-58.83 155.43C-58.83 155.43 -58.83 155.42 -58.82 155.42C-52.87 158.21 -46.09 159.78 -38.82 159.78C-31.48 159.78 -18.23 155.29 -18.29 155.26C-19.16 153.43 -18.83 142.59 -18.83 142.59C-18.52 142.3 -10.39 121.63 -7.84 114.98C-6.53 115.39 -5.05 114.85 -4.32 113.6" />
			<g id="Layer">
				<path id="Layer" class="shp11" d="M-57.35 154.18C-51.09 151.6 -45.23 150.49 -38.05 150.49C-31.15 150.49 -25.63 151.63 -19.86 154.03" />
				<path id="Layer" class="shp11" d="M-21.05 142.09C-26.14 140.13 -32.38 138.98 -39.12 138.98C-45.92 138.98 -52.21 140.15 -57.33 142.14" />
			</g>
			<path id="Layer" class="shp12" d="M-20.44 150.61C-26.08 148.75 -31.81 147.4 -38.28 147.4C-44.86 147.4 -51.2 148.79 -57.15 150.72" />
			<path id="Layer" class="shp13" d="M-41.7 143.65L-38.86 145.07L-36.01 143.65L-38.86 142.23L-41.7 143.65Z" />
			<path id="Layer" class="shp13" d="M-24.39 145.5L-27.42 146.45L-30 144.59L-26.97 143.64L-24.39 145.5Z" />
			<path id="Layer" class="shp13" d="M-53.32 145.5L-50.29 146.45L-47.71 144.59L-50.74 143.64L-53.32 145.5Z" />
			<path id="Layer" class="shp14" d="M-18.78 69.36C-24.85 66.52 -31.49 65.03 -38.83 65.03C-46.18 65.03 -53.29 66.66 -59.56 69.5C-53.49 72.33 -46.61 73.93 -39.27 73.93C-31.92 73.94 -25.04 72.2 -18.78 69.37L-18.78 69.36Z" />
			<path id="Layer" class="shp14" d="M-19.23 56.63L-19.23 56.62C-24.69 54.38 -31.03 53.01 -39.27 53.01C-47.52 53.01 -53.89 54.38 -59.51 56.63C-59.51 56.63 -58.9 61.83 -58.87 63.55C-58.84 65.49 -59.38 69.46 -59.38 69.46C-53.12 66.63 -46.17 65.03 -38.83 65.03C-31.63 65.03 -24.32 66.51 -18.78 69.36C-19.69 67.54 -19.23 56.64 -19.23 56.64L-19.23 56.63Z" />
			<path id="Layer" class="shp14" d="M-59.36 69.43C-53.46 66.63 -46.17 65.03 -38.83 65.03C-31.63 65.03 -25.59 66.05 -18.78 69.36C-19.05 68.59 -19.24 66.22 -19.29 65.35C-25.32 63.11 -31.97 61.84 -38.82 61.84C-45.74 61.84 -52.7 63.18 -58.95 65.47C-59.08 66.36 -59.36 69.42 -59.36 69.42L-59.36 69.43Z" />
			<path id="Layer" class="shp15" d="M-5.7 23.45C-7.16 22.6 -9.03 23.1 -9.88 24.56C-10.61 25.81 -10.35 27.36 -9.35 28.31C-13.51 33.36 -21.12 42.58 -22.95 44.81C-23.49 44.57 -24.05 44.34 -24.63 44.13C-24.47 42.42 -23.26 29.34 -22.62 22.38C-21.23 22.41 -19.95 21.49 -19.59 20.09C-19.17 18.46 -20.15 16.79 -21.79 16.36C-23.42 15.94 -25.09 16.92 -25.51 18.56C-25.88 19.96 -25.2 21.39 -23.97 22.03C-26.99 28.87 -32.83 42.14 -32.85 42.19C-32.85 42.21 -32.85 42.22 -32.85 42.23C-33.38 42.17 -33.93 42.11 -34.49 42.07C-34.6 41.33 -37.1 25.95 -38.41 17.94C-36.91 17.59 -35.79 16.24 -35.79 14.63C-35.79 12.76 -37.31 11.23 -39.19 11.23C-41.06 11.23 -42.59 12.76 -42.59 14.63C-42.59 16.24 -41.46 17.59 -39.96 17.94C-41.26 25.91 -43.76 41.19 -43.89 42.06C-44.47 42.1 -45.04 42.16 -45.59 42.22C-45.59 42.2 -45.59 42.19 -45.6 42.17C-45.61 42.11 -51.46 28.84 -54.47 22.01C-53.24 21.36 -52.57 19.94 -52.93 18.53C-53.36 16.9 -55.03 15.92 -56.66 16.34C-58.29 16.76 -59.28 18.43 -58.85 20.07C-58.49 21.47 -57.21 22.39 -55.82 22.36C-55.19 29.3 -53.99 42.35 -53.82 44.1C-54.39 44.3 -54.94 44.53 -55.46 44.76C-57.37 42.44 -64.89 33.33 -69.03 28.31C-68.02 27.36 -67.76 25.81 -68.49 24.56C-69.34 23.1 -71.21 22.6 -72.67 23.46C-74.13 24.31 -74.62 26.18 -73.77 27.64C-73.04 28.89 -71.56 29.43 -70.23 29.02C-67.75 35.5 -59.72 56.35 -59.41 56.63C-53.88 54.38 -47.51 53.01 -39.27 53.01C-31.02 53.01 -24.66 54.38 -19.13 56.63C-18.82 56.34 -10.69 35.67 -8.14 29.02C-6.81 29.43 -5.33 28.89 -4.6 27.64C-3.78 26.18 -4.27 24.31 -5.73 23.46L-5.7 23.45Z" />
			<path id="Layer" class="shp1" d="M-42 57.62L-39.16 59.04L-36.31 57.62L-39.16 56.2L-42 57.62Z" />
			<path id="Layer" class="shp1" d="M-53.62 59.46L-50.59 60.4L-48.01 58.54L-51.04 57.6L-53.62 59.46Z" />
			<path id="Layer" class="shp1" d="M-24.69 59.47L-27.72 60.42L-30.3 58.56L-27.27 57.61L-24.69 59.47Z" />
			<g id="Layer">
				<path id="Layer" class="shp16" d="M-321.37 154.65L-322.34 154.65L-322.34 148.83L-327 143.6L-327.05 143.6L-327.05 112.78L-327 112.78L-320.93 106.98L-320.89 106.98L-320.89 97.04C-320.89 96.18 -321.57 95.47 -322.4 95.47L-330.79 95.47L-330.79 100.87L-335.51 102.43L-339.85 100.87L-339.85 95.47L-350.2 95.47L-350.2 100.87L-354.55 102.43L-359.26 100.87L-359.26 95.47L-367.65 95.47C-368.48 95.47 -369.16 96.18 -369.16 97.04L-369.16 106.98L-369.14 106.98L-363.05 112.78L-363.05 143.6L-367.71 148.83L-367.71 154.65L-368.68 154.65C-369.55 154.65 -370.26 155.35 -370.26 156.22L-370.26 159.92C-370.26 160.78 -369.55 161.49 -368.68 161.49L-321.37 161.49C-320.5 161.49 -319.8 160.78 -319.8 159.92L-319.8 156.22C-319.8 155.36 -320.5 154.65 -321.37 154.65L-321.37 154.65Z" />
				<path id="Layer" class="shp17" d="M-366.18 154.65L-324.22 154.65" />
				<path id="Layer" class="shp17" d="M-365.99 148.83L-324.4 148.83" />
				<path id="Layer" class="shp17" d="M-328.84 143.61L-361.93 143.61" />
				<path id="Layer" class="shp17" d="M-361.74 112.79L-328.65 112.79" />
				<path id="Layer" class="shp17" d="M-367.1 106.98L-322.19 106.98" />
			</g>
			<path id="Layer" class="shp15" d="M-321.72 75.59C-320.85 75.59 -320.15 74.89 -320.15 74.02L-320.15 70.32C-320.15 69.45 -320.85 68.75 -321.72 68.75L-369.04 68.75C-369.91 68.75 -370.61 69.45 -370.61 70.32L-370.61 74.02C-370.61 74.89 -369.91 75.59 -369.04 75.59L-321.72 75.59Z" />
			<path id="Layer" class="shp15" d="M-368.07 62.93L-322.69 62.93L-322.69 68.75L-368.07 68.75L-368.07 62.93Z" />
			<path id="Layer" class="shp14" d="M-322.69 62.93L-327.36 57.7L-363.4 57.7L-368.07 62.93L-322.69 62.93Z" />
			<path id="Layer" class="shp18" d="M-321.27 21.06L-327.36 26.88L-363.4 26.88L-369.51 21.06L-321.27 21.06Z" />
			<path id="Layer" class="shp15" d="M-363.4 26.88L-327.41 26.88L-327.41 57.7L-363.4 57.7L-363.4 26.88Z" />
			<path id="Layer" class="shp19" d="M-322.75 9.57L-331.15 9.57L-331.15 14.97L-335.86 16.53L-340.21 14.97L-340.21 9.57L-350.56 9.57L-350.56 14.97L-354.9 16.53L-359.61 14.97L-359.61 9.57L-368.01 9.57C-368.84 9.57 -369.51 10.27 -369.51 11.14L-369.51 21.08L-321.25 21.08L-321.25 11.14C-321.25 10.27 -321.92 9.57 -322.75 9.57L-322.75 9.57Z" />
			<path id="Layer" class="shp20" d="M-153.13 159.82C-153.75 159.48 -159.38 153.95 -164.6 153.95C-167.31 153.95 -169.44 154.77 -171.31 155.49C-173.21 156.23 -175.01 156.92 -177.61 156.92C-180.64 156.92 -183.15 155.99 -185.37 155.18C-187.16 154.52 -188.71 153.95 -190.29 153.95C-191.87 153.95 -193.42 154.52 -195.21 155.18C-197.43 155.99 -199.94 156.92 -202.97 156.92C-205.57 156.92 -207.37 156.23 -209.27 155.49C-211.15 154.77 -213.27 153.95 -215.98 153.95C-221.2 153.95 -226.83 159.48 -227.45 159.82C-227.45 159.82 -225.18 158.4 -223.07 158.4C-220.95 158.4 -219.12 159.88 -215.98 159.88C-214.37 159.88 -213.06 160.39 -211.4 161.03C-209.29 161.84 -206.68 162.85 -202.97 162.85C-198.89 162.85 -195.58 161.63 -193.16 160.74C-192.06 160.34 -190.82 159.88 -190.29 159.88C-189.76 159.88 -188.52 160.34 -187.42 160.74C-185 161.63 -181.69 162.85 -177.61 162.85C-173.91 162.85 -171.29 161.84 -169.18 161.03C-167.52 160.39 -166.21 159.88 -164.6 159.88C-161.46 159.88 -159.08 158.4 -157.51 158.4C-155.95 158.4 -153.1 159.82 -153.1 159.82L-153.13 159.82Z" />
			<path id="Layer" class="shp21" d="M-170.36 125.91C-170.36 116.56 -178.34 101.73 -184.45 99.72C-184.66 99.65 -184.88 99.59 -185.11 99.55C-184.04 99.15 -183.28 98.13 -183.28 96.93C-183.28 95.38 -184.53 94.13 -186.07 94.13C-187.62 94.13 -188.87 95.38 -188.87 96.93C-188.87 98 -188.26 98.93 -187.38 99.4C-188.63 99.48 -189.98 99.81 -191.38 100.37C-192.27 99.96 -193.15 99.67 -194.02 99.51C-193 99.1 -192.28 98.1 -192.28 96.93C-192.28 95.38 -193.53 94.13 -195.08 94.13C-196.62 94.13 -197.87 95.38 -197.87 96.93C-197.87 98.02 -197.25 98.96 -196.34 99.42C-196.81 99.47 -197.28 99.57 -197.73 99.72C-203.83 101.73 -211.63 116.01 -211.63 125.91C-211.63 133.81 -208.43 140.61 -204.74 145.54C-204.19 147 -203.35 147.04 -203.17 147.22C-203.17 147.22 -203.17 147.22 -203.17 147.22C-203.17 147.24 -203.9 151.98 -203.97 153.05C-204.08 154.7 -204.25 156.64 -204.25 156.64C-200.22 158.42 -195.8 159.45 -191.01 159.45C-186.21 159.45 -182.01 158.32 -177.98 156.54C-178.13 155.23 -178.29 153.91 -178.62 151.93C-178.79 150.9 -179.38 147.22 -179.38 147.22C-179.2 147.04 -178.12 145.67 -178.12 145.67C-174.2 140.72 -170.37 134.12 -170.37 125.91L-170.36 125.91Z" />
			<path id="Layer" class="shp22" d="M-203.07 147.22C-199.8 145.81 -196.04 144.58 -191.17 144.58C-186.31 144.58 -182.55 145.81 -179.28 147.22C-179.1 147.04 -178.68 146.58 -177.79 145.34C-180.54 142.37 -184.55 140.73 -191.09 140.73C-198.08 140.73 -201.89 142.56 -204.64 145.54C-204.08 146.99 -203.24 147.04 -203.06 147.22L-203.07 147.22Z" />
			<path id="Layer" class="shp23" d="M-178.09 156.54C-182.12 154.77 -186.24 153.89 -191.04 153.89C-195.84 153.89 -200.33 154.87 -204.36 156.64C-200.33 158.41 -195.91 159.44 -191.11 159.44C-186.31 159.44 -182.11 158.31 -178.08 156.54L-178.09 156.54Z" />
			<path id="Layer" class="shp22" d="M-178.2 145.67C-175.66 141.43 -172.32 133.43 -176.5 119.81C-180 108.39 -190.31 97.24 -197.81 99.72C-204.47 101.91 -211.71 117.65 -211.71 125.9C-211.71 133.8 -208.51 140.61 -204.82 145.53L-178.19 145.66L-178.2 145.67Z" />
			<path id="Layer" class="shp22" d="M-195.16 99.72C-196.71 99.72 -197.96 98.47 -197.96 96.92C-197.96 95.37 -196.71 94.12 -195.16 94.12C-193.61 94.12 -192.36 95.37 -192.36 96.92C-192.36 98.47 -193.61 99.72 -195.16 99.72Z" />
			<path id="Layer" class="shp24" d="M-179.47 147.21L-179.47 147.21C-182.74 145.8 -186.5 144.62 -191.36 144.62C-196.23 144.62 -199.99 145.8 -203.25 147.21C-203.25 147.21 -203.99 151.97 -204.06 153.04C-204.17 154.69 -204.33 156.64 -204.33 156.64C-200.31 154.87 -195.81 153.89 -191.02 153.89C-186.31 153.89 -182.04 154.83 -178.07 156.54C-178.21 155.22 -178.38 153.9 -178.71 151.93C-178.89 150.89 -179.48 147.2 -179.48 147.2L-179.47 147.21Z" />
			<path id="Layer" class="shp25" d="M-179.59 153.59C-183.21 152.47 -187.08 151.85 -191.07 151.85C-195.13 151.85 -199.28 152.51 -203 153.68" />
			<g id="Layer">
				<path id="Layer" class="shp26" d="M-202.22 146.78C-199.19 145.56 -195.72 144.57 -191.36 144.57C-186.97 144.57 -183.49 145.57 -180.45 146.8" />
				<path id="Layer" class="shp26" d="M-178.48 144.63C-182.32 141.56 -185.4 140.73 -191.09 140.73C-195.85 140.73 -200.77 142 -203.13 144.15" />
			</g>
			<path id="Layer" class="shp27" d="M-184.41 120.71L-185.71 122.02L-192.29 122.02L-192.29 116.08L-190.98 114.77L-193.62 112.13L-196.26 114.77L-194.94 116.09L-194.94 122.02L-201.56 122.02L-202.87 120.71L-205.51 123.35L-202.87 125.99L-201.54 124.67L-194.94 124.67L-194.94 131.91L-196.26 133.23L-193.62 135.87L-190.98 133.23L-192.29 131.92L-192.29 124.67L-185.73 124.67L-184.41 125.99L-181.77 123.35L-184.41 120.71Z" />
			<path id="Layer" class="shp28" d="M-154.17 73.96C-154.79 73.62 -160.42 68.09 -165.64 68.09C-168.35 68.09 -170.48 68.91 -172.35 69.63C-174.25 70.37 -176.05 71.06 -178.65 71.06C-181.68 71.06 -184.19 70.13 -186.41 69.32C-188.2 68.66 -189.75 68.09 -191.33 68.09C-192.91 68.09 -194.46 68.66 -196.25 69.32C-198.47 70.13 -200.98 71.06 -204.01 71.06C-206.61 71.06 -208.41 70.37 -210.31 69.63C-212.19 68.91 -214.31 68.09 -217.03 68.09C-222.24 68.09 -227.87 73.62 -228.49 73.96C-228.49 73.96 -226.1 72.54 -224.11 72.54C-222.12 72.54 -220.16 74.02 -217.03 74.02C-215.42 74.02 -214.1 74.53 -212.44 75.17C-210.34 75.98 -207.72 76.99 -204.01 76.99C-199.93 76.99 -196.62 75.77 -194.2 74.88C-193.1 74.48 -191.86 74.02 -191.33 74.02C-190.8 74.02 -189.56 74.48 -188.46 74.88C-186.04 75.77 -182.73 76.99 -178.65 76.99C-174.95 76.99 -172.33 75.98 -170.22 75.17C-168.56 74.53 -167.25 74.02 -165.64 74.02C-162.5 74.02 -161.2 72.54 -158.55 72.54C-155.88 72.54 -154.14 73.96 -154.14 73.96L-154.17 73.96Z" />
			<path id="Layer" class="shp21" d="M-185.58 13.86C-185.79 13.79 -186.01 13.74 -186.23 13.69C-185.17 13.29 -184.41 12.27 -184.41 11.07C-184.41 9.53 -185.66 8.27 -187.2 8.27C-188.75 8.27 -190 9.53 -190 11.07C-190 12.14 -189.39 13.07 -188.51 13.54C-196.53 14.06 -208.71 24.63 -209.1 42.52C-209.25 49.63 -208.35 55.45 -205.87 59.68L-179.02 59.49C-175.1 54.54 -171.49 48.27 -171.49 40.05C-171.49 29.12 -179.47 15.86 -185.58 13.86L-185.58 13.86Z" />
			<path id="Layer" class="shp21" d="M-177.54 33.96C-180.49 24.33 -188.28 14.9 -195.15 13.66C-194.13 13.24 -193.41 12.24 -193.41 11.07C-193.41 9.53 -194.66 8.27 -196.21 8.27C-197.75 8.27 -199 9.53 -199 11.07C-199 12.16 -198.38 13.1 -197.46 13.56C-197.94 13.62 -198.4 13.71 -198.86 13.86C-204.95 15.87 -212.76 29.35 -212.76 40.05C-212.76 47.95 -209.56 54.75 -205.87 59.68L-179.02 59.49C-176.48 55.25 -173.37 47.57 -177.54 33.96L-177.54 33.96Z" />
			<path id="Layer" class="shp23" d="M-179.11 70.69C-182.48 69.14 -187.26 68.04 -192.06 68.04C-196.85 68.04 -201.35 69.02 -205.38 70.79C-201.35 72.56 -196.93 73.59 -192.13 73.59C-187.33 73.59 -183.13 72.46 -179.1 70.69L-179.11 70.69Z" />
			<path id="Layer" class="shp29" d="M-180.51 61.36L-180.51 61.36C-183.78 59.95 -187.54 58.77 -192.4 58.77C-197.27 58.77 -201.03 59.95 -204.3 61.36C-204.3 61.36 -205.03 66.12 -205.1 67.19C-205.21 68.84 -205.38 70.79 -205.38 70.79C-201.35 69.02 -196.86 68.04 -192.06 68.04C-187.35 68.04 -183.08 68.98 -179.11 70.69C-179.25 69.37 -179.42 68.05 -179.75 66.08C-179.93 65.03 -180.52 61.35 -180.52 61.35L-180.51 61.36Z" />
			<path id="Layer" class="shp29" d="M-205.38 70.79C-201.35 69.02 -196.86 68.04 -192.06 68.04C-187.36 68.04 -183.09 68.98 -179.11 70.69C-179.22 69.59 -179.46 68.9 -179.61 67.49C-183.61 66.09 -187.65 65.38 -192.12 65.38C-196.65 65.38 -201.13 66.2 -205.16 67.63C-205.18 68.87 -205.39 70.79 -205.39 70.79L-205.38 70.79Z" />
			<path id="Layer" class="shp21" d="M-204.3 61.36C-201.03 59.95 -197.27 58.75 -192.4 58.72C-188.26 58.69 -183.78 59.95 -180.51 61.36C-180.33 61.18 -179.57 60.95 -179.02 59.49C-181.77 56.51 -185.86 54.96 -192.4 54.96C-199.39 54.96 -203.12 56.7 -205.87 59.68C-205.33 61.14 -204.49 61.18 -204.31 61.36L-204.3 61.36Z" />
			<path id="Layer" class="shp30" d="M-192.4 54.96L-192.4 58.72" />
			<path id="Layer" class="shp31" d="M-185.45 34.85L-186.76 36.16L-193.34 36.16L-193.34 30.23L-192.03 28.92L-194.67 26.28L-197.31 28.92L-195.99 30.24L-195.99 36.16L-202.6 36.16L-203.91 34.85L-206.55 37.49L-203.91 40.13L-202.59 38.81L-195.99 38.81L-195.99 46.06L-197.31 47.38L-194.67 50.02L-192.03 47.38L-193.34 46.07L-193.34 38.81L-186.77 38.81L-185.45 40.13L-182.81 37.49L-185.45 34.85Z" />
			<path id="Layer" class="shp32" d="M26.04 102.5C26.04 102.5 27.15 96.54 27.15 95.71C27.15 94.87 27.98 94.74 28.81 95.85C29.64 96.95 33.39 102.36 33.39 102.36L26.04 102.49L26.04 102.5Z" />
			<path id="Layer" class="shp32" d="M75.77 148.23C75.39 145.54 74.88 142.98 74.25 140.54L72.25 139.74L73.59 138.14C72.82 135.56 71.93 133.13 70.96 130.85L69.06 130.31L70.01 128.69C68.99 126.52 67.89 124.5 66.75 122.62L64.98 122.26L65.61 120.8C64.34 118.83 63.03 117.03 61.72 115.4L59.85 115.19L60.35 113.73C58.83 111.94 57.35 110.39 55.97 109.06L54.1 108.95L54.42 107.61C51.08 104.58 48.71 103.11 48.71 103.11L44.46 104.4C44.46 104.4 42.43 103.29 40.76 102.18C40.76 102.18 39.65 98.48 39.29 96.45C38.92 94.42 37.81 95.34 37.44 95.9C37.07 96.45 33.23 100.7 33.23 100.7C33.23 100.7 30.94 100.39 29.31 100.7C26.9 101.17 25.79 102.78 23.02 105.42C21 107.34 19.78 109.02 19.09 110.82C18.4 112.63 19.23 112.63 18.95 114.29C18.68 115.95 11.19 128.43 10.36 129.95C9.53 131.48 7.52 136.14 11.47 139.1C12.57 139.94 13.41 140.35 14.1 140.63C14.1 140.63 15.21 140.35 15.63 139.8C15.7 139.7 15.74 139.64 15.76 139.6C15.77 139.57 15.78 139.57 15.76 139.6C15.71 139.71 15.62 140.12 16.04 140.63C16.73 141.46 17.63 141.4 18.12 141.46C18.86 141.55 20.2 140.91 21.31 139.24C22.42 137.58 23.11 137.02 23.94 136.05C24.77 135.08 29.36 132.94 31.15 129.95C31.57 129.26 32.54 129.54 33.23 130.09C33.93 130.65 37.81 130.79 39.47 128.01C39.47 128.01 40.26 135.31 36.97 140.35C31.57 148.67 22.42 150.75 19.65 158.51L76.49 158.51C76.49 155.83 76.34 153.25 76.09 150.78L74.2 149.78L75.8 148.23L75.77 148.23Z" />
			<path id="Layer" class="shp33" d="M46.49 106.26C46.49 106.26 70.7 124.38 70.7 157.09" />
			<path id="Layer" class="shp34" d="M15.75 139.4C15.77 139.37 15.76 139.37 15.75 139.4Z" />
			<path id="Layer" class="shp33" d="M41.5 118.83C41.96 124 39.56 127.7 39.47 128.02C39.47 128.02 45.29 125.02 45.84 121.05" />
			<path id="Layer" class="shp33" d="M39.46 128.02C39.46 128.02 43.34 129.92 46.21 128.71" />
			<path id="Layer" class="shp34" d="M15.62 139.6C15.62 139.6 18.21 136.27 18.95 134.75" />
			<path id="Layer" class="shp33" d="M31.56 108.89C31.56 108.89 27.3 108.91 25.88 111.25C23.94 114.43 26.15 114.85 26.15 114.85C26.15 114.85 28.37 115.54 29.9 113.46C31.52 111.25 30.17 109.86 30.17 109.86L31.55 108.89L31.56 108.89Z" />
			<path id="Layer" class="shp33" d="M10.91 132.39C12.43 131.97 13.4 132.11 14.1 132.53C14.1 132.53 13.4 130.45 14.65 128.65C15.9 126.84 17.98 126.71 19.78 123.24" />
			<path id="Layer" class="shp33" d="M51.38 110.83L54.02 109.17" />
			<path id="Layer" class="shp33" d="M56.79 116.79L59.43 115.55" />
			<path id="Layer" class="shp33" d="M61.64 123.71L64.69 122.46" />
			<path id="Layer" class="shp33" d="M65.53 131.63L68.71 130.52" />
			<path id="Layer" class="shp33" d="M68.57 140.92L71.9 139.95" />
			<path id="Layer" class="shp33" d="M70.38 150.34L73.84 149.93" />
			<path id="Layer" class="shp15" d="M22.71 18.34C22.71 18.34 23.82 12.38 23.82 11.55C23.82 10.72 24.65 10.58 25.48 11.69C26.31 12.8 30.06 18.21 30.06 18.21L22.71 18.34L22.71 18.34Z" />
			<path id="Layer" class="shp15" d="M72.45 64.07C72.07 61.38 71.56 58.82 70.93 56.38L68.93 55.58L70.27 53.98C69.5 51.4 68.61 48.97 67.64 46.69L65.74 46.15L66.68 44.55C65.66 42.38 64.56 40.35 63.42 38.47L61.65 38.11L62.28 36.65C61.01 34.68 59.7 32.88 58.39 31.25L56.52 31.04L57.02 29.58C55.5 27.79 54.01 26.24 52.64 24.91L50.77 24.8L51.09 23.46C47.75 20.43 45.38 18.96 45.38 18.96L41.13 20.25C41.13 20.25 39.1 19.14 37.43 18.03C37.43 18.03 36.32 14.34 35.96 12.3C35.58 10.27 34.48 11.19 34.11 11.75C33.74 12.3 29.9 16.55 29.9 16.55C29.9 16.55 27.61 16.24 25.97 16.55C23.57 17.02 22.46 18.63 19.69 21.27C17.67 23.19 16.45 24.87 15.76 26.68C15.07 28.48 15.9 28.48 15.62 30.14C15.34 31.8 7.86 44.28 7.03 45.81C6.2 47.33 4.19 51.99 8.14 54.96C9.24 55.79 10.08 56.2 10.77 56.48C10.77 56.48 11.88 56.2 12.29 55.65C12.37 55.55 12.41 55.49 12.42 55.46C12.44 55.42 12.45 55.42 12.42 55.46C12.38 55.56 12.29 55.97 12.71 56.48C13.4 57.31 14.29 57.25 14.79 57.31C15.53 57.41 16.87 56.76 17.98 55.09C19.09 53.43 19.78 52.88 20.61 51.91C21.44 50.94 26.03 48.79 27.82 45.81C28.24 45.11 29.21 45.39 29.9 45.95C30.59 46.5 34.48 46.64 36.14 43.86C36.14 43.86 36.93 51.16 33.64 56.2C28.24 64.52 19.09 66.6 16.32 74.36L73.15 74.36C73.15 71.68 73.01 69.11 72.76 66.63L70.87 65.63L72.5 64.09L72.45 64.07Z" />
			<path id="Layer" class="shp34" d="M43.16 22.1C43.16 22.1 67.37 40.22 67.37 72.94" />
			<path id="Layer" class="shp34" d="M12.42 55.46C12.44 55.42 12.44 55.42 12.42 55.46Z" />
			<path id="Layer" class="shp34" d="M38.17 34.67C38.63 39.84 36.23 43.54 36.14 43.86C36.14 43.86 41.96 40.86 42.51 36.89" />
			<path id="Layer" class="shp34" d="M36.14 43.87C36.14 43.87 40.02 45.77 42.89 44.56" />
			<path id="Layer" class="shp34" d="M12.29 55.65C12.29 55.65 14.88 52.32 15.62 50.8" />
			<path id="Layer" class="shp34" d="M28.24 24.74C28.24 24.74 23.98 24.76 22.56 27.09C20.62 30.28 22.83 30.7 22.83 30.7C22.83 30.7 25.05 31.39 26.58 29.31C28.2 27.1 26.85 25.71 26.85 25.71L28.23 24.74L28.24 24.74Z" />
			<path id="Layer" class="shp34" d="M7.58 48.44C9.11 48.02 10.08 48.16 10.77 48.58C10.77 48.58 10.08 46.5 11.32 44.7C12.57 42.89 14.65 42.76 16.45 39.29" />
			<path id="Layer" class="shp34" d="M48.06 26.68L50.69 25.02" />
			<path id="Layer" class="shp34" d="M53.47 32.64L56.1 31.39" />
			<path id="Layer" class="shp34" d="M58.32 39.56L61.37 38.31" />
			<path id="Layer" class="shp34" d="M62.2 47.47L65.39 46.36" />
			<path id="Layer" class="shp34" d="M65.25 56.76L68.58 55.79" />
			<path id="Layer" class="shp34" d="M67.05 66.19L70.52 65.77" />
			<path id="Layer" class="shp35" d="M125.45 152.57C121.7 145.13 122.08 131.87 122.39 126.73C128.32 126.32 132.59 125.2 132.59 123.87C132.59 122.57 128.48 121.47 122.72 121.04C126.4 119.15 128.92 115.32 128.92 110.89C128.92 104.59 123.81 99.48 117.51 99.48C111.2 99.48 106.09 104.59 106.09 110.89C106.09 115.32 108.61 119.15 112.29 121.04C106.53 121.47 102.42 122.57 102.42 123.87C102.42 125.2 106.69 126.32 112.62 126.73C112.93 131.87 113.31 145.13 109.56 152.57C102.21 154.05 97.05 157.52 97.05 161.56L137.95 161.56C137.95 157.52 132.8 154.05 125.45 152.57L125.45 152.57Z" />
			<path id="Layer" class="shp36" d="M125.45 68.97C121.7 61.52 122.08 48.26 122.39 43.13C128.32 42.72 132.59 41.6 132.59 40.27C132.59 38.97 128.48 37.87 122.72 37.44C126.4 35.55 128.92 31.71 128.92 27.29C128.92 20.99 123.81 15.88 117.51 15.88C111.2 15.88 106.09 20.99 106.09 27.29C106.09 31.71 108.61 35.55 112.29 37.44C106.53 37.87 102.42 38.97 102.42 40.27C102.42 41.6 106.69 42.72 112.62 43.13C112.93 48.26 113.31 61.52 109.56 68.97C102.21 70.45 97.05 73.92 97.05 77.96L137.95 77.96C137.95 73.92 132.8 70.45 125.45 68.97L125.45 68.97Z" />
			<path id="Layer" class="shp15" d="M-253.05 18.34C-253.05 18.34 -254.16 12.38 -254.16 11.55C-254.16 10.72 -254.99 10.58 -255.82 11.69C-256.65 12.8 -260.4 18.21 -260.4 18.21L-253.06 18.34L-253.05 18.34Z" />
			<path id="Layer" class="shp15" d="M-302.79 64.07C-302.41 61.38 -301.9 58.82 -301.27 56.38L-299.26 55.58L-300.6 53.98C-299.84 51.4 -298.95 48.97 -297.98 46.69L-296.08 46.15L-297.02 44.55C-296 42.38 -294.9 40.35 -293.76 38.47L-291.99 38.11L-292.62 36.65C-291.35 34.68 -290.03 32.88 -288.73 31.25L-286.86 31.04L-287.36 29.58C-285.84 27.79 -284.35 26.24 -282.98 24.91L-281.1 24.8L-281.43 23.46C-278.08 20.43 -275.72 18.96 -275.72 18.96L-271.47 20.25C-271.47 20.25 -269.44 19.14 -267.77 18.03C-267.77 18.03 -266.66 14.34 -266.29 12.3C-265.92 10.27 -264.82 11.19 -264.45 11.75C-264.08 12.3 -260.24 16.55 -260.24 16.55C-260.24 16.55 -257.95 16.24 -256.31 16.55C-253.91 17.02 -252.8 18.63 -250.03 21.27C-248.01 23.19 -246.79 24.87 -246.1 26.68C-245.41 28.48 -246.24 28.48 -245.96 30.14C-245.68 31.8 -238.2 44.28 -237.37 45.81C-236.53 47.33 -234.53 51.99 -238.47 54.96C-239.58 55.79 -240.42 56.2 -241.11 56.48C-241.11 56.48 -242.22 56.2 -242.63 55.65C-242.71 55.55 -242.75 55.49 -242.76 55.46C-242.78 55.42 -242.78 55.42 -242.76 55.46C-242.72 55.56 -242.62 55.97 -243.05 56.48C-243.74 57.31 -244.63 57.25 -245.13 57.31C-245.87 57.41 -247.21 56.76 -248.32 55.09C-249.43 53.43 -250.12 52.88 -250.95 51.91C-251.78 50.94 -256.37 48.79 -258.16 45.81C-258.58 45.11 -259.55 45.39 -260.24 45.95C-260.93 46.5 -264.82 46.64 -266.48 43.86C-266.48 43.86 -267.26 51.16 -263.98 56.2C-258.58 64.52 -249.43 66.6 -246.65 74.36L-303.52 74.36C-303.52 71.68 -303.37 69.11 -303.12 66.63L-301.23 65.63L-302.81 64.09L-302.79 64.07Z" />
			<path id="Layer" class="shp34" d="M-273.5 22.1C-273.5 22.1 -297.71 40.22 -297.71 72.94" />
			<path id="Layer" class="shp34" d="M-242.76 55.46C-242.78 55.42 -242.78 55.42 -242.76 55.46Z" />
			<path id="Layer" class="shp34" d="M-268.51 34.67C-268.97 39.84 -266.57 43.54 -266.48 43.86C-266.48 43.86 -272.3 40.86 -272.85 36.89" />
			<path id="Layer" class="shp34" d="M-266.48 43.87C-266.48 43.87 -270.36 45.77 -273.23 44.56" />
			<path id="Layer" class="shp34" d="M-242.63 55.65C-242.63 55.65 -245.22 52.32 -245.96 50.8" />
			<path id="Layer" class="shp34" d="M-258.58 24.74C-258.58 24.74 -254.32 24.76 -252.9 27.09C-250.96 30.28 -253.17 30.7 -253.17 30.7C-253.17 30.7 -255.39 31.39 -256.92 29.31C-258.54 27.1 -257.19 25.71 -257.19 25.71L-258.57 24.74L-258.58 24.74Z" />
			<path id="Layer" class="shp34" d="M-237.92 48.44C-239.45 48.02 -240.42 48.16 -241.11 48.58C-241.11 48.58 -240.42 46.5 -241.66 44.7C-242.91 42.89 -244.99 42.76 -246.79 39.29" />
			<path id="Layer" class="shp34" d="M-278.4 26.68L-281.03 25.02" />
			<path id="Layer" class="shp34" d="M-283.81 32.64L-286.44 31.39" />
			<path id="Layer" class="shp34" d="M-288.66 39.56L-291.71 38.31" />
			<path id="Layer" class="shp34" d="M-292.54 47.47L-295.73 46.36" />
			<path id="Layer" class="shp34" d="M-295.59 56.76L-298.92 55.79" />
			<path id="Layer" class="shp34" d="M-297.39 66.19L-300.86 65.77" />
			<path id="Layer" class="shp32" d="M-253.1 104.83C-253.1 104.83 -254.21 98.87 -254.21 98.04C-254.21 97.2 -255.04 97.07 -255.87 98.18C-256.7 99.29 -260.45 104.69 -260.45 104.69L-253.11 104.82L-253.1 104.83Z" />
			<path id="Layer" class="shp32" d="M-302.84 150.56C-302.46 147.87 -301.95 145.31 -301.32 142.87L-299.31 142.07L-300.65 140.47C-299.89 137.89 -299 135.46 -298.03 133.18L-296.13 132.64L-297.06 131.04C-296.04 128.87 -294.95 126.84 -293.81 124.96L-292.04 124.6L-292.67 123.14C-291.39 121.17 -290.08 119.37 -288.78 117.74L-286.91 117.53L-287.41 116.07C-285.88 114.28 -284.4 112.73 -283.03 111.4L-281.15 111.29L-281.48 109.95C-278.13 106.92 -275.77 105.45 -275.77 105.45L-271.52 106.74C-271.52 106.74 -269.48 105.63 -267.82 104.52C-267.82 104.52 -266.71 100.83 -266.34 98.79C-265.97 96.76 -264.86 97.69 -264.49 98.24C-264.12 98.79 -260.29 103.05 -260.29 103.05C-260.29 103.05 -257.99 102.73 -256.36 103.05C-253.96 103.51 -252.85 105.13 -250.08 107.76C-248.05 109.68 -246.84 111.36 -246.15 113.17C-245.46 114.97 -246.29 114.97 -246.01 116.63C-245.73 118.3 -238.25 130.77 -237.41 132.3C-236.58 133.82 -234.57 138.49 -238.52 141.45C-239.63 142.28 -240.47 142.69 -241.16 142.97C-241.16 142.97 -242.27 142.69 -242.68 142.14C-242.76 142.04 -242.79 141.98 -242.81 141.95C-242.83 141.91 -242.83 141.91 -242.81 141.95C-242.77 142.06 -242.67 142.46 -243.1 142.97C-243.79 143.8 -244.68 143.74 -245.18 143.8C-245.92 143.9 -247.26 143.25 -248.37 141.59C-249.48 139.92 -250.17 139.37 -251 138.4C-251.83 137.43 -256.42 135.28 -258.21 132.3C-258.63 131.6 -259.6 131.88 -260.29 132.44C-260.98 132.99 -264.86 133.13 -266.53 130.36C-266.53 130.36 -267.31 137.65 -264.03 142.69C-258.63 151.01 -249.48 153.09 -246.7 160.85L-303.57 160.85C-303.57 158.17 -303.43 155.6 -303.18 153.12L-301.29 152.12L-302.87 150.56L-302.84 150.56Z" />
			<path id="Layer" class="shp33" d="M-273.55 108.59C-273.55 108.59 -297.76 126.71 -297.76 159.42" />
			<path id="Layer" class="shp34" d="M-242.81 141.73C-242.83 141.7 -242.83 141.7 -242.81 141.73Z" />
			<path id="Layer" class="shp33" d="M-268.56 121.16C-269.02 126.33 -266.62 130.03 -266.53 130.35C-266.53 130.35 -272.35 127.35 -272.9 123.38" />
			<path id="Layer" class="shp33" d="M-266.53 130.35C-266.53 130.35 -270.41 132.25 -273.28 131.04" />
			<path id="Layer" class="shp34" d="M-242.68 141.93C-242.68 141.93 -245.27 138.6 -246.01 137.08" />
			<path id="Layer" class="shp33" d="M-258.63 111.22C-258.63 111.22 -254.37 111.24 -252.95 113.58C-251 116.77 -253.22 117.18 -253.22 117.18C-253.22 117.18 -255.44 117.87 -256.97 115.79C-258.59 113.58 -257.24 112.19 -257.24 112.19L-258.62 111.22L-258.63 111.22Z" />
			<path id="Layer" class="shp33" d="M-237.97 134.72C-239.5 134.3 -240.47 134.44 -241.16 134.86C-241.16 134.86 -240.47 132.78 -241.71 130.98C-242.96 129.17 -245.04 129.04 -246.84 125.57" />
			<path id="Layer" class="shp33" d="M-278.45 113.17L-281.08 111.5" />
			<path id="Layer" class="shp33" d="M-283.86 119.13L-286.49 117.88" />
			<path id="Layer" class="shp33" d="M-288.71 126.04L-291.76 124.79" />
			<path id="Layer" class="shp33" d="M-292.59 133.96L-295.78 132.85" />
			<path id="Layer" class="shp33" d="M-295.64 143.25L-298.97 142.28" />
			<path id="Layer" class="shp33" d="M-297.44 152.67L-300.91 152.26" />
		</g>
	</g>
</svg>