<svg xmlns="http://www.w3.org/2000/svg" viewBox="0 0 74 90" width="74" height="90">
	<style>
		tspan { white-space:pre }
		.shp0 { fill: #000000;stroke: #000000;stroke-width: 0.31 } 
		.shp1 { fill: #000000 } 
		.shp2 { fill: #000000;stroke: #ffffff;stroke-linecap:round;stroke-width: 1.009 } 
		.shp3 { fill: none;stroke: #ffffff;stroke-linejoin:bevel;stroke-width: 0.62 } 
		.shp4 { fill: none;stroke: #ffffff;stroke-linecap:round;stroke-width: 1.009 } 
		.shp5 { fill: #ffffff;stroke: #000000;stroke-width: 0.317 } 
		.shp6 { fill: none;stroke: #ffffff;stroke-width: 0.62 } 
		.shp7 { fill: #ffffff;stroke: #20201e;stroke-width: 1.211 } 
		.shp8 { fill: #ffffff;stroke: #20201e;stroke-linejoin:round;stroke-width: 1.211 } 
		.shp9 { fill: #ffffff;stroke: #20201e;stroke-linejoin:bevel;stroke-width: 1.211 } 
		.shp10 { fill: #000000;stroke: #000000;stroke-linejoin:bevel;stroke-width: 0.853 } 
		.shp11 { fill: #000000;stroke: #ffffff;stroke-linecap:round;stroke-width: 0.926 } 
		.shp12 { fill: none;stroke: #ffffff;stroke-linecap:round;stroke-width: 0.926 } 
		.shp13 { fill: #ffffff } 
		.shp14 { fill: #ffffff;stroke: #20201e;stroke-linejoin:bevel;stroke-width: 1.111 } 
		.shp15 { fill: #ffffff;stroke: #20201e;stroke-width: 1.111 } 
		.shp16 { fill: #000000;stroke: #000000;stroke-linecap:square;stroke-width: 0.853 } 
		.shp17 { fill: none;stroke: #ffffff;stroke-linecap:round;stroke-width: 0.853 } 
		.shp18 { fill: #ffffff;stroke: #20201e;stroke-linejoin:round;stroke-width: 1.111 } 
		.shp19 { fill: #ffffff;stroke: #20201e;stroke-linecap:square;stroke-width: 1.111 } 
		.shp20 { fill: #20201e } 
		.shp21 { fill: #ffffff;stroke: #20201e;stroke-width: 1.32 } 
		.shp22 { fill: #000000;stroke: #000000;stroke-width: 0.533 } 
		.shp23 { fill: #ffffff;stroke: #000000;stroke-linejoin:bevel;stroke-width: 1.014 } 
		.shp24 { fill: #000000;stroke: #000000;stroke-linejoin:bevel;stroke-width: 0.533 } 
		.shp25 { fill: none;stroke: #ffffff;stroke-linecap:round;stroke-linejoin:bevel;stroke-width: 0.533 } 
		.shp26 { fill: none;stroke: #ffffff;stroke-linecap:round;stroke-width: 0.533 } 
		.shp27 { fill: #ffffff;stroke: #000000;stroke-width: 0.533 } 
		.shp28 { fill: #ffffff;stroke: #20201e;stroke-linecap:round;stroke-linejoin:round;stroke-width: 1.32 } 
		.shp29 { fill: #ffffff;stroke: #20201e;stroke-linejoin:bevel;stroke-width: 1.32 } 
		.shp30 { fill: #ffffff;stroke: #000000;stroke-width: 1.014 } 
		.shp31 { fill: #ffffff;stroke: #000000;stroke-width: 0.77 } 
		.shp32 { fill: #20201e;stroke: #20201e;stroke-width: 0.853 } 
		.shp33 { fill: none;stroke: #ffffff;stroke-width: 0.853 } 
		.shp34 { fill: none;stroke: #20201e;stroke-width: 0.853 } 
		.shp35 { fill: #000000;stroke: #000000;stroke-linejoin:round;stroke-width: 0.79 } 
		.shp36 { fill: #ffffff;stroke: #000000;stroke-linejoin:round;stroke-width: 1.111 } 
	</style>
	<g id="Layer">
		<g id="Layer">
			<path id="Layer" class="shp0" d="M44.26 118.52C45.61 117.72 46.18 116.65 46.18 115.47C46.18 115.13 46.23 98.89 46.23 98.89L30.13 98.89C30.13 98.89 30.06 115.27 30.06 115.47C30.06 116.66 30.9 117.74 32.27 118.54C31.3 118.68 30.34 118.85 29.39 119.06C30.91 120.03 32.34 121.16 33.67 122.45C35.54 124.28 37.1 126.3 38.32 128.48C39.54 126.3 41.09 124.28 42.97 122.45C44.3 121.16 45.73 120.03 47.25 119.06C46.28 118.85 45.28 118.68 44.28 118.53L44.26 118.52Z" />
			<path id="Layer" class="shp1" d="M59.07 155.43C58.07 153.43 58.05 150.82 58.49 149.06C58.94 147.24 63.24 143.81 63.24 143.81C70.81 136.45 72.54 125.95 67.11 120.36C61.68 114.78 51.14 116.23 43.57 123.59C41.31 125.79 39.57 128.27 38.39 130.82C37.2 128.27 35.47 125.79 33.21 123.59C25.64 116.23 15.1 114.78 9.66 120.36C4.23 125.95 5.97 136.45 13.54 143.81C13.88 144.14 17.65 147.24 18.1 149.06C18.56 150.87 18.62 153.48 17.53 155.5L17.69 155.5C17.67 155.51 17.65 155.52 17.62 155.53C23.89 158.62 30.94 160.36 38.39 160.36C45.84 160.35 52.79 158.51 59.06 155.42" />
			<g id="Layer">
				<path id="Layer" class="shp2" d="M18.72 155.06C24.75 152.25 31.42 150.69 38.51 150.69C45.32 150.69 51.86 152.36 57.69 154.73" />
				<path id="Layer" class="shp2" d="M60.59 143.38C54.31 141.25 46.62 139.99 38.3 139.99C29.92 139.99 22.16 141.27 15.85 143.44" />
			</g>
			<path id="Layer" class="shp3" d="M44.92 100.06L31.41 112.17L44.92 112.17L31.41 100.06L44.92 100.06Z" />
			<path id="Layer" class="shp4" d="M56.66 150.77C50.88 148.74 44.73 147.27 38.35 147.27C31.84 147.27 25.58 148.78 19.7 150.88" />
			<path id="Layer" class="shp5" d="M35.18 143.96L38.35 145.54L41.52 143.96L38.35 142.37L35.18 143.96Z" />
			<path id="Layer" class="shp5" d="M22.23 146.02L25.61 147.07L28.48 145L25.1 143.94L22.23 146.02Z" />
			<path id="Layer" class="shp5" d="M54.48 146.02L51.09 147.07L48.22 145L51.6 143.94L54.48 146.02Z" />
			<path id="Layer" class="shp3" d="M31.41 100.06L44.93 100.06L44.93 112.17L31.41 112.17L31.41 100.06Z" />
			<path id="Layer" class="shp6" d="M38.28 121.89C35.13 121.89 32.58 120.01 32.58 117.68C32.58 115.35 35.13 113.47 38.28 113.47C41.43 113.47 43.98 115.35 43.98 117.68C43.98 120.01 41.43 121.89 38.28 121.89Z" />
			<path id="Layer" class="shp7" d="M46.26 10.64L30.16 10.64L30.16 27.47C30.16 29.95 33.78 31.96 38.25 31.96C42.72 31.96 46.23 29.95 46.23 27.47C46.23 27.25 46.26 10.64 46.26 10.64L46.26 10.64Z" />
			<path id="Layer" class="shp7" d="M30.16 10.64L46.26 10.64L46.26 25.07L30.16 25.07L30.16 10.64Z" />
			<path id="Layer" class="shp7" d="M30.16 10.64L46.26 25.07" />
			<path id="Layer" class="shp7" d="M46.26 10.64L30.16 25.07" />
			<path id="Layer" class="shp8" d="M59 67.14C52.74 64.05 45.93 62.42 38.47 62.42C31.01 62.42 23.88 64.16 17.62 67.25C23.88 70.34 30.89 72.12 38.35 72.12C45.81 72.13 52.74 70.24 59 67.15L59 67.14Z" />
			<path id="Layer" class="shp9" d="M62.13 56.54C62.49 56.23 62.85 55.9 63.2 55.56C70.77 48.2 72.5 37.7 67.07 32.12C61.63 26.53 51.1 27.98 43.53 35.35C41.26 37.55 39.53 40.03 38.34 42.57C37.16 40.03 35.42 37.55 33.16 35.35C25.59 27.98 15.05 26.53 9.62 32.12C4.19 37.7 5.92 48.2 13.49 55.56C13.84 55.9 14.2 56.23 14.56 56.54C21.1 54.09 29.36 52.62 38.35 52.62C47.33 52.62 55.59 54.09 62.12 56.54L62.13 56.54Z" />
			<path id="Layer" class="shp7" d="M38.35 42.58C39.53 40.04 41.27 37.56 43.53 35.36C45.37 33.56 47.4 32.12 49.48 31.05C46.03 30.08 42.28 29.54 38.36 29.54C34.43 29.54 30.68 30.08 27.23 31.05C29.31 32.12 31.33 33.56 33.17 35.36C35.43 37.56 37.16 40.04 38.35 42.58L38.35 42.58Z" />
			<path id="Layer" class="shp9" d="M62.04 56.54L62.04 56.53C55.5 54.08 47.25 52.62 38.27 52.62C29.28 52.62 21.02 54.09 14.48 56.54C14.48 56.54 17.61 59 18.07 60.81C18.52 62.62 18.72 65.22 17.63 67.24C23.89 64.15 31.02 62.42 38.48 62.42C45.79 62.42 52.84 64.16 59.01 67.14C58.01 65.14 58.01 62.57 58.45 60.81C58.9 59.01 62.04 56.55 62.04 56.55L62.04 56.54Z" />
			<path id="Layer" class="shp9" d="M17.62 67.25C23.88 64.16 31.02 62.43 38.47 62.43C45.79 62.43 52.83 64.16 59 67.14C58.58 66.29 58.13 64.11 58.2 62.9C52 60.46 45.33 59.13 38.37 59.13C31.34 59.13 24.6 60.49 18.33 62.98C18.41 65.23 18.09 66.36 17.62 67.24L17.62 67.25Z" />
			<path id="Layer" class="shp1" d="M35.29 55.96L38.39 57.51L41.48 55.96L38.39 54.41L35.29 55.96Z" />
			<path id="Layer" class="shp1" d="M22.62 57.98L25.92 59.01L28.73 56.98L25.43 55.95L22.62 57.98Z" />
			<path id="Layer" class="shp1" d="M54.15 57.98L50.85 59.01L48.04 56.98L51.34 55.95L54.15 57.98Z" />
			<path id="Layer" class="shp7" d="M38.35 33.98C35.2 33.98 32.65 32.1 32.65 29.77C32.65 27.44 35.2 25.56 38.35 25.56C41.5 25.56 44.05 27.44 44.05 29.77C44.05 32.1 41.5 33.98 38.35 33.98Z" />
			<path id="Layer" class="shp10" d="M148.7 113.6C149.55 112.14 149.06 110.27 147.6 109.42C146.14 108.56 144.27 109.06 143.42 110.52C142.69 111.77 142.95 113.32 143.95 114.27C139.79 119.32 132.19 128.54 130.35 130.77C129.81 130.53 129.25 130.3 128.67 130.09C128.84 128.38 130.04 115.3 130.68 108.34C132.07 108.37 133.35 107.45 133.71 106.05C134.13 104.42 133.15 102.75 131.52 102.33C129.88 101.9 128.21 102.88 127.79 104.52C127.42 105.92 128.1 107.35 129.33 107.99C126.31 114.83 120.47 128.1 120.45 128.15C120.45 128.17 120.45 128.18 120.45 128.19C119.92 128.13 119.37 128.08 118.82 128.03C118.71 127.29 116.2 111.91 114.89 103.9C116.39 103.55 117.51 102.2 117.51 100.59C117.51 98.72 115.99 97.19 114.11 97.19C112.24 97.19 110.72 98.72 110.72 100.59C110.72 102.2 111.84 103.55 113.34 103.9C112.04 111.87 109.55 127.15 109.42 128.02C108.83 128.06 108.27 128.12 107.71 128.18C107.71 128.16 107.71 128.15 107.7 128.13C107.69 128.07 101.84 114.8 98.83 107.97C100.06 107.32 100.73 105.9 100.37 104.49C99.94 102.86 98.28 101.88 96.64 102.3C95.01 102.72 94.02 104.39 94.45 106.03C94.81 107.43 96.09 108.35 97.48 108.32C98.11 115.26 99.32 128.32 99.48 130.06C98.91 130.26 98.37 130.49 97.84 130.72C95.93 128.4 88.41 119.29 84.27 114.28C85.28 113.32 85.54 111.77 84.81 110.52C83.96 109.06 82.09 108.57 80.63 109.42C79.17 110.27 78.68 112.14 79.53 113.6C80.26 114.85 81.74 115.39 83.07 114.98C85.55 121.46 93.58 142.31 93.89 142.6L93.89 142.6C93.9 142.63 94.69 147.8 94.77 149.52C94.86 151.22 94.12 155.4 94.17 155.42L94.17 155.43C94.17 155.43 94.17 155.42 94.18 155.42C100.13 158.21 106.91 159.78 114.18 159.78C121.52 159.78 134.77 155.29 134.71 155.26C133.84 153.43 134.17 142.59 134.17 142.59C134.48 142.3 142.61 121.63 145.16 114.98C146.47 115.39 147.95 114.85 148.68 113.6" />
			<g id="Layer">
				<path id="Layer" class="shp11" d="M95.65 154.18C101.91 151.6 107.77 150.49 114.95 150.49C121.85 150.49 127.37 151.63 133.14 154.03" />
				<path id="Layer" class="shp11" d="M131.95 142.09C126.86 140.13 120.62 138.98 113.88 138.98C107.08 138.98 100.79 140.15 95.67 142.14" />
			</g>
			<path id="Layer" class="shp12" d="M132.56 150.61C126.92 148.75 121.19 147.4 114.72 147.4C108.14 147.4 101.8 148.79 95.85 150.72" />
			<path id="Layer" class="shp13" d="M111.3 143.65L114.14 145.07L116.99 143.65L114.14 142.23L111.3 143.65Z" />
			<path id="Layer" class="shp13" d="M128.61 145.5L125.58 146.45L123 144.59L126.03 143.64L128.61 145.5Z" />
			<path id="Layer" class="shp13" d="M99.68 145.5L102.71 146.45L105.29 144.59L102.26 143.64L99.68 145.5Z" />
			<path id="Layer" class="shp14" d="M134.22 69.36C128.15 66.52 121.51 65.03 114.17 65.03C106.82 65.03 99.71 66.66 93.44 69.5C99.51 72.33 106.39 73.93 113.73 73.93C121.08 73.94 127.96 72.2 134.22 69.37L134.22 69.36Z" />
			<path id="Layer" class="shp14" d="M133.77 56.63L133.77 56.62C128.31 54.38 121.97 53.01 113.73 53.01C105.48 53.01 99.11 54.38 93.49 56.63C93.49 56.63 94.1 61.83 94.13 63.55C94.16 65.49 93.62 69.46 93.62 69.46C99.88 66.63 106.83 65.03 114.17 65.03C121.37 65.03 128.68 66.51 134.22 69.36C133.31 67.54 133.77 56.64 133.77 56.64L133.77 56.63Z" />
			<path id="Layer" class="shp14" d="M93.64 69.43C99.54 66.63 106.83 65.03 114.17 65.03C121.37 65.03 127.41 66.05 134.22 69.36C133.95 68.59 133.76 66.22 133.71 65.35C127.68 63.11 121.03 61.84 114.18 61.84C107.26 61.84 100.3 63.18 94.05 65.47C93.92 66.36 93.64 69.42 93.64 69.42L93.64 69.43Z" />
			<path id="Layer" class="shp15" d="M147.3 23.45C145.84 22.6 143.97 23.1 143.12 24.56C142.39 25.81 142.65 27.36 143.65 28.31C139.49 33.36 131.88 42.58 130.05 44.81C129.51 44.57 128.95 44.34 128.37 44.13C128.53 42.42 129.74 29.34 130.38 22.38C131.77 22.41 133.05 21.49 133.41 20.09C133.83 18.46 132.85 16.79 131.21 16.36C129.58 15.94 127.91 16.92 127.49 18.56C127.12 19.96 127.8 21.39 129.03 22.03C126.01 28.87 120.17 42.14 120.15 42.19C120.15 42.21 120.15 42.22 120.15 42.23C119.62 42.17 119.07 42.11 118.51 42.07C118.4 41.33 115.9 25.95 114.59 17.94C116.09 17.59 117.21 16.24 117.21 14.63C117.21 12.76 115.69 11.23 113.81 11.23C111.94 11.23 110.41 12.76 110.41 14.63C110.41 16.24 111.54 17.59 113.04 17.94C111.74 25.91 109.24 41.19 109.11 42.06C108.53 42.1 107.96 42.16 107.41 42.22C107.41 42.2 107.41 42.19 107.4 42.17C107.39 42.11 101.54 28.84 98.53 22.01C99.76 21.36 100.43 19.94 100.07 18.53C99.64 16.9 97.97 15.92 96.34 16.34C94.71 16.76 93.72 18.43 94.15 20.07C94.51 21.47 95.79 22.39 97.18 22.36C97.81 29.3 99.01 42.35 99.18 44.1C98.61 44.3 98.06 44.53 97.54 44.76C95.63 42.44 88.11 33.33 83.97 28.31C84.98 27.36 85.24 25.81 84.51 24.56C83.66 23.1 81.79 22.6 80.33 23.46C78.87 24.31 78.38 26.18 79.23 27.64C79.96 28.89 81.44 29.43 82.77 29.02C85.25 35.5 93.28 56.35 93.59 56.63C99.12 54.38 105.49 53.01 113.73 53.01C121.98 53.01 128.34 54.38 133.87 56.63C134.18 56.34 142.31 35.67 144.86 29.02C146.19 29.43 147.67 28.89 148.4 27.64C149.22 26.18 148.73 24.31 147.27 23.46L147.3 23.45Z" />
			<path id="Layer" class="shp1" d="M111 57.62L113.84 59.04L116.69 57.62L113.84 56.2L111 57.62Z" />
			<path id="Layer" class="shp1" d="M99.38 59.46L102.41 60.4L104.99 58.54L101.96 57.6L99.38 59.46Z" />
			<path id="Layer" class="shp1" d="M128.31 59.47L125.28 60.42L122.7 58.56L125.73 57.61L128.31 59.47Z" />
			<g id="Layer">
				<path id="Layer" class="shp16" d="M-168.37 154.65L-169.34 154.65L-169.34 148.83L-174 143.6L-174.05 143.6L-174.05 112.78L-174 112.78L-167.93 106.98L-167.89 106.98L-167.89 97.04C-167.89 96.18 -168.57 95.47 -169.4 95.47L-177.79 95.47L-177.79 100.87L-182.51 102.43L-186.85 100.87L-186.85 95.47L-197.2 95.47L-197.2 100.87L-201.55 102.43L-206.26 100.87L-206.26 95.47L-214.65 95.47C-215.48 95.47 -216.16 96.18 -216.16 97.04L-216.16 106.98L-216.14 106.98L-210.05 112.78L-210.05 143.6L-214.71 148.83L-214.71 154.65L-215.68 154.65C-216.55 154.65 -217.26 155.35 -217.26 156.22L-217.26 159.92C-217.26 160.78 -216.55 161.49 -215.68 161.49L-168.37 161.49C-167.5 161.49 -166.8 160.78 -166.8 159.92L-166.8 156.22C-166.8 155.36 -167.5 154.65 -168.37 154.65L-168.37 154.65Z" />
				<path id="Layer" class="shp17" d="M-213.18 154.65L-171.22 154.65" />
				<path id="Layer" class="shp17" d="M-212.99 148.83L-171.4 148.83" />
				<path id="Layer" class="shp17" d="M-175.84 143.61L-208.93 143.61" />
				<path id="Layer" class="shp17" d="M-208.74 112.79L-175.65 112.79" />
				<path id="Layer" class="shp17" d="M-214.1 106.98L-169.19 106.98" />
			</g>
			<path id="Layer" class="shp15" d="M-168.72 75.59C-167.85 75.59 -167.15 74.89 -167.15 74.02L-167.15 70.32C-167.15 69.45 -167.85 68.75 -168.72 68.75L-216.04 68.75C-216.91 68.75 -217.61 69.45 -217.61 70.32L-217.61 74.02C-217.61 74.89 -216.91 75.59 -216.04 75.59L-168.72 75.59Z" />
			<path id="Layer" class="shp15" d="M-215.07 62.93L-169.69 62.93L-169.69 68.75L-215.07 68.75L-215.07 62.93Z" />
			<path id="Layer" class="shp14" d="M-169.69 62.93L-174.36 57.7L-210.41 57.7L-215.07 62.93L-169.69 62.93Z" />
			<path id="Layer" class="shp18" d="M-168.27 21.06L-174.36 26.88L-210.41 26.88L-216.51 21.06L-168.27 21.06Z" />
			<path id="Layer" class="shp15" d="M-210.41 26.88L-174.41 26.88L-174.41 57.7L-210.41 57.7L-210.41 26.88Z" />
			<path id="Layer" class="shp19" d="M-169.75 9.57L-178.15 9.57L-178.15 14.97L-182.86 16.53L-187.21 14.97L-187.21 9.57L-197.56 9.57L-197.56 14.97L-201.9 16.53L-206.61 14.97L-206.61 9.57L-215.01 9.57C-215.84 9.57 -216.51 10.27 -216.51 11.14L-216.51 21.08L-168.25 21.08L-168.25 11.14C-168.25 10.27 -168.92 9.57 -169.75 9.57L-169.75 9.57Z" />
			<path id="Layer" class="shp20" d="M-0.13 159.82C-0.75 159.48 -6.38 153.95 -11.6 153.95C-14.31 153.95 -16.44 154.77 -18.31 155.49C-20.21 156.23 -22.01 156.92 -24.61 156.92C-27.64 156.92 -30.15 155.99 -32.37 155.18C-34.16 154.52 -35.71 153.95 -37.29 153.95C-38.87 153.95 -40.42 154.52 -42.21 155.18C-44.43 155.99 -46.94 156.92 -49.97 156.92C-52.57 156.92 -54.37 156.23 -56.27 155.49C-58.15 154.77 -60.27 153.95 -62.98 153.95C-68.2 153.95 -73.83 159.48 -74.45 159.82C-74.45 159.82 -72.18 158.4 -70.07 158.4C-67.95 158.4 -66.12 159.88 -62.98 159.88C-61.37 159.88 -60.06 160.39 -58.4 161.03C-56.29 161.84 -53.68 162.85 -49.97 162.85C-45.89 162.85 -42.58 161.63 -40.16 160.74C-39.06 160.34 -37.82 159.88 -37.29 159.88C-36.76 159.88 -35.52 160.34 -34.42 160.74C-32 161.63 -28.69 162.85 -24.61 162.85C-20.91 162.85 -18.29 161.84 -16.18 161.03C-14.52 160.39 -13.21 159.88 -11.6 159.88C-8.46 159.88 -6.08 158.4 -4.51 158.4C-2.95 158.4 -0.1 159.82 -0.1 159.82L-0.13 159.82Z" />
			<path id="Layer" class="shp21" d="M-17.36 125.91C-17.36 116.56 -25.34 101.73 -31.45 99.72C-31.66 99.65 -31.88 99.59 -32.11 99.55C-31.04 99.15 -30.28 98.13 -30.28 96.93C-30.28 95.38 -31.53 94.13 -33.07 94.13C-34.62 94.13 -35.87 95.38 -35.87 96.93C-35.87 98 -35.26 98.93 -34.38 99.4C-35.63 99.48 -36.98 99.81 -38.38 100.37C-39.27 99.96 -40.15 99.67 -41.02 99.51C-40 99.1 -39.28 98.1 -39.28 96.93C-39.28 95.38 -40.53 94.13 -42.08 94.13C-43.62 94.13 -44.87 95.38 -44.87 96.93C-44.87 98.02 -44.25 98.96 -43.34 99.42C-43.81 99.47 -44.28 99.57 -44.73 99.72C-50.83 101.73 -58.63 116.01 -58.63 125.91C-58.63 133.81 -55.43 140.61 -51.74 145.54C-51.19 147 -50.35 147.04 -50.17 147.22C-50.17 147.22 -50.17 147.22 -50.17 147.22C-50.17 147.24 -50.9 151.98 -50.97 153.05C-51.08 154.7 -51.25 156.64 -51.25 156.64C-47.22 158.42 -42.8 159.45 -38.01 159.45C-33.21 159.45 -29.01 158.32 -24.98 156.54C-25.13 155.23 -25.29 153.91 -25.62 151.93C-25.79 150.9 -26.38 147.22 -26.38 147.22C-26.2 147.04 -25.12 145.67 -25.12 145.67C-21.2 140.72 -17.37 134.12 -17.37 125.91L-17.36 125.91Z" />
			<path id="Layer" class="shp22" d="M-50.07 147.22C-46.8 145.81 -43.04 144.58 -38.17 144.58C-33.31 144.58 -29.55 145.81 -26.28 147.22C-26.1 147.04 -25.68 146.58 -24.79 145.34C-27.54 142.37 -31.55 140.73 -38.09 140.73C-45.08 140.73 -48.89 142.56 -51.64 145.54C-51.08 146.99 -50.24 147.04 -50.06 147.22L-50.07 147.22Z" />
			<path id="Layer" class="shp23" d="M-25.09 156.54C-29.12 154.77 -33.24 153.89 -38.04 153.89C-42.84 153.89 -47.33 154.87 -51.36 156.64C-47.33 158.41 -42.91 159.44 -38.11 159.44C-33.31 159.44 -29.11 158.31 -25.08 156.54L-25.09 156.54Z" />
			<path id="Layer" class="shp22" d="M-25.2 145.67C-22.66 141.43 -19.32 133.43 -23.5 119.81C-27 108.39 -37.31 97.24 -44.81 99.72C-51.47 101.91 -58.71 117.65 -58.71 125.9C-58.71 133.8 -55.51 140.61 -51.82 145.53L-25.19 145.66L-25.2 145.67Z" />
			<path id="Layer" class="shp22" d="M-42.16 99.72C-43.71 99.72 -44.96 98.47 -44.96 96.92C-44.96 95.37 -43.71 94.12 -42.16 94.12C-40.61 94.12 -39.36 95.37 -39.36 96.92C-39.36 98.47 -40.61 99.72 -42.16 99.72Z" />
			<path id="Layer" class="shp24" d="M-26.47 147.21L-26.47 147.21C-29.74 145.8 -33.5 144.62 -38.36 144.62C-43.23 144.62 -46.99 145.8 -50.25 147.21C-50.25 147.21 -50.99 151.97 -51.06 153.04C-51.17 154.69 -51.33 156.64 -51.33 156.64C-47.31 154.87 -42.81 153.89 -38.02 153.89C-33.31 153.89 -29.04 154.83 -25.07 156.54C-25.21 155.22 -25.38 153.9 -25.71 151.93C-25.89 150.89 -26.48 147.2 -26.48 147.2L-26.47 147.21Z" />
			<path id="Layer" class="shp25" d="M-26.59 153.59C-30.21 152.47 -34.08 151.85 -38.07 151.85C-42.13 151.85 -46.28 152.51 -50 153.68" />
			<g id="Layer">
				<path id="Layer" class="shp26" d="M-49.22 146.78C-46.19 145.56 -42.72 144.57 -38.36 144.57C-33.97 144.57 -30.49 145.57 -27.45 146.8" />
				<path id="Layer" class="shp26" d="M-25.48 144.63C-29.32 141.56 -32.4 140.73 -38.09 140.73C-42.85 140.73 -47.77 142 -50.13 144.15" />
			</g>
			<path id="Layer" class="shp27" d="M-31.41 120.71L-32.71 122.02L-39.29 122.02L-39.29 116.08L-37.98 114.77L-40.62 112.13L-43.26 114.77L-41.94 116.09L-41.94 122.02L-48.56 122.02L-49.87 120.71L-52.51 123.35L-49.87 125.99L-48.54 124.67L-41.94 124.67L-41.94 131.91L-43.26 133.23L-40.62 135.87L-37.98 133.23L-39.29 131.92L-39.29 124.67L-32.73 124.67L-31.41 125.99L-28.77 123.35L-31.41 120.71Z" />
			<path id="Layer" class="shp28" d="M-1.17 73.96C-1.79 73.62 -7.42 68.09 -12.64 68.09C-15.35 68.09 -17.48 68.91 -19.35 69.63C-21.25 70.37 -23.05 71.06 -25.65 71.06C-28.68 71.06 -31.19 70.13 -33.41 69.32C-35.2 68.66 -36.75 68.09 -38.33 68.09C-39.91 68.09 -41.46 68.66 -43.25 69.32C-45.47 70.13 -47.98 71.06 -51.01 71.06C-53.61 71.06 -55.41 70.37 -57.31 69.63C-59.19 68.91 -61.31 68.09 -64.03 68.09C-69.24 68.09 -74.87 73.62 -75.49 73.96C-75.49 73.96 -73.1 72.54 -71.11 72.54C-69.12 72.54 -67.16 74.02 -64.03 74.02C-62.42 74.02 -61.1 74.53 -59.44 75.17C-57.34 75.98 -54.72 76.99 -51.01 76.99C-46.93 76.99 -43.62 75.77 -41.2 74.88C-40.1 74.48 -38.86 74.02 -38.33 74.02C-37.8 74.02 -36.56 74.48 -35.46 74.88C-33.04 75.77 -29.73 76.99 -25.65 76.99C-21.95 76.99 -19.33 75.98 -17.22 75.17C-15.56 74.53 -14.25 74.02 -12.64 74.02C-9.5 74.02 -8.2 72.54 -5.55 72.54C-2.88 72.54 -1.14 73.96 -1.14 73.96L-1.17 73.96Z" />
			<path id="Layer" class="shp21" d="M-32.58 13.86C-32.79 13.79 -33.01 13.74 -33.23 13.69C-32.17 13.29 -31.41 12.27 -31.41 11.07C-31.41 9.53 -32.66 8.27 -34.2 8.27C-35.75 8.27 -37 9.53 -37 11.07C-37 12.14 -36.39 13.07 -35.51 13.54C-43.53 14.06 -55.71 24.63 -56.1 42.52C-56.25 49.63 -55.35 55.45 -52.87 59.68L-26.02 59.49C-22.1 54.54 -18.49 48.27 -18.49 40.05C-18.49 29.12 -26.47 15.86 -32.58 13.86L-32.58 13.86Z" />
			<path id="Layer" class="shp21" d="M-24.54 33.96C-27.49 24.33 -35.28 14.9 -42.15 13.66C-41.13 13.24 -40.41 12.24 -40.41 11.07C-40.41 9.53 -41.66 8.27 -43.21 8.27C-44.75 8.27 -46 9.53 -46 11.07C-46 12.16 -45.38 13.1 -44.46 13.56C-44.94 13.62 -45.4 13.71 -45.86 13.86C-51.95 15.87 -59.76 29.35 -59.76 40.05C-59.76 47.95 -56.56 54.75 -52.87 59.68L-26.02 59.49C-23.48 55.25 -20.37 47.57 -24.54 33.96L-24.54 33.96Z" />
			<path id="Layer" class="shp23" d="M-26.11 70.69C-29.48 69.14 -34.26 68.04 -39.06 68.04C-43.85 68.04 -48.35 69.02 -52.38 70.79C-48.35 72.56 -43.93 73.59 -39.13 73.59C-34.33 73.59 -30.13 72.46 -26.1 70.69L-26.11 70.69Z" />
			<path id="Layer" class="shp29" d="M-27.51 61.36L-27.51 61.36C-30.78 59.95 -34.54 58.77 -39.4 58.77C-44.27 58.77 -48.03 59.95 -51.3 61.36C-51.3 61.36 -52.03 66.12 -52.1 67.19C-52.21 68.84 -52.38 70.79 -52.38 70.79C-48.35 69.02 -43.86 68.04 -39.06 68.04C-34.35 68.04 -30.08 68.98 -26.11 70.69C-26.25 69.37 -26.42 68.05 -26.75 66.08C-26.93 65.03 -27.52 61.35 -27.52 61.35L-27.51 61.36Z" />
			<path id="Layer" class="shp29" d="M-52.38 70.79C-48.35 69.02 -43.86 68.04 -39.06 68.04C-34.36 68.04 -30.09 68.98 -26.11 70.69C-26.22 69.59 -26.46 68.9 -26.61 67.49C-30.61 66.09 -34.65 65.38 -39.12 65.38C-43.65 65.38 -48.13 66.2 -52.16 67.63C-52.18 68.87 -52.39 70.79 -52.39 70.79L-52.38 70.79Z" />
			<path id="Layer" class="shp21" d="M-51.3 61.36C-48.03 59.95 -44.27 58.75 -39.4 58.72C-35.26 58.69 -30.78 59.95 -27.51 61.36C-27.33 61.18 -26.57 60.95 -26.02 59.49C-28.77 56.51 -32.86 54.96 -39.4 54.96C-46.39 54.96 -50.12 56.7 -52.87 59.68C-52.33 61.14 -51.49 61.18 -51.31 61.36L-51.3 61.36Z" />
			<path id="Layer" class="shp30" d="M-39.4 54.96L-39.4 58.72" />
			<path id="Layer" class="shp31" d="M-32.45 34.85L-33.76 36.16L-40.34 36.16L-40.34 30.23L-39.03 28.92L-41.67 26.28L-44.31 28.92L-42.99 30.24L-42.99 36.16L-49.6 36.16L-50.91 34.85L-53.55 37.49L-50.91 40.13L-49.59 38.81L-42.99 38.81L-42.99 46.06L-44.31 47.38L-41.67 50.02L-39.03 47.38L-40.34 46.07L-40.34 38.81L-33.77 38.81L-32.45 40.13L-29.81 37.49L-32.45 34.85Z" />
			<path id="Layer" class="shp32" d="M179.04 102.5C179.04 102.5 180.15 96.54 180.15 95.71C180.15 94.87 180.98 94.74 181.81 95.85C182.64 96.95 186.39 102.36 186.39 102.36L179.04 102.49L179.04 102.5Z" />
			<path id="Layer" class="shp32" d="M228.77 148.23C228.39 145.54 227.88 142.98 227.25 140.54L225.25 139.74L226.59 138.14C225.82 135.56 224.93 133.13 223.96 130.85L222.06 130.31L223.01 128.69C221.99 126.52 220.89 124.5 219.75 122.62L217.98 122.26L218.61 120.8C217.34 118.83 216.03 117.03 214.72 115.4L212.85 115.19L213.35 113.73C211.83 111.94 210.35 110.39 208.97 109.06L207.1 108.95L207.42 107.61C204.08 104.58 201.71 103.11 201.71 103.11L197.46 104.4C197.46 104.4 195.43 103.29 193.76 102.18C193.76 102.18 192.65 98.48 192.29 96.45C191.92 94.42 190.81 95.34 190.44 95.9C190.07 96.45 186.23 100.7 186.23 100.7C186.23 100.7 183.94 100.39 182.31 100.7C179.9 101.17 178.79 102.78 176.02 105.42C174 107.34 172.78 109.02 172.09 110.82C171.4 112.63 172.23 112.63 171.95 114.29C171.68 115.95 164.19 128.43 163.36 129.95C162.53 131.48 160.52 136.14 164.47 139.1C165.57 139.94 166.41 140.35 167.1 140.63C167.1 140.63 168.21 140.35 168.63 139.8C168.7 139.7 168.74 139.64 168.76 139.6C168.77 139.57 168.78 139.57 168.76 139.6C168.71 139.71 168.62 140.12 169.04 140.63C169.73 141.46 170.63 141.4 171.12 141.46C171.86 141.55 173.2 140.91 174.31 139.24C175.42 137.58 176.11 137.02 176.94 136.05C177.77 135.08 182.36 132.94 184.15 129.95C184.57 129.26 185.54 129.54 186.23 130.09C186.93 130.65 190.81 130.79 192.47 128.01C192.47 128.01 193.26 135.31 189.97 140.35C184.57 148.67 175.42 150.75 172.65 158.51L229.49 158.51C229.49 155.83 229.34 153.25 229.09 150.78L227.2 149.78L228.8 148.23L228.77 148.23Z" />
			<path id="Layer" class="shp33" d="M199.49 106.26C199.49 106.26 223.7 124.38 223.7 157.09" />
			<path id="Layer" class="shp34" d="M168.75 139.4C168.77 139.37 168.76 139.37 168.75 139.4Z" />
			<path id="Layer" class="shp33" d="M194.5 118.83C194.96 124 192.56 127.7 192.47 128.02C192.47 128.02 198.29 125.02 198.84 121.05" />
			<path id="Layer" class="shp33" d="M192.46 128.02C192.46 128.02 196.34 129.92 199.21 128.71" />
			<path id="Layer" class="shp34" d="M168.62 139.6C168.62 139.6 171.21 136.27 171.95 134.75" />
			<path id="Layer" class="shp33" d="M184.56 108.89C184.56 108.89 180.3 108.91 178.88 111.25C176.94 114.43 179.15 114.85 179.15 114.85C179.15 114.85 181.37 115.54 182.9 113.46C184.52 111.25 183.17 109.86 183.17 109.86L184.55 108.89L184.56 108.89Z" />
			<path id="Layer" class="shp33" d="M163.91 132.39C165.43 131.97 166.4 132.11 167.1 132.53C167.1 132.53 166.4 130.45 167.65 128.65C168.9 126.84 170.98 126.71 172.78 123.24" />
			<path id="Layer" class="shp33" d="M204.38 110.83L207.02 109.17" />
			<path id="Layer" class="shp33" d="M209.79 116.79L212.43 115.55" />
			<path id="Layer" class="shp33" d="M214.64 123.71L217.69 122.46" />
			<path id="Layer" class="shp33" d="M218.53 131.63L221.71 130.52" />
			<path id="Layer" class="shp33" d="M221.57 140.92L224.9 139.95" />
			<path id="Layer" class="shp33" d="M223.38 150.34L226.84 149.93" />
			<path id="Layer" class="shp15" d="M175.71 18.34C175.71 18.34 176.82 12.38 176.82 11.55C176.82 10.72 177.65 10.58 178.48 11.69C179.31 12.8 183.06 18.21 183.06 18.21L175.71 18.34L175.71 18.34Z" />
			<path id="Layer" class="shp15" d="M225.45 64.07C225.07 61.38 224.56 58.82 223.93 56.38L221.93 55.58L223.27 53.98C222.5 51.4 221.61 48.97 220.64 46.69L218.74 46.15L219.68 44.55C218.66 42.38 217.56 40.35 216.42 38.47L214.65 38.11L215.28 36.65C214.01 34.68 212.7 32.88 211.39 31.25L209.52 31.04L210.02 29.58C208.5 27.79 207.01 26.24 205.64 24.91L203.77 24.8L204.09 23.46C200.75 20.43 198.38 18.96 198.38 18.96L194.13 20.25C194.13 20.25 192.1 19.14 190.43 18.03C190.43 18.03 189.32 14.34 188.96 12.3C188.58 10.27 187.48 11.19 187.11 11.75C186.74 12.3 182.9 16.55 182.9 16.55C182.9 16.55 180.61 16.24 178.97 16.55C176.57 17.02 175.46 18.63 172.69 21.27C170.67 23.19 169.45 24.87 168.76 26.68C168.07 28.48 168.9 28.48 168.62 30.14C168.34 31.8 160.86 44.28 160.03 45.81C159.2 47.33 157.19 51.99 161.14 54.96C162.24 55.79 163.08 56.2 163.77 56.48C163.77 56.48 164.88 56.2 165.29 55.65C165.37 55.55 165.41 55.49 165.42 55.46C165.44 55.42 165.45 55.42 165.42 55.46C165.38 55.56 165.29 55.97 165.71 56.48C166.4 57.31 167.29 57.25 167.79 57.31C168.53 57.41 169.87 56.76 170.98 55.09C172.09 53.43 172.78 52.88 173.61 51.91C174.44 50.94 179.03 48.79 180.82 45.81C181.24 45.11 182.21 45.39 182.9 45.95C183.59 46.5 187.48 46.64 189.14 43.86C189.14 43.86 189.93 51.16 186.64 56.2C181.24 64.52 172.09 66.6 169.32 74.36L226.15 74.36C226.15 71.68 226.01 69.11 225.76 66.63L223.87 65.63L225.5 64.09L225.45 64.07Z" />
			<path id="Layer" class="shp34" d="M196.16 22.1C196.16 22.1 220.37 40.22 220.37 72.94" />
			<path id="Layer" class="shp34" d="M165.42 55.46C165.44 55.42 165.44 55.42 165.42 55.46Z" />
			<path id="Layer" class="shp34" d="M191.17 34.67C191.63 39.84 189.23 43.54 189.14 43.86C189.14 43.86 194.96 40.86 195.51 36.89" />
			<path id="Layer" class="shp34" d="M189.14 43.87C189.14 43.87 193.02 45.77 195.89 44.56" />
			<path id="Layer" class="shp34" d="M165.29 55.65C165.29 55.65 167.88 52.32 168.62 50.8" />
			<path id="Layer" class="shp34" d="M181.24 24.74C181.24 24.74 176.98 24.76 175.56 27.09C173.62 30.28 175.83 30.7 175.83 30.7C175.83 30.7 178.05 31.39 179.58 29.31C181.2 27.1 179.85 25.71 179.85 25.71L181.23 24.74L181.24 24.74Z" />
			<path id="Layer" class="shp34" d="M160.58 48.44C162.11 48.02 163.08 48.16 163.77 48.58C163.77 48.58 163.08 46.5 164.32 44.7C165.57 42.89 167.65 42.76 169.45 39.29" />
			<path id="Layer" class="shp34" d="M201.06 26.68L203.69 25.02" />
			<path id="Layer" class="shp34" d="M206.47 32.64L209.1 31.39" />
			<path id="Layer" class="shp34" d="M211.32 39.56L214.37 38.31" />
			<path id="Layer" class="shp34" d="M215.2 47.47L218.39 46.36" />
			<path id="Layer" class="shp34" d="M218.25 56.76L221.58 55.79" />
			<path id="Layer" class="shp34" d="M220.05 66.19L223.52 65.77" />
			<path id="Layer" class="shp35" d="M278.45 152.57C274.7 145.13 275.08 131.87 275.39 126.73C281.32 126.32 285.59 125.2 285.59 123.87C285.59 122.57 281.48 121.47 275.72 121.04C279.4 119.15 281.92 115.32 281.92 110.89C281.92 104.59 276.81 99.48 270.51 99.48C264.2 99.48 259.09 104.59 259.09 110.89C259.09 115.32 261.61 119.15 265.29 121.04C259.53 121.47 255.42 122.57 255.42 123.87C255.42 125.2 259.69 126.32 265.62 126.73C265.93 131.87 266.31 145.13 262.56 152.57C255.21 154.05 250.05 157.52 250.05 161.56L290.95 161.56C290.95 157.52 285.8 154.05 278.45 152.57L278.45 152.57Z" />
			<path id="Layer" class="shp36" d="M278.45 68.97C274.7 61.52 275.08 48.26 275.39 43.13C281.32 42.72 285.59 41.6 285.59 40.27C285.59 38.97 281.48 37.87 275.72 37.44C279.4 35.55 281.92 31.71 281.92 27.29C281.92 20.99 276.81 15.88 270.51 15.88C264.2 15.88 259.09 20.99 259.09 27.29C259.09 31.71 261.61 35.55 265.29 37.44C259.53 37.87 255.42 38.97 255.42 40.27C255.42 41.6 259.69 42.72 265.62 43.13C265.93 48.26 266.31 61.52 262.56 68.97C255.21 70.45 250.05 73.92 250.05 77.96L290.95 77.96C290.95 73.92 285.8 70.45 278.45 68.97L278.45 68.97Z" />
			<path id="Layer" class="shp15" d="M-100.05 18.34C-100.05 18.34 -101.16 12.38 -101.16 11.55C-101.16 10.72 -101.99 10.58 -102.82 11.69C-103.65 12.8 -107.4 18.21 -107.4 18.21L-100.06 18.34L-100.05 18.34Z" />
			<path id="Layer" class="shp15" d="M-149.79 64.07C-149.41 61.38 -148.9 58.82 -148.27 56.38L-146.26 55.58L-147.6 53.98C-146.84 51.4 -145.95 48.97 -144.98 46.69L-143.08 46.15L-144.02 44.55C-143 42.38 -141.9 40.35 -140.76 38.47L-138.99 38.11L-139.62 36.65C-138.35 34.68 -137.03 32.88 -135.73 31.25L-133.86 31.04L-134.36 29.58C-132.84 27.79 -131.35 26.24 -129.98 24.91L-128.1 24.8L-128.43 23.46C-125.08 20.43 -122.72 18.96 -122.72 18.96L-118.47 20.25C-118.47 20.25 -116.44 19.14 -114.77 18.03C-114.77 18.03 -113.66 14.34 -113.29 12.3C-112.92 10.27 -111.82 11.19 -111.45 11.75C-111.08 12.3 -107.24 16.55 -107.24 16.55C-107.24 16.55 -104.95 16.24 -103.31 16.55C-100.91 17.02 -99.8 18.63 -97.03 21.27C-95.01 23.19 -93.79 24.87 -93.1 26.68C-92.41 28.48 -93.24 28.48 -92.96 30.14C-92.68 31.8 -85.2 44.28 -84.37 45.81C-83.53 47.33 -81.53 51.99 -85.47 54.96C-86.58 55.79 -87.42 56.2 -88.11 56.48C-88.11 56.48 -89.22 56.2 -89.63 55.65C-89.71 55.55 -89.75 55.49 -89.76 55.46C-89.78 55.42 -89.78 55.42 -89.76 55.46C-89.72 55.56 -89.62 55.97 -90.05 56.48C-90.74 57.31 -91.63 57.25 -92.13 57.31C-92.87 57.41 -94.21 56.76 -95.32 55.09C-96.43 53.43 -97.12 52.88 -97.95 51.91C-98.78 50.94 -103.37 48.79 -105.16 45.81C-105.58 45.11 -106.55 45.39 -107.24 45.95C-107.93 46.5 -111.82 46.64 -113.48 43.86C-113.48 43.86 -114.26 51.16 -110.98 56.2C-105.58 64.52 -96.43 66.6 -93.65 74.36L-150.52 74.36C-150.52 71.68 -150.37 69.11 -150.12 66.63L-148.23 65.63L-149.81 64.09L-149.79 64.07Z" />
			<path id="Layer" class="shp34" d="M-120.5 22.1C-120.5 22.1 -144.71 40.22 -144.71 72.94" />
			<path id="Layer" class="shp34" d="M-89.76 55.46C-89.78 55.42 -89.78 55.42 -89.76 55.46Z" />
			<path id="Layer" class="shp34" d="M-115.51 34.67C-115.97 39.84 -113.57 43.54 -113.48 43.86C-113.48 43.86 -119.3 40.86 -119.85 36.89" />
			<path id="Layer" class="shp34" d="M-113.48 43.87C-113.48 43.87 -117.36 45.77 -120.23 44.56" />
			<path id="Layer" class="shp34" d="M-89.63 55.65C-89.63 55.65 -92.22 52.32 -92.96 50.8" />
			<path id="Layer" class="shp34" d="M-105.58 24.74C-105.58 24.74 -101.32 24.76 -99.9 27.09C-97.96 30.28 -100.17 30.7 -100.17 30.7C-100.17 30.7 -102.39 31.39 -103.92 29.31C-105.54 27.1 -104.19 25.71 -104.19 25.71L-105.57 24.74L-105.58 24.74Z" />
			<path id="Layer" class="shp34" d="M-84.92 48.44C-86.45 48.02 -87.42 48.16 -88.11 48.58C-88.11 48.58 -87.42 46.5 -88.66 44.7C-89.91 42.89 -91.99 42.76 -93.79 39.29" />
			<path id="Layer" class="shp34" d="M-125.4 26.68L-128.03 25.02" />
			<path id="Layer" class="shp34" d="M-130.81 32.64L-133.44 31.39" />
			<path id="Layer" class="shp34" d="M-135.66 39.56L-138.71 38.31" />
			<path id="Layer" class="shp34" d="M-139.54 47.47L-142.73 46.36" />
			<path id="Layer" class="shp34" d="M-142.59 56.76L-145.92 55.79" />
			<path id="Layer" class="shp34" d="M-144.39 66.19L-147.86 65.77" />
			<path id="Layer" class="shp32" d="M-100.1 104.83C-100.1 104.83 -101.21 98.87 -101.21 98.04C-101.21 97.2 -102.04 97.07 -102.87 98.18C-103.7 99.29 -107.45 104.69 -107.45 104.69L-100.11 104.82L-100.1 104.83Z" />
			<path id="Layer" class="shp32" d="M-149.84 150.56C-149.46 147.87 -148.95 145.31 -148.32 142.87L-146.31 142.07L-147.65 140.47C-146.89 137.89 -146 135.46 -145.03 133.18L-143.13 132.64L-144.06 131.04C-143.04 128.87 -141.95 126.84 -140.81 124.96L-139.04 124.6L-139.67 123.14C-138.39 121.17 -137.08 119.37 -135.78 117.74L-133.91 117.53L-134.41 116.07C-132.88 114.28 -131.4 112.73 -130.03 111.4L-128.15 111.29L-128.48 109.95C-125.13 106.92 -122.77 105.45 -122.77 105.45L-118.52 106.74C-118.52 106.74 -116.48 105.63 -114.82 104.52C-114.82 104.52 -113.71 100.83 -113.34 98.79C-112.97 96.76 -111.86 97.69 -111.49 98.24C-111.12 98.79 -107.29 103.05 -107.29 103.05C-107.29 103.05 -104.99 102.73 -103.36 103.05C-100.96 103.51 -99.85 105.13 -97.08 107.76C-95.05 109.68 -93.84 111.36 -93.15 113.17C-92.46 114.97 -93.29 114.97 -93.01 116.63C-92.73 118.3 -85.25 130.77 -84.41 132.3C-83.58 133.82 -81.57 138.49 -85.52 141.45C-86.63 142.28 -87.47 142.69 -88.16 142.97C-88.16 142.97 -89.27 142.69 -89.68 142.14C-89.76 142.04 -89.79 141.98 -89.81 141.95C-89.83 141.91 -89.83 141.91 -89.81 141.95C-89.77 142.06 -89.67 142.46 -90.1 142.97C-90.79 143.8 -91.68 143.74 -92.18 143.8C-92.92 143.9 -94.26 143.25 -95.37 141.59C-96.48 139.92 -97.17 139.37 -98 138.4C-98.83 137.43 -103.42 135.28 -105.21 132.3C-105.63 131.6 -106.6 131.88 -107.29 132.44C-107.98 132.99 -111.86 133.13 -113.53 130.36C-113.53 130.36 -114.31 137.65 -111.03 142.69C-105.63 151.01 -96.48 153.09 -93.7 160.85L-150.57 160.85C-150.57 158.17 -150.43 155.6 -150.18 153.12L-148.29 152.12L-149.87 150.56L-149.84 150.56Z" />
			<path id="Layer" class="shp33" d="M-120.55 108.59C-120.55 108.59 -144.76 126.71 -144.76 159.42" />
			<path id="Layer" class="shp34" d="M-89.81 141.73C-89.83 141.7 -89.83 141.7 -89.81 141.73Z" />
			<path id="Layer" class="shp33" d="M-115.56 121.16C-116.02 126.33 -113.62 130.03 -113.53 130.35C-113.53 130.35 -119.35 127.35 -119.9 123.38" />
			<path id="Layer" class="shp33" d="M-113.53 130.35C-113.53 130.35 -117.41 132.25 -120.28 131.04" />
			<path id="Layer" class="shp34" d="M-89.68 141.93C-89.68 141.93 -92.27 138.6 -93.01 137.08" />
			<path id="Layer" class="shp33" d="M-105.63 111.22C-105.63 111.22 -101.37 111.24 -99.95 113.58C-98 116.77 -100.22 117.18 -100.22 117.18C-100.22 117.18 -102.44 117.87 -103.97 115.79C-105.59 113.58 -104.24 112.19 -104.24 112.19L-105.62 111.22L-105.63 111.22Z" />
			<path id="Layer" class="shp33" d="M-84.97 134.72C-86.5 134.3 -87.47 134.44 -88.16 134.86C-88.16 134.86 -87.47 132.78 -88.71 130.98C-89.96 129.17 -92.04 129.04 -93.84 125.57" />
			<path id="Layer" class="shp33" d="M-125.45 113.17L-128.08 111.5" />
			<path id="Layer" class="shp33" d="M-130.86 119.13L-133.49 117.88" />
			<path id="Layer" class="shp33" d="M-135.71 126.04L-138.76 124.79" />
			<path id="Layer" class="shp33" d="M-139.59 133.96L-142.78 132.85" />
			<path id="Layer" class="shp33" d="M-142.64 143.25L-145.97 142.28" />
			<path id="Layer" class="shp33" d="M-144.44 152.67L-147.91 152.26" />
		</g>
	</g>
</svg>