<svg xmlns="http://www.w3.org/2000/svg" viewBox="0 0 64 90" width="64" height="90">
	<style>
		tspan { white-space:pre }
		.shp0 { fill: #000000;stroke: #000000;stroke-width: 0.31 } 
		.shp1 { fill: #000000 } 
		.shp2 { fill: #000000;stroke: #ffffff;stroke-linecap:round;stroke-width: 1.009 } 
		.shp3 { fill: none;stroke: #ffffff;stroke-linejoin:bevel;stroke-width: 0.62 } 
		.shp4 { fill: none;stroke: #ffffff;stroke-linecap:round;stroke-width: 1.009 } 
		.shp5 { fill: #ffffff;stroke: #000000;stroke-width: 0.317 } 
		.shp6 { fill: none;stroke: #ffffff;stroke-width: 0.62 } 
		.shp7 { fill: #ffffff;stroke: #20201e;stroke-width: 1.211 } 
		.shp8 { fill: #ffffff;stroke: #20201e;stroke-linejoin:round;stroke-width: 1.211 } 
		.shp9 { fill: #ffffff;stroke: #20201e;stroke-linejoin:bevel;stroke-width: 1.211 } 
		.shp10 { fill: #000000;stroke: #000000;stroke-linejoin:bevel;stroke-width: 0.853 } 
		.shp11 { fill: #000000;stroke: #ffffff;stroke-linecap:round;stroke-width: 0.926 } 
		.shp12 { fill: none;stroke: #ffffff;stroke-linecap:round;stroke-width: 0.926 } 
		.shp13 { fill: #ffffff } 
		.shp14 { fill: #ffffff;stroke: #20201e;stroke-linejoin:bevel;stroke-width: 1.111 } 
		.shp15 { fill: #ffffff;stroke: #20201e;stroke-width: 1.111 } 
		.shp16 { fill: #000000;stroke: #000000;stroke-linecap:square;stroke-width: 0.853 } 
		.shp17 { fill: none;stroke: #ffffff;stroke-linecap:round;stroke-width: 0.853 } 
		.shp18 { fill: #ffffff;stroke: #20201e;stroke-linejoin:round;stroke-width: 1.111 } 
		.shp19 { fill: #ffffff;stroke: #20201e;stroke-linecap:square;stroke-width: 1.111 } 
		.shp20 { fill: #20201e } 
		.shp21 { fill: #ffffff;stroke: #20201e;stroke-width: 1.32 } 
		.shp22 { fill: #000000;stroke: #000000;stroke-width: 0.533 } 
		.shp23 { fill: #ffffff;stroke: #000000;stroke-linejoin:bevel;stroke-width: 1.014 } 
		.shp24 { fill: #000000;stroke: #000000;stroke-linejoin:bevel;stroke-width: 0.533 } 
		.shp25 { fill: none;stroke: #ffffff;stroke-linecap:round;stroke-linejoin:bevel;stroke-width: 0.533 } 
		.shp26 { fill: none;stroke: #ffffff;stroke-linecap:round;stroke-width: 0.533 } 
		.shp27 { fill: #ffffff;stroke: #000000;stroke-width: 0.533 } 
		.shp28 { fill: #ffffff;stroke: #20201e;stroke-linecap:round;stroke-linejoin:round;stroke-width: 1.32 } 
		.shp29 { fill: #ffffff;stroke: #20201e;stroke-linejoin:bevel;stroke-width: 1.32 } 
		.shp30 { fill: #ffffff;stroke: #000000;stroke-width: 1.014 } 
		.shp31 { fill: #ffffff;stroke: #000000;stroke-width: 0.77 } 
		.shp32 { fill: #20201e;stroke: #20201e;stroke-width: 0.853 } 
		.shp33 { fill: none;stroke: #ffffff;stroke-width: 0.853 } 
		.shp34 { fill: none;stroke: #20201e;stroke-width: 0.853 } 
		.shp35 { fill: #000000;stroke: #000000;stroke-linejoin:round;stroke-width: 0.79 } 
		.shp36 { fill: #ffffff;stroke: #000000;stroke-linejoin:round;stroke-width: 1.111 } 
	</style>
	<g id="Layer">
		<g id="Layer">
			<path id="Layer" class="shp0" d="M-194.74 118.52C-193.39 117.72 -192.82 116.65 -192.82 115.47C-192.82 115.13 -192.77 98.89 -192.77 98.89L-208.87 98.89C-208.87 98.89 -208.94 115.27 -208.94 115.47C-208.94 116.66 -208.1 117.74 -206.73 118.54C-207.7 118.68 -208.66 118.85 -209.61 119.06C-208.09 120.03 -206.66 121.16 -205.33 122.45C-203.46 124.28 -201.9 126.3 -200.68 128.48C-199.46 126.3 -197.91 124.28 -196.03 122.45C-194.7 121.16 -193.27 120.03 -191.75 119.06C-192.72 118.85 -193.72 118.68 -194.72 118.53L-194.74 118.52Z" />
			<path id="Layer" class="shp1" d="M-179.93 155.43C-180.93 153.43 -180.95 150.82 -180.51 149.06C-180.06 147.24 -175.76 143.81 -175.76 143.81C-168.19 136.45 -166.46 125.95 -171.89 120.36C-177.32 114.78 -187.86 116.23 -195.43 123.59C-197.69 125.79 -199.43 128.27 -200.61 130.82C-201.8 128.27 -203.53 125.79 -205.79 123.59C-213.36 116.23 -223.9 114.78 -229.34 120.36C-234.77 125.95 -233.03 136.45 -225.46 143.81C-225.12 144.14 -221.35 147.24 -220.9 149.06C-220.44 150.87 -220.38 153.48 -221.47 155.5L-221.31 155.5C-221.33 155.51 -221.35 155.52 -221.38 155.53C-215.11 158.62 -208.06 160.36 -200.61 160.36C-193.16 160.35 -186.21 158.51 -179.94 155.42" />
			<g id="Layer">
				<path id="Layer" class="shp2" d="M-220.28 155.06C-214.25 152.25 -207.58 150.69 -200.49 150.69C-193.68 150.69 -187.14 152.36 -181.31 154.73" />
				<path id="Layer" class="shp2" d="M-178.41 143.38C-184.69 141.25 -192.38 139.99 -200.7 139.99C-209.08 139.99 -216.84 141.27 -223.15 143.44" />
			</g>
			<path id="Layer" class="shp3" d="M-194.08 100.06L-207.59 112.17L-194.08 112.17L-207.59 100.06L-194.08 100.06Z" />
			<path id="Layer" class="shp4" d="M-182.34 150.77C-188.12 148.74 -194.27 147.27 -200.65 147.27C-207.16 147.27 -213.42 148.78 -219.3 150.88" />
			<path id="Layer" class="shp5" d="M-203.82 143.96L-200.65 145.54L-197.48 143.96L-200.65 142.37L-203.82 143.96Z" />
			<path id="Layer" class="shp5" d="M-216.77 146.02L-213.39 147.07L-210.52 145L-213.9 143.94L-216.77 146.02Z" />
			<path id="Layer" class="shp5" d="M-184.52 146.02L-187.91 147.07L-190.78 145L-187.4 143.94L-184.52 146.02Z" />
			<path id="Layer" class="shp3" d="M-207.59 100.06L-194.07 100.06L-194.07 112.17L-207.59 112.17L-207.59 100.06Z" />
			<path id="Layer" class="shp6" d="M-200.72 121.89C-203.87 121.89 -206.42 120.01 -206.42 117.68C-206.42 115.35 -203.87 113.47 -200.72 113.47C-197.57 113.47 -195.02 115.35 -195.02 117.68C-195.02 120.01 -197.57 121.89 -200.72 121.89Z" />
			<path id="Layer" class="shp7" d="M-192.74 10.64L-208.84 10.64L-208.84 27.47C-208.84 29.95 -205.22 31.96 -200.75 31.96C-196.28 31.96 -192.77 29.95 -192.77 27.47C-192.77 27.25 -192.74 10.64 -192.74 10.64L-192.74 10.64Z" />
			<path id="Layer" class="shp7" d="M-208.84 10.64L-192.74 10.64L-192.74 25.07L-208.84 25.07L-208.84 10.64Z" />
			<path id="Layer" class="shp7" d="M-208.84 10.64L-192.74 25.07" />
			<path id="Layer" class="shp7" d="M-192.74 10.64L-208.84 25.07" />
			<path id="Layer" class="shp8" d="M-180 67.14C-186.26 64.05 -193.07 62.42 -200.53 62.42C-207.99 62.42 -215.12 64.16 -221.38 67.25C-215.12 70.34 -208.11 72.12 -200.65 72.12C-193.19 72.13 -186.26 70.24 -180 67.15L-180 67.14Z" />
			<path id="Layer" class="shp9" d="M-176.87 56.54C-176.51 56.23 -176.15 55.9 -175.8 55.56C-168.23 48.2 -166.5 37.7 -171.93 32.12C-177.37 26.53 -187.9 27.98 -195.47 35.35C-197.74 37.55 -199.47 40.03 -200.66 42.57C-201.84 40.03 -203.58 37.55 -205.84 35.35C-213.41 27.98 -223.95 26.53 -229.38 32.12C-234.81 37.7 -233.08 48.2 -225.51 55.56C-225.16 55.9 -224.8 56.23 -224.44 56.54C-217.9 54.09 -209.64 52.62 -200.65 52.62C-191.67 52.62 -183.41 54.09 -176.88 56.54L-176.87 56.54Z" />
			<path id="Layer" class="shp7" d="M-200.65 42.58C-199.47 40.04 -197.73 37.56 -195.47 35.36C-193.63 33.56 -191.6 32.12 -189.52 31.05C-192.97 30.08 -196.72 29.54 -200.64 29.54C-204.57 29.54 -208.32 30.08 -211.77 31.05C-209.69 32.12 -207.67 33.56 -205.83 35.36C-203.57 37.56 -201.84 40.04 -200.65 42.58L-200.65 42.58Z" />
			<path id="Layer" class="shp9" d="M-176.96 56.54L-176.96 56.53C-183.5 54.08 -191.75 52.62 -200.73 52.62C-209.72 52.62 -217.98 54.09 -224.52 56.54C-224.52 56.54 -221.39 59 -220.93 60.81C-220.48 62.62 -220.28 65.22 -221.37 67.24C-215.11 64.15 -207.98 62.42 -200.52 62.42C-193.21 62.42 -186.16 64.16 -179.99 67.14C-180.99 65.14 -180.99 62.57 -180.55 60.81C-180.1 59.01 -176.96 56.55 -176.96 56.55L-176.96 56.54Z" />
			<path id="Layer" class="shp9" d="M-221.38 67.25C-215.12 64.16 -207.98 62.43 -200.53 62.43C-193.21 62.43 -186.17 64.16 -180 67.14C-180.42 66.29 -180.87 64.11 -180.8 62.9C-187 60.46 -193.67 59.13 -200.63 59.13C-207.66 59.13 -214.4 60.49 -220.67 62.98C-220.59 65.23 -220.91 66.36 -221.38 67.24L-221.38 67.25Z" />
			<path id="Layer" class="shp1" d="M-203.71 55.96L-200.61 57.51L-197.52 55.96L-200.61 54.41L-203.71 55.96Z" />
			<path id="Layer" class="shp1" d="M-216.38 57.98L-213.08 59.01L-210.27 56.98L-213.57 55.95L-216.38 57.98Z" />
			<path id="Layer" class="shp1" d="M-184.85 57.98L-188.15 59.01L-190.96 56.98L-187.66 55.95L-184.85 57.98Z" />
			<path id="Layer" class="shp7" d="M-200.65 33.98C-203.8 33.98 -206.35 32.1 -206.35 29.77C-206.35 27.44 -203.8 25.56 -200.65 25.56C-197.5 25.56 -194.95 27.44 -194.95 29.77C-194.95 32.1 -197.5 33.98 -200.65 33.98Z" />
			<path id="Layer" class="shp10" d="M-90.3 113.6C-89.45 112.14 -89.94 110.27 -91.4 109.42C-92.86 108.56 -94.73 109.06 -95.58 110.52C-96.31 111.77 -96.05 113.32 -95.05 114.27C-99.21 119.32 -106.81 128.54 -108.65 130.77C-109.19 130.53 -109.75 130.3 -110.33 130.09C-110.16 128.38 -108.96 115.3 -108.32 108.34C-106.93 108.37 -105.65 107.45 -105.29 106.05C-104.87 104.42 -105.85 102.75 -107.48 102.33C-109.12 101.9 -110.79 102.88 -111.21 104.52C-111.58 105.92 -110.9 107.35 -109.67 107.99C-112.69 114.83 -118.53 128.1 -118.55 128.15C-118.55 128.17 -118.55 128.18 -118.55 128.19C-119.08 128.13 -119.63 128.08 -120.18 128.03C-120.29 127.29 -122.8 111.91 -124.11 103.9C-122.61 103.55 -121.49 102.2 -121.49 100.59C-121.49 98.72 -123.01 97.19 -124.89 97.19C-126.76 97.19 -128.28 98.72 -128.28 100.59C-128.28 102.2 -127.16 103.55 -125.66 103.9C-126.96 111.87 -129.45 127.15 -129.58 128.02C-130.17 128.06 -130.73 128.12 -131.29 128.18C-131.29 128.16 -131.29 128.15 -131.3 128.13C-131.31 128.07 -137.16 114.8 -140.17 107.97C-138.94 107.32 -138.27 105.9 -138.63 104.49C-139.06 102.86 -140.72 101.88 -142.36 102.3C-143.99 102.72 -144.98 104.39 -144.55 106.03C-144.19 107.43 -142.91 108.35 -141.52 108.32C-140.89 115.26 -139.68 128.32 -139.52 130.06C-140.09 130.26 -140.63 130.49 -141.16 130.72C-143.07 128.4 -150.59 119.29 -154.73 114.28C-153.72 113.32 -153.46 111.77 -154.19 110.52C-155.04 109.06 -156.91 108.57 -158.37 109.42C-159.83 110.27 -160.32 112.14 -159.47 113.6C-158.74 114.85 -157.26 115.39 -155.93 114.98C-153.45 121.46 -145.42 142.31 -145.11 142.6L-145.11 142.6C-145.1 142.63 -144.31 147.8 -144.23 149.52C-144.14 151.22 -144.88 155.4 -144.83 155.42L-144.83 155.43C-144.83 155.43 -144.83 155.42 -144.82 155.42C-138.87 158.21 -132.09 159.78 -124.82 159.78C-117.48 159.78 -104.23 155.29 -104.29 155.26C-105.16 153.43 -104.83 142.59 -104.83 142.59C-104.52 142.3 -96.39 121.63 -93.84 114.98C-92.53 115.39 -91.05 114.85 -90.32 113.6" />
			<g id="Layer">
				<path id="Layer" class="shp11" d="M-143.35 154.18C-137.09 151.6 -131.23 150.49 -124.05 150.49C-117.15 150.49 -111.63 151.63 -105.86 154.03" />
				<path id="Layer" class="shp11" d="M-107.05 142.09C-112.14 140.13 -118.38 138.98 -125.12 138.98C-131.92 138.98 -138.21 140.15 -143.33 142.14" />
			</g>
			<path id="Layer" class="shp12" d="M-106.44 150.61C-112.08 148.75 -117.81 147.4 -124.28 147.4C-130.86 147.4 -137.2 148.79 -143.15 150.72" />
			<path id="Layer" class="shp13" d="M-127.7 143.65L-124.86 145.07L-122.01 143.65L-124.86 142.23L-127.7 143.65Z" />
			<path id="Layer" class="shp13" d="M-110.39 145.5L-113.42 146.45L-116 144.59L-112.97 143.64L-110.39 145.5Z" />
			<path id="Layer" class="shp13" d="M-139.32 145.5L-136.29 146.45L-133.71 144.59L-136.74 143.64L-139.32 145.5Z" />
			<path id="Layer" class="shp14" d="M-104.78 69.36C-110.85 66.52 -117.49 65.03 -124.83 65.03C-132.18 65.03 -139.29 66.66 -145.56 69.5C-139.49 72.33 -132.61 73.93 -125.27 73.93C-117.92 73.94 -111.04 72.2 -104.78 69.37L-104.78 69.36Z" />
			<path id="Layer" class="shp14" d="M-105.23 56.63L-105.23 56.62C-110.69 54.38 -117.03 53.01 -125.27 53.01C-133.52 53.01 -139.89 54.38 -145.51 56.63C-145.51 56.63 -144.9 61.83 -144.87 63.55C-144.84 65.49 -145.38 69.46 -145.38 69.46C-139.12 66.63 -132.17 65.03 -124.83 65.03C-117.63 65.03 -110.32 66.51 -104.78 69.36C-105.69 67.54 -105.23 56.64 -105.23 56.64L-105.23 56.63Z" />
			<path id="Layer" class="shp14" d="M-145.36 69.43C-139.46 66.63 -132.17 65.03 -124.83 65.03C-117.63 65.03 -111.59 66.05 -104.78 69.36C-105.05 68.59 -105.24 66.22 -105.29 65.35C-111.32 63.11 -117.97 61.84 -124.82 61.84C-131.74 61.84 -138.7 63.18 -144.95 65.47C-145.08 66.36 -145.36 69.42 -145.36 69.42L-145.36 69.43Z" />
			<path id="Layer" class="shp15" d="M-91.7 23.45C-93.16 22.6 -95.03 23.1 -95.88 24.56C-96.61 25.81 -96.35 27.36 -95.35 28.31C-99.51 33.36 -107.12 42.58 -108.95 44.81C-109.49 44.57 -110.05 44.34 -110.63 44.13C-110.47 42.42 -109.26 29.34 -108.62 22.38C-107.23 22.41 -105.95 21.49 -105.59 20.09C-105.17 18.46 -106.15 16.79 -107.79 16.36C-109.42 15.94 -111.09 16.92 -111.51 18.56C-111.88 19.96 -111.2 21.39 -109.97 22.03C-112.99 28.87 -118.83 42.14 -118.85 42.19C-118.85 42.21 -118.85 42.22 -118.85 42.23C-119.38 42.17 -119.93 42.11 -120.49 42.07C-120.6 41.33 -123.1 25.95 -124.41 17.94C-122.91 17.59 -121.79 16.24 -121.79 14.63C-121.79 12.76 -123.31 11.23 -125.19 11.23C-127.06 11.23 -128.59 12.76 -128.59 14.63C-128.59 16.24 -127.46 17.59 -125.96 17.94C-127.26 25.91 -129.76 41.19 -129.89 42.06C-130.47 42.1 -131.04 42.16 -131.59 42.22C-131.59 42.2 -131.59 42.19 -131.6 42.17C-131.61 42.11 -137.46 28.84 -140.47 22.01C-139.24 21.36 -138.57 19.94 -138.93 18.53C-139.36 16.9 -141.03 15.92 -142.66 16.34C-144.29 16.76 -145.28 18.43 -144.85 20.07C-144.49 21.47 -143.21 22.39 -141.82 22.36C-141.19 29.3 -139.99 42.35 -139.82 44.1C-140.39 44.3 -140.94 44.53 -141.46 44.76C-143.37 42.44 -150.89 33.33 -155.03 28.31C-154.02 27.36 -153.76 25.81 -154.49 24.56C-155.34 23.1 -157.21 22.6 -158.67 23.46C-160.13 24.31 -160.62 26.18 -159.77 27.64C-159.04 28.89 -157.56 29.43 -156.23 29.02C-153.75 35.5 -145.72 56.35 -145.41 56.63C-139.88 54.38 -133.51 53.01 -125.27 53.01C-117.02 53.01 -110.66 54.38 -105.13 56.63C-104.82 56.34 -96.69 35.67 -94.14 29.02C-92.81 29.43 -91.33 28.89 -90.6 27.64C-89.78 26.18 -90.27 24.31 -91.73 23.46L-91.7 23.45Z" />
			<path id="Layer" class="shp1" d="M-128 57.62L-125.16 59.04L-122.31 57.62L-125.16 56.2L-128 57.62Z" />
			<path id="Layer" class="shp1" d="M-139.62 59.46L-136.59 60.4L-134.01 58.54L-137.04 57.6L-139.62 59.46Z" />
			<path id="Layer" class="shp1" d="M-110.69 59.47L-113.72 60.42L-116.3 58.56L-113.27 57.61L-110.69 59.47Z" />
			<g id="Layer">
				<path id="Layer" class="shp16" d="M-407.37 154.65L-408.34 154.65L-408.34 148.83L-413 143.6L-413.05 143.6L-413.05 112.78L-413 112.78L-406.93 106.98L-406.89 106.98L-406.89 97.04C-406.89 96.18 -407.57 95.47 -408.4 95.47L-416.79 95.47L-416.79 100.87L-421.51 102.43L-425.85 100.87L-425.85 95.47L-436.2 95.47L-436.2 100.87L-440.55 102.43L-445.26 100.87L-445.26 95.47L-453.65 95.47C-454.48 95.47 -455.16 96.18 -455.16 97.04L-455.16 106.98L-455.14 106.98L-449.05 112.78L-449.05 143.6L-453.71 148.83L-453.71 154.65L-454.68 154.65C-455.55 154.65 -456.26 155.35 -456.26 156.22L-456.26 159.92C-456.26 160.78 -455.55 161.49 -454.68 161.49L-407.37 161.49C-406.5 161.49 -405.8 160.78 -405.8 159.92L-405.8 156.22C-405.8 155.36 -406.5 154.65 -407.37 154.65L-407.37 154.65Z" />
				<path id="Layer" class="shp17" d="M-452.18 154.65L-410.22 154.65" />
				<path id="Layer" class="shp17" d="M-451.99 148.83L-410.4 148.83" />
				<path id="Layer" class="shp17" d="M-414.84 143.61L-447.93 143.61" />
				<path id="Layer" class="shp17" d="M-447.74 112.79L-414.65 112.79" />
				<path id="Layer" class="shp17" d="M-453.1 106.98L-408.19 106.98" />
			</g>
			<path id="Layer" class="shp15" d="M-407.72 75.59C-406.85 75.59 -406.15 74.89 -406.15 74.02L-406.15 70.32C-406.15 69.45 -406.85 68.75 -407.72 68.75L-455.04 68.75C-455.91 68.75 -456.61 69.45 -456.61 70.32L-456.61 74.02C-456.61 74.89 -455.91 75.59 -455.04 75.59L-407.72 75.59Z" />
			<path id="Layer" class="shp15" d="M-454.07 62.93L-408.69 62.93L-408.69 68.75L-454.07 68.75L-454.07 62.93Z" />
			<path id="Layer" class="shp14" d="M-408.69 62.93L-413.36 57.7L-449.4 57.7L-454.07 62.93L-408.69 62.93Z" />
			<path id="Layer" class="shp18" d="M-407.27 21.06L-413.36 26.88L-449.4 26.88L-455.51 21.06L-407.27 21.06Z" />
			<path id="Layer" class="shp15" d="M-449.4 26.88L-413.41 26.88L-413.41 57.7L-449.4 57.7L-449.4 26.88Z" />
			<path id="Layer" class="shp19" d="M-408.75 9.57L-417.15 9.57L-417.15 14.97L-421.86 16.53L-426.21 14.97L-426.21 9.57L-436.56 9.57L-436.56 14.97L-440.9 16.53L-445.61 14.97L-445.61 9.57L-454.01 9.57C-454.84 9.57 -455.51 10.27 -455.51 11.14L-455.51 21.08L-407.25 21.08L-407.25 11.14C-407.25 10.27 -407.92 9.57 -408.75 9.57L-408.75 9.57Z" />
			<path id="Layer" class="shp20" d="M-239.13 159.82C-239.75 159.48 -245.38 153.95 -250.6 153.95C-253.31 153.95 -255.44 154.77 -257.31 155.49C-259.21 156.23 -261.01 156.92 -263.61 156.92C-266.64 156.92 -269.15 155.99 -271.37 155.18C-273.16 154.52 -274.71 153.95 -276.29 153.95C-277.87 153.95 -279.42 154.52 -281.21 155.18C-283.43 155.99 -285.94 156.92 -288.97 156.92C-291.57 156.92 -293.37 156.23 -295.27 155.49C-297.15 154.77 -299.27 153.95 -301.98 153.95C-307.2 153.95 -312.83 159.48 -313.45 159.82C-313.45 159.82 -311.18 158.4 -309.07 158.4C-306.95 158.4 -305.12 159.88 -301.98 159.88C-300.37 159.88 -299.06 160.39 -297.4 161.03C-295.29 161.84 -292.68 162.85 -288.97 162.85C-284.89 162.85 -281.58 161.63 -279.16 160.74C-278.06 160.34 -276.82 159.88 -276.29 159.88C-275.76 159.88 -274.52 160.34 -273.42 160.74C-271 161.63 -267.69 162.85 -263.61 162.85C-259.91 162.85 -257.29 161.84 -255.18 161.03C-253.52 160.39 -252.21 159.88 -250.6 159.88C-247.46 159.88 -245.08 158.4 -243.51 158.4C-241.95 158.4 -239.1 159.82 -239.1 159.82L-239.13 159.82Z" />
			<path id="Layer" class="shp21" d="M-256.36 125.91C-256.36 116.56 -264.34 101.73 -270.45 99.72C-270.66 99.65 -270.88 99.59 -271.11 99.55C-270.04 99.15 -269.28 98.13 -269.28 96.93C-269.28 95.38 -270.53 94.13 -272.07 94.13C-273.62 94.13 -274.87 95.38 -274.87 96.93C-274.87 98 -274.26 98.93 -273.38 99.4C-274.63 99.48 -275.98 99.81 -277.38 100.37C-278.27 99.96 -279.15 99.67 -280.02 99.51C-279 99.1 -278.28 98.1 -278.28 96.93C-278.28 95.38 -279.53 94.13 -281.08 94.13C-282.62 94.13 -283.87 95.38 -283.87 96.93C-283.87 98.02 -283.25 98.96 -282.34 99.42C-282.81 99.47 -283.28 99.57 -283.73 99.72C-289.83 101.73 -297.63 116.01 -297.63 125.91C-297.63 133.81 -294.43 140.61 -290.74 145.54C-290.19 147 -289.35 147.04 -289.17 147.22C-289.17 147.22 -289.17 147.22 -289.17 147.22C-289.17 147.24 -289.9 151.98 -289.97 153.05C-290.08 154.7 -290.25 156.64 -290.25 156.64C-286.22 158.42 -281.8 159.45 -277.01 159.45C-272.21 159.45 -268.01 158.32 -263.98 156.54C-264.13 155.23 -264.29 153.91 -264.62 151.93C-264.79 150.9 -265.38 147.22 -265.38 147.22C-265.2 147.04 -264.12 145.67 -264.12 145.67C-260.2 140.72 -256.37 134.12 -256.37 125.91L-256.36 125.91Z" />
			<path id="Layer" class="shp22" d="M-289.07 147.22C-285.8 145.81 -282.04 144.58 -277.17 144.58C-272.31 144.58 -268.55 145.81 -265.28 147.22C-265.1 147.04 -264.68 146.58 -263.79 145.34C-266.54 142.37 -270.55 140.73 -277.09 140.73C-284.08 140.73 -287.89 142.56 -290.64 145.54C-290.08 146.99 -289.24 147.04 -289.06 147.22L-289.07 147.22Z" />
			<path id="Layer" class="shp23" d="M-264.09 156.54C-268.12 154.77 -272.24 153.89 -277.04 153.89C-281.84 153.89 -286.33 154.87 -290.36 156.64C-286.33 158.41 -281.91 159.44 -277.11 159.44C-272.31 159.44 -268.11 158.31 -264.08 156.54L-264.09 156.54Z" />
			<path id="Layer" class="shp22" d="M-264.2 145.67C-261.66 141.43 -258.32 133.43 -262.5 119.81C-266 108.39 -276.31 97.24 -283.81 99.72C-290.47 101.91 -297.71 117.65 -297.71 125.9C-297.71 133.8 -294.51 140.61 -290.82 145.53L-264.19 145.66L-264.2 145.67Z" />
			<path id="Layer" class="shp22" d="M-281.16 99.72C-282.71 99.72 -283.96 98.47 -283.96 96.92C-283.96 95.37 -282.71 94.12 -281.16 94.12C-279.61 94.12 -278.36 95.37 -278.36 96.92C-278.36 98.47 -279.61 99.72 -281.16 99.72Z" />
			<path id="Layer" class="shp24" d="M-265.47 147.21L-265.47 147.21C-268.74 145.8 -272.5 144.62 -277.36 144.62C-282.23 144.62 -285.99 145.8 -289.25 147.21C-289.25 147.21 -289.99 151.97 -290.06 153.04C-290.17 154.69 -290.33 156.64 -290.33 156.64C-286.31 154.87 -281.81 153.89 -277.02 153.89C-272.31 153.89 -268.04 154.83 -264.07 156.54C-264.21 155.22 -264.38 153.9 -264.71 151.93C-264.89 150.89 -265.48 147.2 -265.48 147.2L-265.47 147.21Z" />
			<path id="Layer" class="shp25" d="M-265.59 153.59C-269.21 152.47 -273.08 151.85 -277.07 151.85C-281.13 151.85 -285.28 152.51 -289 153.68" />
			<g id="Layer">
				<path id="Layer" class="shp26" d="M-288.22 146.78C-285.19 145.56 -281.72 144.57 -277.36 144.57C-272.97 144.57 -269.49 145.57 -266.45 146.8" />
				<path id="Layer" class="shp26" d="M-264.48 144.63C-268.32 141.56 -271.4 140.73 -277.09 140.73C-281.85 140.73 -286.77 142 -289.13 144.15" />
			</g>
			<path id="Layer" class="shp27" d="M-270.41 120.71L-271.71 122.02L-278.29 122.02L-278.29 116.08L-276.98 114.77L-279.62 112.13L-282.26 114.77L-280.94 116.09L-280.94 122.02L-287.56 122.02L-288.87 120.71L-291.51 123.35L-288.87 125.99L-287.54 124.67L-280.94 124.67L-280.94 131.91L-282.26 133.23L-279.62 135.87L-276.98 133.23L-278.29 131.92L-278.29 124.67L-271.73 124.67L-270.41 125.99L-267.77 123.35L-270.41 120.71Z" />
			<path id="Layer" class="shp28" d="M-240.17 73.96C-240.79 73.62 -246.42 68.09 -251.64 68.09C-254.35 68.09 -256.48 68.91 -258.35 69.63C-260.25 70.37 -262.05 71.06 -264.65 71.06C-267.68 71.06 -270.19 70.13 -272.41 69.32C-274.2 68.66 -275.75 68.09 -277.33 68.09C-278.91 68.09 -280.46 68.66 -282.25 69.32C-284.47 70.13 -286.98 71.06 -290.01 71.06C-292.61 71.06 -294.41 70.37 -296.31 69.63C-298.19 68.91 -300.31 68.09 -303.03 68.09C-308.24 68.09 -313.87 73.62 -314.49 73.96C-314.49 73.96 -312.1 72.54 -310.11 72.54C-308.12 72.54 -306.16 74.02 -303.03 74.02C-301.42 74.02 -300.1 74.53 -298.44 75.17C-296.34 75.98 -293.72 76.99 -290.01 76.99C-285.93 76.99 -282.62 75.77 -280.2 74.88C-279.1 74.48 -277.86 74.02 -277.33 74.02C-276.8 74.02 -275.56 74.48 -274.46 74.88C-272.04 75.77 -268.73 76.99 -264.65 76.99C-260.95 76.99 -258.33 75.98 -256.22 75.17C-254.56 74.53 -253.25 74.02 -251.64 74.02C-248.5 74.02 -247.2 72.54 -244.55 72.54C-241.88 72.54 -240.14 73.96 -240.14 73.96L-240.17 73.96Z" />
			<path id="Layer" class="shp21" d="M-271.58 13.86C-271.79 13.79 -272.01 13.74 -272.23 13.69C-271.17 13.29 -270.41 12.27 -270.41 11.07C-270.41 9.53 -271.66 8.27 -273.2 8.27C-274.75 8.27 -276 9.53 -276 11.07C-276 12.14 -275.39 13.07 -274.51 13.54C-282.53 14.06 -294.71 24.63 -295.1 42.52C-295.25 49.63 -294.35 55.45 -291.87 59.68L-265.02 59.49C-261.1 54.54 -257.49 48.27 -257.49 40.05C-257.49 29.12 -265.47 15.86 -271.58 13.86L-271.58 13.86Z" />
			<path id="Layer" class="shp21" d="M-263.54 33.96C-266.49 24.33 -274.28 14.9 -281.15 13.66C-280.13 13.24 -279.41 12.24 -279.41 11.07C-279.41 9.53 -280.66 8.27 -282.21 8.27C-283.75 8.27 -285 9.53 -285 11.07C-285 12.16 -284.38 13.1 -283.46 13.56C-283.94 13.62 -284.4 13.71 -284.86 13.86C-290.95 15.87 -298.76 29.35 -298.76 40.05C-298.76 47.95 -295.56 54.75 -291.87 59.68L-265.02 59.49C-262.48 55.25 -259.37 47.57 -263.54 33.96L-263.54 33.96Z" />
			<path id="Layer" class="shp23" d="M-265.11 70.69C-268.48 69.14 -273.26 68.04 -278.06 68.04C-282.85 68.04 -287.35 69.02 -291.38 70.79C-287.35 72.56 -282.93 73.59 -278.13 73.59C-273.33 73.59 -269.13 72.46 -265.1 70.69L-265.11 70.69Z" />
			<path id="Layer" class="shp29" d="M-266.51 61.36L-266.51 61.36C-269.78 59.95 -273.54 58.77 -278.4 58.77C-283.27 58.77 -287.03 59.95 -290.3 61.36C-290.3 61.36 -291.03 66.12 -291.1 67.19C-291.21 68.84 -291.38 70.79 -291.38 70.79C-287.35 69.02 -282.86 68.04 -278.06 68.04C-273.35 68.04 -269.08 68.98 -265.11 70.69C-265.25 69.37 -265.42 68.05 -265.75 66.08C-265.93 65.03 -266.52 61.35 -266.52 61.35L-266.51 61.36Z" />
			<path id="Layer" class="shp29" d="M-291.38 70.79C-287.35 69.02 -282.86 68.04 -278.06 68.04C-273.36 68.04 -269.09 68.98 -265.12 70.69C-265.22 69.59 -265.46 68.9 -265.62 67.49C-269.61 66.09 -273.65 65.38 -278.12 65.38C-282.65 65.38 -287.13 66.2 -291.16 67.63C-291.18 68.87 -291.39 70.79 -291.39 70.79L-291.38 70.79Z" />
			<path id="Layer" class="shp21" d="M-290.3 61.36C-287.03 59.95 -283.27 58.75 -278.4 58.72C-274.26 58.69 -269.78 59.95 -266.51 61.36C-266.33 61.18 -265.57 60.95 -265.02 59.49C-267.77 56.51 -271.86 54.96 -278.4 54.96C-285.39 54.96 -289.12 56.7 -291.87 59.68C-291.33 61.14 -290.49 61.18 -290.31 61.36L-290.3 61.36Z" />
			<path id="Layer" class="shp30" d="M-278.4 54.96L-278.4 58.72" />
			<path id="Layer" class="shp31" d="M-271.45 34.85L-272.76 36.16L-279.34 36.16L-279.34 30.23L-278.03 28.92L-280.67 26.28L-283.31 28.92L-281.99 30.24L-281.99 36.16L-288.6 36.16L-289.91 34.85L-292.55 37.49L-289.91 40.13L-288.59 38.81L-281.99 38.81L-281.99 46.06L-283.31 47.38L-280.67 50.02L-278.03 47.38L-279.34 46.07L-279.34 38.81L-272.77 38.81L-271.45 40.13L-268.81 37.49L-271.45 34.85Z" />
			<path id="Layer" class="shp32" d="M-59.96 102.5C-59.96 102.5 -58.85 96.54 -58.85 95.71C-58.85 94.87 -58.02 94.74 -57.19 95.85C-56.36 96.95 -52.61 102.36 -52.61 102.36L-59.96 102.49L-59.96 102.5Z" />
			<path id="Layer" class="shp32" d="M-10.23 148.23C-10.61 145.54 -11.12 142.98 -11.75 140.54L-13.75 139.74L-12.41 138.14C-13.18 135.56 -14.07 133.13 -15.04 130.85L-16.94 130.31L-15.99 128.69C-17.01 126.52 -18.11 124.5 -19.25 122.62L-21.02 122.26L-20.39 120.8C-21.66 118.83 -22.97 117.03 -24.28 115.4L-26.15 115.19L-25.65 113.73C-27.17 111.94 -28.65 110.39 -30.03 109.06L-31.9 108.95L-31.58 107.61C-34.92 104.58 -37.29 103.11 -37.29 103.11L-41.54 104.4C-41.54 104.4 -43.57 103.29 -45.24 102.18C-45.24 102.18 -46.35 98.48 -46.71 96.45C-47.08 94.42 -48.19 95.34 -48.56 95.9C-48.93 96.45 -52.77 100.7 -52.77 100.7C-52.77 100.7 -55.06 100.39 -56.69 100.7C-59.1 101.17 -60.21 102.78 -62.98 105.42C-65 107.34 -66.22 109.02 -66.91 110.82C-67.6 112.63 -66.77 112.63 -67.05 114.29C-67.32 115.95 -74.81 128.43 -75.64 129.95C-76.47 131.48 -78.48 136.14 -74.53 139.1C-73.43 139.94 -72.59 140.35 -71.9 140.63C-71.9 140.63 -70.79 140.35 -70.37 139.8C-70.3 139.7 -70.26 139.64 -70.24 139.6C-70.23 139.57 -70.22 139.57 -70.24 139.6C-70.29 139.71 -70.38 140.12 -69.96 140.63C-69.27 141.46 -68.37 141.4 -67.88 141.46C-67.14 141.55 -65.8 140.91 -64.69 139.24C-63.58 137.58 -62.89 137.02 -62.06 136.05C-61.23 135.08 -56.64 132.94 -54.85 129.95C-54.43 129.26 -53.46 129.54 -52.77 130.09C-52.07 130.65 -48.19 130.79 -46.53 128.01C-46.53 128.01 -45.74 135.31 -49.03 140.35C-54.43 148.67 -63.58 150.75 -66.35 158.51L-9.51 158.51C-9.51 155.83 -9.66 153.25 -9.91 150.78L-11.8 149.78L-10.2 148.23L-10.23 148.23Z" />
			<path id="Layer" class="shp33" d="M-39.51 106.26C-39.51 106.26 -15.3 124.38 -15.3 157.09" />
			<path id="Layer" class="shp34" d="M-70.25 139.4C-70.23 139.37 -70.24 139.37 -70.25 139.4Z" />
			<path id="Layer" class="shp33" d="M-44.5 118.83C-44.04 124 -46.44 127.7 -46.53 128.02C-46.53 128.02 -40.71 125.02 -40.16 121.05" />
			<path id="Layer" class="shp33" d="M-46.54 128.02C-46.54 128.02 -42.66 129.92 -39.79 128.71" />
			<path id="Layer" class="shp34" d="M-70.38 139.6C-70.38 139.6 -67.79 136.27 -67.05 134.75" />
			<path id="Layer" class="shp33" d="M-54.44 108.89C-54.44 108.89 -58.7 108.91 -60.12 111.25C-62.06 114.43 -59.85 114.85 -59.85 114.85C-59.85 114.85 -57.63 115.54 -56.1 113.46C-54.48 111.25 -55.83 109.86 -55.83 109.86L-54.45 108.89L-54.44 108.89Z" />
			<path id="Layer" class="shp33" d="M-75.09 132.39C-73.57 131.97 -72.6 132.11 -71.9 132.53C-71.9 132.53 -72.6 130.45 -71.35 128.65C-70.1 126.84 -68.02 126.71 -66.22 123.24" />
			<path id="Layer" class="shp33" d="M-34.62 110.83L-31.98 109.17" />
			<path id="Layer" class="shp33" d="M-29.21 116.79L-26.57 115.55" />
			<path id="Layer" class="shp33" d="M-24.36 123.71L-21.31 122.46" />
			<path id="Layer" class="shp33" d="M-20.47 131.63L-17.29 130.52" />
			<path id="Layer" class="shp33" d="M-17.43 140.92L-14.1 139.95" />
			<path id="Layer" class="shp33" d="M-15.62 150.34L-12.16 149.93" />
			<path id="Layer" class="shp15" d="M-63.29 18.34C-63.29 18.34 -62.18 12.38 -62.18 11.55C-62.18 10.72 -61.35 10.58 -60.52 11.69C-59.69 12.8 -55.94 18.21 -55.94 18.21L-63.29 18.34L-63.29 18.34Z" />
			<path id="Layer" class="shp15" d="M-13.55 64.07C-13.93 61.38 -14.44 58.82 -15.07 56.38L-17.07 55.58L-15.73 53.98C-16.5 51.4 -17.39 48.97 -18.36 46.69L-20.26 46.15L-19.32 44.55C-20.34 42.38 -21.44 40.35 -22.58 38.47L-24.35 38.11L-23.72 36.65C-24.99 34.68 -26.3 32.88 -27.61 31.25L-29.48 31.04L-28.98 29.58C-30.5 27.79 -31.99 26.24 -33.36 24.91L-35.23 24.8L-34.91 23.46C-38.25 20.43 -40.62 18.96 -40.62 18.96L-44.87 20.25C-44.87 20.25 -46.9 19.14 -48.57 18.03C-48.57 18.03 -49.68 14.34 -50.04 12.3C-50.42 10.27 -51.52 11.19 -51.89 11.75C-52.26 12.3 -56.1 16.55 -56.1 16.55C-56.1 16.55 -58.39 16.24 -60.03 16.55C-62.43 17.02 -63.54 18.63 -66.31 21.27C-68.33 23.19 -69.55 24.87 -70.24 26.68C-70.93 28.48 -70.1 28.48 -70.38 30.14C-70.66 31.8 -78.14 44.28 -78.97 45.81C-79.8 47.33 -81.81 51.99 -77.86 54.96C-76.76 55.79 -75.92 56.2 -75.23 56.48C-75.23 56.48 -74.12 56.2 -73.71 55.65C-73.63 55.55 -73.59 55.49 -73.58 55.46C-73.56 55.42 -73.55 55.42 -73.58 55.46C-73.62 55.56 -73.71 55.97 -73.29 56.48C-72.6 57.31 -71.71 57.25 -71.21 57.31C-70.47 57.41 -69.13 56.76 -68.02 55.09C-66.91 53.43 -66.22 52.88 -65.39 51.91C-64.56 50.94 -59.97 48.79 -58.18 45.81C-57.76 45.11 -56.79 45.39 -56.1 45.95C-55.41 46.5 -51.52 46.64 -49.86 43.86C-49.86 43.86 -49.07 51.16 -52.36 56.2C-57.76 64.52 -66.91 66.6 -69.68 74.36L-12.85 74.36C-12.85 71.68 -12.99 69.11 -13.24 66.63L-15.13 65.63L-13.5 64.09L-13.55 64.07Z" />
			<path id="Layer" class="shp34" d="M-42.84 22.1C-42.84 22.1 -18.63 40.22 -18.63 72.94" />
			<path id="Layer" class="shp34" d="M-73.58 55.46C-73.56 55.42 -73.56 55.42 -73.58 55.46Z" />
			<path id="Layer" class="shp34" d="M-47.83 34.67C-47.37 39.84 -49.77 43.54 -49.86 43.86C-49.86 43.86 -44.04 40.86 -43.49 36.89" />
			<path id="Layer" class="shp34" d="M-49.86 43.87C-49.86 43.87 -45.98 45.77 -43.11 44.56" />
			<path id="Layer" class="shp34" d="M-73.71 55.65C-73.71 55.65 -71.12 52.32 -70.38 50.8" />
			<path id="Layer" class="shp34" d="M-57.76 24.74C-57.76 24.74 -62.02 24.76 -63.44 27.09C-65.38 30.28 -63.17 30.7 -63.17 30.7C-63.17 30.7 -60.95 31.39 -59.42 29.31C-57.8 27.1 -59.15 25.71 -59.15 25.71L-57.77 24.74L-57.76 24.74Z" />
			<path id="Layer" class="shp34" d="M-78.42 48.44C-76.89 48.02 -75.92 48.16 -75.23 48.58C-75.23 48.58 -75.92 46.5 -74.68 44.7C-73.43 42.89 -71.35 42.76 -69.55 39.29" />
			<path id="Layer" class="shp34" d="M-37.94 26.68L-35.31 25.02" />
			<path id="Layer" class="shp34" d="M-32.53 32.64L-29.9 31.39" />
			<path id="Layer" class="shp34" d="M-27.68 39.56L-24.63 38.31" />
			<path id="Layer" class="shp34" d="M-23.8 47.47L-20.61 46.36" />
			<path id="Layer" class="shp34" d="M-20.75 56.76L-17.42 55.79" />
			<path id="Layer" class="shp34" d="M-18.95 66.19L-15.48 65.77" />
			<path id="Layer" class="shp35" d="M39.45 152.57C35.7 145.13 36.08 131.87 36.39 126.73C42.32 126.32 46.59 125.2 46.59 123.87C46.59 122.57 42.48 121.47 36.72 121.04C40.4 119.15 42.92 115.32 42.92 110.89C42.92 104.59 37.81 99.48 31.51 99.48C25.2 99.48 20.09 104.59 20.09 110.89C20.09 115.32 22.61 119.15 26.29 121.04C20.53 121.47 16.42 122.57 16.42 123.87C16.42 125.2 20.69 126.32 26.62 126.73C26.93 131.87 27.31 145.13 23.56 152.57C16.21 154.05 11.05 157.52 11.05 161.56L51.95 161.56C51.95 157.52 46.8 154.05 39.45 152.57L39.45 152.57Z" />
			<path id="Layer" class="shp36" d="M39.45 68.97C35.7 61.52 36.08 48.26 36.39 43.13C42.32 42.72 46.59 41.6 46.59 40.27C46.59 38.97 42.48 37.87 36.72 37.44C40.4 35.55 42.92 31.71 42.92 27.29C42.92 20.99 37.81 15.88 31.51 15.88C25.2 15.88 20.09 20.99 20.09 27.29C20.09 31.71 22.61 35.55 26.29 37.44C20.53 37.87 16.42 38.97 16.42 40.27C16.42 41.6 20.69 42.72 26.62 43.13C26.93 48.26 27.31 61.52 23.56 68.97C16.21 70.45 11.05 73.92 11.05 77.96L51.95 77.96C51.95 73.92 46.8 70.45 39.45 68.97L39.45 68.97Z" />
			<path id="Layer" class="shp15" d="M-339.05 18.34C-339.05 18.34 -340.16 12.38 -340.16 11.55C-340.16 10.72 -340.99 10.58 -341.82 11.69C-342.65 12.8 -346.4 18.21 -346.4 18.21L-339.06 18.34L-339.05 18.34Z" />
			<path id="Layer" class="shp15" d="M-388.79 64.07C-388.41 61.38 -387.9 58.82 -387.27 56.38L-385.26 55.58L-386.6 53.98C-385.84 51.4 -384.95 48.97 -383.98 46.69L-382.08 46.15L-383.02 44.55C-382 42.38 -380.9 40.35 -379.76 38.47L-377.99 38.11L-378.62 36.65C-377.35 34.68 -376.03 32.88 -374.73 31.25L-372.86 31.04L-373.36 29.58C-371.84 27.79 -370.35 26.24 -368.98 24.91L-367.1 24.8L-367.43 23.46C-364.08 20.43 -361.72 18.96 -361.72 18.96L-357.47 20.25C-357.47 20.25 -355.44 19.14 -353.77 18.03C-353.77 18.03 -352.66 14.34 -352.29 12.3C-351.92 10.27 -350.82 11.19 -350.45 11.75C-350.08 12.3 -346.24 16.55 -346.24 16.55C-346.24 16.55 -343.95 16.24 -342.31 16.55C-339.91 17.02 -338.8 18.63 -336.03 21.27C-334.01 23.19 -332.79 24.87 -332.1 26.68C-331.41 28.48 -332.24 28.48 -331.96 30.14C-331.68 31.8 -324.2 44.28 -323.37 45.81C-322.53 47.33 -320.53 51.99 -324.47 54.96C-325.58 55.79 -326.42 56.2 -327.11 56.48C-327.11 56.48 -328.22 56.2 -328.63 55.65C-328.71 55.55 -328.75 55.49 -328.76 55.46C-328.78 55.42 -328.78 55.42 -328.76 55.46C-328.72 55.56 -328.62 55.97 -329.05 56.48C-329.74 57.31 -330.63 57.25 -331.13 57.31C-331.87 57.41 -333.21 56.76 -334.32 55.09C-335.43 53.43 -336.12 52.88 -336.95 51.91C-337.78 50.94 -342.37 48.79 -344.16 45.81C-344.58 45.11 -345.55 45.39 -346.24 45.95C-346.93 46.5 -350.82 46.64 -352.48 43.86C-352.48 43.86 -353.26 51.16 -349.98 56.2C-344.58 64.52 -335.43 66.6 -332.65 74.36L-389.52 74.36C-389.52 71.68 -389.37 69.11 -389.12 66.63L-387.23 65.63L-388.81 64.09L-388.79 64.07Z" />
			<path id="Layer" class="shp34" d="M-359.5 22.1C-359.5 22.1 -383.71 40.22 -383.71 72.94" />
			<path id="Layer" class="shp34" d="M-328.76 55.46C-328.78 55.42 -328.78 55.42 -328.76 55.46Z" />
			<path id="Layer" class="shp34" d="M-354.51 34.67C-354.97 39.84 -352.57 43.54 -352.48 43.86C-352.48 43.86 -358.3 40.86 -358.85 36.89" />
			<path id="Layer" class="shp34" d="M-352.48 43.87C-352.48 43.87 -356.36 45.77 -359.23 44.56" />
			<path id="Layer" class="shp34" d="M-328.63 55.65C-328.63 55.65 -331.22 52.32 -331.96 50.8" />
			<path id="Layer" class="shp34" d="M-344.58 24.74C-344.58 24.74 -340.32 24.76 -338.9 27.09C-336.96 30.28 -339.17 30.7 -339.17 30.7C-339.17 30.7 -341.39 31.39 -342.92 29.31C-344.54 27.1 -343.19 25.71 -343.19 25.71L-344.57 24.74L-344.58 24.74Z" />
			<path id="Layer" class="shp34" d="M-323.92 48.44C-325.45 48.02 -326.42 48.16 -327.11 48.58C-327.11 48.58 -326.42 46.5 -327.66 44.7C-328.91 42.89 -330.99 42.76 -332.79 39.29" />
			<path id="Layer" class="shp34" d="M-364.4 26.68L-367.03 25.02" />
			<path id="Layer" class="shp34" d="M-369.81 32.64L-372.44 31.39" />
			<path id="Layer" class="shp34" d="M-374.66 39.56L-377.71 38.31" />
			<path id="Layer" class="shp34" d="M-378.54 47.47L-381.73 46.36" />
			<path id="Layer" class="shp34" d="M-381.59 56.76L-384.92 55.79" />
			<path id="Layer" class="shp34" d="M-383.39 66.19L-386.86 65.77" />
			<path id="Layer" class="shp32" d="M-339.1 104.83C-339.1 104.83 -340.21 98.87 -340.21 98.04C-340.21 97.2 -341.04 97.07 -341.87 98.18C-342.7 99.29 -346.45 104.69 -346.45 104.69L-339.11 104.82L-339.1 104.83Z" />
			<path id="Layer" class="shp32" d="M-388.84 150.56C-388.46 147.87 -387.95 145.31 -387.32 142.87L-385.31 142.07L-386.65 140.47C-385.89 137.89 -385 135.46 -384.03 133.18L-382.13 132.64L-383.06 131.04C-382.04 128.87 -380.95 126.84 -379.81 124.96L-378.04 124.6L-378.67 123.14C-377.39 121.17 -376.08 119.37 -374.78 117.74L-372.91 117.53L-373.41 116.07C-371.88 114.28 -370.4 112.73 -369.03 111.4L-367.15 111.29L-367.48 109.95C-364.13 106.92 -361.77 105.45 -361.77 105.45L-357.52 106.74C-357.52 106.74 -355.48 105.63 -353.82 104.52C-353.82 104.52 -352.71 100.83 -352.34 98.79C-351.97 96.76 -350.86 97.69 -350.49 98.24C-350.12 98.79 -346.29 103.05 -346.29 103.05C-346.29 103.05 -343.99 102.73 -342.36 103.05C-339.96 103.51 -338.85 105.13 -336.08 107.76C-334.05 109.68 -332.84 111.36 -332.15 113.17C-331.46 114.97 -332.29 114.97 -332.01 116.63C-331.73 118.3 -324.25 130.77 -323.41 132.3C-322.58 133.82 -320.57 138.49 -324.52 141.45C-325.63 142.28 -326.47 142.69 -327.16 142.97C-327.16 142.97 -328.27 142.69 -328.68 142.14C-328.76 142.04 -328.79 141.98 -328.81 141.95C-328.83 141.91 -328.83 141.91 -328.81 141.95C-328.77 142.06 -328.67 142.46 -329.1 142.97C-329.79 143.8 -330.68 143.74 -331.18 143.8C-331.92 143.9 -333.26 143.25 -334.37 141.59C-335.48 139.92 -336.17 139.37 -337 138.4C-337.83 137.43 -342.42 135.28 -344.21 132.3C-344.63 131.6 -345.6 131.88 -346.29 132.44C-346.98 132.99 -350.86 133.13 -352.53 130.36C-352.53 130.36 -353.31 137.65 -350.03 142.69C-344.63 151.01 -335.48 153.09 -332.7 160.85L-389.57 160.85C-389.57 158.17 -389.43 155.6 -389.18 153.12L-387.29 152.12L-388.87 150.56L-388.84 150.56Z" />
			<path id="Layer" class="shp33" d="M-359.55 108.59C-359.55 108.59 -383.76 126.71 -383.76 159.42" />
			<path id="Layer" class="shp34" d="M-328.81 141.73C-328.83 141.7 -328.83 141.7 -328.81 141.73Z" />
			<path id="Layer" class="shp33" d="M-354.56 121.16C-355.02 126.33 -352.62 130.03 -352.53 130.35C-352.53 130.35 -358.35 127.35 -358.9 123.38" />
			<path id="Layer" class="shp33" d="M-352.53 130.35C-352.53 130.35 -356.41 132.25 -359.28 131.04" />
			<path id="Layer" class="shp34" d="M-328.68 141.93C-328.68 141.93 -331.27 138.6 -332.01 137.08" />
			<path id="Layer" class="shp33" d="M-344.63 111.22C-344.63 111.22 -340.37 111.24 -338.95 113.58C-337 116.77 -339.22 117.18 -339.22 117.18C-339.22 117.18 -341.44 117.87 -342.97 115.79C-344.59 113.58 -343.24 112.19 -343.24 112.19L-344.62 111.22L-344.63 111.22Z" />
			<path id="Layer" class="shp33" d="M-323.97 134.72C-325.5 134.3 -326.47 134.44 -327.16 134.86C-327.16 134.86 -326.47 132.78 -327.71 130.98C-328.96 129.17 -331.04 129.04 -332.84 125.57" />
			<path id="Layer" class="shp33" d="M-364.45 113.17L-367.08 111.5" />
			<path id="Layer" class="shp33" d="M-369.86 119.13L-372.49 117.88" />
			<path id="Layer" class="shp33" d="M-374.71 126.04L-377.76 124.79" />
			<path id="Layer" class="shp33" d="M-378.59 133.96L-381.78 132.85" />
			<path id="Layer" class="shp33" d="M-381.64 143.25L-384.97 142.28" />
			<path id="Layer" class="shp33" d="M-383.44 152.67L-386.91 152.26" />
		</g>
	</g>
</svg>