<svg xmlns="http://www.w3.org/2000/svg" viewBox="0 0 82 90" width="82" height="90">
	<style>
		tspan { white-space:pre }
		.shp0 { fill: #000000;stroke: #000000;stroke-width: 0.31 } 
		.shp1 { fill: #000000 } 
		.shp2 { fill: #000000;stroke: #ffffff;stroke-linecap:round;stroke-width: 1.009 } 
		.shp3 { fill: none;stroke: #ffffff;stroke-linejoin:bevel;stroke-width: 0.62 } 
		.shp4 { fill: none;stroke: #ffffff;stroke-linecap:round;stroke-width: 1.009 } 
		.shp5 { fill: #ffffff;stroke: #000000;stroke-width: 0.317 } 
		.shp6 { fill: none;stroke: #ffffff;stroke-width: 0.62 } 
		.shp7 { fill: #ffffff;stroke: #20201e;stroke-width: 1.211 } 
		.shp8 { fill: #ffffff;stroke: #20201e;stroke-linejoin:round;stroke-width: 1.211 } 
		.shp9 { fill: #ffffff;stroke: #20201e;stroke-linejoin:bevel;stroke-width: 1.211 } 
		.shp10 { fill: #000000;stroke: #000000;stroke-linejoin:bevel;stroke-width: 0.853 } 
		.shp11 { fill: #000000;stroke: #ffffff;stroke-linecap:round;stroke-width: 0.926 } 
		.shp12 { fill: none;stroke: #ffffff;stroke-linecap:round;stroke-width: 0.926 } 
		.shp13 { fill: #ffffff } 
		.shp14 { fill: #ffffff;stroke: #20201e;stroke-linejoin:bevel;stroke-width: 1.111 } 
		.shp15 { fill: #ffffff;stroke: #20201e;stroke-width: 1.111 } 
		.shp16 { fill: #000000;stroke: #000000;stroke-linecap:square;stroke-width: 0.853 } 
		.shp17 { fill: none;stroke: #ffffff;stroke-linecap:round;stroke-width: 0.853 } 
		.shp18 { fill: #ffffff;stroke: #20201e;stroke-linejoin:round;stroke-width: 1.111 } 
		.shp19 { fill: #ffffff;stroke: #20201e;stroke-linecap:square;stroke-width: 1.111 } 
		.shp20 { fill: #20201e } 
		.shp21 { fill: #ffffff;stroke: #20201e;stroke-width: 1.32 } 
		.shp22 { fill: #000000;stroke: #000000;stroke-width: 0.533 } 
		.shp23 { fill: #ffffff;stroke: #000000;stroke-linejoin:bevel;stroke-width: 1.014 } 
		.shp24 { fill: #000000;stroke: #000000;stroke-linejoin:bevel;stroke-width: 0.533 } 
		.shp25 { fill: none;stroke: #ffffff;stroke-linecap:round;stroke-linejoin:bevel;stroke-width: 0.533 } 
		.shp26 { fill: none;stroke: #ffffff;stroke-linecap:round;stroke-width: 0.533 } 
		.shp27 { fill: #ffffff;stroke: #000000;stroke-width: 0.533 } 
		.shp28 { fill: #ffffff;stroke: #20201e;stroke-linecap:round;stroke-linejoin:round;stroke-width: 1.32 } 
		.shp29 { fill: #ffffff;stroke: #20201e;stroke-linejoin:bevel;stroke-width: 1.32 } 
		.shp30 { fill: #ffffff;stroke: #000000;stroke-width: 1.014 } 
		.shp31 { fill: #ffffff;stroke: #000000;stroke-width: 0.77 } 
		.shp32 { fill: #20201e;stroke: #20201e;stroke-width: 0.853 } 
		.shp33 { fill: none;stroke: #ffffff;stroke-width: 0.853 } 
		.shp34 { fill: none;stroke: #20201e;stroke-width: 0.853 } 
		.shp35 { fill: #000000;stroke: #000000;stroke-linejoin:round;stroke-width: 0.79 } 
		.shp36 { fill: #ffffff;stroke: #000000;stroke-linejoin:round;stroke-width: 1.111 } 
	</style>
	<g id="Layer">
		<g id="Layer">
			<path id="Layer" class="shp0" d="M-28.74 118.52C-27.39 117.72 -26.82 116.65 -26.82 115.47C-26.82 115.13 -26.77 98.89 -26.77 98.89L-42.87 98.89C-42.87 98.89 -42.94 115.27 -42.94 115.47C-42.94 116.66 -42.1 117.74 -40.73 118.54C-41.7 118.68 -42.66 118.85 -43.61 119.06C-42.09 120.03 -40.66 121.16 -39.33 122.45C-37.46 124.28 -35.9 126.3 -34.68 128.48C-33.46 126.3 -31.91 124.28 -30.03 122.45C-28.7 121.16 -27.27 120.03 -25.75 119.06C-26.72 118.85 -27.72 118.68 -28.72 118.53L-28.74 118.52Z" />
			<path id="Layer" class="shp1" d="M-13.93 155.43C-14.93 153.43 -14.95 150.82 -14.51 149.06C-14.06 147.24 -9.76 143.81 -9.76 143.81C-2.19 136.45 -0.46 125.95 -5.89 120.36C-11.32 114.78 -21.86 116.23 -29.43 123.59C-31.69 125.79 -33.43 128.27 -34.61 130.82C-35.8 128.27 -37.53 125.79 -39.79 123.59C-47.36 116.23 -57.9 114.78 -63.34 120.36C-68.77 125.95 -67.03 136.45 -59.46 143.81C-59.12 144.14 -55.35 147.24 -54.9 149.06C-54.44 150.87 -54.38 153.48 -55.47 155.5L-55.31 155.5C-55.33 155.51 -55.35 155.52 -55.38 155.53C-49.11 158.62 -42.06 160.36 -34.61 160.36C-27.16 160.35 -20.21 158.51 -13.94 155.42" />
			<g id="Layer">
				<path id="Layer" class="shp2" d="M-54.28 155.06C-48.25 152.25 -41.58 150.69 -34.49 150.69C-27.68 150.69 -21.14 152.36 -15.31 154.73" />
				<path id="Layer" class="shp2" d="M-12.41 143.38C-18.69 141.25 -26.38 139.99 -34.7 139.99C-43.08 139.99 -50.84 141.27 -57.15 143.44" />
			</g>
			<path id="Layer" class="shp3" d="M-28.08 100.06L-41.59 112.17L-28.08 112.17L-41.59 100.06L-28.08 100.06Z" />
			<path id="Layer" class="shp4" d="M-16.34 150.77C-22.12 148.74 -28.27 147.27 -34.65 147.27C-41.16 147.27 -47.42 148.78 -53.3 150.88" />
			<path id="Layer" class="shp5" d="M-37.82 143.96L-34.65 145.54L-31.48 143.96L-34.65 142.37L-37.82 143.96Z" />
			<path id="Layer" class="shp5" d="M-50.77 146.02L-47.39 147.07L-44.52 145L-47.9 143.94L-50.77 146.02Z" />
			<path id="Layer" class="shp5" d="M-18.52 146.02L-21.91 147.07L-24.78 145L-21.4 143.94L-18.52 146.02Z" />
			<path id="Layer" class="shp3" d="M-41.59 100.06L-28.07 100.06L-28.07 112.17L-41.59 112.17L-41.59 100.06Z" />
			<path id="Layer" class="shp6" d="M-34.72 121.89C-37.87 121.89 -40.42 120.01 -40.42 117.68C-40.42 115.35 -37.87 113.47 -34.72 113.47C-31.57 113.47 -29.02 115.35 -29.02 117.68C-29.02 120.01 -31.57 121.89 -34.72 121.89Z" />
			<path id="Layer" class="shp7" d="M-26.74 10.64L-42.84 10.64L-42.84 27.47C-42.84 29.95 -39.22 31.96 -34.75 31.96C-30.28 31.96 -26.77 29.95 -26.77 27.47C-26.77 27.25 -26.74 10.64 -26.74 10.64L-26.74 10.64Z" />
			<path id="Layer" class="shp7" d="M-42.84 10.64L-26.74 10.64L-26.74 25.07L-42.84 25.07L-42.84 10.64Z" />
			<path id="Layer" class="shp7" d="M-42.84 10.64L-26.74 25.07" />
			<path id="Layer" class="shp7" d="M-26.74 10.64L-42.84 25.07" />
			<path id="Layer" class="shp8" d="M-14 67.14C-20.26 64.05 -27.07 62.42 -34.53 62.42C-41.99 62.42 -49.12 64.16 -55.38 67.25C-49.12 70.34 -42.11 72.12 -34.65 72.12C-27.19 72.13 -20.26 70.24 -14 67.15L-14 67.14Z" />
			<path id="Layer" class="shp9" d="M-10.87 56.54C-10.51 56.23 -10.15 55.9 -9.8 55.56C-2.23 48.2 -0.5 37.7 -5.93 32.12C-11.37 26.53 -21.9 27.98 -29.47 35.35C-31.74 37.55 -33.47 40.03 -34.66 42.57C-35.84 40.03 -37.58 37.55 -39.84 35.35C-47.41 27.98 -57.95 26.53 -63.38 32.12C-68.81 37.7 -67.08 48.2 -59.51 55.56C-59.16 55.9 -58.8 56.23 -58.44 56.54C-51.9 54.09 -43.64 52.62 -34.65 52.62C-25.67 52.62 -17.41 54.09 -10.88 56.54L-10.87 56.54Z" />
			<path id="Layer" class="shp7" d="M-34.65 42.58C-33.47 40.04 -31.73 37.56 -29.47 35.36C-27.63 33.56 -25.6 32.12 -23.52 31.05C-26.97 30.08 -30.72 29.54 -34.64 29.54C-38.57 29.54 -42.32 30.08 -45.77 31.05C-43.69 32.12 -41.67 33.56 -39.83 35.36C-37.57 37.56 -35.84 40.04 -34.65 42.58L-34.65 42.58Z" />
			<path id="Layer" class="shp9" d="M-10.96 56.54L-10.96 56.53C-17.5 54.08 -25.75 52.62 -34.73 52.62C-43.72 52.62 -51.98 54.09 -58.52 56.54C-58.52 56.54 -55.39 59 -54.93 60.81C-54.48 62.62 -54.28 65.22 -55.37 67.24C-49.11 64.15 -41.98 62.42 -34.52 62.42C-27.21 62.42 -20.16 64.16 -13.99 67.14C-14.99 65.14 -14.99 62.57 -14.55 60.81C-14.1 59.01 -10.96 56.55 -10.96 56.55L-10.96 56.54Z" />
			<path id="Layer" class="shp9" d="M-55.38 67.25C-49.12 64.16 -41.98 62.43 -34.53 62.43C-27.21 62.43 -20.17 64.16 -14 67.14C-14.42 66.29 -14.87 64.11 -14.8 62.9C-21 60.46 -27.67 59.13 -34.63 59.13C-41.66 59.13 -48.4 60.49 -54.67 62.98C-54.59 65.23 -54.91 66.36 -55.38 67.24L-55.38 67.25Z" />
			<path id="Layer" class="shp1" d="M-37.71 55.96L-34.61 57.51L-31.52 55.96L-34.61 54.41L-37.71 55.96Z" />
			<path id="Layer" class="shp1" d="M-50.38 57.98L-47.08 59.01L-44.27 56.98L-47.57 55.95L-50.38 57.98Z" />
			<path id="Layer" class="shp1" d="M-18.85 57.98L-22.15 59.01L-24.96 56.98L-21.66 55.95L-18.85 57.98Z" />
			<path id="Layer" class="shp7" d="M-34.65 33.98C-37.8 33.98 -40.35 32.1 -40.35 29.77C-40.35 27.44 -37.8 25.56 -34.65 25.56C-31.5 25.56 -28.95 27.44 -28.95 29.77C-28.95 32.1 -31.5 33.98 -34.65 33.98Z" />
			<path id="Layer" class="shp10" d="M75.7 113.6C76.55 112.14 76.06 110.27 74.6 109.42C73.14 108.56 71.27 109.06 70.42 110.52C69.69 111.77 69.95 113.32 70.95 114.27C66.79 119.32 59.19 128.54 57.35 130.77C56.81 130.53 56.25 130.3 55.67 130.09C55.84 128.38 57.04 115.3 57.68 108.34C59.07 108.37 60.35 107.45 60.71 106.05C61.13 104.42 60.15 102.75 58.52 102.33C56.88 101.9 55.21 102.88 54.79 104.52C54.42 105.92 55.1 107.35 56.33 107.99C53.31 114.83 47.47 128.1 47.45 128.15C47.45 128.17 47.45 128.18 47.45 128.19C46.92 128.13 46.37 128.08 45.82 128.03C45.71 127.29 43.2 111.91 41.89 103.9C43.39 103.55 44.51 102.2 44.51 100.59C44.51 98.72 42.99 97.19 41.11 97.19C39.24 97.19 37.72 98.72 37.72 100.59C37.72 102.2 38.84 103.55 40.34 103.9C39.04 111.87 36.55 127.15 36.42 128.02C35.83 128.06 35.27 128.12 34.71 128.18C34.71 128.16 34.71 128.15 34.7 128.13C34.69 128.07 28.84 114.8 25.83 107.97C27.06 107.32 27.73 105.9 27.37 104.49C26.94 102.86 25.28 101.88 23.64 102.3C22.01 102.72 21.02 104.39 21.45 106.03C21.81 107.43 23.09 108.35 24.48 108.32C25.11 115.26 26.32 128.32 26.48 130.06C25.91 130.26 25.37 130.49 24.84 130.72C22.93 128.4 15.41 119.29 11.27 114.28C12.28 113.32 12.54 111.77 11.81 110.52C10.96 109.06 9.09 108.57 7.63 109.42C6.17 110.27 5.68 112.14 6.53 113.6C7.26 114.85 8.74 115.39 10.07 114.98C12.55 121.46 20.58 142.31 20.89 142.6L20.89 142.6C20.9 142.63 21.69 147.8 21.77 149.52C21.86 151.22 21.12 155.4 21.17 155.42L21.17 155.43C21.17 155.43 21.17 155.42 21.18 155.42C27.13 158.21 33.91 159.78 41.18 159.78C48.52 159.78 61.77 155.29 61.71 155.26C60.84 153.43 61.17 142.59 61.17 142.59C61.48 142.3 69.61 121.63 72.16 114.98C73.47 115.39 74.95 114.85 75.68 113.6" />
			<g id="Layer">
				<path id="Layer" class="shp11" d="M22.65 154.18C28.91 151.6 34.77 150.49 41.95 150.49C48.85 150.49 54.37 151.63 60.14 154.03" />
				<path id="Layer" class="shp11" d="M58.95 142.09C53.86 140.13 47.62 138.98 40.88 138.98C34.08 138.98 27.79 140.15 22.67 142.14" />
			</g>
			<path id="Layer" class="shp12" d="M59.56 150.61C53.92 148.75 48.19 147.4 41.72 147.4C35.14 147.4 28.8 148.79 22.85 150.72" />
			<path id="Layer" class="shp13" d="M38.3 143.65L41.14 145.07L43.99 143.65L41.14 142.23L38.3 143.65Z" />
			<path id="Layer" class="shp13" d="M55.61 145.5L52.58 146.45L50 144.59L53.03 143.64L55.61 145.5Z" />
			<path id="Layer" class="shp13" d="M26.68 145.5L29.71 146.45L32.29 144.59L29.26 143.64L26.68 145.5Z" />
			<path id="Layer" class="shp14" d="M61.22 69.36C55.15 66.52 48.51 65.03 41.17 65.03C33.82 65.03 26.71 66.66 20.44 69.5C26.51 72.33 33.39 73.93 40.73 73.93C48.08 73.94 54.96 72.2 61.22 69.37L61.22 69.36Z" />
			<path id="Layer" class="shp14" d="M60.77 56.63L60.77 56.62C55.31 54.38 48.97 53.01 40.73 53.01C32.48 53.01 26.11 54.38 20.49 56.63C20.49 56.63 21.1 61.83 21.13 63.55C21.16 65.49 20.62 69.46 20.62 69.46C26.88 66.63 33.83 65.03 41.17 65.03C48.37 65.03 55.68 66.51 61.22 69.36C60.31 67.54 60.77 56.64 60.77 56.64L60.77 56.63Z" />
			<path id="Layer" class="shp14" d="M20.64 69.43C26.54 66.63 33.83 65.03 41.17 65.03C48.37 65.03 54.41 66.05 61.22 69.36C60.95 68.59 60.76 66.22 60.71 65.35C54.68 63.11 48.03 61.84 41.18 61.84C34.26 61.84 27.3 63.18 21.05 65.47C20.92 66.36 20.64 69.42 20.64 69.42L20.64 69.43Z" />
			<path id="Layer" class="shp15" d="M74.3 23.45C72.84 22.6 70.97 23.1 70.12 24.56C69.39 25.81 69.65 27.36 70.65 28.31C66.49 33.36 58.88 42.58 57.05 44.81C56.51 44.57 55.95 44.34 55.37 44.13C55.53 42.42 56.74 29.34 57.38 22.38C58.77 22.41 60.05 21.49 60.41 20.09C60.83 18.46 59.85 16.79 58.21 16.36C56.58 15.94 54.91 16.92 54.49 18.56C54.12 19.96 54.8 21.39 56.03 22.03C53.01 28.87 47.17 42.14 47.15 42.19C47.15 42.21 47.15 42.22 47.15 42.23C46.62 42.17 46.07 42.11 45.51 42.07C45.4 41.33 42.9 25.95 41.59 17.94C43.09 17.59 44.21 16.24 44.21 14.63C44.21 12.76 42.69 11.23 40.81 11.23C38.94 11.23 37.41 12.76 37.41 14.63C37.41 16.24 38.54 17.59 40.04 17.94C38.74 25.91 36.24 41.19 36.11 42.06C35.53 42.1 34.96 42.16 34.41 42.22C34.41 42.2 34.41 42.19 34.4 42.17C34.39 42.11 28.54 28.84 25.53 22.01C26.76 21.36 27.43 19.94 27.07 18.53C26.64 16.9 24.97 15.92 23.34 16.34C21.71 16.76 20.72 18.43 21.15 20.07C21.51 21.47 22.79 22.39 24.18 22.36C24.81 29.3 26.01 42.35 26.18 44.1C25.61 44.3 25.06 44.53 24.54 44.76C22.63 42.44 15.11 33.33 10.97 28.31C11.98 27.36 12.24 25.81 11.51 24.56C10.66 23.1 8.79 22.6 7.33 23.46C5.87 24.31 5.38 26.18 6.23 27.64C6.96 28.89 8.44 29.43 9.77 29.02C12.25 35.5 20.28 56.35 20.59 56.63C26.12 54.38 32.49 53.01 40.73 53.01C48.98 53.01 55.34 54.38 60.87 56.63C61.18 56.34 69.31 35.67 71.86 29.02C73.19 29.43 74.67 28.89 75.4 27.64C76.22 26.18 75.73 24.31 74.27 23.46L74.3 23.45Z" />
			<path id="Layer" class="shp1" d="M38 57.62L40.84 59.04L43.69 57.62L40.84 56.2L38 57.62Z" />
			<path id="Layer" class="shp1" d="M26.38 59.46L29.41 60.4L31.99 58.54L28.96 57.6L26.38 59.46Z" />
			<path id="Layer" class="shp1" d="M55.31 59.47L52.28 60.42L49.7 58.56L52.73 57.61L55.31 59.47Z" />
			<g id="Layer">
				<path id="Layer" class="shp16" d="M-241.37 154.65L-242.34 154.65L-242.34 148.83L-247 143.6L-247.05 143.6L-247.05 112.78L-247 112.78L-240.93 106.98L-240.89 106.98L-240.89 97.04C-240.89 96.18 -241.57 95.47 -242.4 95.47L-250.79 95.47L-250.79 100.87L-255.51 102.43L-259.85 100.87L-259.85 95.47L-270.2 95.47L-270.2 100.87L-274.55 102.43L-279.26 100.87L-279.26 95.47L-287.65 95.47C-288.48 95.47 -289.16 96.18 -289.16 97.04L-289.16 106.98L-289.14 106.98L-283.05 112.78L-283.05 143.6L-287.71 148.83L-287.71 154.65L-288.68 154.65C-289.55 154.65 -290.26 155.35 -290.26 156.22L-290.26 159.92C-290.26 160.78 -289.55 161.49 -288.68 161.49L-241.37 161.49C-240.5 161.49 -239.8 160.78 -239.8 159.92L-239.8 156.22C-239.8 155.36 -240.5 154.65 -241.37 154.65L-241.37 154.65Z" />
				<path id="Layer" class="shp17" d="M-286.18 154.65L-244.22 154.65" />
				<path id="Layer" class="shp17" d="M-285.99 148.83L-244.4 148.83" />
				<path id="Layer" class="shp17" d="M-248.84 143.61L-281.93 143.61" />
				<path id="Layer" class="shp17" d="M-281.74 112.79L-248.65 112.79" />
				<path id="Layer" class="shp17" d="M-287.1 106.98L-242.19 106.98" />
			</g>
			<path id="Layer" class="shp15" d="M-241.72 75.59C-240.85 75.59 -240.15 74.89 -240.15 74.02L-240.15 70.32C-240.15 69.45 -240.85 68.75 -241.72 68.75L-289.04 68.75C-289.91 68.75 -290.61 69.45 -290.61 70.32L-290.61 74.02C-290.61 74.89 -289.91 75.59 -289.04 75.59L-241.72 75.59Z" />
			<path id="Layer" class="shp15" d="M-288.07 62.93L-242.69 62.93L-242.69 68.75L-288.07 68.75L-288.07 62.93Z" />
			<path id="Layer" class="shp14" d="M-242.69 62.93L-247.36 57.7L-283.4 57.7L-288.07 62.93L-242.69 62.93Z" />
			<path id="Layer" class="shp18" d="M-241.27 21.06L-247.36 26.88L-283.4 26.88L-289.51 21.06L-241.27 21.06Z" />
			<path id="Layer" class="shp15" d="M-283.4 26.88L-247.41 26.88L-247.41 57.7L-283.4 57.7L-283.4 26.88Z" />
			<path id="Layer" class="shp19" d="M-242.75 9.57L-251.15 9.57L-251.15 14.97L-255.86 16.53L-260.21 14.97L-260.21 9.57L-270.56 9.57L-270.56 14.97L-274.9 16.53L-279.61 14.97L-279.61 9.57L-288.01 9.57C-288.84 9.57 -289.51 10.27 -289.51 11.14L-289.51 21.08L-241.25 21.08L-241.25 11.14C-241.25 10.27 -241.92 9.57 -242.75 9.57L-242.75 9.57Z" />
			<path id="Layer" class="shp20" d="M-73.13 159.82C-73.75 159.48 -79.38 153.95 -84.6 153.95C-87.31 153.95 -89.44 154.77 -91.31 155.49C-93.21 156.23 -95.01 156.92 -97.61 156.92C-100.64 156.92 -103.15 155.99 -105.37 155.18C-107.16 154.52 -108.71 153.95 -110.29 153.95C-111.87 153.95 -113.42 154.52 -115.21 155.18C-117.43 155.99 -119.94 156.92 -122.97 156.92C-125.57 156.92 -127.37 156.23 -129.27 155.49C-131.15 154.77 -133.27 153.95 -135.98 153.95C-141.2 153.95 -146.83 159.48 -147.45 159.82C-147.45 159.82 -145.18 158.4 -143.07 158.4C-140.95 158.4 -139.12 159.88 -135.98 159.88C-134.37 159.88 -133.06 160.39 -131.4 161.03C-129.29 161.84 -126.68 162.85 -122.97 162.85C-118.89 162.85 -115.58 161.63 -113.16 160.74C-112.06 160.34 -110.82 159.88 -110.29 159.88C-109.76 159.88 -108.52 160.34 -107.42 160.74C-105 161.63 -101.69 162.85 -97.61 162.85C-93.91 162.85 -91.29 161.84 -89.18 161.03C-87.52 160.39 -86.21 159.88 -84.6 159.88C-81.46 159.88 -79.08 158.4 -77.51 158.4C-75.95 158.4 -73.1 159.82 -73.1 159.82L-73.13 159.82Z" />
			<path id="Layer" class="shp21" d="M-90.36 125.91C-90.36 116.56 -98.34 101.73 -104.45 99.72C-104.66 99.65 -104.88 99.59 -105.11 99.55C-104.04 99.15 -103.28 98.13 -103.28 96.93C-103.28 95.38 -104.53 94.13 -106.07 94.13C-107.62 94.13 -108.87 95.38 -108.87 96.93C-108.87 98 -108.26 98.93 -107.38 99.4C-108.63 99.48 -109.98 99.81 -111.38 100.37C-112.27 99.96 -113.15 99.67 -114.02 99.51C-113 99.1 -112.28 98.1 -112.28 96.93C-112.28 95.38 -113.53 94.13 -115.08 94.13C-116.62 94.13 -117.87 95.38 -117.87 96.93C-117.87 98.02 -117.25 98.96 -116.34 99.42C-116.81 99.47 -117.28 99.57 -117.73 99.72C-123.83 101.73 -131.63 116.01 -131.63 125.91C-131.63 133.81 -128.43 140.61 -124.74 145.54C-124.19 147 -123.35 147.04 -123.17 147.22C-123.17 147.22 -123.17 147.22 -123.17 147.22C-123.17 147.24 -123.9 151.98 -123.97 153.05C-124.08 154.7 -124.25 156.64 -124.25 156.64C-120.22 158.42 -115.8 159.45 -111.01 159.45C-106.21 159.45 -102.01 158.32 -97.98 156.54C-98.13 155.23 -98.29 153.91 -98.62 151.93C-98.79 150.9 -99.38 147.22 -99.38 147.22C-99.2 147.04 -98.12 145.67 -98.12 145.67C-94.2 140.72 -90.37 134.12 -90.37 125.91L-90.36 125.91Z" />
			<path id="Layer" class="shp22" d="M-123.07 147.22C-119.8 145.81 -116.04 144.58 -111.17 144.58C-106.31 144.58 -102.55 145.81 -99.28 147.22C-99.1 147.04 -98.68 146.58 -97.79 145.34C-100.54 142.37 -104.55 140.73 -111.09 140.73C-118.08 140.73 -121.89 142.56 -124.64 145.54C-124.08 146.99 -123.24 147.04 -123.06 147.22L-123.07 147.22Z" />
			<path id="Layer" class="shp23" d="M-98.09 156.54C-102.12 154.77 -106.24 153.89 -111.04 153.89C-115.84 153.89 -120.33 154.87 -124.36 156.64C-120.33 158.41 -115.91 159.44 -111.11 159.44C-106.31 159.44 -102.11 158.31 -98.08 156.54L-98.09 156.54Z" />
			<path id="Layer" class="shp22" d="M-98.2 145.67C-95.66 141.43 -92.32 133.43 -96.5 119.81C-100 108.39 -110.31 97.24 -117.81 99.72C-124.47 101.91 -131.71 117.65 -131.71 125.9C-131.71 133.8 -128.51 140.61 -124.82 145.53L-98.19 145.66L-98.2 145.67Z" />
			<path id="Layer" class="shp22" d="M-115.16 99.72C-116.71 99.72 -117.96 98.47 -117.96 96.92C-117.96 95.37 -116.71 94.12 -115.16 94.12C-113.61 94.12 -112.36 95.37 -112.36 96.92C-112.36 98.47 -113.61 99.72 -115.16 99.72Z" />
			<path id="Layer" class="shp24" d="M-99.47 147.21L-99.47 147.21C-102.74 145.8 -106.5 144.62 -111.36 144.62C-116.23 144.62 -119.99 145.8 -123.25 147.21C-123.25 147.21 -123.99 151.97 -124.06 153.04C-124.17 154.69 -124.33 156.64 -124.33 156.64C-120.31 154.87 -115.81 153.89 -111.02 153.89C-106.31 153.89 -102.04 154.83 -98.07 156.54C-98.21 155.22 -98.38 153.9 -98.71 151.93C-98.89 150.89 -99.48 147.2 -99.48 147.2L-99.47 147.21Z" />
			<path id="Layer" class="shp25" d="M-99.59 153.59C-103.21 152.47 -107.08 151.85 -111.07 151.85C-115.13 151.85 -119.28 152.51 -123 153.68" />
			<g id="Layer">
				<path id="Layer" class="shp26" d="M-122.22 146.78C-119.19 145.56 -115.72 144.57 -111.36 144.57C-106.97 144.57 -103.49 145.57 -100.45 146.8" />
				<path id="Layer" class="shp26" d="M-98.48 144.63C-102.32 141.56 -105.4 140.73 -111.09 140.73C-115.85 140.73 -120.77 142 -123.13 144.15" />
			</g>
			<path id="Layer" class="shp27" d="M-104.41 120.71L-105.71 122.02L-112.29 122.02L-112.29 116.08L-110.98 114.77L-113.62 112.13L-116.26 114.77L-114.94 116.09L-114.94 122.02L-121.56 122.02L-122.87 120.71L-125.51 123.35L-122.87 125.99L-121.54 124.67L-114.94 124.67L-114.94 131.91L-116.26 133.23L-113.62 135.87L-110.98 133.23L-112.29 131.92L-112.29 124.67L-105.73 124.67L-104.41 125.99L-101.77 123.35L-104.41 120.71Z" />
			<path id="Layer" class="shp28" d="M-74.17 73.96C-74.79 73.62 -80.42 68.09 -85.64 68.09C-88.35 68.09 -90.48 68.91 -92.35 69.63C-94.25 70.37 -96.05 71.06 -98.65 71.06C-101.68 71.06 -104.19 70.13 -106.41 69.32C-108.2 68.66 -109.75 68.09 -111.33 68.09C-112.91 68.09 -114.46 68.66 -116.25 69.32C-118.47 70.13 -120.98 71.06 -124.01 71.06C-126.61 71.06 -128.41 70.37 -130.31 69.63C-132.19 68.91 -134.31 68.09 -137.03 68.09C-142.24 68.09 -147.87 73.62 -148.49 73.96C-148.49 73.96 -146.1 72.54 -144.11 72.54C-142.12 72.54 -140.16 74.02 -137.03 74.02C-135.42 74.02 -134.1 74.53 -132.44 75.17C-130.34 75.98 -127.72 76.99 -124.01 76.99C-119.93 76.99 -116.62 75.77 -114.2 74.88C-113.1 74.48 -111.86 74.02 -111.33 74.02C-110.8 74.02 -109.56 74.48 -108.46 74.88C-106.04 75.77 -102.73 76.99 -98.65 76.99C-94.95 76.99 -92.33 75.98 -90.22 75.17C-88.56 74.53 -87.25 74.02 -85.64 74.02C-82.5 74.02 -81.2 72.54 -78.55 72.54C-75.88 72.54 -74.14 73.96 -74.14 73.96L-74.17 73.96Z" />
			<path id="Layer" class="shp21" d="M-105.58 13.86C-105.79 13.79 -106.01 13.74 -106.23 13.69C-105.17 13.29 -104.41 12.27 -104.41 11.07C-104.41 9.53 -105.66 8.27 -107.2 8.27C-108.75 8.27 -110 9.53 -110 11.07C-110 12.14 -109.39 13.07 -108.51 13.54C-116.53 14.06 -128.71 24.63 -129.1 42.52C-129.25 49.63 -128.35 55.45 -125.87 59.68L-99.02 59.49C-95.1 54.54 -91.49 48.27 -91.49 40.05C-91.49 29.12 -99.47 15.86 -105.58 13.86L-105.58 13.86Z" />
			<path id="Layer" class="shp21" d="M-97.54 33.96C-100.49 24.33 -108.28 14.9 -115.15 13.66C-114.13 13.24 -113.41 12.24 -113.41 11.07C-113.41 9.53 -114.66 8.27 -116.21 8.27C-117.75 8.27 -119 9.53 -119 11.07C-119 12.16 -118.38 13.1 -117.46 13.56C-117.94 13.62 -118.4 13.71 -118.86 13.86C-124.95 15.87 -132.76 29.35 -132.76 40.05C-132.76 47.95 -129.56 54.75 -125.87 59.68L-99.02 59.49C-96.48 55.25 -93.37 47.57 -97.54 33.96L-97.54 33.96Z" />
			<path id="Layer" class="shp23" d="M-99.11 70.69C-102.48 69.14 -107.26 68.04 -112.06 68.04C-116.85 68.04 -121.35 69.02 -125.38 70.79C-121.35 72.56 -116.93 73.59 -112.13 73.59C-107.33 73.59 -103.13 72.46 -99.1 70.69L-99.11 70.69Z" />
			<path id="Layer" class="shp29" d="M-100.51 61.36L-100.51 61.36C-103.78 59.95 -107.54 58.77 -112.4 58.77C-117.27 58.77 -121.03 59.95 -124.3 61.36C-124.3 61.36 -125.03 66.12 -125.1 67.19C-125.21 68.84 -125.38 70.79 -125.38 70.79C-121.35 69.02 -116.86 68.04 -112.06 68.04C-107.35 68.04 -103.08 68.98 -99.11 70.69C-99.25 69.37 -99.42 68.05 -99.75 66.08C-99.93 65.03 -100.52 61.35 -100.52 61.35L-100.51 61.36Z" />
			<path id="Layer" class="shp29" d="M-125.38 70.79C-121.35 69.02 -116.86 68.04 -112.06 68.04C-107.36 68.04 -103.09 68.98 -99.11 70.69C-99.22 69.59 -99.46 68.9 -99.61 67.49C-103.61 66.09 -107.65 65.38 -112.12 65.38C-116.65 65.38 -121.13 66.2 -125.16 67.63C-125.18 68.87 -125.39 70.79 -125.39 70.79L-125.38 70.79Z" />
			<path id="Layer" class="shp21" d="M-124.3 61.36C-121.03 59.95 -117.27 58.75 -112.4 58.72C-108.26 58.69 -103.78 59.95 -100.51 61.36C-100.33 61.18 -99.57 60.95 -99.02 59.49C-101.77 56.51 -105.86 54.96 -112.4 54.96C-119.39 54.96 -123.12 56.7 -125.87 59.68C-125.33 61.14 -124.49 61.18 -124.31 61.36L-124.3 61.36Z" />
			<path id="Layer" class="shp30" d="M-112.4 54.96L-112.4 58.72" />
			<path id="Layer" class="shp31" d="M-105.45 34.85L-106.76 36.16L-113.34 36.16L-113.34 30.23L-112.03 28.92L-114.67 26.28L-117.31 28.92L-115.99 30.24L-115.99 36.16L-122.6 36.16L-123.91 34.85L-126.55 37.49L-123.91 40.13L-122.59 38.81L-115.99 38.81L-115.99 46.06L-117.31 47.38L-114.67 50.02L-112.03 47.38L-113.34 46.07L-113.34 38.81L-106.77 38.81L-105.45 40.13L-102.81 37.49L-105.45 34.85Z" />
			<path id="Layer" class="shp32" d="M106.04 102.5C106.04 102.5 107.15 96.54 107.15 95.71C107.15 94.87 107.98 94.74 108.81 95.85C109.64 96.95 113.39 102.36 113.39 102.36L106.04 102.49L106.04 102.5Z" />
			<path id="Layer" class="shp32" d="M155.77 148.23C155.39 145.54 154.88 142.98 154.25 140.54L152.25 139.74L153.59 138.14C152.82 135.56 151.93 133.13 150.96 130.85L149.06 130.31L150.01 128.69C148.99 126.52 147.89 124.5 146.75 122.62L144.98 122.26L145.61 120.8C144.34 118.83 143.03 117.03 141.72 115.4L139.85 115.19L140.35 113.73C138.83 111.94 137.35 110.39 135.97 109.06L134.1 108.95L134.42 107.61C131.08 104.58 128.71 103.11 128.71 103.11L124.46 104.4C124.46 104.4 122.43 103.29 120.76 102.18C120.76 102.18 119.65 98.48 119.29 96.45C118.92 94.42 117.81 95.34 117.44 95.9C117.07 96.45 113.23 100.7 113.23 100.7C113.23 100.7 110.94 100.39 109.31 100.7C106.9 101.17 105.79 102.78 103.02 105.42C101 107.34 99.78 109.02 99.09 110.82C98.4 112.63 99.23 112.63 98.95 114.29C98.68 115.95 91.19 128.43 90.36 129.95C89.53 131.48 87.52 136.14 91.47 139.1C92.57 139.94 93.41 140.35 94.1 140.63C94.1 140.63 95.21 140.35 95.63 139.8C95.7 139.7 95.74 139.64 95.76 139.6C95.77 139.57 95.78 139.57 95.76 139.6C95.71 139.71 95.62 140.12 96.04 140.63C96.73 141.46 97.63 141.4 98.12 141.46C98.86 141.55 100.2 140.91 101.31 139.24C102.42 137.58 103.11 137.02 103.94 136.05C104.77 135.08 109.36 132.94 111.15 129.95C111.57 129.26 112.54 129.54 113.23 130.09C113.93 130.65 117.81 130.79 119.47 128.01C119.47 128.01 120.26 135.31 116.97 140.35C111.57 148.67 102.42 150.75 99.65 158.51L156.49 158.51C156.49 155.83 156.34 153.25 156.09 150.78L154.2 149.78L155.8 148.23L155.77 148.23Z" />
			<path id="Layer" class="shp33" d="M126.49 106.26C126.49 106.26 150.7 124.38 150.7 157.09" />
			<path id="Layer" class="shp34" d="M95.75 139.4C95.77 139.37 95.76 139.37 95.75 139.4Z" />
			<path id="Layer" class="shp33" d="M121.5 118.83C121.96 124 119.56 127.7 119.47 128.02C119.47 128.02 125.29 125.02 125.84 121.05" />
			<path id="Layer" class="shp33" d="M119.46 128.02C119.46 128.02 123.34 129.92 126.21 128.71" />
			<path id="Layer" class="shp34" d="M95.62 139.6C95.62 139.6 98.21 136.27 98.95 134.75" />
			<path id="Layer" class="shp33" d="M111.56 108.89C111.56 108.89 107.3 108.91 105.88 111.25C103.94 114.43 106.15 114.85 106.15 114.85C106.15 114.85 108.37 115.54 109.9 113.46C111.52 111.25 110.17 109.86 110.17 109.86L111.55 108.89L111.56 108.89Z" />
			<path id="Layer" class="shp33" d="M90.91 132.39C92.43 131.97 93.4 132.11 94.1 132.53C94.1 132.53 93.4 130.45 94.65 128.65C95.9 126.84 97.98 126.71 99.78 123.24" />
			<path id="Layer" class="shp33" d="M131.38 110.83L134.02 109.17" />
			<path id="Layer" class="shp33" d="M136.79 116.79L139.43 115.55" />
			<path id="Layer" class="shp33" d="M141.64 123.71L144.69 122.46" />
			<path id="Layer" class="shp33" d="M145.53 131.63L148.71 130.52" />
			<path id="Layer" class="shp33" d="M148.57 140.92L151.9 139.95" />
			<path id="Layer" class="shp33" d="M150.38 150.34L153.84 149.93" />
			<path id="Layer" class="shp15" d="M102.71 18.34C102.71 18.34 103.82 12.38 103.82 11.55C103.82 10.72 104.65 10.58 105.48 11.69C106.31 12.8 110.06 18.21 110.06 18.21L102.71 18.34L102.71 18.34Z" />
			<path id="Layer" class="shp15" d="M152.45 64.07C152.07 61.38 151.56 58.82 150.93 56.38L148.93 55.58L150.27 53.98C149.5 51.4 148.61 48.97 147.64 46.69L145.74 46.15L146.68 44.55C145.66 42.38 144.56 40.35 143.42 38.47L141.65 38.11L142.28 36.65C141.01 34.68 139.7 32.88 138.39 31.25L136.52 31.04L137.02 29.58C135.5 27.79 134.01 26.24 132.64 24.91L130.77 24.8L131.09 23.46C127.75 20.43 125.38 18.96 125.38 18.96L121.13 20.25C121.13 20.25 119.1 19.14 117.43 18.03C117.43 18.03 116.32 14.34 115.96 12.3C115.58 10.27 114.48 11.19 114.11 11.75C113.74 12.3 109.9 16.55 109.9 16.55C109.9 16.55 107.61 16.24 105.97 16.55C103.57 17.02 102.46 18.63 99.69 21.27C97.67 23.19 96.45 24.87 95.76 26.68C95.07 28.48 95.9 28.48 95.62 30.14C95.34 31.8 87.86 44.28 87.03 45.81C86.2 47.33 84.19 51.99 88.14 54.96C89.24 55.79 90.08 56.2 90.77 56.48C90.77 56.48 91.88 56.2 92.29 55.65C92.37 55.55 92.41 55.49 92.42 55.46C92.44 55.42 92.45 55.42 92.42 55.46C92.38 55.56 92.29 55.97 92.71 56.48C93.4 57.31 94.29 57.25 94.79 57.31C95.53 57.41 96.87 56.76 97.98 55.09C99.09 53.43 99.78 52.88 100.61 51.91C101.44 50.94 106.03 48.79 107.82 45.81C108.24 45.11 109.21 45.39 109.9 45.95C110.59 46.5 114.48 46.64 116.14 43.86C116.14 43.86 116.93 51.16 113.64 56.2C108.24 64.52 99.09 66.6 96.32 74.36L153.15 74.36C153.15 71.68 153.01 69.11 152.76 66.63L150.87 65.63L152.5 64.09L152.45 64.07Z" />
			<path id="Layer" class="shp34" d="M123.16 22.1C123.16 22.1 147.37 40.22 147.37 72.94" />
			<path id="Layer" class="shp34" d="M92.42 55.46C92.44 55.42 92.44 55.42 92.42 55.46Z" />
			<path id="Layer" class="shp34" d="M118.17 34.67C118.63 39.84 116.23 43.54 116.14 43.86C116.14 43.86 121.96 40.86 122.51 36.89" />
			<path id="Layer" class="shp34" d="M116.14 43.87C116.14 43.87 120.02 45.77 122.89 44.56" />
			<path id="Layer" class="shp34" d="M92.29 55.65C92.29 55.65 94.88 52.32 95.62 50.8" />
			<path id="Layer" class="shp34" d="M108.24 24.74C108.24 24.74 103.98 24.76 102.56 27.09C100.62 30.28 102.83 30.7 102.83 30.7C102.83 30.7 105.05 31.39 106.58 29.31C108.2 27.1 106.85 25.71 106.85 25.71L108.23 24.74L108.24 24.74Z" />
			<path id="Layer" class="shp34" d="M87.58 48.44C89.11 48.02 90.08 48.16 90.77 48.58C90.77 48.58 90.08 46.5 91.32 44.7C92.57 42.89 94.65 42.76 96.45 39.29" />
			<path id="Layer" class="shp34" d="M128.06 26.68L130.69 25.02" />
			<path id="Layer" class="shp34" d="M133.47 32.64L136.1 31.39" />
			<path id="Layer" class="shp34" d="M138.32 39.56L141.37 38.31" />
			<path id="Layer" class="shp34" d="M142.2 47.47L145.39 46.36" />
			<path id="Layer" class="shp34" d="M145.25 56.76L148.58 55.79" />
			<path id="Layer" class="shp34" d="M147.05 66.19L150.52 65.77" />
			<path id="Layer" class="shp35" d="M205.45 152.57C201.7 145.13 202.08 131.87 202.39 126.73C208.32 126.32 212.59 125.2 212.59 123.87C212.59 122.57 208.48 121.47 202.72 121.04C206.4 119.15 208.92 115.32 208.92 110.89C208.92 104.59 203.81 99.48 197.51 99.48C191.2 99.48 186.09 104.59 186.09 110.89C186.09 115.32 188.61 119.15 192.29 121.04C186.53 121.47 182.42 122.57 182.42 123.87C182.42 125.2 186.69 126.32 192.62 126.73C192.93 131.87 193.31 145.13 189.56 152.57C182.21 154.05 177.05 157.52 177.05 161.56L217.95 161.56C217.95 157.52 212.8 154.05 205.45 152.57L205.45 152.57Z" />
			<path id="Layer" class="shp36" d="M205.45 68.97C201.7 61.52 202.08 48.26 202.39 43.13C208.32 42.72 212.59 41.6 212.59 40.27C212.59 38.97 208.48 37.87 202.72 37.44C206.4 35.55 208.92 31.71 208.92 27.29C208.92 20.99 203.81 15.88 197.51 15.88C191.2 15.88 186.09 20.99 186.09 27.29C186.09 31.71 188.61 35.55 192.29 37.44C186.53 37.87 182.42 38.97 182.42 40.27C182.42 41.6 186.69 42.72 192.62 43.13C192.93 48.26 193.31 61.52 189.56 68.97C182.21 70.45 177.05 73.92 177.05 77.96L217.95 77.96C217.95 73.92 212.8 70.45 205.45 68.97L205.45 68.97Z" />
			<path id="Layer" class="shp15" d="M-173.05 18.34C-173.05 18.34 -174.16 12.38 -174.16 11.55C-174.16 10.72 -174.99 10.58 -175.82 11.69C-176.65 12.8 -180.4 18.21 -180.4 18.21L-173.06 18.34L-173.05 18.34Z" />
			<path id="Layer" class="shp15" d="M-222.79 64.07C-222.41 61.38 -221.9 58.82 -221.27 56.38L-219.26 55.58L-220.6 53.98C-219.84 51.4 -218.95 48.97 -217.98 46.69L-216.08 46.15L-217.02 44.55C-216 42.38 -214.9 40.35 -213.76 38.47L-211.99 38.11L-212.62 36.65C-211.35 34.68 -210.03 32.88 -208.73 31.25L-206.86 31.04L-207.36 29.58C-205.84 27.79 -204.35 26.24 -202.98 24.91L-201.1 24.8L-201.43 23.46C-198.08 20.43 -195.72 18.96 -195.72 18.96L-191.47 20.25C-191.47 20.25 -189.44 19.14 -187.77 18.03C-187.77 18.03 -186.66 14.34 -186.29 12.3C-185.92 10.27 -184.82 11.19 -184.45 11.75C-184.08 12.3 -180.24 16.55 -180.24 16.55C-180.24 16.55 -177.95 16.24 -176.31 16.55C-173.91 17.02 -172.8 18.63 -170.03 21.27C-168.01 23.19 -166.79 24.87 -166.1 26.68C-165.41 28.48 -166.24 28.48 -165.96 30.14C-165.68 31.8 -158.2 44.28 -157.37 45.81C-156.53 47.33 -154.53 51.99 -158.47 54.96C-159.58 55.79 -160.42 56.2 -161.11 56.48C-161.11 56.48 -162.22 56.2 -162.63 55.65C-162.71 55.55 -162.75 55.49 -162.76 55.46C-162.78 55.42 -162.78 55.42 -162.76 55.46C-162.72 55.56 -162.62 55.97 -163.05 56.48C-163.74 57.31 -164.63 57.25 -165.13 57.31C-165.87 57.41 -167.21 56.76 -168.32 55.09C-169.43 53.43 -170.12 52.88 -170.95 51.91C-171.78 50.94 -176.37 48.79 -178.16 45.81C-178.58 45.11 -179.55 45.39 -180.24 45.95C-180.93 46.5 -184.82 46.64 -186.48 43.86C-186.48 43.86 -187.26 51.16 -183.98 56.2C-178.58 64.52 -169.43 66.6 -166.65 74.36L-223.52 74.36C-223.52 71.68 -223.37 69.11 -223.12 66.63L-221.23 65.63L-222.81 64.09L-222.79 64.07Z" />
			<path id="Layer" class="shp34" d="M-193.5 22.1C-193.5 22.1 -217.71 40.22 -217.71 72.94" />
			<path id="Layer" class="shp34" d="M-162.76 55.46C-162.78 55.42 -162.78 55.42 -162.76 55.46Z" />
			<path id="Layer" class="shp34" d="M-188.51 34.67C-188.97 39.84 -186.57 43.54 -186.48 43.86C-186.48 43.86 -192.3 40.86 -192.85 36.89" />
			<path id="Layer" class="shp34" d="M-186.48 43.87C-186.48 43.87 -190.36 45.77 -193.23 44.56" />
			<path id="Layer" class="shp34" d="M-162.63 55.65C-162.63 55.65 -165.22 52.32 -165.96 50.8" />
			<path id="Layer" class="shp34" d="M-178.58 24.74C-178.58 24.74 -174.32 24.76 -172.9 27.09C-170.96 30.28 -173.17 30.7 -173.17 30.7C-173.17 30.7 -175.39 31.39 -176.92 29.31C-178.54 27.1 -177.19 25.71 -177.19 25.71L-178.57 24.74L-178.58 24.74Z" />
			<path id="Layer" class="shp34" d="M-157.92 48.44C-159.45 48.02 -160.42 48.16 -161.11 48.58C-161.11 48.58 -160.42 46.5 -161.66 44.7C-162.91 42.89 -164.99 42.76 -166.79 39.29" />
			<path id="Layer" class="shp34" d="M-198.4 26.68L-201.03 25.02" />
			<path id="Layer" class="shp34" d="M-203.81 32.64L-206.44 31.39" />
			<path id="Layer" class="shp34" d="M-208.66 39.56L-211.71 38.31" />
			<path id="Layer" class="shp34" d="M-212.54 47.47L-215.73 46.36" />
			<path id="Layer" class="shp34" d="M-215.59 56.76L-218.92 55.79" />
			<path id="Layer" class="shp34" d="M-217.39 66.19L-220.86 65.77" />
			<path id="Layer" class="shp32" d="M-173.1 104.83C-173.1 104.83 -174.21 98.87 -174.21 98.04C-174.21 97.2 -175.04 97.07 -175.87 98.18C-176.7 99.29 -180.45 104.69 -180.45 104.69L-173.11 104.82L-173.1 104.83Z" />
			<path id="Layer" class="shp32" d="M-222.84 150.56C-222.46 147.87 -221.95 145.31 -221.32 142.87L-219.31 142.07L-220.65 140.47C-219.89 137.89 -219 135.46 -218.03 133.18L-216.13 132.64L-217.06 131.04C-216.04 128.87 -214.95 126.84 -213.81 124.96L-212.04 124.6L-212.67 123.14C-211.39 121.17 -210.08 119.37 -208.78 117.74L-206.91 117.53L-207.41 116.07C-205.88 114.28 -204.4 112.73 -203.03 111.4L-201.15 111.29L-201.48 109.95C-198.13 106.92 -195.77 105.45 -195.77 105.45L-191.52 106.74C-191.52 106.74 -189.48 105.63 -187.82 104.52C-187.82 104.52 -186.71 100.83 -186.34 98.79C-185.97 96.76 -184.86 97.69 -184.49 98.24C-184.12 98.79 -180.29 103.05 -180.29 103.05C-180.29 103.05 -177.99 102.73 -176.36 103.05C-173.96 103.51 -172.85 105.13 -170.08 107.76C-168.05 109.68 -166.84 111.36 -166.15 113.17C-165.46 114.97 -166.29 114.97 -166.01 116.63C-165.73 118.3 -158.25 130.77 -157.41 132.3C-156.58 133.82 -154.57 138.49 -158.52 141.45C-159.63 142.28 -160.47 142.69 -161.16 142.97C-161.16 142.97 -162.27 142.69 -162.68 142.14C-162.76 142.04 -162.79 141.98 -162.81 141.95C-162.83 141.91 -162.83 141.91 -162.81 141.95C-162.77 142.06 -162.67 142.46 -163.1 142.97C-163.79 143.8 -164.68 143.74 -165.18 143.8C-165.92 143.9 -167.26 143.25 -168.37 141.59C-169.48 139.92 -170.17 139.37 -171 138.4C-171.83 137.43 -176.42 135.28 -178.21 132.3C-178.63 131.6 -179.6 131.88 -180.29 132.44C-180.98 132.99 -184.86 133.13 -186.53 130.36C-186.53 130.36 -187.31 137.65 -184.03 142.69C-178.63 151.01 -169.48 153.09 -166.7 160.85L-223.57 160.85C-223.57 158.17 -223.43 155.6 -223.18 153.12L-221.29 152.12L-222.87 150.56L-222.84 150.56Z" />
			<path id="Layer" class="shp33" d="M-193.55 108.59C-193.55 108.59 -217.76 126.71 -217.76 159.42" />
			<path id="Layer" class="shp34" d="M-162.81 141.73C-162.83 141.7 -162.83 141.7 -162.81 141.73Z" />
			<path id="Layer" class="shp33" d="M-188.56 121.16C-189.02 126.33 -186.62 130.03 -186.53 130.35C-186.53 130.35 -192.35 127.35 -192.9 123.38" />
			<path id="Layer" class="shp33" d="M-186.53 130.35C-186.53 130.35 -190.41 132.25 -193.28 131.04" />
			<path id="Layer" class="shp34" d="M-162.68 141.93C-162.68 141.93 -165.27 138.6 -166.01 137.08" />
			<path id="Layer" class="shp33" d="M-178.63 111.22C-178.63 111.22 -174.37 111.24 -172.95 113.58C-171 116.77 -173.22 117.18 -173.22 117.18C-173.22 117.18 -175.44 117.87 -176.97 115.79C-178.59 113.58 -177.24 112.19 -177.24 112.19L-178.62 111.22L-178.63 111.22Z" />
			<path id="Layer" class="shp33" d="M-157.97 134.72C-159.5 134.3 -160.47 134.44 -161.16 134.86C-161.16 134.86 -160.47 132.78 -161.71 130.98C-162.96 129.17 -165.04 129.04 -166.84 125.57" />
			<path id="Layer" class="shp33" d="M-198.45 113.17L-201.08 111.5" />
			<path id="Layer" class="shp33" d="M-203.86 119.13L-206.49 117.88" />
			<path id="Layer" class="shp33" d="M-208.71 126.04L-211.76 124.79" />
			<path id="Layer" class="shp33" d="M-212.59 133.96L-215.78 132.85" />
			<path id="Layer" class="shp33" d="M-215.64 143.25L-218.97 142.28" />
			<path id="Layer" class="shp33" d="M-217.44 152.67L-220.91 152.26" />
		</g>
	</g>
</svg>