<svg xmlns="http://www.w3.org/2000/svg" viewBox="0 0 71 90" width="71" height="90">
	<style>
		tspan { white-space:pre }
		.shp0 { fill: #000000;stroke: #000000;stroke-width: 0.31 } 
		.shp1 { fill: #000000 } 
		.shp2 { fill: #000000;stroke: #ffffff;stroke-linecap:round;stroke-width: 1.009 } 
		.shp3 { fill: none;stroke: #ffffff;stroke-linejoin:bevel;stroke-width: 0.62 } 
		.shp4 { fill: none;stroke: #ffffff;stroke-linecap:round;stroke-width: 1.009 } 
		.shp5 { fill: #ffffff;stroke: #000000;stroke-width: 0.317 } 
		.shp6 { fill: none;stroke: #ffffff;stroke-width: 0.62 } 
		.shp7 { fill: #ffffff;stroke: #20201e;stroke-width: 1.211 } 
		.shp8 { fill: #ffffff;stroke: #20201e;stroke-linejoin:round;stroke-width: 1.211 } 
		.shp9 { fill: #ffffff;stroke: #20201e;stroke-linejoin:bevel;stroke-width: 1.211 } 
		.shp10 { fill: #000000;stroke: #000000;stroke-linejoin:bevel;stroke-width: 0.853 } 
		.shp11 { fill: #000000;stroke: #ffffff;stroke-linecap:round;stroke-width: 0.926 } 
		.shp12 { fill: none;stroke: #ffffff;stroke-linecap:round;stroke-width: 0.926 } 
		.shp13 { fill: #ffffff } 
		.shp14 { fill: #ffffff;stroke: #20201e;stroke-linejoin:bevel;stroke-width: 1.111 } 
		.shp15 { fill: #ffffff;stroke: #20201e;stroke-width: 1.111 } 
		.shp16 { fill: #000000;stroke: #000000;stroke-linecap:square;stroke-width: 0.853 } 
		.shp17 { fill: none;stroke: #ffffff;stroke-linecap:round;stroke-width: 0.853 } 
		.shp18 { fill: #ffffff;stroke: #20201e;stroke-linejoin:round;stroke-width: 1.111 } 
		.shp19 { fill: #ffffff;stroke: #20201e;stroke-linecap:square;stroke-width: 1.111 } 
		.shp20 { fill: #20201e } 
		.shp21 { fill: #ffffff;stroke: #20201e;stroke-width: 1.32 } 
		.shp22 { fill: #000000;stroke: #000000;stroke-width: 0.533 } 
		.shp23 { fill: #ffffff;stroke: #000000;stroke-linejoin:bevel;stroke-width: 1.014 } 
		.shp24 { fill: #000000;stroke: #000000;stroke-linejoin:bevel;stroke-width: 0.533 } 
		.shp25 { fill: none;stroke: #ffffff;stroke-linecap:round;stroke-linejoin:bevel;stroke-width: 0.533 } 
		.shp26 { fill: none;stroke: #ffffff;stroke-linecap:round;stroke-width: 0.533 } 
		.shp27 { fill: #ffffff;stroke: #000000;stroke-width: 0.533 } 
		.shp28 { fill: #ffffff;stroke: #20201e;stroke-linecap:round;stroke-linejoin:round;stroke-width: 1.32 } 
		.shp29 { fill: #ffffff;stroke: #20201e;stroke-linejoin:bevel;stroke-width: 1.32 } 
		.shp30 { fill: #ffffff;stroke: #000000;stroke-width: 1.014 } 
		.shp31 { fill: #ffffff;stroke: #000000;stroke-width: 0.77 } 
		.shp32 { fill: #20201e;stroke: #20201e;stroke-width: 0.853 } 
		.shp33 { fill: none;stroke: #ffffff;stroke-width: 0.853 } 
		.shp34 { fill: none;stroke: #20201e;stroke-width: 0.853 } 
		.shp35 { fill: #000000;stroke: #000000;stroke-linejoin:round;stroke-width: 0.79 } 
		.shp36 { fill: #ffffff;stroke: #000000;stroke-linejoin:round;stroke-width: 1.111 } 
	</style>
	<g id="Layer">
		<g id="Layer">
			<path id="Layer" class="shp0" d="M273.26 118.52C274.61 117.72 275.18 116.65 275.18 115.47C275.18 115.13 275.23 98.89 275.23 98.89L259.13 98.89C259.13 98.89 259.06 115.27 259.06 115.47C259.06 116.66 259.9 117.74 261.27 118.54C260.3 118.68 259.34 118.85 258.39 119.06C259.91 120.03 261.34 121.16 262.67 122.45C264.54 124.28 266.1 126.3 267.32 128.48C268.54 126.3 270.09 124.28 271.97 122.45C273.3 121.16 274.73 120.03 276.25 119.06C275.28 118.85 274.28 118.68 273.28 118.53L273.26 118.52Z" />
			<path id="Layer" class="shp1" d="M288.07 155.43C287.07 153.43 287.05 150.82 287.49 149.06C287.94 147.24 292.24 143.81 292.24 143.81C299.81 136.45 301.54 125.95 296.11 120.36C290.68 114.78 280.14 116.23 272.57 123.59C270.31 125.79 268.57 128.27 267.39 130.82C266.2 128.27 264.47 125.79 262.21 123.59C254.64 116.23 244.1 114.78 238.66 120.36C233.23 125.95 234.97 136.45 242.54 143.81C242.88 144.14 246.65 147.24 247.1 149.06C247.56 150.87 247.62 153.48 246.53 155.5L246.69 155.5C246.67 155.51 246.65 155.52 246.62 155.53C252.89 158.62 259.94 160.36 267.39 160.36C274.84 160.35 281.79 158.51 288.06 155.42" />
			<g id="Layer">
				<path id="Layer" class="shp2" d="M247.72 155.06C253.75 152.25 260.42 150.69 267.51 150.69C274.32 150.69 280.86 152.36 286.69 154.73" />
				<path id="Layer" class="shp2" d="M289.59 143.38C283.31 141.25 275.62 139.99 267.3 139.99C258.92 139.99 251.16 141.27 244.85 143.44" />
			</g>
			<path id="Layer" class="shp3" d="M273.92 100.06L260.41 112.17L273.92 112.17L260.41 100.06L273.92 100.06Z" />
			<path id="Layer" class="shp4" d="M285.66 150.77C279.88 148.74 273.73 147.27 267.35 147.27C260.84 147.27 254.58 148.78 248.7 150.88" />
			<path id="Layer" class="shp5" d="M264.18 143.96L267.35 145.54L270.52 143.96L267.35 142.37L264.18 143.96Z" />
			<path id="Layer" class="shp5" d="M251.23 146.02L254.61 147.07L257.48 145L254.1 143.94L251.23 146.02Z" />
			<path id="Layer" class="shp5" d="M283.48 146.02L280.09 147.07L277.22 145L280.6 143.94L283.48 146.02Z" />
			<path id="Layer" class="shp3" d="M260.41 100.06L273.93 100.06L273.93 112.17L260.41 112.17L260.41 100.06Z" />
			<path id="Layer" class="shp6" d="M267.28 121.89C264.13 121.89 261.58 120.01 261.58 117.68C261.58 115.35 264.13 113.47 267.28 113.47C270.43 113.47 272.98 115.35 272.98 117.68C272.98 120.01 270.43 121.89 267.28 121.89Z" />
			<path id="Layer" class="shp7" d="M275.26 10.64L259.16 10.64L259.16 27.47C259.16 29.95 262.78 31.96 267.25 31.96C271.72 31.96 275.23 29.95 275.23 27.47C275.23 27.25 275.26 10.64 275.26 10.64L275.26 10.64Z" />
			<path id="Layer" class="shp7" d="M259.16 10.64L275.26 10.64L275.26 25.07L259.16 25.07L259.16 10.64Z" />
			<path id="Layer" class="shp7" d="M259.16 10.64L275.26 25.07" />
			<path id="Layer" class="shp7" d="M275.26 10.64L259.16 25.07" />
			<path id="Layer" class="shp8" d="M288 67.14C281.74 64.05 274.93 62.42 267.47 62.42C260.01 62.42 252.88 64.16 246.62 67.25C252.88 70.34 259.89 72.12 267.35 72.12C274.81 72.13 281.74 70.24 288 67.15L288 67.14Z" />
			<path id="Layer" class="shp9" d="M291.13 56.54C291.49 56.23 291.85 55.9 292.2 55.56C299.77 48.2 301.5 37.7 296.07 32.12C290.63 26.53 280.1 27.98 272.53 35.35C270.26 37.55 268.53 40.03 267.34 42.57C266.16 40.03 264.42 37.55 262.16 35.35C254.59 27.98 244.05 26.53 238.62 32.12C233.19 37.7 234.92 48.2 242.49 55.56C242.84 55.9 243.2 56.23 243.56 56.54C250.1 54.09 258.36 52.62 267.35 52.62C276.33 52.62 284.59 54.09 291.12 56.54L291.13 56.54Z" />
			<path id="Layer" class="shp7" d="M267.35 42.58C268.53 40.04 270.27 37.56 272.53 35.36C274.37 33.56 276.4 32.12 278.48 31.05C275.03 30.08 271.28 29.54 267.36 29.54C263.43 29.54 259.68 30.08 256.23 31.05C258.31 32.12 260.33 33.56 262.17 35.36C264.43 37.56 266.16 40.04 267.35 42.58L267.35 42.58Z" />
			<path id="Layer" class="shp9" d="M291.04 56.54L291.04 56.53C284.5 54.08 276.25 52.62 267.27 52.62C258.28 52.62 250.02 54.09 243.48 56.54C243.48 56.54 246.61 59 247.07 60.81C247.52 62.62 247.72 65.22 246.63 67.24C252.89 64.15 260.02 62.42 267.48 62.42C274.79 62.42 281.84 64.16 288.01 67.14C287.01 65.14 287.01 62.57 287.45 60.81C287.9 59.01 291.04 56.55 291.04 56.55L291.04 56.54Z" />
			<path id="Layer" class="shp9" d="M246.62 67.25C252.88 64.16 260.02 62.43 267.47 62.43C274.79 62.43 281.83 64.16 288 67.14C287.58 66.29 287.13 64.11 287.2 62.9C281 60.46 274.33 59.13 267.37 59.13C260.34 59.13 253.6 60.49 247.33 62.98C247.41 65.23 247.09 66.36 246.62 67.24L246.62 67.25Z" />
			<path id="Layer" class="shp1" d="M264.29 55.96L267.39 57.51L270.48 55.96L267.39 54.41L264.29 55.96Z" />
			<path id="Layer" class="shp1" d="M251.62 57.98L254.92 59.01L257.73 56.98L254.43 55.95L251.62 57.98Z" />
			<path id="Layer" class="shp1" d="M283.15 57.98L279.85 59.01L277.04 56.98L280.34 55.95L283.15 57.98Z" />
			<path id="Layer" class="shp7" d="M267.35 33.98C264.2 33.98 261.65 32.1 261.65 29.77C261.65 27.44 264.2 25.56 267.35 25.56C270.5 25.56 273.05 27.44 273.05 29.77C273.05 32.1 270.5 33.98 267.35 33.98Z" />
			<path id="Layer" class="shp10" d="M377.7 113.6C378.55 112.14 378.06 110.27 376.6 109.42C375.14 108.56 373.27 109.06 372.42 110.52C371.69 111.77 371.95 113.32 372.95 114.27C368.79 119.32 361.19 128.54 359.35 130.77C358.81 130.53 358.25 130.3 357.67 130.09C357.84 128.38 359.04 115.3 359.68 108.34C361.07 108.37 362.35 107.45 362.71 106.05C363.13 104.42 362.15 102.75 360.52 102.33C358.88 101.9 357.21 102.88 356.79 104.52C356.42 105.92 357.1 107.35 358.33 107.99C355.31 114.83 349.47 128.1 349.45 128.15C349.45 128.17 349.45 128.18 349.45 128.19C348.92 128.13 348.37 128.08 347.82 128.03C347.71 127.29 345.2 111.91 343.89 103.9C345.39 103.55 346.51 102.2 346.51 100.59C346.51 98.72 344.99 97.19 343.11 97.19C341.24 97.19 339.72 98.72 339.72 100.59C339.72 102.2 340.84 103.55 342.34 103.9C341.04 111.87 338.55 127.15 338.42 128.02C337.83 128.06 337.27 128.12 336.71 128.18C336.71 128.16 336.71 128.15 336.7 128.13C336.69 128.07 330.84 114.8 327.83 107.97C329.06 107.32 329.73 105.9 329.37 104.49C328.94 102.86 327.28 101.88 325.64 102.3C324.01 102.72 323.02 104.39 323.45 106.03C323.81 107.43 325.09 108.35 326.48 108.32C327.11 115.26 328.32 128.32 328.48 130.06C327.91 130.26 327.37 130.49 326.84 130.72C324.93 128.4 317.41 119.29 313.27 114.28C314.28 113.32 314.54 111.77 313.81 110.52C312.96 109.06 311.09 108.57 309.63 109.42C308.17 110.27 307.68 112.14 308.53 113.6C309.26 114.85 310.74 115.39 312.07 114.98C314.55 121.46 322.58 142.31 322.89 142.6L322.89 142.6C322.9 142.63 323.69 147.8 323.77 149.52C323.86 151.22 323.12 155.4 323.17 155.42L323.17 155.43C323.17 155.43 323.17 155.42 323.18 155.42C329.13 158.21 335.91 159.78 343.18 159.78C350.52 159.78 363.77 155.29 363.71 155.26C362.84 153.43 363.17 142.59 363.17 142.59C363.48 142.3 371.61 121.63 374.16 114.98C375.47 115.39 376.95 114.85 377.68 113.6" />
			<g id="Layer">
				<path id="Layer" class="shp11" d="M324.65 154.18C330.91 151.6 336.77 150.49 343.95 150.49C350.85 150.49 356.37 151.63 362.14 154.03" />
				<path id="Layer" class="shp11" d="M360.95 142.09C355.86 140.13 349.62 138.98 342.88 138.98C336.08 138.98 329.79 140.15 324.67 142.14" />
			</g>
			<path id="Layer" class="shp12" d="M361.56 150.61C355.92 148.75 350.19 147.4 343.72 147.4C337.14 147.4 330.8 148.79 324.85 150.72" />
			<path id="Layer" class="shp13" d="M340.3 143.65L343.14 145.07L345.99 143.65L343.14 142.23L340.3 143.65Z" />
			<path id="Layer" class="shp13" d="M357.61 145.5L354.58 146.45L352 144.59L355.03 143.64L357.61 145.5Z" />
			<path id="Layer" class="shp13" d="M328.68 145.5L331.71 146.45L334.29 144.59L331.26 143.64L328.68 145.5Z" />
			<path id="Layer" class="shp14" d="M363.22 69.36C357.15 66.52 350.51 65.03 343.17 65.03C335.82 65.03 328.71 66.66 322.44 69.5C328.51 72.33 335.39 73.93 342.73 73.93C350.08 73.94 356.96 72.2 363.22 69.37L363.22 69.36Z" />
			<path id="Layer" class="shp14" d="M362.77 56.63L362.77 56.62C357.31 54.38 350.97 53.01 342.73 53.01C334.48 53.01 328.11 54.38 322.49 56.63C322.49 56.63 323.1 61.83 323.13 63.55C323.16 65.49 322.62 69.46 322.62 69.46C328.88 66.63 335.83 65.03 343.17 65.03C350.37 65.03 357.68 66.51 363.22 69.36C362.31 67.54 362.77 56.64 362.77 56.64L362.77 56.63Z" />
			<path id="Layer" class="shp14" d="M322.64 69.43C328.54 66.63 335.83 65.03 343.17 65.03C350.37 65.03 356.41 66.05 363.22 69.36C362.95 68.59 362.76 66.22 362.71 65.35C356.68 63.11 350.03 61.84 343.18 61.84C336.26 61.84 329.3 63.18 323.05 65.47C322.92 66.36 322.64 69.42 322.64 69.42L322.64 69.43Z" />
			<path id="Layer" class="shp15" d="M376.3 23.45C374.84 22.6 372.97 23.1 372.12 24.56C371.39 25.81 371.65 27.36 372.65 28.31C368.49 33.36 360.88 42.58 359.05 44.81C358.51 44.57 357.95 44.34 357.37 44.13C357.53 42.42 358.74 29.34 359.38 22.38C360.77 22.41 362.05 21.49 362.41 20.09C362.83 18.46 361.85 16.79 360.21 16.36C358.58 15.94 356.91 16.92 356.49 18.56C356.12 19.96 356.8 21.39 358.03 22.03C355.01 28.87 349.17 42.14 349.15 42.19C349.15 42.21 349.15 42.22 349.15 42.23C348.62 42.17 348.07 42.11 347.51 42.07C347.4 41.33 344.9 25.95 343.59 17.94C345.09 17.59 346.21 16.24 346.21 14.63C346.21 12.76 344.69 11.23 342.81 11.23C340.94 11.23 339.41 12.76 339.41 14.63C339.41 16.24 340.54 17.59 342.04 17.94C340.74 25.91 338.24 41.19 338.11 42.06C337.53 42.1 336.96 42.16 336.41 42.22C336.41 42.2 336.41 42.19 336.4 42.17C336.39 42.11 330.54 28.84 327.53 22.01C328.76 21.36 329.43 19.94 329.07 18.53C328.64 16.9 326.97 15.92 325.34 16.34C323.71 16.76 322.72 18.43 323.15 20.07C323.51 21.47 324.79 22.39 326.18 22.36C326.81 29.3 328.01 42.35 328.18 44.1C327.61 44.3 327.06 44.53 326.54 44.76C324.63 42.44 317.11 33.33 312.97 28.31C313.98 27.36 314.24 25.81 313.51 24.56C312.66 23.1 310.79 22.6 309.33 23.46C307.87 24.31 307.38 26.18 308.23 27.64C308.96 28.89 310.44 29.43 311.77 29.02C314.25 35.5 322.28 56.35 322.59 56.63C328.12 54.38 334.49 53.01 342.73 53.01C350.98 53.01 357.34 54.38 362.87 56.63C363.18 56.34 371.31 35.67 373.86 29.02C375.19 29.43 376.67 28.89 377.4 27.64C378.22 26.18 377.73 24.31 376.27 23.46L376.3 23.45Z" />
			<path id="Layer" class="shp1" d="M340 57.62L342.84 59.04L345.69 57.62L342.84 56.2L340 57.62Z" />
			<path id="Layer" class="shp1" d="M328.38 59.46L331.41 60.4L333.99 58.54L330.96 57.6L328.38 59.46Z" />
			<path id="Layer" class="shp1" d="M357.31 59.47L354.28 60.42L351.7 58.56L354.73 57.61L357.31 59.47Z" />
			<g id="Layer">
				<path id="Layer" class="shp16" d="M60.63 154.65L59.66 154.65L59.66 148.83L55 143.6L54.95 143.6L54.95 112.78L55 112.78L61.07 106.98L61.11 106.98L61.11 97.04C61.11 96.18 60.43 95.47 59.6 95.47L51.21 95.47L51.21 100.87L46.49 102.43L42.15 100.87L42.15 95.47L31.8 95.47L31.8 100.87L27.45 102.43L22.74 100.87L22.74 95.47L14.35 95.47C13.52 95.47 12.84 96.18 12.84 97.04L12.84 106.98L12.86 106.98L18.95 112.78L18.95 143.6L14.29 148.83L14.29 154.65L13.32 154.65C12.45 154.65 11.74 155.35 11.74 156.22L11.74 159.92C11.74 160.78 12.45 161.49 13.32 161.49L60.63 161.49C61.5 161.49 62.2 160.78 62.2 159.92L62.2 156.22C62.2 155.36 61.5 154.65 60.63 154.65L60.63 154.65Z" />
				<path id="Layer" class="shp17" d="M15.82 154.65L57.78 154.65" />
				<path id="Layer" class="shp17" d="M16.01 148.83L57.6 148.83" />
				<path id="Layer" class="shp17" d="M53.16 143.61L20.07 143.61" />
				<path id="Layer" class="shp17" d="M20.26 112.79L53.35 112.79" />
				<path id="Layer" class="shp17" d="M14.9 106.98L59.81 106.98" />
			</g>
			<path id="Layer" class="shp15" d="M60.28 75.59C61.15 75.59 61.85 74.89 61.85 74.02L61.85 70.32C61.85 69.45 61.15 68.75 60.28 68.75L12.96 68.75C12.09 68.75 11.39 69.45 11.39 70.32L11.39 74.02C11.39 74.89 12.09 75.59 12.96 75.59L60.28 75.59Z" />
			<path id="Layer" class="shp15" d="M13.93 62.93L59.31 62.93L59.31 68.75L13.93 68.75L13.93 62.93Z" />
			<path id="Layer" class="shp14" d="M59.31 62.93L54.64 57.7L18.59 57.7L13.93 62.93L59.31 62.93Z" />
			<path id="Layer" class="shp18" d="M60.73 21.06L54.64 26.88L18.59 26.88L12.49 21.06L60.73 21.06Z" />
			<path id="Layer" class="shp15" d="M18.59 26.88L54.59 26.88L54.59 57.7L18.59 57.7L18.59 26.88Z" />
			<path id="Layer" class="shp19" d="M59.25 9.57L50.85 9.57L50.85 14.97L46.14 16.53L41.79 14.97L41.79 9.57L31.44 9.57L31.44 14.97L27.1 16.53L22.39 14.97L22.39 9.57L13.99 9.57C13.16 9.57 12.49 10.27 12.49 11.14L12.49 21.08L60.75 21.08L60.75 11.14C60.75 10.27 60.08 9.57 59.25 9.57L59.25 9.57Z" />
			<path id="Layer" class="shp20" d="M228.87 159.82C228.25 159.48 222.62 153.95 217.4 153.95C214.69 153.95 212.56 154.77 210.69 155.49C208.79 156.23 206.99 156.92 204.39 156.92C201.36 156.92 198.85 155.99 196.63 155.18C194.84 154.52 193.29 153.95 191.71 153.95C190.13 153.95 188.58 154.52 186.79 155.18C184.57 155.99 182.06 156.92 179.03 156.92C176.43 156.92 174.63 156.23 172.73 155.49C170.85 154.77 168.73 153.95 166.02 153.95C160.8 153.95 155.17 159.48 154.55 159.82C154.55 159.82 156.82 158.4 158.93 158.4C161.05 158.4 162.88 159.88 166.02 159.88C167.63 159.88 168.94 160.39 170.6 161.03C172.71 161.84 175.32 162.85 179.03 162.85C183.11 162.85 186.42 161.63 188.84 160.74C189.94 160.34 191.18 159.88 191.71 159.88C192.24 159.88 193.48 160.34 194.58 160.74C197 161.63 200.31 162.85 204.39 162.85C208.09 162.85 210.71 161.84 212.82 161.03C214.48 160.39 215.79 159.88 217.4 159.88C220.54 159.88 222.92 158.4 224.49 158.4C226.05 158.4 228.9 159.82 228.9 159.82L228.87 159.82Z" />
			<path id="Layer" class="shp21" d="M211.64 125.91C211.64 116.56 203.66 101.73 197.55 99.72C197.34 99.65 197.12 99.59 196.89 99.55C197.96 99.15 198.72 98.13 198.72 96.93C198.72 95.38 197.47 94.13 195.93 94.13C194.38 94.13 193.13 95.38 193.13 96.93C193.13 98 193.74 98.93 194.62 99.4C193.37 99.48 192.02 99.81 190.62 100.37C189.73 99.96 188.85 99.67 187.98 99.51C189 99.1 189.72 98.1 189.72 96.93C189.72 95.38 188.47 94.13 186.92 94.13C185.38 94.13 184.13 95.38 184.13 96.93C184.13 98.02 184.75 98.96 185.66 99.42C185.19 99.47 184.72 99.57 184.27 99.72C178.17 101.73 170.37 116.01 170.37 125.91C170.37 133.81 173.57 140.61 177.26 145.54C177.81 147 178.65 147.04 178.83 147.22C178.83 147.22 178.83 147.22 178.83 147.22C178.83 147.24 178.1 151.98 178.03 153.05C177.92 154.7 177.75 156.64 177.75 156.64C181.78 158.42 186.2 159.45 190.99 159.45C195.79 159.45 199.99 158.32 204.02 156.54C203.87 155.23 203.71 153.91 203.38 151.93C203.21 150.9 202.62 147.22 202.62 147.22C202.8 147.04 203.88 145.67 203.88 145.67C207.8 140.72 211.63 134.12 211.63 125.91L211.64 125.91Z" />
			<path id="Layer" class="shp22" d="M178.93 147.22C182.2 145.81 185.96 144.58 190.83 144.58C195.69 144.58 199.45 145.81 202.72 147.22C202.9 147.04 203.32 146.58 204.21 145.34C201.46 142.37 197.45 140.73 190.91 140.73C183.92 140.73 180.11 142.56 177.36 145.54C177.92 146.99 178.76 147.04 178.94 147.22L178.93 147.22Z" />
			<path id="Layer" class="shp23" d="M203.91 156.54C199.88 154.77 195.76 153.89 190.96 153.89C186.16 153.89 181.67 154.87 177.64 156.64C181.67 158.41 186.09 159.44 190.89 159.44C195.69 159.44 199.89 158.31 203.92 156.54L203.91 156.54Z" />
			<path id="Layer" class="shp22" d="M203.8 145.67C206.34 141.43 209.68 133.43 205.5 119.81C202 108.39 191.69 97.24 184.19 99.72C177.53 101.91 170.29 117.65 170.29 125.9C170.29 133.8 173.49 140.61 177.18 145.53L203.81 145.66L203.8 145.67Z" />
			<path id="Layer" class="shp22" d="M186.84 99.72C185.29 99.72 184.04 98.47 184.04 96.92C184.04 95.37 185.29 94.12 186.84 94.12C188.39 94.12 189.64 95.37 189.64 96.92C189.64 98.47 188.39 99.72 186.84 99.72Z" />
			<path id="Layer" class="shp24" d="M202.53 147.21L202.53 147.21C199.26 145.8 195.5 144.62 190.64 144.62C185.77 144.62 182.01 145.8 178.75 147.21C178.75 147.21 178.01 151.97 177.94 153.04C177.83 154.69 177.67 156.64 177.67 156.64C181.69 154.87 186.19 153.89 190.98 153.89C195.69 153.89 199.96 154.83 203.93 156.54C203.79 155.22 203.62 153.9 203.29 151.93C203.11 150.89 202.52 147.2 202.52 147.2L202.53 147.21Z" />
			<path id="Layer" class="shp25" d="M202.41 153.59C198.79 152.47 194.92 151.85 190.93 151.85C186.87 151.85 182.72 152.51 179 153.68" />
			<g id="Layer">
				<path id="Layer" class="shp26" d="M179.78 146.78C182.81 145.56 186.28 144.57 190.64 144.57C195.03 144.57 198.51 145.57 201.55 146.8" />
				<path id="Layer" class="shp26" d="M203.52 144.63C199.68 141.56 196.6 140.73 190.91 140.73C186.15 140.73 181.23 142 178.87 144.15" />
			</g>
			<path id="Layer" class="shp27" d="M197.59 120.71L196.29 122.02L189.71 122.02L189.71 116.08L191.02 114.77L188.38 112.13L185.74 114.77L187.06 116.09L187.06 122.02L180.44 122.02L179.13 120.71L176.49 123.35L179.13 125.99L180.46 124.67L187.06 124.67L187.06 131.91L185.74 133.23L188.38 135.87L191.02 133.23L189.71 131.92L189.71 124.67L196.27 124.67L197.59 125.99L200.23 123.35L197.59 120.71Z" />
			<path id="Layer" class="shp28" d="M227.83 73.96C227.21 73.62 221.58 68.09 216.36 68.09C213.65 68.09 211.52 68.91 209.65 69.63C207.75 70.37 205.95 71.06 203.35 71.06C200.32 71.06 197.81 70.13 195.59 69.32C193.8 68.66 192.25 68.09 190.67 68.09C189.09 68.09 187.54 68.66 185.75 69.32C183.53 70.13 181.02 71.06 177.99 71.06C175.39 71.06 173.59 70.37 171.69 69.63C169.81 68.91 167.69 68.09 164.97 68.09C159.76 68.09 154.13 73.62 153.51 73.96C153.51 73.96 155.9 72.54 157.89 72.54C159.88 72.54 161.84 74.02 164.97 74.02C166.58 74.02 167.9 74.53 169.56 75.17C171.66 75.98 174.28 76.99 177.99 76.99C182.07 76.99 185.38 75.77 187.8 74.88C188.9 74.48 190.14 74.02 190.67 74.02C191.2 74.02 192.44 74.48 193.54 74.88C195.96 75.77 199.27 76.99 203.35 76.99C207.05 76.99 209.67 75.98 211.78 75.17C213.44 74.53 214.75 74.02 216.36 74.02C219.5 74.02 220.8 72.54 223.45 72.54C226.12 72.54 227.86 73.96 227.86 73.96L227.83 73.96Z" />
			<path id="Layer" class="shp21" d="M196.42 13.86C196.21 13.79 195.99 13.74 195.77 13.69C196.83 13.29 197.59 12.27 197.59 11.07C197.59 9.53 196.34 8.27 194.8 8.27C193.25 8.27 192 9.53 192 11.07C192 12.14 192.61 13.07 193.49 13.54C185.47 14.06 173.29 24.63 172.9 42.52C172.75 49.63 173.65 55.45 176.13 59.68L202.98 59.49C206.9 54.54 210.51 48.27 210.51 40.05C210.51 29.12 202.53 15.86 196.42 13.86L196.42 13.86Z" />
			<path id="Layer" class="shp21" d="M204.46 33.96C201.51 24.33 193.72 14.9 186.85 13.66C187.87 13.24 188.59 12.24 188.59 11.07C188.59 9.53 187.34 8.27 185.79 8.27C184.25 8.27 183 9.53 183 11.07C183 12.16 183.62 13.1 184.54 13.56C184.06 13.62 183.6 13.71 183.14 13.86C177.05 15.87 169.24 29.35 169.24 40.05C169.24 47.95 172.44 54.75 176.13 59.68L202.98 59.49C205.52 55.25 208.63 47.57 204.46 33.96L204.46 33.96Z" />
			<path id="Layer" class="shp23" d="M202.89 70.69C199.52 69.14 194.74 68.04 189.94 68.04C185.15 68.04 180.65 69.02 176.62 70.79C180.65 72.56 185.07 73.59 189.87 73.59C194.67 73.59 198.87 72.46 202.9 70.69L202.89 70.69Z" />
			<path id="Layer" class="shp29" d="M201.49 61.36L201.49 61.36C198.22 59.95 194.46 58.77 189.6 58.77C184.73 58.77 180.97 59.95 177.7 61.36C177.7 61.36 176.97 66.12 176.9 67.19C176.79 68.84 176.62 70.79 176.62 70.79C180.65 69.02 185.14 68.04 189.94 68.04C194.65 68.04 198.92 68.98 202.89 70.69C202.75 69.37 202.58 68.05 202.25 66.08C202.07 65.03 201.48 61.35 201.48 61.35L201.49 61.36Z" />
			<path id="Layer" class="shp29" d="M176.62 70.79C180.65 69.02 185.14 68.04 189.94 68.04C194.64 68.04 198.91 68.98 202.89 70.69C202.78 69.59 202.54 68.9 202.39 67.49C198.39 66.09 194.35 65.38 189.88 65.38C185.35 65.38 180.87 66.2 176.84 67.63C176.82 68.87 176.61 70.79 176.61 70.79L176.62 70.79Z" />
			<path id="Layer" class="shp21" d="M177.7 61.36C180.97 59.95 184.73 58.75 189.6 58.72C193.74 58.69 198.22 59.95 201.49 61.36C201.67 61.18 202.43 60.95 202.98 59.49C200.23 56.51 196.14 54.96 189.6 54.96C182.61 54.96 178.88 56.7 176.13 59.68C176.67 61.14 177.51 61.18 177.69 61.36L177.7 61.36Z" />
			<path id="Layer" class="shp30" d="M189.6 54.96L189.6 58.72" />
			<path id="Layer" class="shp31" d="M196.55 34.85L195.24 36.16L188.66 36.16L188.66 30.23L189.97 28.92L187.33 26.28L184.69 28.92L186.01 30.24L186.01 36.16L179.4 36.16L178.09 34.85L175.45 37.49L178.09 40.13L179.41 38.81L186.01 38.81L186.01 46.06L184.69 47.38L187.33 50.02L189.97 47.38L188.66 46.07L188.66 38.81L195.23 38.81L196.55 40.13L199.19 37.49L196.55 34.85Z" />
			<path id="Layer" class="shp32" d="M408.04 102.5C408.04 102.5 409.15 96.54 409.15 95.71C409.15 94.87 409.98 94.74 410.81 95.85C411.64 96.95 415.39 102.36 415.39 102.36L408.04 102.49L408.04 102.5Z" />
			<path id="Layer" class="shp32" d="M457.77 148.23C457.39 145.54 456.88 142.98 456.25 140.54L454.25 139.74L455.59 138.14C454.82 135.56 453.93 133.13 452.96 130.85L451.06 130.31L452.01 128.69C450.99 126.52 449.89 124.5 448.75 122.62L446.98 122.26L447.61 120.8C446.34 118.83 445.03 117.03 443.72 115.4L441.85 115.19L442.35 113.73C440.83 111.94 439.35 110.39 437.97 109.06L436.1 108.95L436.42 107.61C433.08 104.58 430.71 103.11 430.71 103.11L426.46 104.4C426.46 104.4 424.43 103.29 422.76 102.18C422.76 102.18 421.65 98.48 421.29 96.45C420.92 94.42 419.81 95.34 419.44 95.9C419.07 96.45 415.23 100.7 415.23 100.7C415.23 100.7 412.94 100.39 411.31 100.7C408.9 101.17 407.79 102.78 405.02 105.42C403 107.34 401.78 109.02 401.09 110.82C400.4 112.63 401.23 112.63 400.95 114.29C400.68 115.95 393.19 128.43 392.36 129.95C391.53 131.48 389.52 136.14 393.47 139.1C394.57 139.94 395.41 140.35 396.1 140.63C396.1 140.63 397.21 140.35 397.63 139.8C397.7 139.7 397.74 139.64 397.76 139.6C397.77 139.57 397.78 139.57 397.76 139.6C397.71 139.71 397.62 140.12 398.04 140.63C398.73 141.46 399.63 141.4 400.12 141.46C400.86 141.55 402.2 140.91 403.31 139.24C404.42 137.58 405.11 137.02 405.94 136.05C406.77 135.08 411.36 132.94 413.15 129.95C413.57 129.26 414.54 129.54 415.23 130.09C415.93 130.65 419.81 130.79 421.47 128.01C421.47 128.01 422.26 135.31 418.97 140.35C413.57 148.67 404.42 150.75 401.65 158.51L458.49 158.51C458.49 155.83 458.34 153.25 458.09 150.78L456.2 149.78L457.8 148.23L457.77 148.23Z" />
			<path id="Layer" class="shp33" d="M428.49 106.26C428.49 106.26 452.7 124.38 452.7 157.09" />
			<path id="Layer" class="shp34" d="M397.75 139.4C397.77 139.37 397.76 139.37 397.75 139.4Z" />
			<path id="Layer" class="shp33" d="M423.5 118.83C423.96 124 421.56 127.7 421.47 128.02C421.47 128.02 427.29 125.02 427.84 121.05" />
			<path id="Layer" class="shp33" d="M421.46 128.02C421.46 128.02 425.34 129.92 428.21 128.71" />
			<path id="Layer" class="shp34" d="M397.62 139.6C397.62 139.6 400.21 136.27 400.95 134.75" />
			<path id="Layer" class="shp33" d="M413.56 108.89C413.56 108.89 409.3 108.91 407.88 111.25C405.94 114.43 408.15 114.85 408.15 114.85C408.15 114.85 410.37 115.54 411.9 113.46C413.52 111.25 412.17 109.86 412.17 109.86L413.55 108.89L413.56 108.89Z" />
			<path id="Layer" class="shp33" d="M392.91 132.39C394.43 131.97 395.4 132.11 396.1 132.53C396.1 132.53 395.4 130.45 396.65 128.65C397.9 126.84 399.98 126.71 401.78 123.24" />
			<path id="Layer" class="shp33" d="M433.38 110.83L436.02 109.17" />
			<path id="Layer" class="shp33" d="M438.79 116.79L441.43 115.55" />
			<path id="Layer" class="shp33" d="M443.64 123.71L446.69 122.46" />
			<path id="Layer" class="shp33" d="M447.53 131.63L450.71 130.52" />
			<path id="Layer" class="shp33" d="M450.57 140.92L453.9 139.95" />
			<path id="Layer" class="shp33" d="M452.38 150.34L455.84 149.93" />
			<path id="Layer" class="shp15" d="M404.71 18.34C404.71 18.34 405.82 12.38 405.82 11.55C405.82 10.72 406.65 10.58 407.48 11.69C408.31 12.8 412.06 18.21 412.06 18.21L404.71 18.34L404.71 18.34Z" />
			<path id="Layer" class="shp15" d="M454.45 64.07C454.07 61.38 453.56 58.82 452.93 56.38L450.93 55.58L452.27 53.98C451.5 51.4 450.61 48.97 449.64 46.69L447.74 46.15L448.68 44.55C447.66 42.38 446.56 40.35 445.42 38.47L443.65 38.11L444.28 36.65C443.01 34.68 441.7 32.88 440.39 31.25L438.52 31.04L439.02 29.58C437.5 27.79 436.01 26.24 434.64 24.91L432.77 24.8L433.09 23.46C429.75 20.43 427.38 18.96 427.38 18.96L423.13 20.25C423.13 20.25 421.1 19.14 419.43 18.03C419.43 18.03 418.32 14.34 417.96 12.3C417.58 10.27 416.48 11.19 416.11 11.75C415.74 12.3 411.9 16.55 411.9 16.55C411.9 16.55 409.61 16.24 407.97 16.55C405.57 17.02 404.46 18.63 401.69 21.27C399.67 23.19 398.45 24.87 397.76 26.68C397.07 28.48 397.9 28.48 397.62 30.14C397.34 31.8 389.86 44.28 389.03 45.81C388.2 47.33 386.19 51.99 390.14 54.96C391.24 55.79 392.08 56.2 392.77 56.48C392.77 56.48 393.88 56.2 394.29 55.65C394.37 55.55 394.41 55.49 394.42 55.46C394.44 55.42 394.45 55.42 394.42 55.46C394.38 55.56 394.29 55.97 394.71 56.48C395.4 57.31 396.29 57.25 396.79 57.31C397.53 57.41 398.87 56.76 399.98 55.09C401.09 53.43 401.78 52.88 402.61 51.91C403.44 50.94 408.03 48.79 409.82 45.81C410.24 45.11 411.21 45.39 411.9 45.95C412.59 46.5 416.48 46.64 418.14 43.86C418.14 43.86 418.93 51.16 415.64 56.2C410.24 64.52 401.09 66.6 398.32 74.36L455.15 74.36C455.15 71.68 455.01 69.11 454.76 66.63L452.87 65.63L454.5 64.09L454.45 64.07Z" />
			<path id="Layer" class="shp34" d="M425.16 22.1C425.16 22.1 449.37 40.22 449.37 72.94" />
			<path id="Layer" class="shp34" d="M394.42 55.46C394.44 55.42 394.44 55.42 394.42 55.46Z" />
			<path id="Layer" class="shp34" d="M420.17 34.67C420.63 39.84 418.23 43.54 418.14 43.86C418.14 43.86 423.96 40.86 424.51 36.89" />
			<path id="Layer" class="shp34" d="M418.14 43.87C418.14 43.87 422.02 45.77 424.89 44.56" />
			<path id="Layer" class="shp34" d="M394.29 55.65C394.29 55.65 396.88 52.32 397.62 50.8" />
			<path id="Layer" class="shp34" d="M410.24 24.74C410.24 24.74 405.98 24.76 404.56 27.09C402.62 30.28 404.83 30.7 404.83 30.7C404.83 30.7 407.05 31.39 408.58 29.31C410.2 27.1 408.85 25.71 408.85 25.71L410.23 24.74L410.24 24.74Z" />
			<path id="Layer" class="shp34" d="M389.58 48.44C391.11 48.02 392.08 48.16 392.77 48.58C392.77 48.58 392.08 46.5 393.32 44.7C394.57 42.89 396.65 42.76 398.45 39.29" />
			<path id="Layer" class="shp34" d="M430.06 26.68L432.69 25.02" />
			<path id="Layer" class="shp34" d="M435.47 32.64L438.1 31.39" />
			<path id="Layer" class="shp34" d="M440.32 39.56L443.37 38.31" />
			<path id="Layer" class="shp34" d="M444.2 47.47L447.39 46.36" />
			<path id="Layer" class="shp34" d="M447.25 56.76L450.58 55.79" />
			<path id="Layer" class="shp34" d="M449.05 66.19L452.52 65.77" />
			<path id="Layer" class="shp35" d="M507.45 152.57C503.7 145.13 504.08 131.87 504.39 126.73C510.32 126.32 514.59 125.2 514.59 123.87C514.59 122.57 510.48 121.47 504.72 121.04C508.4 119.15 510.92 115.32 510.92 110.89C510.92 104.59 505.81 99.48 499.51 99.48C493.2 99.48 488.09 104.59 488.09 110.89C488.09 115.32 490.61 119.15 494.29 121.04C488.53 121.47 484.42 122.57 484.42 123.87C484.42 125.2 488.69 126.32 494.62 126.73C494.93 131.87 495.31 145.13 491.56 152.57C484.21 154.05 479.05 157.52 479.05 161.56L519.95 161.56C519.95 157.52 514.8 154.05 507.45 152.57L507.45 152.57Z" />
			<path id="Layer" class="shp36" d="M507.45 68.97C503.7 61.52 504.08 48.26 504.39 43.13C510.32 42.72 514.59 41.6 514.59 40.27C514.59 38.97 510.48 37.87 504.72 37.44C508.4 35.55 510.92 31.71 510.92 27.29C510.92 20.99 505.81 15.88 499.51 15.88C493.2 15.88 488.09 20.99 488.09 27.29C488.09 31.71 490.61 35.55 494.29 37.44C488.53 37.87 484.42 38.97 484.42 40.27C484.42 41.6 488.69 42.72 494.62 43.13C494.93 48.26 495.31 61.52 491.56 68.97C484.21 70.45 479.05 73.92 479.05 77.96L519.95 77.96C519.95 73.92 514.8 70.45 507.45 68.97L507.45 68.97Z" />
			<path id="Layer" class="shp15" d="M128.95 18.34C128.95 18.34 127.84 12.38 127.84 11.55C127.84 10.72 127.01 10.58 126.18 11.69C125.35 12.8 121.6 18.21 121.6 18.21L128.94 18.34L128.95 18.34Z" />
			<path id="Layer" class="shp15" d="M79.21 64.07C79.59 61.38 80.1 58.82 80.73 56.38L82.74 55.58L81.4 53.98C82.16 51.4 83.05 48.97 84.02 46.69L85.92 46.15L84.98 44.55C86 42.38 87.1 40.35 88.24 38.47L90.01 38.11L89.38 36.65C90.65 34.68 91.97 32.88 93.27 31.25L95.14 31.04L94.64 29.58C96.16 27.79 97.65 26.24 99.02 24.91L100.9 24.8L100.57 23.46C103.92 20.43 106.28 18.96 106.28 18.96L110.53 20.25C110.53 20.25 112.56 19.14 114.23 18.03C114.23 18.03 115.34 14.34 115.71 12.3C116.08 10.27 117.18 11.19 117.55 11.75C117.92 12.3 121.76 16.55 121.76 16.55C121.76 16.55 124.05 16.24 125.69 16.55C128.09 17.02 129.2 18.63 131.97 21.27C133.99 23.19 135.21 24.87 135.9 26.68C136.59 28.48 135.76 28.48 136.04 30.14C136.32 31.8 143.8 44.28 144.63 45.81C145.47 47.33 147.47 51.99 143.53 54.96C142.42 55.79 141.58 56.2 140.89 56.48C140.89 56.48 139.78 56.2 139.37 55.65C139.29 55.55 139.25 55.49 139.24 55.46C139.22 55.42 139.22 55.42 139.24 55.46C139.28 55.56 139.38 55.97 138.95 56.48C138.26 57.31 137.37 57.25 136.87 57.31C136.13 57.41 134.79 56.76 133.68 55.09C132.57 53.43 131.88 52.88 131.05 51.91C130.22 50.94 125.63 48.79 123.84 45.81C123.42 45.11 122.45 45.39 121.76 45.95C121.07 46.5 117.18 46.64 115.52 43.86C115.52 43.86 114.74 51.16 118.02 56.2C123.42 64.52 132.57 66.6 135.35 74.36L78.48 74.36C78.48 71.68 78.63 69.11 78.88 66.63L80.77 65.63L79.19 64.09L79.21 64.07Z" />
			<path id="Layer" class="shp34" d="M108.5 22.1C108.5 22.1 84.29 40.22 84.29 72.94" />
			<path id="Layer" class="shp34" d="M139.24 55.46C139.22 55.42 139.22 55.42 139.24 55.46Z" />
			<path id="Layer" class="shp34" d="M113.49 34.67C113.03 39.84 115.43 43.54 115.52 43.86C115.52 43.86 109.7 40.86 109.15 36.89" />
			<path id="Layer" class="shp34" d="M115.52 43.87C115.52 43.87 111.64 45.77 108.77 44.56" />
			<path id="Layer" class="shp34" d="M139.37 55.65C139.37 55.65 136.78 52.32 136.04 50.8" />
			<path id="Layer" class="shp34" d="M123.42 24.74C123.42 24.74 127.68 24.76 129.1 27.09C131.04 30.28 128.83 30.7 128.83 30.7C128.83 30.7 126.61 31.39 125.08 29.31C123.46 27.1 124.81 25.71 124.81 25.71L123.43 24.74L123.42 24.74Z" />
			<path id="Layer" class="shp34" d="M144.08 48.44C142.55 48.02 141.58 48.16 140.89 48.58C140.89 48.58 141.58 46.5 140.34 44.7C139.09 42.89 137.01 42.76 135.21 39.29" />
			<path id="Layer" class="shp34" d="M103.6 26.68L100.97 25.02" />
			<path id="Layer" class="shp34" d="M98.19 32.64L95.56 31.39" />
			<path id="Layer" class="shp34" d="M93.34 39.56L90.29 38.31" />
			<path id="Layer" class="shp34" d="M89.46 47.47L86.27 46.36" />
			<path id="Layer" class="shp34" d="M86.41 56.76L83.08 55.79" />
			<path id="Layer" class="shp34" d="M84.61 66.19L81.14 65.77" />
			<path id="Layer" class="shp32" d="M128.9 104.83C128.9 104.83 127.79 98.87 127.79 98.04C127.79 97.2 126.96 97.07 126.13 98.18C125.3 99.29 121.55 104.69 121.55 104.69L128.89 104.82L128.9 104.83Z" />
			<path id="Layer" class="shp32" d="M79.16 150.56C79.54 147.87 80.05 145.31 80.68 142.87L82.69 142.07L81.35 140.47C82.11 137.89 83 135.46 83.97 133.18L85.87 132.64L84.94 131.04C85.96 128.87 87.05 126.84 88.19 124.96L89.96 124.6L89.33 123.14C90.61 121.17 91.92 119.37 93.22 117.74L95.09 117.53L94.59 116.07C96.12 114.28 97.6 112.73 98.97 111.4L100.85 111.29L100.52 109.95C103.87 106.92 106.23 105.45 106.23 105.45L110.48 106.74C110.48 106.74 112.52 105.63 114.18 104.52C114.18 104.52 115.29 100.83 115.66 98.79C116.03 96.76 117.14 97.69 117.51 98.24C117.88 98.79 121.71 103.05 121.71 103.05C121.71 103.05 124.01 102.73 125.64 103.05C128.04 103.51 129.15 105.13 131.92 107.76C133.95 109.68 135.16 111.36 135.85 113.17C136.54 114.97 135.71 114.97 135.99 116.63C136.27 118.3 143.75 130.77 144.59 132.3C145.42 133.82 147.43 138.49 143.48 141.45C142.37 142.28 141.53 142.69 140.84 142.97C140.84 142.97 139.73 142.69 139.32 142.14C139.24 142.04 139.21 141.98 139.19 141.95C139.17 141.91 139.17 141.91 139.19 141.95C139.23 142.06 139.33 142.46 138.9 142.97C138.21 143.8 137.32 143.74 136.82 143.8C136.08 143.9 134.74 143.25 133.63 141.59C132.52 139.92 131.83 139.37 131 138.4C130.17 137.43 125.58 135.28 123.79 132.3C123.37 131.6 122.4 131.88 121.71 132.44C121.02 132.99 117.14 133.13 115.47 130.36C115.47 130.36 114.69 137.65 117.97 142.69C123.37 151.01 132.52 153.09 135.3 160.85L78.43 160.85C78.43 158.17 78.57 155.6 78.82 153.12L80.71 152.12L79.13 150.56L79.16 150.56Z" />
			<path id="Layer" class="shp33" d="M108.45 108.59C108.45 108.59 84.24 126.71 84.24 159.42" />
			<path id="Layer" class="shp34" d="M139.19 141.73C139.17 141.7 139.17 141.7 139.19 141.73Z" />
			<path id="Layer" class="shp33" d="M113.44 121.16C112.98 126.33 115.38 130.03 115.47 130.35C115.47 130.35 109.65 127.35 109.1 123.38" />
			<path id="Layer" class="shp33" d="M115.47 130.35C115.47 130.35 111.59 132.25 108.72 131.04" />
			<path id="Layer" class="shp34" d="M139.32 141.93C139.32 141.93 136.73 138.6 135.99 137.08" />
			<path id="Layer" class="shp33" d="M123.37 111.22C123.37 111.22 127.63 111.24 129.05 113.58C131 116.77 128.78 117.18 128.78 117.18C128.78 117.18 126.56 117.87 125.03 115.79C123.41 113.58 124.76 112.19 124.76 112.19L123.38 111.22L123.37 111.22Z" />
			<path id="Layer" class="shp33" d="M144.03 134.72C142.5 134.3 141.53 134.44 140.84 134.86C140.84 134.86 141.53 132.78 140.29 130.98C139.04 129.17 136.96 129.04 135.16 125.57" />
			<path id="Layer" class="shp33" d="M103.55 113.17L100.92 111.5" />
			<path id="Layer" class="shp33" d="M98.14 119.13L95.51 117.88" />
			<path id="Layer" class="shp33" d="M93.29 126.04L90.24 124.79" />
			<path id="Layer" class="shp33" d="M89.41 133.96L86.22 132.85" />
			<path id="Layer" class="shp33" d="M86.36 143.25L83.03 142.28" />
			<path id="Layer" class="shp33" d="M84.56 152.67L81.09 152.26" />
		</g>
	</g>
</svg>